<?xml version="1.0" encoding="UTF-8"?>
<svg width="140px" height="131px" viewBox="0 0 140 131" version="1.1" xmlns="http://www.w3.org/2000/svg" xmlns:xlink="http://www.w3.org/1999/xlink">
    <!-- Generator: Sketch 42 (36781) - http://www.bohemiancoding.com/sketch -->
    <title>Page 1</title>
    <desc>Created with Sketch.</desc>
    <defs>
        <polygon id="path-1" points="0 130.172358 139.729506 130.172358 139.729506 0 0 0"></polygon>
    </defs>
    <g id="Page-1" stroke="none" stroke-width="1" fill="none" fill-rule="evenodd">
        <g id="01.-Landing_Page_Updated" transform="translate(-650.000000, -1997.000000)">
            <g id="Page-1" transform="translate(650.000000, 1997.000000)">
                <path d="M98.918037,52.6764013 C101.591864,57.1434146 109.838901,80.3668517 109.155321,85.001302 C108.524457,89.2687788 88.6271728,102.69064 88.6271728,102.69064 L84.9595185,93.1449907 C84.9595185,93.1449907 97.1049506,84.4877126 97.8274198,82.4272821 C98.5490247,80.3668517 90.9847037,64.7500901 90.9847037,64.7500901 L93.0855679,54.4366596 L98.918037,52.6764013 Z" id="Fill-1" fill="#5D7C5D"></path>
                <path d="M43.0737654,52.6764013 C40.3999383,57.1434146 32.1529012,80.3668517 32.8373457,85.001302 C33.4673457,89.2687788 53.3646296,102.69064 53.3646296,102.69064 L57.032284,93.1449907 C57.032284,93.1449907 44.8868519,84.4877126 44.1643827,82.4272821 C43.4427778,80.3668517 51.0070988,64.7500901 51.0070988,64.7500901 L48.9062346,54.4366596 L43.0737654,52.6764013 Z" id="Fill-3" fill="#5D7C5D"></path>
                <polygon id="Fill-5" fill="#EED7BA" points="63.7307654 46.1508662 70.9978025 46.1508662 78.2648395 46.1508662 93.0858272 49.3287007 86.8929877 91.456045 70.9978025 91.456045 55.1026173 91.456045 48.910642 49.3287007"></polygon>
                <mask id="mask-2" fill="white">
                    <use xlink:href="#path-1"></use>
                </mask>
                <g id="Clip-8"></g>
                <polygon id="Fill-7" fill="#EED7BA" mask="url(#mask-2)" points="63.7311111 48.8430464 78.2565432 48.8430464 78.2565432 36.7485364 63.7311111 36.7485364"></polygon>
                <path d="M64.6055062,4.9587404 C64.6055062,7.6975947 67.4677284,9.91678675 70.9979753,9.91678675 C74.5282222,9.91678675 77.3904444,7.6975947 77.3904444,4.9587404 C77.3904444,2.21988609 74.5282222,-0.000173509934 70.9979753,-0.000173509934 C67.4677284,-0.000173509934 64.6055062,2.21988609 64.6055062,4.9587404" id="Fill-9" fill="#BC8867" mask="url(#mask-2)"></path>
                <path d="M56.2849259,20.8217126 C56.2849259,29.8789311 62.8718395,37.221004 70.9978889,37.221004 C79.1239383,37.221004 85.7108519,29.8789311 85.7108519,20.8217126 C85.7108519,11.764494 79.1239383,4.42242119 70.9978889,4.42242119 C62.8718395,4.42242119 56.2849259,11.764494 56.2849259,20.8217126" id="Fill-10" fill="#966B4E" mask="url(#mask-2)"></path>
                <path d="M58.7134074,24.3280013 C58.7134074,30.9474053 61.1366173,36.7348291 64.7524198,39.8788291 C66.5784691,41.4681801 68.717358,42.3860477 70.9945185,42.3860477 C73.271679,42.3860477 75.4105679,41.4759881 77.2366173,39.8788291 C80.8601975,36.7435046 83.2825432,30.9560808 83.2825432,24.3280013 C83.2825432,24.3280013 73.4972346,19.3656172 68.3025432,11.2410146 C68.3025432,11.2410146 65.7272346,19.8661934 58.7134074,24.3280013" id="Fill-11" fill="#EED7BA" mask="url(#mask-2)"></path>
                <path d="M77.2366173,39.8789159 C77.2366173,39.8789159 77.0508148,39.9951675 76.7250123,40.1990417 C76.4069877,40.4081212 75.9290864,40.6640483 75.3578519,40.9399291 C74.7822963,41.2071344 74.1013086,41.4734722 73.3563704,41.6652007 C72.6140247,41.8508563 71.7956296,41.9679755 71.0022963,41.9610351 C70.5710617,41.9601675 70.191679,41.9376113 69.7898272,41.8855583 C69.3948889,41.8222272 69.0051358,41.7641013 68.6326667,41.6634656 C67.8877284,41.4717371 67.2067407,41.2062669 66.6311852,40.9390616 C66.0599506,40.6623132 65.5829136,40.4081212 65.2631605,40.1981742 C64.9382222,39.9951675 64.7515556,39.8789159 64.7515556,39.8789159 C64.7515556,39.8789159 64.8993333,40.0567636 65.1845185,40.335247 C65.4714321,40.6085252 65.8888395,41.0015252 66.4471111,41.3771742 C67.0027901,41.7554258 67.6941481,42.125002 68.4745185,42.3887371 C68.866,42.5171344 69.2764938,42.631651 69.6999506,42.6993199 C70.1190864,42.7652536 70.5779753,42.8025583 70.9867407,42.8103662 C71.8725432,42.7999556 72.7306914,42.658545 73.5136543,42.3878695 C74.2940247,42.1232669 74.9853827,41.7536907 75.5410617,41.3754391 C76.0993333,40.9997901 76.5158765,40.6085252 76.8045185,40.3343795 C77.0888395,40.0567636 77.2366173,39.8789159 77.2366173,39.8789159" id="Fill-12" fill="#E8C8A1" mask="url(#mask-2)"></path>
                <path d="M81.603321,51.9654444 C79.6122099,51.9654444 71.0013457,52.4191728 71.0013457,52.4191728 L71.0013457,130.172444 L88.0485062,128.688934 C88.0485062,128.688934 87.566284,95.0540338 87.2992469,91.4580404 C87.0330741,87.862047 92.2156667,63.9792722 92.2156667,63.9792722 L98.9183827,52.6759675 C96.8036914,49.6473517 94.6898642,49.3896894 93.5914691,48.8431331 C92.5034444,48.2974444 84.0973951,46.8139344 84.0973951,46.8139344 C84.0973951,46.8139344 83.5840617,51.9654444 81.603321,51.9654444" id="Fill-13" fill="#9EBEA0" mask="url(#mask-2)"></path>
                <path d="M54.6922099,91.4584742 C54.4251728,95.0544675 53.953321,128.688501 53.953321,128.688501 L70.9909753,130.172011 L71.0013457,52.4187391 C71.0013457,52.4187391 62.3896173,51.9658781 60.3985062,51.9658781 C58.4073951,51.9658781 57.8940617,46.8135007 57.8940617,46.8135007 C57.8940617,46.8135007 49.4888765,48.2970106 48.4008519,48.8435669 C47.3128272,49.3892556 45.1877654,49.6469179 43.0739383,52.6764013 L49.7757901,63.9788384 C49.7757901,63.9788384 54.9592469,87.8624808 54.6922099,91.4584742" id="Fill-14" fill="#9EBEA0" mask="url(#mask-2)"></path>
                <path d="M78.2566296,42.8101927 C78.2566296,42.8101927 76.3588519,64.8607026 76.3588519,72.8456298 L76.3588519,105.043868 L90.8557654,104.621372 C90.8557654,104.621372 90.0866296,88.7599609 90.2145309,83.1859543 C90.3432963,77.6110801 92.2160123,63.9792722 92.2160123,63.9792722 L98.9178642,52.6759675 C98.9178642,52.6759675 97.8661358,48.1499609 84.0977407,46.8139344 L78.2566296,42.8101927 Z" id="Fill-15" fill="#446644" mask="url(#mask-2)"></path>
                <path d="M76.3588519,72.8458033 L76.3588519,77.6112536 L85.9808272,60.2880219 L82.0677407,57.1978099 L84.5695926,55.8453 L84.0977407,46.8132404 L78.2566296,42.8103662 C78.2566296,42.8103662 76.3588519,64.8608762 76.3588519,72.8458033" id="Fill-16" fill="#5D7C5D" mask="url(#mask-2)"></path>
                <path d="M63.731716,42.8101927 C63.731716,42.8101927 65.6294938,64.8607026 65.6294938,72.8456298 L65.6294938,105.043868 L51.1325802,104.621372 C51.1325802,104.621372 51.901716,88.7599609 51.7738148,83.1859543 C51.6450494,77.6110801 49.7723333,63.9792722 49.7723333,63.9792722 L43.0704815,52.6759675 C43.0704815,52.6759675 44.1222099,48.1499609 57.8906049,46.8139344 L63.731716,42.8101927 Z" id="Fill-17" fill="#446644" mask="url(#mask-2)"></path>
                <path d="M65.6294938,72.8458033 L65.6294938,77.6112536 L56.0075185,60.2880219 L59.9206049,57.1978099 L57.4187531,55.8453 L57.8906049,46.8132404 L63.731716,42.8103662 C63.731716,42.8103662 65.6294938,64.8608762 65.6294938,72.8458033" id="Fill-18" fill="#5D7C5D" mask="url(#mask-2)"></path>
                <polygon id="Fill-19" fill="#BEB4A5" mask="url(#mask-2)" points="0 107.887609 139.729506 107.887609 139.729506 93.1453377 0 93.1453377"></polygon>
                <path d="M98.5405556,56.425604 L46.6973457,56.425604 C45.963642,56.425604 45.3682099,57.0233457 45.3682099,57.7598954 L45.3682099,91.8103523 C45.3682099,92.5477695 45.963642,93.1455113 46.6973457,93.1455113 L98.5405556,93.1455113 C99.2751235,93.1455113 99.8696914,92.5477695 99.8696914,91.8103523 L99.8696914,57.7598954 C99.8696914,57.0233457 99.2751235,56.425604 98.5405556,56.425604" id="Fill-20" fill="#D8D0BC" mask="url(#mask-2)"></path>
                <polygon id="Fill-21" fill="#966B4E" mask="url(#mask-2)" points="8.63592593 130.172358 14.4122222 130.172358 14.4122222 107.887609 8.63592593 107.887609"></polygon>
                <polygon id="Fill-22" fill="#966B4E" mask="url(#mask-2)" points="125.317284 130.172358 131.09358 130.172358 131.09358 107.887609 125.317284 107.887609"></polygon>
                <polygon id="Fill-23" fill="#BC8867" mask="url(#mask-2)" points="14.4130864 130.172358 125.317284 130.172358 125.317284 107.887609 14.4130864 107.887609"></polygon>
                <path d="M70.5599136,78.3661954 L74.678679,78.3661954 L76.7371975,74.7858179 L74.678679,71.2045728 L70.5599136,71.2045728 L68.5005309,74.7858179 L70.5599136,78.3661954 Z M75.1781852,79.233745 L70.0604074,79.233745 L67.5032469,74.7858179 L70.0604074,70.3370232 L75.1781852,70.3370232 L77.7353457,74.7858179 L75.1781852,79.233745 Z" id="Fill-24" fill="#F9F9F8" mask="url(#mask-2)"></path>
            </g>
        </g>
    </g>
</svg>