<?xml version="1.0" encoding="UTF-8"?>
<svg width="199px" height="204px" viewBox="0 0 199 204" version="1.1" xmlns="http://www.w3.org/2000/svg" xmlns:xlink="http://www.w3.org/1999/xlink">
    <!-- Generator: Sketch 42 (36781) - http://www.bohemiancoding.com/sketch -->
    <title>Page 1</title>
    <desc>Created with Sketch.</desc>
    <defs></defs>
    <g id="Page-1" stroke="none" stroke-width="1" fill="none" fill-rule="evenodd">
        <g id="01.-Landing_Page_Updated" transform="translate(-227.000000, -862.000000)">
            <g id="Page-1" transform="translate(326.500000, 964.000000) scale(-1, 1) translate(-326.500000, -964.000000) translate(227.000000, 862.000000)">
                <path d="M130.319549,50.4053915 C132.129874,49.2180703 138.276671,48.59824 139.869494,53.1554764 C141.180262,56.9053673 138.521721,62.0024824 137.372948,64.9157673 C136.357801,67.4907006 133.300438,73.4747006 140.224322,75.7842279 C135.641977,77.2006885 128.696713,76.4675248 129.320849,67.8426521 C129.944985,59.2177794 130.319549,50.4053915 130.319549,50.4053915 Z" id="Fill-1" fill="#2C3E47"></path>
                <path d="M120.060853,73.4398352 C119.942439,73.79632 122.312349,78.4285624 118.046594,80.5662352 C113.780429,82.70432 120.611803,93.39392 120.611803,93.39392 C120.611803,93.39392 136.176563,81.2787927 132.384462,79.3785018 C128.592772,77.4782109 128.592772,76.5278594 128.829599,69.6388412 C129.066425,62.7502352 120.060853,73.4398352 120.060853,73.4398352" id="Fill-3" fill="#E5C7A4"></path>
                <path d="M114.65237,52.4377673 L113.225655,52.3833673 C111.656269,54.3751491 109.692171,59.3750036 111.828955,62.0624461 C113.965738,64.7498885 116.712267,55.6877552 116.712267,55.6877552 L114.65237,52.4377673 Z" id="Fill-5" fill="#3A4D57"></path>
                <polygon id="Fill-7" fill="#BCB5A5" points="124.812224 159.364223 85.5833215 159.364223 87.0359393 144.507253 106.779288 138.41775 106.652652 131.354817 109.852687 95.1845867 134.473181 89.7046109 143.26783 100.236368 143.26783 148.185847 129.525729 151.610987"></polygon>
                <path d="M143.30286,99.6611297 C142.904038,107.122172 139.86641,124.630318 142.085836,147.970802 C129.072305,148.091966 122.275468,145.669518 122.275468,157.155748 C122.985536,160.050899 128.002063,161.157445 128.426377,153.845178 L143.30286,153.845178 C145.560524,153.514245 145.350011,149.713251 144.339387,142.721202 C143.329174,135.729154 144.278125,114.687481 146.213852,106.741784 C148.14999,98.7964994 143.30286,99.6611297 143.30286,99.6611297" id="Fill-9" fill="#D7D0BD"></path>
                <path d="M114.429852,54.0167685 C112.315682,57.5445261 109.892323,68.0066352 117.604806,76.5012776 C120.010897,78.1967442 125.330858,76.9620291 128.781699,71.1148533 C129.35773,70.1389503 130.981389,69.6402836 131.431195,68.3989745 C131.431195,68.3989745 132.855854,66.3255927 133.051976,65.2231685 C134.290381,58.2574958 130.496635,52.6056655 130.496635,52.6056655 L114.429852,54.0167685 Z" id="Fill-11" fill="#EFD7BA"></path>
                <path d="M106.184426,96.636737 L100.359154,113.68001 L88.7086083,114.784907 C88.7086083,114.784907 84.3001826,119.843695 94.533881,119.602604 C104.767579,119.361101 106.3419,120.308155 107.91622,115.573707 C109.96296,107.841076 113.175329,98.2147491 113.175329,98.2147491 L106.184426,96.636737 Z" id="Fill-13" fill="#EFD7BA"></path>
                <path d="M113.225778,52.3834497 C113.163694,55.372977 117.595966,61.486383 127.175103,63.2300679 C128.556179,63.9327345 128.598528,65.3685648 128.598528,65.3685648 C128.680349,62.9696073 130.42571,63.0421406 131.038334,63.8033285 C132.698175,65.8651709 130.60333,69.1242255 129.525687,69.2701164 C129.27077,70.3033042 128.781082,71.1147709 128.781082,71.1147709 C131.141535,70.2381891 135.494454,66.8328315 134.685708,58.3002739 C133.876962,49.7677164 125.192915,46.9591103 118.637427,49.2072315 C115.549227,50.2659709 113.225778,52.3834497 113.225778,52.3834497" id="Fill-15" fill="#3A4D58"></path>
                <path d="M119.008907,79.95984 C115.409228,81.0911127 112.460821,82.3394279 110.520982,83.4113552 C107.794188,84.9184824 103.673162,98.7764703 103.673162,98.7764703 C103.673162,98.7764703 108.16793,101.961343 111.558331,101.433416 C116.510717,100.662749 119.008907,79.95984 119.008907,79.95984" id="Fill-17" fill="#FABD68"></path>
                <polygon id="Fill-19" fill="#BCB5A5" points="79.479161 200.616148 76.5443221 200.616148 78.2757043 152.274742 81.2105432 152.274742"></polygon>
                <path d="M110.521146,94.3863903 C109.435692,99.3540994 109.435692,101.549057 112.31708,105.938972 C112.547739,108.13393 112.874198,129.39073 110.521146,131.354899 C125.802208,131.239093 137.70356,130.777105 137.70356,130.777105 C136.290413,123.730245 136.905915,103.971093 138.604405,98.6567903 C139.28857,100.046463 140.670057,102.819627 140.670057,102.819627 C141.987816,102.019287 146.002353,98.7618812 149.199099,98.6609115 C145.395485,88.7254933 143.863925,82.0252267 137.70356,80.3598448 C134.325493,79.4461721 130.861084,78.5238448 130.861084,78.5238448 C130.64276,81.7940267 126.045202,87.5311661 122.275714,89.016863 C118.106993,87.1598448 119.009072,79.9596752 119.009072,79.9596752 L112.662863,86.1839418 L110.521146,94.3863903 Z" id="Fill-21" fill="#FABD68"></path>
                <path d="M141.020117,102.593949 L144.564701,112.523598 L129.270893,115.849004 C129.270893,115.849004 122.774612,113.129416 119.008825,114.308907 C115.243449,115.488398 112.321356,119.71841 115.028003,119.600543 C117.73465,119.482676 145.623842,119.604252 148.566081,119.602604 C151.390319,117.831307 154.096555,116.651816 151.50791,108.277101 C148.918854,99.9023855 148.149579,98.7962521 148.149579,98.7962521 C148.149579,98.7962521 146.62172,99.0558885 144.693805,100.210652 C142.7663,101.365416 141.020117,102.593949 141.020117,102.593949" id="Fill-23" fill="#EFD7BA"></path>
                <polygon id="Fill-25" fill="#BCB5A5" points="96.5679159 200.616148 99.5027548 200.616148 97.7713725 152.274742 94.8365337 152.274742"></polygon>
                <path d="M105.814221,116.836281 L70.2326917,116.836281 L65.7909624,84.5226812 C65.5590698,82.8342206 66.8677826,81.3291539 68.5683281,81.3291539 L96.1594314,81.3291539 C98.8956814,81.3291539 101.211729,83.3530812 101.58506,86.0697842 L105.814221,116.836281 Z" id="Fill-27" fill="#D6CFBC"></path>
                <polygon id="Fill-29" fill="#BCB5A5" points="70.2326095 119.602521 105.814138 119.602521 105.814138 116.836364 70.2326095 116.836364"></polygon>
                <path d="M123.799504,119.60248 L105.814262,119.60248 L105.814262,116.836322 L123.799504,116.836322 C124.561377,116.836322 125.179346,117.455741 125.179346,118.219401 C125.179346,118.983062 124.561377,119.60248 123.799504,119.60248" id="Fill-31" fill="#D6CFBC"></path>
                <path d="M97.7594901,183.426044 C97.6961719,188.182335 94.5327298,194.904856 94.5327298,194.904856 L100.469837,197.968153 L104.023056,194.334068 L102.964738,192.054625 L104.312511,186.717244 L97.7594901,183.426044 Z" id="Fill-32" fill="#EFD7BA"></path>
                <path d="M94.5259045,193.814507 C96.8760781,193.727137 99.0153281,195.559428 99.0153281,195.559428 C101.054256,195.297731 104.004719,195.180276 102.964491,192.054337 C103.665514,191.022385 104.623099,192.50561 105.145268,194.51264 C105.667438,196.519258 106.450692,200.881561 106.450692,200.881561 L84.0804603,200.881561 C84.8641256,199.22401 86.9532145,198.282725 89.651638,197.968276 C92.523981,196.431888 94.5259045,193.814507 94.5259045,193.814507" id="Fill-33" fill="#966A4E"></path>
                <path d="M70.4589514,181.962189 C69.4873874,187.313583 65.8322014,194.866528 65.8322014,194.866528 L71.9132138,197.968153 L73.4233936,196.299474 L75.3089597,194.218262 L74.4081147,192.054625 L76.5440754,185.709195 L70.4589514,181.962189 Z" id="Fill-34" fill="#EFD7BA"></path>
                <path d="M65.9693634,193.814507 C68.319537,193.727137 70.458787,195.559428 70.458787,195.559428 C72.4977147,195.297731 75.4481775,195.180276 74.4079502,192.054337 C75.1089729,191.022385 76.0665576,192.50561 76.5887271,194.51264 C77.1108965,196.519258 77.8941506,200.881561 77.8941506,200.881561 L55.5239192,200.881561 C56.3075845,199.22401 58.3966733,198.282725 61.0950969,197.968276 C63.9674399,196.431888 65.9693634,193.814507 65.9693634,193.814507" id="Fill-35" fill="#966A4E"></path>
                <path d="M116.281292,130.524022 C116.281292,130.524022 91.0107587,129.892652 84.6583826,133.799973 C80.3757711,135.937234 76.3345087,157.618931 69.9221037,183.262349 C71.7398289,182.878252 75.4172174,185.083925 77.1292752,185.95144 C90.8027132,160.049622 91.0683207,153.329161 91.4046471,147.798082 C96.4380314,147.647246 106.450938,147.587076 106.450938,147.587076 L116.281292,130.524022 Z" id="Fill-36" fill="#3A4C56"></path>
                <path d="M184.560905,125.898621 L43.5122545,125.898621 C41.78005,125.898621 40.3755376,124.491227 40.3755376,122.754548 L40.3755376,122.754548 C40.3755376,121.018281 41.78005,119.610887 43.5122545,119.610887 L184.560905,119.610887 C186.29311,119.610887 187.697622,121.018281 187.697622,122.754548 L187.697622,122.754548 C187.697622,124.491227 186.29311,125.898621 184.560905,125.898621" id="Fill-37" fill="#CEAD87"></path>
                <path d="M137.719101,129.508473 C137.719101,129.508473 103.200002,129.153224 100.298878,134.577152 C97.3977541,140.001079 98.2402149,148.201879 97.8705847,156.797491 C97.2929091,170.217394 96.8225455,185.594873 96.8225455,185.594873 C96.8225455,185.594873 101.984622,185.162558 104.88369,187.166703 C111.981905,164.859406 109.852523,153.844642 109.852523,147.819018 C122.764087,147.484376 136.012388,149.604327 138.263473,143.887794 C140.907213,137.174339 137.719101,129.508473 137.719101,129.508473" id="Fill-38" fill="#4F5962"></path>
                <path d="M144.185162,125.898621 L3.13651136,125.898621 C1.40430682,125.898621 -0.000205578512,124.491227 -0.000205578512,122.754548 L-0.000205578512,122.754548 C-0.000205578512,121.018281 1.40430682,119.610887 3.13651136,119.610887 L144.185162,119.610887 C145.917367,119.610887 147.321879,121.018281 147.321879,122.754548 L147.321879,122.754548 C147.321879,124.491227 145.917367,125.898621 144.185162,125.898621" id="Fill-39" fill="#936F53"></path>
                <polygon id="Fill-40" fill="#70513A" points="178.162439 203.819903 182.240705 203.819903 176.123511 125.898497 172.045244 125.898497"></polygon>
                <polygon id="Fill-41" fill="#70513A" points="157.007258 203.819903 161.085525 203.819903 154.968331 125.898497 150.890064 125.898497"></polygon>
                <polygon id="Fill-42" fill="#70513A" points="7.70479483 203.819903 3.62652831 203.819903 9.74372252 125.898497 13.821989 125.898497"></polygon>
                <polygon id="Fill-43" fill="#70513A" points="28.8600161 203.819903 24.7817496 203.819903 30.8989438 125.898497 34.9772103 125.898497"></polygon>
                <path d="M144.992592,156.261981 C144.935853,154.648526 143.614394,153.370126 142.003892,153.370126 L128.976382,153.370126 C126.966235,153.370126 125.317084,154.965859 125.245954,156.979484 L123.65272,202.281496 L126.587559,202.281496 L128.234243,157.828041 C128.255623,157.25272 128.72722,156.797738 129.301196,156.797738 L140.809481,156.797738 C141.540929,156.797738 142.141218,157.378417 142.165888,158.111168 L143.676479,202.281496 L146.611318,202.281496 L144.992592,156.261981 Z" id="Fill-44" fill="#BDB4A5"></path>
                <path d="M198.990256,60.2984436 C198.990256,70.8520436 190.455047,79.4072679 179.926138,79.4072679 C169.396818,79.4072679 160.861609,70.8520436 160.861609,60.2984436 C160.861609,49.7448436 169.396818,41.1896194 179.926138,41.1896194 C190.455047,41.1896194 198.990256,49.7448436 198.990256,60.2984436" id="Fill-45" fill="#BDB4A5"></path>
                <path d="M145.133002,13.6945406 C145.133002,21.2577891 139.016219,27.3889164 131.470666,27.3889164 C123.925112,27.3889164 117.808329,21.2577891 117.808329,13.6945406 C117.808329,6.13129212 123.925112,0.000164848485 131.470666,0.000164848485 C139.016219,0.000164848485 145.133002,6.13129212 145.133002,13.6945406" id="Fill-46" fill="#CEAD89"></path>
                <path d="M46.6267279,72.5768121 C46.6267279,80.1400606 40.5099448,86.2711879 32.9643911,86.2711879 C25.4188374,86.2711879 19.3020543,80.1400606 19.3020543,72.5768121 C19.3020543,65.0135636 25.4188374,58.8824364 32.9643911,58.8824364 C40.5099448,58.8824364 46.6267279,65.0135636 46.6267279,72.5768121" id="Fill-47" fill="#CEAD89"></path>
                <path d="M95.1986808,34.2389479 C95.1986808,43.9835539 87.3176229,51.8835055 77.5954039,51.8835055 C67.8735961,51.8835055 59.9925382,43.9835539 59.9925382,34.2389479 C59.9925382,24.4943418 67.8735961,16.5943903 77.5954039,16.5943903 C87.3176229,16.5943903 95.1986808,24.4943418 95.1986808,34.2389479" id="Fill-48" fill="#D8D0BD"></path>
                <path d="M119.997946,65.7591733 C119.641061,65.7591733 119.304735,65.9079491 119.097923,66.1572824 C118.932638,66.3571612 118.866442,66.5994885 118.911258,66.8405794 L119.028026,67.9009673 C119.122592,68.4029309 119.639828,68.7800218 120.255741,68.7800218 L123.383824,68.7779612 C124.053187,68.7779612 124.61565,68.3679006 124.721729,67.8024703 L124.789158,66.682737 C124.829863,66.4564824 124.775179,66.2561915 124.638675,66.091343 C124.466811,65.8832218 124.18558,65.7591733 123.88708,65.7591733 L119.997946,65.7591733 Z M120.255741,69.2374764 L120.255741,69.2374764 C119.42027,69.2374764 118.714313,68.7033673 118.576987,67.9677309 L118.460218,66.9077552 C118.392377,66.5475612 118.493111,66.1712945 118.746795,65.8650885 C119.04365,65.5073673 119.499623,65.3017188 119.997946,65.3017188 L123.88708,65.3017188 C124.326607,65.3017188 124.728307,65.4830521 124.990214,65.7995612 C125.214706,66.0711491 125.303927,66.4049673 125.241431,66.7391976 L125.174001,67.8589309 C125.023929,68.668337 124.272745,69.2354158 123.384235,69.2354158 L120.255741,69.2374764 Z" id="Fill-49" fill="#3A4D58"></path>
                <path d="M112.484956,65.7568242 C112.128071,65.7568242 111.791334,65.9056 111.584933,66.1549333 C111.419648,66.3548121 111.353451,66.5971394 111.398679,66.8378182 L111.593567,67.8813091 C111.6906,68.4009939 112.207836,68.7780848 112.823749,68.7780848 L115.349075,68.7780848 C116.009394,68.7780848 116.5661,68.3779152 116.682458,67.8240242 L116.666834,66.6750303 L116.670945,66.6523636 C116.708361,66.4541333 116.653677,66.2538424 116.517173,66.0889939 C116.345309,65.8808727 116.064077,65.7568242 115.765577,65.7568242 L112.484956,65.7568242 Z M115.349075,69.2355394 L112.823749,69.2355394 C111.988278,69.2355394 111.282321,68.7014303 111.144995,67.9653818 L110.950106,66.922303 C110.879799,66.5456242 110.980532,66.1693576 111.233805,65.8631515 C111.530249,65.5050182 111.986222,65.2993697 112.484956,65.2993697 L115.765577,65.2993697 C116.205104,65.2993697 116.606805,65.480703 116.868712,65.7972121 C117.087858,66.0622061 117.178313,66.3865455 117.12404,66.7129455 L117.139253,67.8648242 L117.135142,67.8870788 C116.987947,68.6684606 116.237175,69.2355394 115.349075,69.2355394 L115.349075,69.2355394 Z" id="Fill-50" fill="#3A4D58"></path>
                <path d="M117.033586,67.0073648 L116.756877,66.6438739 C116.794292,66.6150255 117.133086,66.3623952 117.481747,66.3351952 C118.51704,66.2552436 118.81883,66.6232679 118.86858,66.6978618 L118.496894,66.9628558 C118.495249,66.9612073 118.288437,66.7308315 117.517106,66.7914133 C117.334964,66.8054255 117.106361,66.9521406 117.033586,67.0073648" id="Fill-51" fill="#3A4D58"></path>
                <polygon id="Fill-52" fill="#3A4D58" points="128.575709 64.2654812 125.127746 65.624657 124.601054 65.624657 125.147071 66.5057721 128.646428 64.5617964"></polygon>
                <polygon id="Fill-53" fill="#3A4D58" points="112.399928 64.6637552 110.937032 65.860143 110.937032 66.7783491 111.176325 66.5895976 111.191949 66.1197794 112.414319 64.8508582"></polygon>
                <path d="M49.8064519,110.166635 L46.6508217,110.166635 L46.6508217,113.475556 L48.798706,113.475556 C48.7637576,112.367775 49.2057514,111.128114 49.8064519,110.166635" id="Fill-54" fill="#D4DFE5"></path>
                <path d="M58.891213,110.166635 L49.8062874,110.166635 C49.2059981,111.128114 48.7635932,112.367775 48.7989527,113.475556 L58.891213,113.475556 L58.891213,110.166635 Z" id="Fill-55" fill="#FFFFFF"></path>
                <polygon id="Fill-56" fill="#C4E9FB" points="45.9472087 110.978714 58.8912541 110.978714 58.8912541 110.786424 45.9472087 110.786424"></polygon>
                <polygon id="Fill-57" fill="#C4E9FB" points="45.9472087 111.610496 58.8912541 111.610496 58.8912541 111.418206 45.9472087 111.418206"></polygon>
                <polygon id="Fill-58" fill="#C4E9FB" points="45.9472087 112.241822 58.8912541 112.241822 58.8912541 112.049988 45.9472087 112.049988"></polygon>
                <polygon id="Fill-59" fill="#C4E9FB" points="45.9472087 112.873647 58.8912541 112.873647 58.8912541 112.681358 45.9472087 112.681358"></polygon>
                <path d="M47.0457791,111.65497 C47.0457791,109.958679 48.0494134,109.199964 49.0707275,109.199964 L45.9714258,109.199964 C44.8789816,110.548836 45.429932,112.768521 46.3172089,114.442558 L49.0707275,114.442558 C48.0494134,114.442558 47.0457791,113.740303 47.0457791,111.65497" id="Fill-60" fill="#AF8168"></path>
                <path d="M45.9715081,109.19984 L36.4840597,109.19984 C35.4631568,109.19984 34.6350866,110.02944 34.6350866,111.052737 L34.6350866,112.589125 C34.6350866,113.612834 35.4631568,114.442434 36.4840597,114.442434 L46.31688,114.442434 C45.4300143,112.768398 44.8786527,110.548713 45.9715081,109.19984" id="Fill-61" fill="#293763"></path>
                <path d="M59.5283831,113.958768 C59.5283831,113.692126 59.3121145,113.47535 59.0460959,113.47535 L47.1332322,113.47535 C46.8668025,113.47535 46.650945,113.692126 46.650945,113.958768 C46.650945,114.225823 46.8668025,114.442599 47.1332322,114.442599 L59.0460959,114.442599 C59.3121145,114.442599 59.5283831,114.225823 59.5283831,113.958768" id="Fill-62" fill="#AF8168"></path>
                <path d="M59.5283831,109.68297 C59.5283831,109.416327 59.3121145,109.199964 59.0460959,109.199964 L47.1332322,109.199964 C46.8668025,109.199964 46.650945,109.416327 46.650945,109.68297 C46.650945,109.950024 46.8668025,110.1668 47.1332322,110.1668 L59.0460959,110.1668 C59.3121145,110.1668 59.5283831,109.950024 59.5283831,109.68297" id="Fill-63" fill="#AF8168"></path>
                <path d="M52.216161,115.40857 L49.0601196,115.40857 L49.0601196,118.717079 L51.2084151,118.717079 C51.1730556,117.609709 51.6158717,116.369636 52.216161,115.40857" id="Fill-64" fill="#D4DFE5"></path>
                <path d="M61.3003465,115.40857 L52.2162432,115.40857 C51.6155428,116.369636 51.1731378,117.609709 51.2084973,118.717079 L61.3003465,118.717079 L61.3003465,115.40857 Z" id="Fill-65" fill="#FFFFFF"></path>
                <polygon id="Fill-66" fill="#C4E9FB" points="48.3565888 116.22044 61.3002231 116.22044 61.3002231 116.028606 48.3565888 116.028606"></polygon>
                <polygon id="Fill-67" fill="#C4E9FB" points="48.3565888 116.852222 61.3002231 116.852222 61.3002231 116.660388 48.3565888 116.660388"></polygon>
                <polygon id="Fill-68" fill="#C4E9FB" points="48.3565888 117.484004 61.3002231 117.484004 61.3002231 117.29217 48.3565888 117.29217"></polygon>
                <polygon id="Fill-69" fill="#C4E9FB" points="48.3565888 118.115829 61.3002231 118.115829 61.3002231 117.923539 48.3565888 117.923539"></polygon>
                <path d="M49.4556116,116.896863 C49.4556116,115.200572 50.4592459,114.441445 51.4801488,114.441445 L48.3812583,114.441445 C47.2884029,115.79073 47.8397645,118.010002 48.7270413,119.684039 L51.4801488,119.684039 C50.4592459,119.684039 49.4556116,118.981784 49.4556116,116.896863" id="Fill-70" fill="#9EBD9F"></path>
                <path d="M48.3810938,114.441321 L38.8936455,114.441321 C37.8727426,114.441321 37.0446723,115.270921 37.0446723,116.29463 L37.0446723,117.831018 C37.0446723,118.854315 37.8727426,119.684327 38.8936455,119.684327 L48.7268769,119.684327 C47.8400112,118.010291 47.2882384,115.791018 48.3810938,114.441321" id="Fill-71" fill="#86A586"></path>
                <path d="M61.9380099,119.200662 C61.9380099,118.933607 61.7217413,118.717244 61.4553116,118.717244 L49.5432702,118.717244 C49.2764293,118.717244 49.0601607,118.933607 49.0601607,119.200662 C49.0601607,119.467716 49.2764293,119.68408 49.5432702,119.68408 L61.4553116,119.68408 C61.7217413,119.68408 61.9380099,119.467716 61.9380099,119.200662" id="Fill-72" fill="#9EBD9F"></path>
                <path d="M61.9380099,114.924863 C61.9380099,114.658221 61.7217413,114.441445 61.4553116,114.441445 L49.5432702,114.441445 C49.2764293,114.441445 49.0601607,114.658221 49.0601607,114.924863 C49.0601607,115.191918 49.2764293,115.408693 49.5432702,115.408693 L61.4553116,115.408693 C61.7217413,115.408693 61.9380099,115.191918 61.9380099,114.924863" id="Fill-73" fill="#9EBD9F"></path>
                <path d="M36.8871581,110.166635 L33.7315279,110.166635 L33.7315279,113.475556 L35.8794122,113.475556 C35.8440527,112.367775 36.2868688,111.128114 36.8871581,110.166635" id="Fill-74" fill="#D4DFE5"></path>
                <path d="M45.971837,110.166635 L36.8873225,110.166635 C36.2866221,111.128114 35.8442171,112.367775 35.8795767,113.475556 L45.971837,113.475556 L45.971837,110.166635 Z" id="Fill-75" fill="#FFFFFF"></path>
                <polygon id="Fill-76" fill="#C4E9FB" points="33.0278326 110.978714 45.9718781 110.978714 45.9718781 110.786424 33.0278326 110.786424"></polygon>
                <polygon id="Fill-77" fill="#C4E9FB" points="33.0278326 111.610496 45.9718781 111.610496 45.9718781 111.418206 33.0278326 111.418206"></polygon>
                <polygon id="Fill-78" fill="#C4E9FB" points="33.0278326 112.241822 45.9718781 112.241822 45.9718781 112.049988 33.0278326 112.049988"></polygon>
                <polygon id="Fill-79" fill="#C4E9FB" points="33.0278326 112.873647 45.9718781 112.873647 45.9718781 112.681358 33.0278326 112.681358"></polygon>
                <path d="M34.126732,111.65497 C34.126732,109.958679 35.1307775,109.199964 36.1516804,109.199964 L33.0523787,109.199964 C31.9595233,110.548836 32.5108849,112.768521 33.3981618,114.442558 L36.1516804,114.442558 C35.1307775,114.442558 34.126732,113.740303 34.126732,111.65497" id="Fill-80" fill="#9EBD9F"></path>
                <path d="M33.052461,109.19984 L23.5650126,109.19984 C22.5436986,109.19984 21.7160395,110.02944 21.7160395,111.052737 L21.7160395,112.589125 C21.7160395,113.612834 22.5436986,114.442434 23.5650126,114.442434 L33.398244,114.442434 C32.5109671,112.768398 31.9596056,110.548713 33.052461,109.19984" id="Fill-81" fill="#86A586"></path>
                <path d="M46.609336,113.958768 C46.609336,113.692126 46.3930674,113.47535 46.1266376,113.47535 L34.2141851,113.47535 C33.9477554,113.47535 33.7314868,113.692126 33.7314868,113.958768 C33.7314868,114.225823 33.9477554,114.442599 34.2141851,114.442599 L46.1266376,114.442599 C46.3930674,114.442599 46.609336,114.225823 46.609336,113.958768" id="Fill-82" fill="#9EBD9F"></path>
                <path d="M46.609336,109.68297 C46.609336,109.416327 46.3930674,109.199964 46.1266376,109.199964 L34.2141851,109.199964 C33.9477554,109.199964 33.7314868,109.416327 33.7314868,109.68297 C33.7314868,109.950024 33.9477554,110.1668 34.2141851,110.1668 L46.1266376,110.1668 C46.3930674,110.1668 46.609336,109.950024 46.609336,109.68297" id="Fill-83" fill="#9EBD9F"></path>
                <path d="M34.4445975,115.40857 L31.2885562,115.40857 L31.2885562,118.717079 L33.4368517,118.717079 C33.4014921,117.609709 33.8438971,116.369636 34.4445975,115.40857" id="Fill-84" fill="#D4DFE5"></path>
                <path d="M43.5290298,115.40857 L34.4445153,115.40857 C33.8438149,116.369636 33.4014099,117.609709 33.4367694,118.717079 L43.5290298,118.717079 L43.5290298,115.40857 Z" id="Fill-85" fill="#FFFFFF"></path>
                <polygon id="Fill-86" fill="#C4E9FB" points="30.5851488 116.22044 43.5291942 116.22044 43.5291942 116.028606 30.5851488 116.028606"></polygon>
                <polygon id="Fill-87" fill="#C4E9FB" points="30.5851488 116.852222 43.5291942 116.852222 43.5291942 116.660388 30.5851488 116.660388"></polygon>
                <polygon id="Fill-88" fill="#C4E9FB" points="30.5851488 117.484004 43.5291942 117.484004 43.5291942 117.29217 30.5851488 117.29217"></polygon>
                <polygon id="Fill-89" fill="#C4E9FB" points="30.5851488 118.115829 43.5291942 118.115829 43.5291942 117.923539 30.5851488 117.923539"></polygon>
                <path d="M31.6839248,116.896863 C31.6839248,115.200572 32.6875591,114.441445 33.7088731,114.441445 L30.6095715,114.441445 C29.5167161,115.79073 30.0680777,118.010002 30.9553545,119.684039 L33.7088731,119.684039 C32.6875591,119.684039 31.6839248,118.981784 31.6839248,116.896863" id="Fill-90" fill="#D1CB84"></path>
                <path d="M30.609736,114.441321 L21.1222876,114.441321 C20.1013847,114.441321 19.2733145,115.270921 19.2733145,116.29463 L19.2733145,117.831018 C19.2733145,118.854315 20.1013847,119.684327 21.1222876,119.684327 L30.9551079,119.684327 C30.0682421,118.010291 29.5168806,115.791018 30.609736,114.441321" id="Fill-91" fill="#BFBA68"></path>
                <path d="M44.1665698,119.200662 C44.1665698,118.933607 43.9507124,118.717244 43.6842826,118.717244 L31.771419,118.717244 C31.5049893,118.717244 31.2887207,118.933607 31.2887207,119.200662 C31.2887207,119.467716 31.5049893,119.68408 31.771419,119.68408 L43.6842826,119.68408 C43.9507124,119.68408 44.1665698,119.467716 44.1665698,119.200662" id="Fill-92" fill="#D1CB84"></path>
                <path d="M44.1665698,114.924863 C44.1665698,114.658221 43.9507124,114.441445 43.6842826,114.441445 L31.771419,114.441445 C31.5049893,114.441445 31.2887207,114.658221 31.2887207,114.924863 C31.2887207,115.191918 31.5049893,115.408693 31.771419,115.408693 L43.6842826,115.408693 C43.9507124,115.408693 44.1665698,115.191918 44.1665698,114.924863" id="Fill-93" fill="#D1CB84"></path>
                <path d="M43.8178264,99.6823539 L40.6621963,99.6823539 L40.6621963,102.990863 L42.8100806,102.990863 C42.7747211,101.883493 43.217126,100.643833 43.8178264,99.6823539" id="Fill-94" fill="#D4DFE5"></path>
                <path d="M52.902382,99.6823539 L43.8178676,99.6823539 C43.2171671,100.643833 42.7747622,101.883493 42.8101217,102.990863 L52.902382,102.990863 L52.902382,99.6823539 Z" id="Fill-95" fill="#FFFFFF"></path>
                <polygon id="Fill-96" fill="#C4E9FB" points="39.9587066 100.494307 52.9023409 100.494307 52.9023409 100.302473 39.9587066 100.302473"></polygon>
                <polygon id="Fill-97" fill="#C4E9FB" points="39.9587066 101.126132 52.9023409 101.126132 52.9023409 100.933842 39.9587066 100.933842"></polygon>
                <polygon id="Fill-98" fill="#C4E9FB" points="39.9587066 101.757458 52.9023409 101.757458 52.9023409 101.565624 39.9587066 101.565624"></polygon>
                <polygon id="Fill-99" fill="#C4E9FB" points="39.9587066 102.38924 52.9023409 102.38924 52.9023409 102.197406 39.9587066 102.197406"></polygon>
                <path d="M41.0573593,101.170771 C41.0573593,99.4740679 42.0609936,98.7153527 43.0818965,98.7153527 L39.9825948,98.7153527 C38.8901506,100.064638 39.4415122,102.284322 40.3283779,103.957947 L43.0818965,103.957947 C42.0609936,103.957947 41.0573593,103.255692 41.0573593,101.170771" id="Fill-100" fill="#F46765"></path>
                <path d="M39.9827593,98.7153527 L30.4957221,98.7153527 C29.4744081,98.7153527 28.6463378,99.5449527 28.6463378,100.568662 L28.6463378,102.104638 C28.6463378,103.128347 29.4744081,103.957947 30.4957221,103.957947 L40.3285424,103.957947 C39.4416767,102.284322 38.8903151,100.064638 39.9827593,98.7153527" id="Fill-101" fill="#D85656"></path>
                <path d="M53.5396754,103.474281 C53.5396754,103.207639 53.323818,102.990863 53.0573882,102.990863 L41.1445246,102.990863 C40.8780948,102.990863 40.6622374,103.207639 40.6622374,103.474281 C40.6622374,103.741748 40.8780948,103.958112 41.1445246,103.958112 L53.0573882,103.958112 C53.323818,103.958112 53.5396754,103.741748 53.5396754,103.474281" id="Fill-102" fill="#F46765"></path>
                <path d="M53.5396754,99.1987297 C53.5396754,98.9320873 53.323818,98.7153115 53.0573882,98.7153115 L41.1445246,98.7153115 C40.8780948,98.7153115 40.6622374,98.9320873 40.6622374,99.1987297 C40.6622374,99.4653721 40.8780948,99.6821479 41.1445246,99.6821479 L53.0573882,99.6821479 C53.323818,99.6821479 53.5396754,99.4653721 53.5396754,99.1987297" id="Fill-103" fill="#F46765"></path>
                <path d="M41.3750192,104.924165 L38.219389,104.924165 L38.219389,108.232674 L40.3672733,108.232674 C40.3319138,107.124892 40.7743188,105.885232 41.3750192,104.924165" id="Fill-104" fill="#D4DFE5"></path>
                <path d="M50.459657,104.924165 L41.3751426,104.924165 C40.7744421,105.885232 40.3320372,107.124892 40.3673967,108.232674 L50.459657,108.232674 L50.459657,104.924165 Z" id="Fill-105" fill="#FFFFFF"></path>
                <polygon id="Fill-106" fill="#C4E9FB" points="37.5156116 105.736076 50.459657 105.736076 50.459657 105.544242 37.5156116 105.544242"></polygon>
                <polygon id="Fill-107" fill="#C4E9FB" points="37.5156116 106.367902 50.459657 106.367902 50.459657 106.175612 37.5156116 106.175612"></polygon>
                <polygon id="Fill-108" fill="#C4E9FB" points="37.5156116 106.999228 50.459657 106.999228 50.459657 106.807394 37.5156116 106.807394"></polygon>
                <polygon id="Fill-109" fill="#C4E9FB" points="37.5156116 107.631053 50.459657 107.631053 50.459657 107.438764 37.5156116 107.438764"></polygon>
                <path d="M38.6145521,106.412376 C38.6145521,104.715673 39.6181864,103.956545 40.6390893,103.956545 L37.5401988,103.956545 C36.4473434,105.306242 36.998705,107.525927 37.8855707,109.199964 L40.6390893,109.199964 C39.6181864,109.199964 38.6145521,108.496885 38.6145521,106.412376" id="Fill-110" fill="#AF8168"></path>
                <path d="M37.5400754,103.956463 L28.0526271,103.956463 C27.0317242,103.956463 26.2036539,104.786475 26.2036539,105.810184 L26.2036539,107.34616 C26.2036539,108.369869 27.0317242,109.199881 28.0526271,109.199881 L37.8858585,109.199881 C36.9985816,107.525845 36.44722,105.30616 37.5400754,103.956463" id="Fill-111" fill="#966A4D"></path>
                <path d="M51.0969915,108.716175 C51.0969915,108.448708 50.8811341,108.232756 50.6147043,108.232756 L38.7018407,108.232756 C38.435411,108.232756 38.2195535,108.448708 38.2195535,108.716175 C38.2195535,108.983229 38.435411,109.200005 38.7018407,109.200005 L50.6147043,109.200005 C50.8811341,109.200005 51.0969915,108.983229 51.0969915,108.716175" id="Fill-112" fill="#AF8168"></path>
                <path d="M51.0969915,104.440335 C51.0969915,104.17328 50.8811341,103.956504 50.6147043,103.956504 L38.7018407,103.956504 C38.435411,103.956504 38.2195535,104.17328 38.2195535,104.440335 C38.2195535,104.707801 38.435411,104.924165 38.7018407,104.924165 L50.6147043,104.924165 C50.8811341,104.924165 51.0969915,104.707801 51.0969915,104.440335" id="Fill-113" fill="#AF8168"></path>
                <path d="M80.4818085,26.6280582 C81.3390709,26.6280582 82.038449,25.92704 82.038449,25.0677673 C82.038449,24.2084945 81.3390709,23.5074764 80.4818085,23.5074764 C79.6245461,23.5074764 78.925168,24.2084945 78.925168,25.0677673 C78.925168,25.92704 79.6245461,26.6280582 80.4818085,26.6280582" id="Fill-114" fill="#4D1B02"></path>
                <path d="M78.9520576,25.9420412 C79.80932,25.9420412 80.5086981,25.241023 80.5086981,24.3817503 C80.5086981,23.5224776 79.80932,22.8214594 78.9520576,22.8214594 C78.0947952,22.8214594 77.3954171,23.5224776 77.3954171,24.3817503 C77.3954171,25.241023 78.0947952,25.9420412 78.9520576,25.9420412" id="Fill-115" fill="#4D1B02"></path>
                <path d="M76.6170969,25.6999612 C77.4743593,25.6999612 78.1737374,24.998943 78.1737374,24.1396703 C78.1737374,23.2803976 77.4743593,22.5793794 76.6170969,22.5793794 C75.7598345,22.5793794 75.0604564,23.2803976 75.0604564,24.1396703 C75.0604564,24.998943 75.7598345,25.6999612 76.6170969,25.6999612" id="Fill-116" fill="#4D1B02"></path>
                <path d="M74.5236087,26.4667127 C75.3808711,26.4667127 76.0802492,25.7656945 76.0802492,24.9064218 C76.0802492,24.0471491 75.3808711,23.3461309 74.5236087,23.3461309 C73.6663463,23.3461309 72.9669682,24.0471491 72.9669682,24.9064218 C72.9669682,25.7656945 73.6663463,26.4667127 74.5236087,26.4667127" id="Fill-117" fill="#4D1B02"></path>
                <path d="M73.3159171,28.2017842 C74.1731795,28.2017842 74.8725576,27.5011782 74.8725576,26.6414933 C74.8725576,25.7822206 74.1731795,25.0812024 73.3159171,25.0812024 C72.4586548,25.0812024 71.7592767,25.7822206 71.7592767,26.6414933 C71.7592767,27.5011782 72.4586548,28.2017842 73.3159171,28.2017842" id="Fill-118" fill="#4D1B02"></path>
                <path d="M81.8102979,28.2421309 C82.6675603,28.2421309 83.3669384,27.5415248 83.3669384,26.68184 C83.3669384,25.8225673 82.6675603,25.1215491 81.8102979,25.1215491 C80.9530355,25.1215491 80.2536574,25.8225673 80.2536574,26.68184 C80.2536574,27.5415248 80.9530355,28.2421309 81.8102979,28.2421309" id="Fill-119" fill="#4D1B02"></path>
                <path d="M81.8908025,30.4211806 C82.7480649,30.4211806 83.447443,29.7201624 83.447443,28.8608897 C83.447443,28.001617 82.7480649,27.3005988 81.8908025,27.3005988 C81.0335401,27.3005988 80.334162,28.001617 80.334162,28.8608897 C80.334162,29.7201624 81.0335401,30.4211806 81.8908025,30.4211806" id="Fill-120" fill="#4D1B02"></path>
                <path d="M80.7635744,33.0440436 C81.6208368,33.0440436 82.3202149,32.3430255 82.3202149,31.4837527 C82.3202149,30.62448 81.6208368,29.9234618 80.7635744,29.9234618 C79.906312,29.9234618 79.2069339,30.62448 79.2069339,31.4837527 C79.2069339,32.3430255 79.906312,33.0440436 80.7635744,33.0440436" id="Fill-121" fill="#4D1B02"></path>
                <path d="M73.1951603,30.1791006 C74.0524227,30.1791006 74.7518008,29.4780824 74.7518008,28.6188097 C74.7518008,27.759537 74.0524227,27.0585188 73.1951603,27.0585188 C72.3378979,27.0585188 71.6385198,27.759537 71.6385198,28.6188097 C71.6385198,29.4780824 72.3378979,30.1791006 73.1951603,30.1791006" id="Fill-122" fill="#4D1B02"></path>
                <path d="M74.3223884,33.2459418 C75.1796508,33.2459418 75.8790289,32.5449236 75.8790289,31.6856509 C75.8790289,30.8259661 75.1796508,30.12536 74.3223884,30.12536 C73.465126,30.12536 72.7657479,30.8259661 72.7657479,31.6856509 C72.7657479,32.5449236 73.465126,33.2459418 74.3223884,33.2459418" id="Fill-123" fill="#4D1B02"></path>
                <path d="M81.6672975,31.9117406 C82.5245599,31.9117406 83.223938,31.2111345 83.223938,30.3514497 C83.223938,29.492177 82.5245599,28.7911588 81.6672975,28.7911588 C80.8100351,28.7911588 80.110657,29.492177 80.110657,30.3514497 C80.110657,31.2111345 80.8100351,31.9117406 81.6672975,31.9117406" id="Fill-124" fill="#4D1B02"></path>
                <path d="M73.4210911,31.8020752 C74.2783535,31.8020752 74.9777316,31.101057 74.9777316,30.2417842 C74.9777316,29.3825115 74.2783535,28.6814933 73.4210911,28.6814933 C72.5638287,28.6814933 71.8644506,29.3825115 71.8644506,30.2417842 C71.8644506,31.101057 72.5638287,31.8020752 73.4210911,31.8020752" id="Fill-125" fill="#4D1B02"></path>
                <path d="M75.7766097,35.8942739 C71.7550829,37.6614497 70.5487481,38.6035588 70.071806,39.0263952 C69.3370684,39.6783709 68.9304341,42.1078255 68.4970746,44.1704921 L77.5955684,44.1704921 L86.6940622,44.1704921 C86.2602915,42.1078255 85.8540684,39.6783709 85.1189196,39.0263952 C84.6423886,38.6035588 83.4800477,37.6857648 79.4585209,35.9185891 L75.7766097,35.8942739 Z" id="Fill-126" fill="#E6A875"></path>
                <path d="M79.548112,32.3717915 L79.548112,36.8400097 C78.4741698,38.1583855 76.7168847,38.11264 75.6429426,36.8400097 L75.6429426,32.3717915 C75.6429426,29.9592339 79.548112,29.9592339 79.548112,32.3717915" id="Fill-127" fill="#E6A875"></path>
                <path d="M79.548112,32.3717915 L79.548112,35.3633794 C78.8092628,35.9032582 78.0971388,36.205343 77.5955273,36.205343 C77.0939157,36.205343 76.3817917,35.9032582 75.6429426,35.3633794 L75.6429426,32.3717915 C75.6429426,29.9592339 79.548112,29.9592339 79.548112,32.3717915" id="Fill-128" fill="#B88053"></path>
                <path d="M77.5955684,24.3499758 C71.0421366,24.3499758 73.3988886,32.2870182 73.8269031,32.9188 C74.2989114,33.615697 76.536839,35.4624121 77.5955684,35.4624121 C78.6542977,35.4624121 80.8922254,33.615697 81.3642337,32.9188 C81.7922481,32.2870182 84.1490002,24.3499758 77.5955684,24.3499758" id="Fill-129" fill="#E6A875"></path>
                <path d="M72.6057256,29.4850061 C72.9494529,29.3716727 73.3873351,29.7627758 73.5830459,30.358703 C73.7787566,30.9550424 73.6586988,31.5303636 73.3149715,31.643697 C72.9708331,31.7574424 72.533362,31.3663394 72.3376512,30.77 C72.1419405,30.1736606 72.2615872,29.5987515 72.6057256,29.4850061" id="Fill-130" fill="#E6A875"></path>
                <path d="M82.6604473,29.4850061 C82.3163089,29.3716727 81.8788378,29.7627758 81.6831271,30.358703 C81.4870052,30.9550424 81.607063,31.5303636 81.9512014,31.643697 C82.2953399,31.7574424 82.732811,31.3663394 82.9285217,30.77 C83.1242324,30.1736606 83.0045857,29.5987515 82.6604473,29.4850061" id="Fill-131" fill="#E6A875"></path>
                <path d="M77.0598719,27.0315661 C77.9171343,27.0315661 78.6165124,26.33096 78.6165124,25.4712752 C78.6165124,24.6120024 77.9171343,23.9109842 77.0598719,23.9109842 C76.2026095,23.9109842 75.5032314,24.6120024 75.5032314,25.4712752 C75.5032314,26.33096 76.2026095,27.0315661 77.0598719,27.0315661" id="Fill-132" fill="#4D1B02"></path>
                <path d="M79.1935713,26.9508727 C80.0508337,26.9508727 80.7502118,26.2498545 80.7502118,25.3905818 C80.7502118,24.5313091 80.0508337,23.8302909 79.1935713,23.8302909 C78.3363089,23.8302909 77.6369308,24.5313091 77.6369308,25.3905818 C77.6369308,26.2498545 78.3363089,26.9508727 79.1935713,26.9508727" id="Fill-133" fill="#4D1B02"></path>
                <path d="M75.4898688,27.5158909 C76.3471312,27.5158909 77.0465093,26.8148727 77.0465093,25.9556 C77.0465093,25.0963273 76.3471312,24.3953091 75.4898688,24.3953091 C74.6326064,24.3953091 73.9332283,25.0963273 73.9332283,25.9556 C73.9332283,26.8148727 74.6326064,27.5158909 75.4898688,27.5158909" id="Fill-134" fill="#4D1B02"></path>
                <path d="M74.3314339,28.0585721 C75.0608264,28.0585721 75.6553595,27.4622327 75.6553595,26.7315418 C75.6553595,26.0004388 75.0608264,25.4040994 74.3314339,25.4040994 C73.6020413,25.4040994 73.0075083,26.0004388 73.0075083,26.7315418 C73.0075083,27.4622327 73.6020413,28.0585721 74.3314339,28.0585721" id="Fill-135" fill="#4D1B02"></path>
                <path d="M80.4415562,27.9193576 C81.2988186,27.9193576 81.9981967,27.2187515 81.9981967,26.3590667 C81.9981967,25.4997939 81.2988186,24.7987758 80.4415562,24.7987758 C79.5842938,24.7987758 78.8849157,25.4997939 78.8849157,26.3590667 C78.8849157,27.2187515 79.5842938,27.9193576 80.4415562,27.9193576" id="Fill-136" fill="#4D1B02"></path>
                <path d="M81.7052884,28.9773139 C82.3101004,28.9773139 82.8034888,28.4827685 82.8034888,27.8765382 C82.8034888,27.2703079 82.3101004,26.7761745 81.7052884,26.7761745 C81.1004764,26.7761745 80.607088,27.2703079 80.607088,27.8765382 C80.607088,28.4827685 81.1004764,28.9773139 81.7052884,28.9773139" id="Fill-137" fill="#4D1B02"></path>
                <path d="M73.6268752,29.1884436 C74.2123628,29.1884436 74.689305,28.7099709 74.689305,28.1235224 C74.689305,27.5370739 74.2123628,27.0586012 73.6268752,27.0586012 C73.0417988,27.0586012 72.5644455,27.5370739 72.5644455,28.1235224 C72.5644455,28.7099709 73.0417988,29.1884436 73.6268752,29.1884436" id="Fill-138" fill="#4D1B02"></path>
                <path d="M73.4054671,29.9148485 C73.7800312,29.9148485 74.0855209,29.6086424 74.0855209,29.2332 C74.0855209,28.8577576 73.7800312,28.5515515 73.4054671,28.5515515 C73.0309031,28.5515515 72.7254134,28.8577576 72.7254134,29.2332 C72.7254134,29.6086424 73.0309031,29.9148485 73.4054671,29.9148485" id="Fill-139" fill="#4D1B02"></path>
                <path d="M81.899889,29.9955418 C82.2744531,29.9955418 82.5799428,29.6893358 82.5799428,29.3138933 C82.5799428,28.9384509 82.2744531,28.6322448 81.899889,28.6322448 C81.525325,28.6322448 81.2198353,28.9384509 81.2198353,29.3138933 C81.2198353,29.6893358 81.525325,29.9955418 81.899889,29.9955418" id="Fill-140" fill="#4D1B02"></path>
                <path d="M73.4859717,30.5200897 C73.7499345,30.5200897 73.9649696,30.3045503 73.9649696,30.0399685 C73.9649696,29.7757988 73.7499345,29.5602594 73.4859717,29.5602594 C73.22242,29.5602594 73.0073849,29.7757988 73.0073849,30.0399685 C73.0073849,30.3045503 73.22242,30.5200897 73.4859717,30.5200897" id="Fill-141" fill="#4D1B02"></path>
                <path d="M81.8193845,30.4797018 C82.0833473,30.4797018 82.2983824,30.2641624 82.2983824,29.9999927 C82.2983824,29.7354109 82.0833473,29.5198715 81.8193845,29.5198715 C81.5558329,29.5198715 81.3407977,29.7354109 81.3407977,29.9999927 C81.3407977,30.2641624 81.5558329,30.4797018 81.8193845,30.4797018" id="Fill-142" fill="#4D1B02"></path>
                <path d="M75.6429837,35.9531248 C71.7287688,37.6823855 70.5434031,38.6084218 70.071806,39.0263127 C69.3370684,39.6782885 68.9304341,42.107743 68.4970746,44.1704097 L77.5955684,44.1704097 L86.6940622,44.1704097 C86.2602915,42.107743 85.8540684,39.6782885 85.1189196,39.0263127 C84.6456779,38.6067733 83.4969052,37.6992824 79.5481531,35.9580703 C78.7710663,37.0131006 76.6507295,37.1861915 75.6429837,35.9531248" id="Fill-143" fill="#FFFFFF"></path>
                <path d="M75.1408787,36.1773188 C71.6258973,37.7631612 70.522763,38.6265552 70.0717238,39.0263127 C69.3369862,39.6782885 68.930763,42.107743 68.4974035,44.1708218 L77.5954862,44.1708218 L86.69398,44.1708218 C86.2602093,42.107743 85.8539862,39.6782885 85.1188374,39.0263127 C84.6706762,38.6286158 83.6152362,37.7928339 80.1467155,36.2251248 C78.5950089,37.8661915 75.6852506,37.3427976 75.1408787,36.1773188" id="Fill-144" fill="#68C497"></path>
                <path d="M180.090765,67.1445188 C173.176337,67.2834036 172.403362,59.1069188 172.653757,55.068543 C173.12042,47.5399127 179.936992,44.5203006 182.720114,47.1059491 C185.6788,47.1059491 187.064811,50.7886642 187.399081,54.9960097 C187.843953,60.5959127 185.78529,67.0303612 180.090765,67.1445188" id="Fill-145" fill="#B88869"></path>
                <path d="M182.091825,62.0523903 C182.04742,62.1224509 177.669009,62.1925115 177.620493,62.2617479 C176.245583,64.2279782 173.274152,65.0897236 170.911643,65.6188873 C168.560236,66.1459903 168.469371,69.1392267 168.46567,71.1330691 L191.38603,71.1330691 C191.382329,69.1392267 191.338747,66.1567055 188.940057,65.6188873 C186.541367,65.0814812 183.396015,64.1080509 182.091825,62.0523903" id="Fill-146" fill="#FFDECC"></path>
                <path d="M182.222409,57.8529988 L182.222409,63.4924655 C180.959334,65.1561988 178.892859,65.0985018 177.629785,63.4924655 L177.629785,57.8529988 C177.629785,54.8078352 182.222409,54.8078352 182.222409,57.8529988" id="Fill-147" fill="#FFDECC"></path>
                <path d="M182.222409,57.8529988 L182.222409,61.6284412 C181.353223,62.3100897 180.515696,62.6917139 179.926097,62.6917139 C179.336498,62.6917139 178.49856,62.3100897 177.629785,61.6284412 L177.629785,57.8529988 C177.629785,54.8078352 182.222409,54.8078352 182.222409,57.8529988" id="Fill-148" fill="#F8C5AA"></path>
                <path d="M179.926014,61.7537673 C178.431048,61.7537673 175.272539,59.3976703 174.296041,56.0232218 C173.310087,52.6158036 175.166872,47.7284582 179.926014,47.7284582 C184.685157,47.7284582 186.541942,52.6158036 185.555988,56.0232218 C184.57949,59.3976703 181.420981,61.7537673 179.926014,61.7537673" id="Fill-149" fill="#FFDECC"></path>
                <path d="M173.356712,53.9671079 C173.837355,53.760223 174.516997,54.2679564 174.874293,55.1016776 C175.231177,55.9353988 175.131266,56.7790109 174.650212,56.9858958 C174.169158,57.1931927 173.489927,56.6850473 173.132631,55.8513261 C172.775336,55.018017 172.875658,54.1744048 173.356712,53.9671079" id="Fill-150" fill="#FFDECC"></path>
                <path d="M186.62771,53.9671903 C186.146656,53.7598933 185.467424,54.2680388 185.110129,55.10176 C184.752833,55.9350691 184.853156,56.7790933 185.33421,56.9859782 C185.815263,57.192863 186.494495,56.6851297 186.85179,55.8514085 C187.209086,55.0176873 187.108763,54.1740752 186.62771,53.9671903" id="Fill-151" fill="#FFDECC"></path>
                <path d="M186.010398,55.9624339 C187.817845,48.1976582 182.363024,46.8768097 179.180669,46.8768097 C175.596613,46.8768097 172.894489,51.1406158 173.499301,56.1066764 C175.411181,54.9510885 177.095692,52.6691733 181.275514,48.9464824 C180.667413,50.0390158 179.482047,52.0266764 175.453942,55.6290279 C177.621973,55.9879855 181.660357,53.2490279 183.812764,50.3827248 C184.32671,52.4202521 185.065971,54.6510642 186.010398,55.9624339" id="Fill-152" fill="#B88869"></path>
                <path d="M175.0242,64.3015418 C173.71631,64.9304388 172.220521,65.325663 170.911397,65.6190933 C168.560401,66.1457842 168.469535,69.1394327 168.465835,71.1332752 L191.386194,71.1332752 C191.382494,69.1394327 191.338911,66.1564994 188.940221,65.6190933 C187.654944,65.3310206 186.156277,64.917663 184.840574,64.2805236 L184.837696,64.2854691 C182.865376,67.5733721 181.061219,69.364863 179.926014,69.9978812 C178.792455,69.3660994 176.99282,67.5791418 175.0242,64.3015418" id="Fill-153" fill="#D85656"></path>
                <path d="M134.051622,5.46464485 C134.812673,5.58622061 135.233698,6.10920242 135.413785,6.81887515 C135.882915,8.66641455 134.900661,12.673057 131.502037,12.720863 C129.749275,12.7455903 128.486611,12.2988509 128.026938,10.8766206 C127.566853,9.45480242 127.378132,7.16340848 128.378066,5.87923879 C129.635795,4.26331152 132.275835,4.24806303 134.051622,5.46464485" id="Fill-154" fill="#802D04"></path>
                <path d="M130.031822,14.883057 C126.8507,16.2809721 125.896815,17.0260873 125.519373,17.3607297 C124.938408,17.8762933 124.616884,19.7980145 124.273979,21.4296024 L131.47046,21.4296024 L138.667353,21.4296024 C138.324448,19.7980145 138.002923,17.8762933 137.421547,17.3607297 C137.044516,17.0260873 136.125169,16.2999297 132.944458,14.9020145 L130.031822,14.883057 Z" id="Fill-155" fill="#FFD16E"></path>
                <path d="M133.015054,12.0968291 L133.015054,15.6311806 C132.165603,16.6738473 130.775481,16.6379927 129.926031,15.6311806 L129.926031,12.0968291 C129.926031,10.1887079 133.015054,10.1887079 133.015054,12.0968291" id="Fill-156" fill="#FFDECC"></path>
                <path d="M133.015054,12.0968291 L133.015054,14.4632291 C132.430388,14.8901867 131.867103,15.129217 131.470748,15.129217 C131.073981,15.129217 130.510696,14.8901867 129.926031,14.4632291 L129.926031,12.0968291 C129.926031,10.1887079 133.015054,10.1887079 133.015054,12.0968291" id="Fill-157" fill="#F8C5AA"></path>
                <path d="M131.470583,5.75172848 C126.286716,5.75172848 128.151313,12.029983 128.489695,12.5294739 C128.863026,13.0808921 130.633057,14.5414497 131.470583,14.5414497 C132.30811,14.5414497 134.078141,13.0808921 134.451472,12.5294739 C134.790265,12.029983 136.654451,5.75172848 131.470583,5.75172848" id="Fill-158" fill="#FFDECC"></path>
                <path d="M127.487212,9.18939636 C127.758987,9.09955394 128.105181,9.40905697 128.260187,9.88052364 C128.415193,10.3519903 128.320216,10.8073842 128.04803,10.8972267 C127.776255,10.986657 127.430061,10.6775661 127.275055,10.2056873 C127.120049,9.73422061 127.215026,9.27923879 127.487212,9.18939636" id="Fill-159" fill="#FFDECC"></path>
                <path d="M135.440346,9.18943758 C135.16816,9.09959515 134.821965,9.40909818 134.66737,9.88056485 C134.512364,10.3520315 134.607342,10.8074255 134.879527,10.8968558 C135.151302,10.9866982 135.497496,10.6771952 135.652503,10.2057285 C135.807509,9.73426182 135.712532,9.27928 135.440346,9.18943758" id="Fill-160" fill="#FFDECC"></path>
                <path d="M134.011534,7.31333818 C133.100821,7.87505939 132.017422,7.67724121 132.437625,7.18599273 C132.858238,6.69433212 132.396098,7.03680485 131.573784,7.39658667 C130.751059,7.75595636 129.805398,7.69619879 130.365805,7.39205333 C131.045447,7.02279273 128.392251,6.7812897 127.906674,10.580223 C127.128354,7.82519273 128.442412,5.51772606 131.410143,5.38708364 C134.579753,5.24696242 135.863385,7.76172606 134.986798,10.498623 C135.04436,9.01581091 134.687065,8.04567758 134.011534,7.31333818" id="Fill-161" fill="#802D04"></path>
                <polygon id="Fill-162" fill="#FFFFFF" points="129.779536 14.8452655 128.684213 15.4395442 130.272513 17.6464533 131.477614 16.5003442"></polygon>
                <polygon id="Fill-163" fill="#FFFFFF" points="133.175693 14.8452655 134.271015 15.4395442 132.682715 17.6464533 131.477614 16.5003442"></polygon>
                <path d="M31.4898998,64.0006109 C31.8846105,63.3642958 35.0287283,62.8033988 36.3115382,65.0647079 C37.5947593,67.3264291 36.9484205,68.1185261 37.6564329,68.9168048 C38.3640341,69.7146715 37.6975486,71.5465503 37.2058048,71.7068655 C36.714061,71.8675927 36.9114163,72.501023 37.1511209,72.7734352 C38.1749019,73.9352048 36.6947366,75.8936048 32.7426952,75.873823 C28.5180568,75.8519806 27.6891643,73.5745988 28.7721519,72.8636897 C29.1253357,72.6320776 29.2626622,72.1869867 28.8757634,71.7950594 C28.4884535,71.4031321 27.5970651,69.9425745 28.43747,68.7449503 C29.277875,67.5481503 28.5435486,63.9989624 31.4898998,64.0006109" id="Fill-164" fill="#4D1B02"></path>
                <path d="M34.363394,73.3102642 C34.334613,73.3555976 31.5062638,73.4009309 31.4750159,73.44544 C30.5865056,74.7155976 28.6672246,75.2723733 27.1410097,75.6144339 C25.6221957,75.9548461 25.5634002,77.8885188 25.5613444,79.1763976 L40.36752,79.1763976 C40.3650531,77.8885188 40.3370944,75.96144 38.7874436,75.6144339 C37.2377928,75.2670158 35.2062659,74.6385309 34.363394,73.3102642" id="Fill-165" fill="#6A9ECE"></path>
                <path d="M34.4477634,70.5974764 L34.4477634,74.2406279 C33.5584308,75.8042158 32.2242262,75.7646521 31.4808543,74.2406279 L31.4808543,70.5974764 C31.4808543,68.6304218 34.4477634,68.6304218 34.4477634,70.5974764" id="Fill-166" fill="#FFDECC"></path>
                <path d="M34.4477634,70.5974764 L34.4477634,73.0364097 C33.8865341,73.4765552 33.3454514,73.7234158 32.9643089,73.7234158 C32.5831663,73.7234158 32.0420837,73.4765552 31.4808543,73.0368218 L31.4808543,70.5974764 C31.4808543,68.6304218 34.4477634,68.6304218 34.4477634,70.5974764" id="Fill-167" fill="#F8C5AA"></path>
                <path d="M32.9643089,73.1173503 C31.998501,73.1173503 29.9579287,71.5953867 29.3272138,69.4152655 C28.6903316,67.2141261 29.8896767,64.0572776 32.9643089,64.0572776 C36.03853,64.0572776 37.2382862,67.2141261 36.6014039,69.4152655 C35.9702779,71.5953867 33.9301167,73.1173503 32.9643089,73.1173503" id="Fill-168" fill="#FFDECC"></path>
                <path d="M37.0640789,68.8965285 C36.7532442,68.7630012 36.3145397,69.0910497 36.0838806,69.62928 C35.8528103,70.1679224 35.9177731,70.7127467 36.2281967,70.8466861 C36.5390314,70.9806255 36.9781471,70.6521648 37.2088062,70.1139345 C37.4394653,69.5752921 37.3749136,69.0304679 37.0640789,68.8965285" id="Fill-169" fill="#FFDECC"></path>
                <path d="M28.8614552,68.8965285 C29.1722899,68.7630012 29.6109944,69.0910497 29.8416535,69.62928 C30.0727238,70.1679224 30.007761,70.7127467 29.6973374,70.8466861 C29.3865027,70.9806255 28.947387,70.652577 28.7167279,70.1139345 C28.4860688,69.5752921 28.5510316,69.0304679 28.8614552,68.8965285" id="Fill-170" fill="#FFDECC"></path>
                <path d="M34.5865289,66.0403636 C34.6284669,67.7304727 34.7193326,68.7451152 35.6925413,68.3461818 C36.66575,67.9468364 36.4807293,69.0657455 36.3039318,69.8640242 C37.1661281,68.7859152 37.0645723,67.7622061 36.7964979,66.7211879 C36.5029318,65.5804364 35.0207107,63.8449939 33.631,63.8771394 C32.8757045,63.7988364 31.732688,63.8911515 30.5164855,64.7545455 C28.3932707,66.2620848 29.1025165,69.6493091 29.674436,70.0490667 C29.1201963,66.9115879 30.4766033,67.5503758 31.4128079,65.908897 C31.7203533,65.1872727 34.542124,64.2657697 34.5865289,66.0403636" id="Fill-171" fill="#4D1B02"></path>
                <polygon id="Fill-172" fill="#7FAFD3" points="31.4810188 73.4425552 30.4222895 74.4126885 31.7684176 76.5070885 32.9307585 75.4021915"></polygon>
                <polygon id="Fill-173" fill="#7FAFD3" points="34.4477634 73.435343 35.5064928 74.4466885 34.0925238 76.5068824 32.930594 75.4019855"></polygon>
            </g>
        </g>
    </g>
</svg>