<?xml version="1.0" encoding="UTF-8"?>
<svg width="200px" height="95px" viewBox="0 0 200 95" version="1.1" xmlns="http://www.w3.org/2000/svg" xmlns:xlink="http://www.w3.org/1999/xlink">
    <!-- Generator: Sketch 42 (36781) - http://www.bohemiancoding.com/sketch -->
    <title>Page 1</title>
    <desc>Created with Sketch.</desc>
    <defs>
        <polygon id="path-1" points="0 94.9677419 199.639175 94.9677419 199.639175 0.048516129 0 0.048516129"></polygon>
    </defs>
    <g id="Page-1" stroke="none" stroke-width="1" fill="none" fill-rule="evenodd">
        <g id="01.-Landing_Page_Updated" transform="translate(-245.000000, -2015.000000)">
            <g id="Page-1" transform="translate(245.000000, 2014.000000)">
                <polygon id="Fill-1" fill="#966B4E" points="12.7216495 95.9518968 18.0226804 95.9518968 18.0226804 80.0964129 12.7216495 80.0964129"></polygon>
                <polygon id="Fill-2" fill="#966B4E" points="180.756701 95.9518968 186.057732 95.9518968 186.057732 80.0964129 180.756701 80.0964129"></polygon>
                <polygon id="Fill-3" fill="#BC8867" points="0 80.7064774 198.779381 80.7064774 198.779381 70.3395097 0 70.3395097"></polygon>
                <polygon id="Fill-4" fill="#BB4C4A" points="8.92164948 70.4478968 22.5123711 70.4478968 22.5123711 11.9044129 8.92164948 11.9044129"></polygon>
                <polygon id="Fill-5" fill="#93664D" points="142.095876 70.4478968 155.686598 70.4478968 155.686598 30.5635097 142.095876 30.5635097"></polygon>
                <g id="Group-51" transform="translate(0.000000, 0.984155)">
                    <path d="M155.640825,38.3716129 L142.141856,38.3716129 C141.970722,38.3716129 141.832577,38.5305806 141.832577,38.7267097 C141.832577,38.9228387 141.970722,39.0818065 142.141856,39.0818065 L155.640825,39.0818065 C155.810928,39.0818065 155.949072,38.9228387 155.949072,38.7267097 C155.949072,38.5305806 155.810928,38.3716129 155.640825,38.3716129 Z" id="Fill-6" fill="#E4E0D0"></path>
                    <path d="M155.640825,36.1355355 L142.141856,36.1355355 C141.970722,36.1355355 141.832577,36.2945032 141.832577,36.4906323 C141.832577,36.6867613 141.970722,36.845729 142.141856,36.845729 L155.640825,36.845729 C155.810928,36.845729 155.949072,36.6867613 155.949072,36.4906323 C155.949072,36.2945032 155.810928,36.1355355 155.640825,36.1355355" id="Fill-8" fill="#E4E0D0"></path>
                    <path d="M155.640825,65.1545806 L142.141856,65.1545806 C141.970722,65.1545806 141.832577,65.3135484 141.832577,65.5096774 C141.832577,65.7058065 141.970722,65.8647742 142.141856,65.8647742 L155.640825,65.8647742 C155.810928,65.8647742 155.949072,65.7058065 155.949072,65.5096774 C155.949072,65.3135484 155.810928,65.1545806 155.640825,65.1545806" id="Fill-10" fill="#E4E0D0"></path>
                    <path d="M155.640825,62.9185032 L142.141856,62.9185032 C141.970722,62.9185032 141.832577,63.077471 141.832577,63.2736 C141.832577,63.469729 141.970722,63.6286968 142.141856,63.6286968 L155.640825,63.6286968 C155.810928,63.6286968 155.949072,63.469729 155.949072,63.2736 C155.949072,63.077471 155.810928,62.9185032 155.640825,62.9185032" id="Fill-12" fill="#E4E0D0"></path>
                    <path d="M142.09567,29.5794581 L142.09567,36.1456516 C141.948247,36.1724903 141.832784,36.3128774 141.832784,36.4904258 C141.832784,36.6679742 141.948247,36.8083613 142.09567,36.8341677 L142.09567,38.3825548 C141.948247,38.4083613 141.832784,38.5487484 141.832784,38.7262968 C141.832784,38.9038452 141.948247,39.0442323 142.09567,39.071071 L142.09567,62.9286194 C141.948247,62.9554581 141.832784,63.0958452 141.832784,63.2733935 C141.832784,63.4509419 141.948247,63.591329 142.09567,63.6171355 L142.09567,65.1655226 C141.948247,65.191329 141.832784,65.3317161 141.832784,65.5092645 C141.832784,65.6868129 141.948247,65.8272 142.09567,65.8540387 L142.09567,69.4638452 L148.676082,69.4638452 L148.676082,29.5794581 L142.09567,29.5794581 Z" id="Fill-14" fill="#FFFFFF"></path>
                    <polygon id="Fill-16" fill="#3CB44A" points="33.9959794 68.7619097 28.3743299 69.4638452 21.8908247 0.750554839 27.5124742 0.0486193548"></polygon>
                    <polygon id="Fill-18" fill="#508DA5" points="126.435361 69.4639484 121.004433 67.6523355 133.277629 19.2394323 138.708557 21.0510452"></polygon>
                    <polygon id="Fill-20" fill="#BDBAAE" points="133.27732 19.2398452 121.004124 67.6527484 123.374227 68.4434581 135.848454 20.0976516"></polygon>
                    <polygon id="Fill-22" fill="#BB4C4A" points="132.427835 69.4639484 126.996907 67.6523355 139.270103 19.2394323 144.701031 21.0510452"></polygon>
                    <polygon id="Fill-24" fill="#508DA5" points="36.1396907 2.31948387 27.7097938 3.392 34.0603093 69.4637419 42.4902062 68.3912258"></polygon>
                    <polygon id="Fill-26" fill="#C69534" points="36.1396907 2.31948387 27.7097938 3.392 28.592268 12.576 37.0221649 11.5034839"></polygon>
                    <polygon id="Fill-28" fill="#FFFFFF" points="31.9245361 2.85574194 27.7090722 3.39148387 34.0595876 69.4642581 38.2750515 68.9274839"></polygon>
                    <mask id="mask-2" fill="white">
                        <use xlink:href="#path-1"></use>
                    </mask>
                    <g id="Clip-31"></g>
                    <polygon id="Fill-30" fill="#2F6E85" mask="url(#mask-2)" points="44.1391753 69.4637419 92.5556701 69.4637419 92.5556701 57.947871 44.1391753 57.947871"></polygon>
                    <polygon id="Fill-32" fill="#508DA5" mask="url(#mask-2)" points="51.385567 57.8642581 93.0845361 57.8642581 93.0845361 43.904 51.385567 43.904"></polygon>
                    <polygon id="Fill-33" fill="#3CB44A" mask="url(#mask-2)" points="84.8216495 57.8642581 89.1804124 57.8642581 89.1804124 43.904 84.8216495 43.904"></polygon>
                    <polygon id="Fill-34" fill="#3CB44A" mask="url(#mask-2)" points="53.8 57.8642581 55.8030928 57.8642581 55.8030928 43.904 53.8 43.904"></polygon>
                    <polygon id="Fill-35" fill="#394D57" mask="url(#mask-2)" points="40.5185567 37.3873548 94.7072165 37.3873548 94.7072165 30.7468387 40.5185567 30.7468387"></polygon>
                    <polygon id="Fill-36" fill="#C69534" mask="url(#mask-2)" points="48.4412371 43.904 93.5 43.904 93.5 37.3987097 48.4412371 37.3987097"></polygon>
                    <polygon id="Fill-37" fill="#C69534" mask="url(#mask-2)" points="48.4412371 40.6513548 93.5 40.6513548 93.5 37.3987097 48.4412371 37.3987097"></polygon>
                    <polygon id="Fill-38" fill="#3CB44A" mask="url(#mask-2)" points="115.91134 69.4637419 119.621649 69.4637419 119.621649 33.6856774 115.91134 33.6856774"></polygon>
                    <polygon id="Fill-39" fill="#BC8867" mask="url(#mask-2)" points="99.7216495 69.4637419 109.145361 69.4637419 109.145361 16.0670968 99.7216495 16.0670968"></polygon>
                    <polygon id="Fill-40" fill="#CAC8BE" mask="url(#mask-2)" points="99.7216495 34.2276129 109.145361 34.2276129 109.145361 16.0670968 99.7216495 16.0670968"></polygon>
                    <polygon id="Fill-41" fill="#E4E0D0" mask="url(#mask-2)" points="99.7206186 69.4637419 104.43299 69.4637419 104.43299 16.0670968 99.7206186 16.0670968"></polygon>
                    <polygon id="Fill-42" fill="#A9959B" mask="url(#mask-2)" points="155.993814 69.4637419 165.417526 69.4637419 165.417526 16.0670968 155.993814 16.0670968"></polygon>
                    <polygon id="Fill-43" fill="#E4E0D0" mask="url(#mask-2)" points="155.992784 69.4637419 160.705155 69.4637419 160.705155 16.0670968 155.992784 16.0670968"></polygon>
                    <polygon id="Fill-44" fill="#DBA740" mask="url(#mask-2)" points="109.712371 69.4637419 115.36701 69.4637419 115.36701 34.9047742 109.712371 34.9047742"></polygon>
                    <polygon id="Fill-45" fill="#DBA740" mask="url(#mask-2)" points="165.593814 69.4647742 169.363918 69.4647742 169.363918 18.1006452 165.593814 18.1006452"></polygon>
                    <polygon id="Fill-46" fill="#E9E6D9" mask="url(#mask-2)" points="165.594845 69.4647742 167.420619 69.4647742 167.420619 18.1006452 165.594845 18.1006452"></polygon>
                    <path d="M195.751443,57.8088258 L170.895773,57.8088258 L170.895773,58.565471 L195.162784,58.565471 C195.162784,58.565471 197.528763,59.2797935 197.552474,63.2581161 C197.579278,67.7628903 195.162784,68.7074065 195.162784,68.7074065 L170.895773,68.7074065 L170.895773,69.4640516 L195.751443,69.4640516 C196.727732,69.4640516 199.613299,67.397471 199.639072,63.7123097 C199.664845,59.9156645 196.727732,57.8088258 195.751443,57.8088258" id="Fill-47" fill="#BB4C4A" mask="url(#mask-2)"></path>
                    <path d="M195.869278,68.7070968 L172.780619,68.7070968 C172.780619,68.7070968 173.923918,68.48 173.923918,63.5602581 C173.923918,59.0627097 172.780619,58.5651613 172.780619,58.5651613 L195.869278,58.5651613 C195.869278,58.5651613 197.552784,58.9223226 197.552784,63.5602581 C197.552784,68.3396129 195.869278,68.7070968 195.869278,68.7070968" id="Fill-48" fill="#B2B2B2" mask="url(#mask-2)"></path>
                    <path d="M195.162474,68.7070968 L172.073814,68.7070968 C172.073814,68.7070968 173.217113,68.48 173.217113,63.5602581 C173.217113,59.0627097 172.073814,58.5651613 172.073814,58.5651613 L195.162474,58.5651613 C195.162474,58.5651613 196.845979,58.9223226 196.845979,63.5602581 C196.845979,68.3396129 195.162474,68.7070968 195.162474,68.7070968" id="Fill-49" fill="#CAC8BE" mask="url(#mask-2)"></path>
                    <path d="M170.895361,57.8088258 L170.895361,58.565471 L172.073711,58.565471 C172.073711,58.565471 173.21701,59.0630194 173.21701,63.5605677 C173.21701,68.4803097 172.073711,68.7074065 172.073711,68.7074065 L170.895361,68.7074065 L170.895361,69.4640516 L178.199485,69.4640516 C178.199485,69.4640516 180.506701,69.1326968 180.496392,63.5688258 C180.485052,58.0606968 178.199485,57.8088258 178.199485,57.8088258 L170.895361,57.8088258 Z" id="Fill-50" fill="#E9E6D9" mask="url(#mask-2)"></path>
                </g>
            </g>
        </g>
    </g>
</svg>