<?xml version="1.0" encoding="UTF-8"?>
<svg width="138px" height="139px" viewBox="0 0 138 139" version="1.1" xmlns="http://www.w3.org/2000/svg" xmlns:xlink="http://www.w3.org/1999/xlink">
    <!-- Generator: Sketch 42 (36781) - http://www.bohemiancoding.com/sketch -->
    <title>Page 1</title>
    <desc>Created with Sketch.</desc>
    <defs>
        <polygon id="path-1" points="0 138.788673 137.864359 138.788673 137.864359 0 0 0"></polygon>
    </defs>
    <g id="Page-1" stroke="none" stroke-width="1" fill="none" fill-rule="evenodd">
        <g id="01.-Landing_Page_Updated" transform="translate(-448.000000, -2251.000000)">
            <g id="Page-1" transform="translate(448.000000, 2251.000000)">
                <path d="M13.720479,106.288494 L13.3522431,113.440633 L23.9402636,113.440633 L23.4849815,85.0462312 L22.860561,87.1486651 L22.9827559,84.775299 L23.0112995,81.9514786 L23.4444072,82.5345719 L23.4255354,81.3488312 C23.1325508,80.8611532 23.2325713,72.2066363 23.2325713,72.2066363 C23.4731867,71.0680142 30.4298021,59.5112244 26.9340379,58.2418481 C25.7283662,57.8038803 23.5095149,58.2152261 23.2693713,59.3547905 L14.3189508,78.0533532 C14.3104585,78.0919905 14.3066841,78.1273295 14.3017303,78.1659668 C14.3017303,78.1659668 11.3794328,83.2781041 10.5554431,87.7152668 C9.70102256,92.3187583 10.9446738,96.2543431 10.9446738,96.2543431 L13.720479,106.288494 Z" id="Fill-1" fill="#EFD7BA"></path>
                <path d="M82.1899456,92.4250815 C82.1899456,93.0366815 81.6896072,93.5368459 81.0769815,93.5368459 L24.02212,93.5368459 C23.4102021,93.5368459 22.90892,93.0366815 22.90892,92.4250815 L22.90892,19.7839171 C22.90892,19.1723171 23.4102021,18.6726239 24.02212,18.6726239 L81.0769815,18.6726239 C81.6896072,18.6726239 82.1899456,19.1723171 82.1899456,19.7839171 L82.1899456,92.4250815 Z" id="Fill-3" fill="#966A4E"></path>
                <mask id="mask-2" fill="white">
                    <use xlink:href="#path-1"></use>
                </mask>
                <g id="Clip-6"></g>
                <polygon id="Fill-5" fill="#FFFFFF" mask="url(#mask-2)" points="25.5436821 90.1146424 79.6276513 90.1146424 79.6276513 21.7068525 25.5436821 21.7068525"></polygon>
                <polygon id="Fill-7" fill="#E6E7E8" mask="url(#mask-2)" points="68.6871056 21.7068525 25.3209005 21.7068525 25.3209005 82.4265288 79.779239 82.4265288 79.779239 32.7853881"></polygon>
                <polygon id="Fill-8" fill="#FFFFFF" mask="url(#mask-2)" points="68.6871056 21.7068525 25.3209005 21.7068525 25.3209005 90.5007797 79.779239 90.5007797 79.779239 32.7853881 68.6871056 32.7853881"></polygon>
                <polygon id="Fill-9" fill="#B0B0B0" mask="url(#mask-2)" points="47.5734359 41.2427136 59.4735179 41.2427136 59.4735179 39.7245508 47.5734359 39.7245508"></polygon>
                <polygon id="Fill-10" fill="#B0B0B0" mask="url(#mask-2)" points="47.5732 47.4536576 73.8682154 47.4536576 73.8682154 45.9376153 47.5732 45.9376153"></polygon>
                <polygon id="Fill-11" fill="#B0B0B0" mask="url(#mask-2)" points="47.5732 50.9074542 73.8682154 50.9074542 73.8682154 49.3888203 47.5732 49.3888203"></polygon>
                <polygon id="Fill-12" fill="#B0B0B0" mask="url(#mask-2)" points="47.5732 54.3574814 73.8682154 54.3574814 73.8682154 52.8386119 47.5732 52.8386119"></polygon>
                <polygon id="Fill-13" fill="#B0B0B0" mask="url(#mask-2)" points="47.5732 57.808922 73.8682154 57.808922 73.8682154 56.2900525 47.5732 56.2900525"></polygon>
                <polygon id="Fill-14" fill="#B0B0B0" mask="url(#mask-2)" points="47.5732 61.264839 73.8682154 61.264839 73.8682154 59.7473831 47.5732 59.7473831"></polygon>
                <polygon id="Fill-15" fill="#B0B0B0" mask="url(#mask-2)" points="47.5732 64.7165153 73.8682154 64.7165153 73.8682154 63.1981169 47.5732 63.1981169"></polygon>
                <polygon id="Fill-16" fill="#B0B0B0" mask="url(#mask-2)" points="47.5732 68.1665424 73.8682154 68.1665424 73.8682154 66.6488508 47.5732 66.6488508"></polygon>
                <polygon id="Fill-17" fill="#B0B0B0" mask="url(#mask-2)" points="47.5732 71.6189254 73.8682154 71.6189254 73.8682154 70.1007627 47.5732 70.1007627"></polygon>
                <polygon id="Fill-18" fill="#B0B0B0" mask="url(#mask-2)" points="47.5732 75.052461 73.8682154 75.052461 73.8682154 73.5333559 47.5732 73.5333559"></polygon>
                <polygon id="Fill-19" fill="#B0B0B0" mask="url(#mask-2)" points="47.5732 78.5031949 73.8682154 78.5031949 73.8682154 76.9859746 47.5732 76.9859746"></polygon>
                <polygon id="Fill-20" fill="#B0B0B0" mask="url(#mask-2)" points="47.5732 81.9562847 73.8682154 81.9562847 73.8682154 80.4357661 47.5732 80.4357661"></polygon>
                <polygon id="Fill-21" fill="#966A4E" mask="url(#mask-2)" points="47.4223672 26.5707779 46.0659569 26.5707779 46.0659569 26.2463334 47.4945518 26.2463334"></polygon>
                <polygon id="Fill-22" fill="#966A4E" mask="url(#mask-2)" points="57.5202164 26.5707779 58.8204831 26.5707779 58.8204831 26.2463334 57.4487395 26.2463334"></polygon>
                <path d="M41.2704923,16.9707927 L41.2704923,26.9236639 L46.0679385,26.9236639 C46.0679385,26.9236639 46.0665231,26.0347707 46.0679385,26.0312368 C46.0679385,26.0312368 58.8139487,26.0310012 58.8139487,26.036891 L58.8139487,26.9236639 L63.6982051,26.9236639 L63.6982051,16.9707927 L41.2704923,16.9707927 Z" id="Fill-23" fill="#C0BB69" mask="url(#mask-2)"></path>
                <path d="M50.0242687,11.1551741 L46.7858687,26.3358588 L47.4744533,26.3358588 L50.7984841,10.7511317 L50.5373456,10.6448792 C48.5716123,9.84786729 47.3001251,7.96500627 47.3001251,5.84890797 C47.3001251,2.99422492 49.6258379,0.671746949 52.4849149,0.671746949 C55.3437559,0.671746949 57.6682892,2.99422492 57.6682892,5.84890797 C57.6682892,7.9812622 56.3835918,9.86907068 54.3963918,10.6576012 L54.1326585,10.7629114 L57.4684841,26.3358588 L58.156361,26.3358588 L54.9071097,11.1709588 C57.0030585,10.2217537 58.3417764,8.16266898 58.3417764,5.84890797 C58.3417764,2.62340119 55.7152944,-0.000164915254 52.4849149,-0.000164915254 C49.2550072,-0.000164915254 46.6268738,2.62340119 46.6268738,5.84890797 C46.6268738,8.14547068 47.9512021,10.19843 50.0242687,11.1551741" id="Fill-24" fill="#966A4E" mask="url(#mask-2)"></path>
                <polygon id="Fill-25" fill="#B0B0B0" mask="url(#mask-2)" points="40.7781744 70.3005458 41.5129949 70.3005458 41.5129949 69.5676153 40.7781744 69.5676153"></polygon>
                <path d="M40.7781744,81.1691678 L41.5129949,81.1691678 L41.5129949,80.3935949 L40.7781744,80.3935949 L40.7781744,81.1691678 Z M40.7781744,79.6177864 L41.5129949,79.6177864 L41.5129949,78.8405644 L40.7781744,78.8405644 L40.7781744,79.6177864 Z M40.7781744,78.0645203 L41.5129949,78.0645203 L41.5129949,77.2880051 L40.7781744,77.2880051 L40.7781744,78.0645203 Z M40.7781744,76.5112542 L41.5129949,76.5112542 L41.5129949,75.7356814 L40.7781744,75.7356814 L40.7781744,76.5112542 Z M40.7781744,74.9589305 L41.5129949,74.9589305 L41.5129949,74.1824153 L40.7781744,74.1824153 L40.7781744,74.9589305 Z M40.7781744,73.4061356 L41.5129949,73.4061356 L41.5129949,72.6296203 L40.7781744,72.6296203 L40.7781744,73.4061356 Z M40.7781744,71.8528695 L41.5129949,71.8528695 L41.5129949,71.0768254 L40.7781744,71.0768254 L40.7781744,71.8528695 Z" id="Fill-26" fill="#B0B0B0" mask="url(#mask-2)"></path>
                <polygon id="Fill-27" fill="#B0B0B0" mask="url(#mask-2)" points="40.7781744 82.6793203 41.5129949 82.6793203 41.5129949 81.9459186 40.7781744 81.9459186"></polygon>
                <path d="M29.8955179,82.6793203 L30.6725641,82.6793203 L30.6725641,81.9459186 L29.8955179,81.9459186 L29.8955179,82.6793203 Z M31.4500821,82.6793203 L32.2271282,82.6793203 L32.2271282,81.9459186 L31.4500821,81.9459186 L31.4500821,82.6793203 Z M33.0051179,82.6793203 L33.7828718,82.6793203 L33.7828718,81.9459186 L33.0051179,81.9459186 L33.0051179,82.6793203 Z M34.5599179,82.6793203 L35.3376718,82.6793203 L35.3376718,81.9459186 L34.5599179,81.9459186 L34.5599179,82.6793203 Z M36.1142462,82.6793203 L36.8915282,82.6793203 L36.8915282,81.9459186 L36.1142462,81.9459186 L36.1142462,82.6793203 Z M37.6690462,82.6793203 L38.4468,82.6793203 L38.4468,81.9459186 L37.6690462,81.9459186 L37.6690462,82.6793203 Z M39.2238462,82.6793203 L40.0011282,82.6793203 L40.0011282,81.9459186 L39.2238462,81.9459186 L39.2238462,82.6793203 Z" id="Fill-28" fill="#B0B0B0" mask="url(#mask-2)"></path>
                <polygon id="Fill-29" fill="#B0B0B0" mask="url(#mask-2)" points="28.3838872 82.6793203 29.1184718 82.6793203 29.1184718 81.9459186 28.3838872 81.9459186"></polygon>
                <path d="M28.3838872,81.1691678 L29.1184718,81.1691678 L29.1184718,80.3935949 L28.3838872,80.3935949 L28.3838872,81.1691678 Z M28.3838872,79.6177864 L29.1184718,79.6177864 L29.1184718,78.8405644 L28.3838872,78.8405644 L28.3838872,79.6177864 Z M28.3838872,78.0645203 L29.1184718,78.0645203 L29.1184718,77.2880051 L28.3838872,77.2880051 L28.3838872,78.0645203 Z M28.3838872,76.511961 L29.1184718,76.511961 L29.1184718,75.7356814 L28.3838872,75.7356814 L28.3838872,76.511961 Z M28.3838872,74.9589305 L29.1184718,74.9589305 L29.1184718,74.1824153 L28.3838872,74.1824153 L28.3838872,74.9589305 Z M28.3838872,73.4061356 L29.1184718,73.4061356 L29.1184718,72.6296203 L28.3838872,72.6296203 L28.3838872,73.4061356 Z M28.3838872,71.8528695 L29.1184718,71.8528695 L29.1184718,71.0768254 L28.3838872,71.0768254 L28.3838872,71.8528695 Z" id="Fill-30" fill="#B0B0B0" mask="url(#mask-2)"></path>
                <polygon id="Fill-31" fill="#B0B0B0" mask="url(#mask-2)" points="28.3838872 70.3005458 29.1184718 70.3005458 29.1184718 69.5676153 28.3838872 69.5676153"></polygon>
                <path d="M29.8955179,70.3005458 L30.6725641,70.3005458 L30.6725641,69.5676153 L29.8955179,69.5676153 L29.8955179,70.3005458 Z M31.4500821,70.3005458 L32.2271282,70.3005458 L32.2271282,69.5676153 L31.4500821,69.5676153 L31.4500821,70.3005458 Z M33.0051179,70.3005458 L33.7828718,70.3005458 L33.7828718,69.5676153 L33.0051179,69.5676153 L33.0051179,70.3005458 Z M34.5599179,70.3005458 L35.3369641,70.3005458 L35.3369641,69.5676153 L34.5599179,69.5676153 L34.5599179,70.3005458 Z M36.1142462,70.3005458 L36.8915282,70.3005458 L36.8915282,69.5676153 L36.1142462,69.5676153 L36.1142462,70.3005458 Z M37.6690462,70.3005458 L38.4468,70.3005458 L38.4468,69.5676153 L37.6690462,69.5676153 L37.6690462,70.3005458 Z M39.2238462,70.3005458 L40.0011282,70.3005458 L40.0011282,69.5676153 L39.2238462,69.5676153 L39.2238462,70.3005458 Z" id="Fill-32" fill="#B0B0B0" mask="url(#mask-2)"></path>
                <polygon id="Fill-33" fill="#B0B0B0" mask="url(#mask-2)" points="40.7781744 54.7695339 41.5129949 54.7695339 41.5129949 54.0361322 40.7781744 54.0361322"></polygon>
                <path d="M40.7781744,65.6388627 L41.5129949,65.6388627 L41.5129949,64.8623475 L40.7781744,64.8623475 L40.7781744,65.6388627 Z M40.7781744,64.0860678 L41.5129949,64.0860678 L41.5129949,63.3095525 L40.7781744,63.3095525 L40.7781744,64.0860678 Z M40.7781744,62.5335085 L41.5129949,62.5335085 L41.5129949,61.756522 L40.7781744,61.756522 L40.7781744,62.5335085 Z M40.7781744,60.9807136 L41.5129949,60.9807136 L41.5129949,60.2039627 L40.7781744,60.2039627 L40.7781744,60.9807136 Z M40.7781744,59.4272119 L41.5129949,59.4272119 L41.5129949,58.6506966 L40.7781744,58.6506966 L40.7781744,59.4272119 Z M40.7781744,57.8748881 L41.5129949,57.8748881 L41.5129949,57.0983729 L40.7781744,57.0983729 L40.7781744,57.8748881 Z M40.7781744,56.3220932 L41.5129949,56.3220932 L41.5129949,55.5451068 L40.7781744,55.5451068 L40.7781744,56.3220932 Z" id="Fill-34" fill="#B0B0B0" mask="url(#mask-2)"></path>
                <polygon id="Fill-35" fill="#B0B0B0" mask="url(#mask-2)" points="40.7781744 67.1483085 41.5129949 67.1483085 41.5129949 66.4151424 40.7781744 66.4151424"></polygon>
                <path d="M29.8955179,67.1483085 L30.6725641,67.1483085 L30.6725641,66.4151424 L29.8955179,66.4151424 L29.8955179,67.1483085 Z M31.4500821,67.1483085 L32.2271282,67.1483085 L32.2271282,66.4151424 L31.4500821,66.4151424 L31.4500821,67.1483085 Z M33.0051179,67.1483085 L33.7828718,67.1483085 L33.7828718,66.4151424 L33.0051179,66.4151424 L33.0051179,67.1483085 Z M34.5599179,67.1483085 L35.3376718,67.1483085 L35.3376718,66.4151424 L34.5599179,66.4151424 L34.5599179,67.1483085 Z M36.1142462,67.1483085 L36.8915282,67.1483085 L36.8915282,66.4151424 L36.1142462,66.4151424 L36.1142462,67.1483085 Z M37.6690462,67.1483085 L38.4468,67.1483085 L38.4468,66.4151424 L37.6690462,66.4151424 L37.6690462,67.1483085 Z M39.2238462,67.1483085 L40.0011282,67.1483085 L40.0011282,66.4151424 L39.2238462,66.4151424 L39.2238462,67.1483085 Z" id="Fill-36" fill="#B0B0B0" mask="url(#mask-2)"></path>
                <polygon id="Fill-37" fill="#B0B0B0" mask="url(#mask-2)" points="28.3838872 67.1483085 29.1184718 67.1483085 29.1184718 66.4151424 28.3838872 66.4151424"></polygon>
                <path d="M28.3838872,65.6388627 L29.1184718,65.6388627 L29.1184718,64.8623475 L28.3838872,64.8623475 L28.3838872,65.6388627 Z M28.3838872,64.0860678 L29.1184718,64.0860678 L29.1184718,63.3095525 L28.3838872,63.3095525 L28.3838872,64.0860678 Z M28.3838872,62.5335085 L29.1184718,62.5335085 L29.1184718,61.756522 L28.3838872,61.756522 L28.3838872,62.5335085 Z M28.3838872,60.9807136 L29.1184718,60.9807136 L29.1184718,60.2039627 L28.3838872,60.2039627 L28.3838872,60.9807136 Z M28.3838872,59.4272119 L29.1184718,59.4272119 L29.1184718,58.6506966 L28.3838872,58.6506966 L28.3838872,59.4272119 Z M28.3838872,57.8748881 L29.1184718,57.8748881 L29.1184718,57.0983729 L28.3838872,57.0983729 L28.3838872,57.8748881 Z M28.3838872,56.3220932 L29.1184718,56.3220932 L29.1184718,55.5451068 L28.3838872,55.5451068 L28.3838872,56.3220932 Z" id="Fill-38" fill="#B0B0B0" mask="url(#mask-2)"></path>
                <polygon id="Fill-39" fill="#B0B0B0" mask="url(#mask-2)" points="28.3838872 54.7695339 29.1184718 54.7695339 29.1184718 54.0361322 28.3838872 54.0361322"></polygon>
                <path d="M29.8955179,54.7695339 L30.6725641,54.7695339 L30.6725641,54.0361322 L29.8955179,54.0361322 L29.8955179,54.7695339 Z M31.4500821,54.7695339 L32.2271282,54.7695339 L32.2271282,54.0361322 L31.4500821,54.0361322 L31.4500821,54.7695339 Z M33.0051179,54.7695339 L33.7828718,54.7695339 L33.7828718,54.0361322 L33.0051179,54.0361322 L33.0051179,54.7695339 Z M34.5599179,54.7695339 L35.3369641,54.7695339 L35.3369641,54.0361322 L34.5599179,54.0361322 L34.5599179,54.7695339 Z M36.1142462,54.7695339 L36.8915282,54.7695339 L36.8915282,54.0361322 L36.1142462,54.0361322 L36.1142462,54.7695339 Z M37.6690462,54.7695339 L38.4468,54.7695339 L38.4468,54.0361322 L37.6690462,54.0361322 L37.6690462,54.7695339 Z M39.2238462,54.7695339 L40.0011282,54.7695339 L40.0011282,54.0361322 L39.2238462,54.0361322 L39.2238462,54.7695339 Z" id="Fill-40" fill="#B0B0B0" mask="url(#mask-2)"></path>
                <polygon id="Fill-41" fill="#B0B0B0" mask="url(#mask-2)" points="40.7781744 39.2382864 41.5129949 39.2382864 41.5129949 38.5046492 40.7781744 38.5046492"></polygon>
                <path d="M40.7781744,50.1076153 L41.5129949,50.1076153 L41.5129949,49.3311 L40.7781744,49.3311 L40.7781744,50.1076153 Z M40.7781744,48.5550559 L41.5129949,48.5550559 L41.5129949,47.7785407 L40.7781744,47.7785407 L40.7781744,48.5550559 Z M40.7781744,47.0020254 L41.5129949,47.0020254 L41.5129949,46.2255102 L40.7781744,46.2255102 L40.7781744,47.0020254 Z M40.7781744,45.4487593 L41.5129949,45.4487593 L41.5129949,44.6727153 L40.7781744,44.6727153 L40.7781744,45.4487593 Z M40.7781744,43.8962 L41.5129949,43.8962 L41.5129949,43.1201559 L40.7781744,43.1201559 L40.7781744,43.8962 Z M40.7781744,42.3436407 L41.5129949,42.3436407 L41.5129949,41.5671254 L40.7781744,41.5671254 L40.7781744,42.3436407 Z M40.7781744,40.7915525 L41.5129949,40.7915525 L41.5129949,40.0148017 L40.7781744,40.0148017 L40.7781744,40.7915525 Z" id="Fill-42" fill="#B0B0B0" mask="url(#mask-2)"></path>
                <polygon id="Fill-43" fill="#B0B0B0" mask="url(#mask-2)" points="40.7781744 51.617061 41.5129949 51.617061 41.5129949 50.8831881 40.7781744 50.8831881"></polygon>
                <path d="M29.8955179,51.617061 L30.6725641,51.617061 L30.6725641,50.8831881 L29.8955179,50.8831881 L29.8955179,51.617061 Z M31.4500821,51.617061 L32.2271282,51.617061 L32.2271282,50.8831881 L31.4500821,50.8831881 L31.4500821,51.617061 Z M33.0051179,51.617061 L33.7828718,51.617061 L33.7828718,50.8831881 L33.0051179,50.8831881 L33.0051179,51.617061 Z M34.5599179,51.617061 L35.3376718,51.617061 L35.3376718,50.8831881 L34.5599179,50.8831881 L34.5599179,51.617061 Z M36.1142462,51.617061 L36.8915282,51.617061 L36.8915282,50.8831881 L36.1142462,50.8831881 L36.1142462,51.617061 Z M37.6690462,51.617061 L38.4468,51.617061 L38.4468,50.8831881 L37.6690462,50.8831881 L37.6690462,51.617061 Z M39.2238462,51.617061 L40.0011282,51.617061 L40.0011282,50.8831881 L39.2238462,50.8831881 L39.2238462,51.617061 Z" id="Fill-44" fill="#B0B0B0" mask="url(#mask-2)"></path>
                <polygon id="Fill-45" fill="#B0B0B0" mask="url(#mask-2)" points="28.3838872 51.617061 29.1184718 51.617061 29.1184718 50.8831881 28.3838872 50.8831881"></polygon>
                <path d="M28.3838872,50.1064373 L29.1184718,50.1064373 L29.1184718,49.3306288 L28.3838872,49.3306288 L28.3838872,50.1064373 Z M28.3838872,48.5550559 L29.1184718,48.5550559 L29.1184718,47.7785407 L28.3838872,47.7785407 L28.3838872,48.5550559 Z M28.3838872,47.0020254 L29.1184718,47.0020254 L29.1184718,46.2255102 L28.3838872,46.2255102 L28.3838872,47.0020254 Z M28.3838872,45.4487593 L29.1184718,45.4487593 L29.1184718,44.6727153 L28.3838872,44.6727153 L28.3838872,45.4487593 Z M28.3838872,43.8959644 L29.1184718,43.8959644 L29.1184718,43.1201559 L28.3838872,43.1201559 L28.3838872,43.8959644 Z M28.3838872,42.3436407 L29.1184718,42.3436407 L29.1184718,41.5671254 L28.3838872,41.5671254 L28.3838872,42.3436407 Z M28.3838872,40.7903746 L29.1184718,40.7903746 L29.1184718,40.0148017 L28.3838872,40.0148017 L28.3838872,40.7903746 Z" id="Fill-46" fill="#B0B0B0" mask="url(#mask-2)"></path>
                <polygon id="Fill-47" fill="#B0B0B0" mask="url(#mask-2)" points="28.3838872 39.2382864 29.1184718 39.2382864 29.1184718 38.5046492 28.3838872 38.5046492"></polygon>
                <path d="M29.8955179,39.2382864 L30.6725641,39.2382864 L30.6725641,38.5046492 L29.8955179,38.5046492 L29.8955179,39.2382864 Z M31.4500821,39.2382864 L32.2271282,39.2382864 L32.2271282,38.5046492 L31.4500821,38.5046492 L31.4500821,39.2382864 Z M33.0051179,39.2382864 L33.7828718,39.2382864 L33.7828718,38.5046492 L33.0051179,38.5046492 L33.0051179,39.2382864 Z M34.5599179,39.2382864 L35.3369641,39.2382864 L35.3369641,38.5046492 L34.5599179,38.5046492 L34.5599179,39.2382864 Z M36.1142462,39.2382864 L36.8915282,39.2382864 L36.8915282,38.5046492 L36.1142462,38.5046492 L36.1142462,39.2382864 Z M37.6690462,39.2382864 L38.4468,39.2382864 L38.4468,38.5046492 L37.6690462,38.5046492 L37.6690462,39.2382864 Z M39.2238462,39.2382864 L40.0011282,39.2382864 L40.0011282,38.5046492 L39.2238462,38.5046492 L39.2238462,39.2382864 Z" id="Fill-48" fill="#B0B0B0" mask="url(#mask-2)"></path>
                <polygon id="Fill-49" fill="#B0B0B0" mask="url(#mask-2)" points="31.9747179 79.3164627 38.0285538 79.3164627 38.0285538 73.2706695 31.9747179 73.2706695"></polygon>
                <polygon id="Fill-50" fill="#B0B0B0" mask="url(#mask-2)" points="31.9747179 63.5804847 38.0285538 63.5804847 38.0285538 57.5339847 31.9747179 57.5339847"></polygon>
                <polygon id="Fill-51" fill="#B0B0B0" mask="url(#mask-2)" points="31.9747179 48.0817492 38.0285538 48.0817492 38.0285538 42.0354847 31.9747179 42.0354847"></polygon>
                <polygon id="Fill-52" fill="#6A8A69" mask="url(#mask-2)" points="33.6579641 43.3861407 32.8705385 44.1723153 36.0584564 47.3556508 43.5349897 39.8885237 42.7480359 39.1028203 36.0584564 45.7837729"></polygon>
                <polygon id="Fill-53" fill="#6A8A69" mask="url(#mask-2)" points="33.6579641 59.0482602 32.8705385 59.8339636 36.0584564 63.0175347 43.5349897 55.5506432 42.7480359 54.7647042 36.0584564 61.4456568"></polygon>
                <polygon id="Fill-54" fill="#6A8A69" mask="url(#mask-2)" points="33.6579641 74.557032 32.8705385 75.3427354 36.0584564 78.526071 43.5349897 71.0589439 42.7480359 70.2730049 36.0584564 76.9539575"></polygon>
                <path d="M15.3431938,113.440727 L31.4108759,114.175071 C31.615399,107.791202 32.5964964,108.096059 33.6547323,106.556929 C35.4168862,103.99391 36.12104,100.316536 35.9424656,97.2820949 C35.9424656,91.7011271 32.8161169,86.6782797 32.8347528,86.6269203 L32.0968656,72.3919068 C32.4304246,69.0577915 31.7807631,66.8246034 30.5229579,66.1354932 C28.3515221,64.9433915 26.1819733,65.189822 24.7512554,67.2168661 L23.5625682,84.6349797 C23.5625682,84.6349797 21.5520144,89.3901932 22.9478195,96.8274 L18.5690913,106.491434 C17.3197785,109.069766 16.2523426,111.376695 15.3431938,113.440727" id="Fill-55" fill="#EFD7BA" mask="url(#mask-2)"></path>
                <polygon id="Fill-56" fill="#F1F2F2" mask="url(#mask-2)" points="38.2542605 131.972348 40.6500349 114.90786 4.90897846 110.704877 1.76965538 132.365082"></polygon>
                <polygon id="Fill-57" fill="#FABD68" mask="url(#mask-2)" points="40.6236615 138.788673 41.6512308 122.719566 1.88081026 117.486098 0 138.788673"></polygon>
                <path d="M34.7586615,119.579038 C35.4588051,119.689767 36.1195538,119.217873 36.2311333,118.517455 C36.3427128,117.817507 35.8666718,117.160909 35.1679436,117.049238 C34.4696872,116.936153 33.8063436,117.411109 33.6954718,118.109878 C33.5831846,118.808884 34.0596974,119.465953 34.7586615,119.579038" id="Fill-58" fill="#161D21" mask="url(#mask-2)"></path>
                <path d="M97.5234913,73.783768 L102.317399,78.3069222 L95.2758605,85.0229781 L77.5205682,65.8506375 L77.8116656,65.4282188 L77.0053682,64.8764595 L76.18704,64.31669 L75.9494913,64.1538951 L75.2080656,63.3538205 C75.0929477,62.8430544 72.8238503,60.8539408 72.8238503,60.8539408 C71.9397067,60.2494086 68.9671631,73.8443154 64.0034092,71.7934764 C60.7520349,70.4501239 70.28064,54.7881222 73.0496041,53.8537595 L77.8918708,54.5796222 C77.9220656,54.6001188 80.0062195,55.1865103 80.0345272,55.2091273 C80.0345272,55.2091273 84.4467528,56.9953951 87.8160759,59.42389 C91.3127836,61.9435595 92.9883631,65.3492951 92.9883631,65.3492951 L97.5234913,73.783768 Z" id="Fill-59" fill="#EFD7BA" mask="url(#mask-2)"></path>
                <path d="M111.36081,64.5503042 C111.371897,64.6607975 111.466256,64.7420771 111.567928,64.7319466 L114.483385,64.4353347 C114.586236,64.4249686 114.660779,64.3260195 114.649692,64.2159975 L114.066318,58.4903754 C114.054995,58.3808246 113.961344,58.2988381 113.858964,58.3092042 L110.943036,58.6058161 C110.842072,58.6161822 110.765877,58.7151314 110.7772,58.8246822 L111.36081,64.5503042 Z" id="Fill-60" fill="#B0B0B0" mask="url(#mask-2)"></path>
                <path d="M109.887843,58.7129168 L110.940417,58.6061931 L111.564838,64.732088 L110.512264,64.8390473 C110.41012,64.849649 110.317176,64.7678981 110.305853,64.6574049 L109.721771,58.9320185 C109.710684,58.822232 109.785464,58.7232829 109.887843,58.7129168" id="Fill-61" fill="#FFFFFF" mask="url(#mask-2)"></path>
                <polygon id="Fill-62" fill="#CEAD89" mask="url(#mask-2)" points="63.8659518 63.3916568 66.1914287 63.1551212 96.7719928 60.0467042 101.818783 59.5333466 109.794711 58.7226703 110.419603 64.8488008 102.443439 65.6597127 97.3966492 66.1728347 66.8160851 69.2821941 64.4906082 69.5189653 54.3654185 70.5485076 53.7405262 64.4209636"></polygon>
                <polygon id="Fill-63" fill="#161D21" mask="url(#mask-2)" points="64.0947251 65.6325488 66.4194944 65.3960132 97.0000585 62.2866539 102.047556 61.7735319 110.023012 60.9623844 110.190735 62.6065895 102.214807 63.4177369 97.1675456 63.9310946 66.5874533 67.0406895 64.2624482 67.2767539 54.1365508 68.3065319 53.9692995 66.6623268"></polygon>
                <polygon id="Fill-64" fill="#FFFFFF" mask="url(#mask-2)" points="54.3934431 70.5620778 55.6510123 67.3236134 53.7668995 64.4010795 46.8963867 68.2139202"></polygon>
                <polygon id="Fill-65" fill="#161D21" mask="url(#mask-2)" points="49.7620923 66.6223231 50.0241744 69.1921739 46.8964103 68.2139908"></polygon>
                <path d="M100.993094,79.5700553 L90.7740174,90.2497315 C89.2786636,88.9216925 85.9072174,88.4113976 84.4146944,87.5587858 C81.6211969,85.9612281 78.8274636,84.0215892 77.0169508,81.8899417 C73.4676379,78.1784061 72.3530226,72.8547061 72.3074944,72.8325603 L64.757361,63.955879 C62.4158431,61.9498027 61.4267251,60.0528061 61.8246841,58.7968586 C62.5111456,56.6261027 64.1107662,55.4144468 66.35132,55.8538281 L77.2068482,65.6257637 C77.2068482,65.6257637 81.56812,67.513101 85.370079,73.34474 L94.4280687,76.9943146 C96.8979149,77.9159553 99.0759559,78.773279 100.993094,79.5700553" id="Fill-66" fill="#EFD7BA" mask="url(#mask-2)"></path>
                <polygon id="Fill-67" fill="#F1F2F2" mask="url(#mask-2)" points="120.459657 138.399991 85.0965087 96.5982149 106.191873 71.1312946 134.21696 107.119808"></polygon>
                <polygon id="Fill-68" fill="#FABD68" mask="url(#mask-2)" points="117.550476 138.547708 89.3977682 102.428205 112.518548 73.7202285 137.864312 106.254474 137.864312 138.399991"></polygon>
                <path d="M91.9842892,95.9668015 C91.5896328,96.484871 90.8496226,96.5899456 90.3299405,96.1950914 C89.8100226,95.8007083 89.7090585,95.0616524 90.103479,94.5440541 C90.4957764,94.0259846 91.2383815,93.9213812 91.7568841,94.3152931 C92.2763303,94.7087337 92.3777662,95.4484964 91.9842892,95.9668015" id="Fill-69" fill="#161D21" mask="url(#mask-2)"></path>
            </g>
        </g>
    </g>
</svg>