<?xml version="1.0" encoding="UTF-8"?>
<svg width="121px" height="105px" viewBox="0 0 121 105" version="1.1" xmlns="http://www.w3.org/2000/svg" xmlns:xlink="http://www.w3.org/1999/xlink">
    <!-- Generator: Sketch 42 (36781) - http://www.bohemiancoding.com/sketch -->
    <title>Page 1</title>
    <desc>Created with Sketch.</desc>
    <defs>
        <polygon id="path-1" points="0 0.421737981 0 4.68607694 13.1750767 4.68607694 13.1750767 0.421737981 1.49758519e-20 0.421737981"></polygon>
        <polygon id="path-3" points="4.23363338 0.158324607 0.15486895 0.158324607 0.15486895 11.3734006 4.23363338 11.3734006 4.23363338 0.158324607"></polygon>
    </defs>
    <g id="Page-1" stroke="none" stroke-width="1" fill="none" fill-rule="evenodd">
        <g id="05.My_Profile_No_Data" transform="translate(-837.000000, -492.000000)">
            <g id="Page-1" transform="translate(837.000000, 492.000000)">
                <path d="M12.221221,41.7904398 C12.4737187,41.6837906 12.7648922,41.6145236 12.9621388,41.441356 C13.3002758,41.1450471 13.6704584,40.9762775 14.1036274,41.0147592 C14.7578009,41.0741309 15.1920749,40.6156492 15.7153032,40.3770628 C16.0037142,40.2462251 16.1584174,39.937822 16.1440521,39.5931361 C16.1225041,39.1132147 16.0948785,38.6327435 16.0655954,38.0758586 C16.4059425,38.0681623 16.7860703,38.0764084 17.1628831,38.045623 C17.400463,38.0263822 17.6468831,37.9824031 17.8623626,37.8889476 C18.0358511,37.8136335 18.0806046,37.6355183 17.9375041,37.4612513 C17.8634676,37.371644 17.7982712,37.2748901 17.6982667,37.138555 C18.0872347,36.9994712 18.3104493,37.2177173 18.5336639,37.3304136 C18.659084,37.394733 18.7049425,37.6146283 18.8281525,37.8422199 C19.3668511,37.8444188 19.9569333,37.8647592 20.5459105,37.8449686 C21.0796365,37.8262775 21.5901571,37.8982932 22.0824447,38.0972984 C22.7703215,38.3749162 23.473116,38.5194974 24.2245315,38.4815654 C24.9687644,38.444733 25.6632712,38.7245497 26.3605406,38.9405969 C26.4191068,38.9587382 26.4329196,39.1198115 26.4677279,39.2171152 C26.4688329,39.2176649 26.4704904,39.2182147 26.4715954,39.2187644 C26.4727005,39.2187644 26.473253,39.2187644 26.4738055,39.2193141 C26.8042073,39.0752827 27.1406868,39.1022199 27.492084,39.1379529 C28.3556594,39.223712 29.2225498,39.272089 30.1010429,39.3369581 C30.2060201,39.1412513 30.2828192,38.9983194 30.3811662,38.8158063 C30.5353169,38.8383455 30.708253,38.8482408 30.8734539,38.8911204 C33.2321251,39.4991309 35.5902438,40.1115393 37.9472575,40.7261466 C38.1483717,40.7789215 38.3505909,40.8388429 38.5417598,40.9207539 C40.7136822,41.8575079 42.9298055,42.6958586 45.0282438,43.7958848 C45.3365452,43.9575079 45.639874,44.1279267 45.9321525,44.3148377 C45.9874037,44.3505707 45.9940338,44.4621675 46.0155817,44.5495759 C46.0293945,44.5550733 46.0432073,44.5605707 46.0570201,44.5660681 C46.0851982,44.5638691 46.1144813,44.5605707 46.1437644,44.5589215 C46.1653123,44.557822 46.1863078,44.5594712 46.2084082,44.5600209 C46.1459744,44.5649686 46.0835406,44.5693665 46.0216594,44.5737644 C46.0194493,44.5666178 46.0177918,44.557822 46.0155817,44.5495759 C43.5552484,43.4885812 40.9518146,42.8706754 38.4329151,42.0059372 C37.9389699,41.8360681 37.437842,41.689288 36.9461068,41.5133717 C34.5741753,40.6651257 32.1309699,40.147822 29.6264356,39.8751518 C28.9385589,39.7998377 28.266705,39.5843403 27.587116,39.4392094 C27.2174858,39.3600471 26.8450932,39.2918796 26.4738055,39.2193141 C26.4721479,39.2198639 26.4704904,39.2198639 26.4688329,39.2209634 C26.4682804,39.2198639 26.4677279,39.2182147 26.4677279,39.2171152 C25.8102393,38.9257539 25.2013717,39.039 24.6273123,39.4518534 C23.3670338,38.9230052 22.0410064,38.9026649 20.7133215,38.8960681 C20.4867918,38.8949686 20.2215863,38.8180052 20.0591479,39.0692356 C20.0403626,39.2858325 20.2177187,39.2808848 20.3315361,39.295178 C22.1310658,39.5249686 23.9156776,39.881199 25.7428329,39.8630576 C26.0848374,39.8597592 26.4378922,39.9383717 26.7688466,40.0373246 C28.0081297,40.4089476 29.2650932,40.6563298 30.5535498,40.8152042 C32.3895452,41.0411466 34.1918374,41.4611466 35.9560064,42.0306754 C38.0793078,42.716199 40.2230521,43.3434503 42.3353032,44.0597592 C43.9851023,44.6193927 45.6216411,45.2301518 47.2244767,45.910178 C48.0178831,46.2466178 48.7378055,46.7688691 49.465463,47.2460419 C50.310253,47.8007277 51.1163671,48.4125864 51.9572895,48.9733194 C52.8103671,49.541199 53.5695178,50.1854921 54.037495,51.1211466 C54.1297644,51.3053089 54.2684447,51.4691309 54.4016,51.628555 C54.6054767,51.8726387 54.7563123,51.8220628 54.9938922,51.4471414 C55.0110201,51.418555 55.0380932,51.395466 55.0618511,51.3696283 C55.5055178,52.0727435 55.97681,52.7599162 56.3740658,53.4877696 C56.4862256,53.6939215 56.4580475,54.0567487 56.3480977,54.2755445 C56.2685361,54.4344188 55.948632,54.4745497 55.7104995,54.5784503 C55.6519333,54.425623 55.6033123,54.3387644 55.5839744,54.2458586 C55.3088237,52.9055969 54.2695498,52.1667487 53.2849744,51.3993141 C53.0882804,51.2470366 52.7634037,51.2580314 52.4656,51.185466 C52.2103397,50.7071937 51.8600475,50.322377 51.352842,50.0255183 C50.697011,49.641801 50.1091388,49.1437382 49.4024767,48.8364346 C48.5582393,47.9607016 47.3073534,47.7787382 46.3575863,47.0618796 C45.6619744,46.5368796 44.7663534,46.3818534 43.9563717,46.0712513 C43.924326,46.0586073 43.8884128,46.0443141 43.8552621,46.0459634 C42.5668055,46.1190785 41.5573671,45.3219581 40.412011,44.9508848 C39.9490064,44.8008063 39.5036822,44.5902565 39.0346,44.4676649 C36.73781,43.8673508 34.4785909,43.1499424 32.2320795,42.3891047 C31.6663078,42.1972461 31.1055087,42.0158325 30.4982986,42.0576126 C30.4292347,42.0620105 30.3535406,42.0675079 30.2900018,42.0460681 C29.0485087,41.6299162 27.7296639,41.7629529 26.4688329,41.5040262 C25.6168603,41.3292094 24.780358,41.0790785 23.9300429,40.8943665 C23.4222849,40.7844188 22.9023717,40.7200995 22.3846685,40.6634764 C21.2763306,40.5430838 20.1768329,40.4441309 19.1165635,40.0180838 C18.4242667,39.7393665 17.6739562,39.4848377 16.771705,39.7459634 C16.940221,39.8652565 17.0253078,39.9730052 17.1247598,39.9889476 C17.955737,40.1214346 18.7369881,40.3930052 19.530947,40.6667749 C20.3436913,40.9471414 21.2332347,41.0658848 22.0979151,41.1197592 C22.9095543,41.1708848 23.691358,41.2907277 24.4565863,41.5386597 C25.795874,41.9724031 27.1727324,42.1609634 28.5733489,42.212089 C28.7131342,42.2170366 28.8639699,42.1895497 28.990495,42.2324293 C29.7767187,42.4979529 30.5767553,42.688712 31.4160201,42.7777696 C31.2314813,42.7926126 31.0447324,42.8332932 30.8629562,42.8184503 C28.8440795,42.6535288 26.8263078,42.4847592 24.8090886,42.3071937 C23.2438237,42.1697592 21.681874,41.9757016 20.1149516,41.8904921 C19.07181,41.8327696 18.0209333,41.9229267 16.9733717,41.9438168 C15.7169607,41.9691047 14.4594447,41.9927435 13.2019288,42.0130838 C12.9229105,42.0174817 12.6422347,41.9850471 12.3643215,42.004288 C12.1051936,42.0229791 11.8493808,42.0889476 11.5637324,42.0438691 C11.7830795,41.9603089 12.0046365,41.8816963 12.221221,41.7904398 L12.221221,41.7904398 Z M19.6237689,35.9654136 C19.8773717,35.9654136 20.1486548,35.9450733 20.4160703,35.9698115 C21.028253,36.0258848 21.6045224,35.9368272 22.1062027,35.5685026 C22.3846685,35.364 22.6636868,35.351356 22.9929836,35.4118272 C24.3643169,35.6641571 25.7306776,35.9230838 27.0451023,36.4172984 C27.5279973,36.598712 28.0561982,36.6811728 28.5705863,36.7531885 C29.8833534,36.9362513 31.2021982,37.0720366 32.5144128,37.2594974 C33.0636091,37.3381099 33.6094904,37.4705969 34.1421114,37.6294712 C35.5438329,38.0472723 36.9405817,38.4870628 38.3351205,38.931801 C38.7986776,39.0796806 39.2544995,39.2561466 39.7042438,39.4430576 C40.7015269,39.8581099 41.6849973,40.3066963 42.688358,40.7058063 C43.5994493,41.069733 44.4425817,41.5425079 45.2630612,42.0768534 C46.0194493,42.5688691 46.8222484,42.9943665 47.6217324,43.4171152 C48.0863945,43.6628482 48.5256411,43.9300209 48.9168192,44.2846021 C49.6649196,44.9629791 50.432358,45.620466 51.1848785,46.2933455 C51.5208055,46.5935026 51.8396046,46.9123508 52.1661388,47.2235026 C52.1180703,47.2724293 52.0711068,47.321356 52.0230384,47.3708325 C51.740705,47.1817225 51.4539516,46.9981099 51.1754858,46.8035026 C48.9737279,45.2653351 46.6957233,43.845911 44.2663306,42.6969581 C42.4098922,41.8190262 40.5230658,40.9900209 38.6008785,40.2676649 C37.269326,39.7674031 35.8582119,39.4754921 34.4780384,39.108267 C33.4337918,38.8300995 32.3878877,38.5563298 31.3331434,38.3254398 C30.4491251,38.1324817 29.5512941,38.0076911 28.6595406,37.8466178 C27.9070201,37.7113822 27.1362667,37.6311204 26.4069516,37.4134241 C25.0566137,37.010466 23.6764402,36.882377 22.2841114,36.7784764 C21.4857324,36.718555 20.6928785,36.5959634 19.8994721,36.4887644 C19.648632,36.4546806 19.5502849,36.2870105 19.6237689,35.9654136 L19.6237689,35.9654136 Z M25.9522347,34.8340524 C26.2953443,34.8521937 26.6367963,34.8989215 26.9986913,34.9363037 C27.0655452,35.1001257 27.1274265,35.2524031 27.1870977,35.3980838 C27.0992484,35.4558063 27.0423397,35.5261728 26.9892986,35.5234241 C26.5058511,35.4937382 26.0654995,35.338712 25.678189,35.1034241 C25.6660338,34.841199 25.8290247,34.8269058 25.9522347,34.8340524 L25.9522347,34.8340524 Z M28.170568,33.4602565 C29.7352804,34.0022984 31.3254082,34.211199 32.8724402,34.5998639 C33.1713489,34.675178 33.4907005,34.6795759 33.8012119,34.685623 C33.8658557,34.6867225 33.9697279,34.559733 33.9885132,34.475623 C34.0084037,34.3909634 33.976358,34.2370366 33.9144767,34.1996545 C33.7100475,34.0770628 33.4890429,33.9715131 33.2608557,33.8994974 C32.7066868,33.7252304 32.1453352,33.5729529 31.5994539,33.3431623 C32.3845726,33.2552042 33.153116,33.1469058 33.9260795,33.4168272 C34.2802393,33.5416178 34.6752849,33.5482147 35.0498877,33.6180314 C35.3233808,33.6691571 35.5996365,33.7153351 35.8620795,33.8005445 C36.8466548,34.1199424 37.8312301,34.4426387 38.7832073,34.8505445 C39.1964858,35.0281099 39.6097644,35.2205183 39.9871297,35.4613037 C41.2794539,36.2831623 42.4922164,37.2303613 43.8961479,37.8774031 C44.1746137,38.0060419 44.4066685,38.2374817 44.6575087,38.4254921 C45.2984219,38.9054136 45.9641982,39.3583979 46.5714082,39.8773508 C47.9145635,41.0252042 49.4361799,41.9839476 50.431253,43.5061728 C50.675463,43.879445 51.0202301,44.1905969 51.3329516,44.5165916 C51.6219151,44.8172984 51.8683352,45.1344974 51.9788374,45.7985812 C51.0500658,44.9761728 50.2881525,44.3159372 49.5433671,43.635911 C49.1019105,43.2324031 48.6317233,42.8849686 48.0808694,42.6452827 C47.0852438,42.2115393 46.1769151,41.630466 45.2730064,41.0367487 C44.7514356,40.6953613 44.191189,40.406199 43.6254174,40.1406754 C40.7169973,38.7740262 37.6803945,37.7542618 34.6056685,36.8268534 C33.2846137,36.4288429 31.9298557,36.355178 30.5855954,36.1655183 C29.8601479,36.0638168 29.1302804,35.9972984 28.4031753,35.9060419 C28.3053808,35.8933979 28.2142164,35.8307277 28.0943215,35.7801518 C28.0899014,35.235911 28.2120064,34.6889215 27.9644813,34.1507277 C27.8915498,33.9924031 28.0876913,33.7114869 28.170568,33.4602565 L28.170568,33.4602565 Z M57.2890247,52.2986859 C57.6647324,52.9209895 57.7282712,53.636199 57.5857233,54.520178 C57.4553306,54.2799424 57.3558785,54.1749424 57.3442758,54.0616963 C57.2652667,53.2563298 56.9807233,52.548267 56.4795954,51.9006754 C56.2447781,51.5955707 56.0160384,51.2360419 56.0342712,50.6885026 C56.5055635,51.2844188 56.9613854,51.7533455 57.2890247,52.2986859 L57.2890247,52.2986859 Z M57.7940201,54.8544188 C57.8117005,54.9071937 57.8299333,54.9599686 57.8470612,55.0127435 C57.815568,55.0336335 57.7846274,55.0550733 57.7531342,55.0765131 C57.7453991,55.0193403 57.7337963,54.9616178 57.7337963,54.904445 C57.7349014,54.8879529 57.7724721,54.8714607 57.7940201,54.8544188 L57.7940201,54.8544188 Z M46.3752667,47.7682932 L46.3874219,47.6984764 L46.464221,47.7463037 L46.3752667,47.7682932 Z M45.1934447,47.1630314 C45.1774219,47.1283979 45.1608466,47.0937644 45.1437187,47.0585812 C45.1718968,47.0706754 45.2000749,47.0816702 45.2277005,47.0932147 C45.2160977,47.1163037 45.204495,47.1393927 45.1934447,47.1630314 L45.1934447,47.1630314 Z M58.7255543,53.0853613 C59.0200429,53.5597853 59.240495,54.0677435 59.3482347,54.6136335 C59.4084584,54.9203874 59.2183945,55.0523246 58.8128511,55.0380314 C58.6769333,54.3140262 58.9178283,53.5476911 58.3338237,52.9583717 C58.6178146,52.8291832 58.6587005,52.978712 58.7255543,53.0853613 L58.7255543,53.0853613 Z M61.0715178,53.8709372 C61.347221,53.0980052 61.3356183,52.3069319 61.3328557,51.510911 C61.3317507,51.3729267 61.3328557,51.2354921 61.3328557,50.8495759 C61.4825863,53.0265393 61.4687735,53.2882147 61.0864356,55.0974031 C60.9737233,54.6834503 60.9322849,54.2596021 61.0715178,53.8709372 L61.0715178,53.8709372 Z M63.6578237,54.8461728 C63.6755041,54.8747592 63.6931845,54.9027958 63.7108648,54.9308325 C63.6882119,54.9913037 63.6655589,55.0512251 63.6434584,55.1111466 C63.6263306,55.0825602 63.5920749,55.0495759 63.596495,55.024288 C63.6075452,54.963267 63.6362758,54.9055445 63.6578237,54.8461728 L63.6578237,54.8461728 Z M64.588253,51.7429005 C64.8766639,51.4641832 65.0705954,51.0903613 65.3733717,50.6681623 C65.4551434,51.1948115 65.2247461,51.5257539 65.0153443,51.8000733 C64.4777507,52.5053874 64.156189,53.2733717 64.0749699,54.1513037 C64.0672347,54.2293665 63.961705,54.2991832 63.8263397,54.4646545 C63.7395954,53.3822199 63.8208146,52.4833979 64.588253,51.7429005 L64.588253,51.7429005 Z M66.1828009,51.5867749 C66.2723078,51.4295497 66.379495,51.3003613 66.5911068,51.3536859 C66.5640338,51.1074031 66.451874,50.8385812 66.7347598,50.670911 C66.7386274,50.6522199 66.7430475,50.6340785 66.7463626,50.6148377 C66.7557553,50.5955969 66.7640429,50.5752565 66.7723306,50.555466 C66.7706731,50.5103874 66.7690155,50.4647592 66.768463,50.4191309 C66.7850384,50.4334241 66.8176365,50.4526649 66.8154265,50.4598115 C66.8032712,50.4927958 66.7878009,50.5241309 66.7723306,50.555466 C66.7734356,50.5851518 66.7745406,50.6153874 66.7756457,50.6450733 C66.7596228,50.6533194 66.7485726,50.6626649 66.7347598,50.670911 C66.6911114,50.8968534 66.6424904,51.1189476 66.5933169,51.3399424 C66.5888968,51.4718796 66.5844767,51.5977696 66.5806091,51.7231099 C66.7093443,51.7165131 66.8938831,51.7604921 66.9546594,51.6928743 C67.1635087,51.4641832 67.3662804,51.2135026 67.5038557,50.9380838 C67.8265224,50.2932408 68.3265452,49.7962775 68.8873443,49.3955183 C70.3349242,48.3636597 71.8117872,47.3724817 73.3041205,46.4060419 C73.8251388,46.0679529 74.4146685,45.8271675 74.9898329,45.5797853 C77.6242073,44.4489738 80.3851068,43.6859372 83.1117507,42.8239476 C84.4753489,42.3935026 85.8290018,41.9262251 87.2075178,41.5507539 C88.7225041,41.1384503 90.2678785,40.8652304 91.8348009,40.6849162 C92.7298694,40.5821152 93.6000749,40.2814084 94.4863032,40.0939476 C94.9951662,39.986199 95.5134219,39.8608586 96.0283626,39.8564607 C97.7847963,39.8399686 99.5003443,39.4991309 101.229705,39.2660419 C101.291034,39.2577958 101.344075,39.1940262 101.46397,39.1132147 C101.346285,39.0291047 101.2507,38.9037644 101.154011,38.9026649 C100.526358,38.8971675 99.8981525,38.9103613 99.2716046,38.9345497 C98.1897872,38.9757801 97.1101799,39.0483455 96.0283626,39.072534 C95.467011,39.0857277 94.9156046,39.0928743 94.3769059,39.2841832 C93.0834767,39.7443141 91.7254037,39.8773508 90.3767233,40.0686597 C88.6120018,40.3187906 86.8826411,40.7184503 85.185326,41.2758848 C83.0653397,41.9724031 80.9238055,42.6062513 78.8016091,43.2994712 C77.8070886,43.6243665 76.8390886,44.0262251 75.8572758,44.3890524 C75.7020201,44.4462251 75.5406868,44.4852565 75.382116,44.5308848 C75.382116,44.5374817 75.3782484,44.5407801 75.3782484,44.547377 C75.3246548,44.5677173 75.2699562,44.5880576 75.2163626,44.6083979 C75.263326,44.5853089 75.309737,44.5616702 75.3567005,44.5385812 C75.3655406,44.5363822 75.3743808,44.5336335 75.382116,44.5308848 C75.3904037,44.2279791 75.673842,44.1829005 75.8616959,44.0855969 C76.7307963,43.6408586 77.6015543,43.1977696 78.4922027,42.7997592 C79.8287279,42.2027435 81.1641479,41.5914346 82.5365863,41.0840262 C83.7432712,40.6381885 84.9924995,40.2995497 86.2362027,39.9620105 C87.6158237,39.5876387 89.0059425,39.2462513 90.4010338,38.9334503 C91.2496913,38.7426911 92.1132667,38.5871152 92.977947,38.4991571 C93.8183169,38.4133979 94.6349288,38.2479267 95.4327553,37.9917487 C96.1664904,37.7564607 96.9101708,37.5821937 97.6759516,37.4958848 C98.542842,37.3980314 99.4097324,37.289733 100.277728,37.205623 C100.657856,37.1687906 101.044614,37.1435026 101.366728,37.4425602 C101.460102,37.5294188 101.614253,37.5684503 101.747961,37.5937382 C102.668445,37.7680052 103.591691,37.9318272 104.519911,38.1005969 C104.684559,38.411199 104.371285,38.5986597 104.325426,38.852089 C104.284541,39.0813298 104.279568,39.3166178 104.256363,39.5733455 C103.367372,39.7074817 102.54192,39.9565131 101.713153,40.2363298 C100.931901,40.5002042 100.072746,40.5980576 99.2423215,40.637089 C98.3914539,40.6777696 97.5776046,40.8250995 96.7825406,41.0895236 C95.5443626,41.5007277 94.2586685,41.6035288 92.974632,41.735466 C92.5276502,41.781644 92.0850886,41.8723508 91.6408694,41.9449162 C91.4347826,41.9784503 91.2270384,42.060911 91.0248192,42.048267 C90.3048968,42.0015393 89.6463032,42.2280314 88.9866046,42.4561728 C86.7776639,43.2219581 84.5449653,43.9063822 82.2818785,44.4951518 C81.9453991,44.5825602 81.6161023,44.7013037 81.2950932,44.8348901 C80.4917416,45.1674817 79.6972301,45.5204136 78.8960886,45.8579529 C78.7380703,45.9244712 78.5662393,45.9926387 78.3988283,45.9992356 C76.9192027,46.0586073 75.6539516,46.693555 74.4284813,47.4417487 C74.1909014,47.5863298 73.9660292,47.7704921 73.7085589,47.861199 C73.1107416,48.0717487 72.6057461,48.3971937 72.0863854,48.7644188 C71.4416046,49.2190524 70.7531753,49.6363037 70.0680612,50.0354136 C69.5558831,50.3333717 69.2315589,50.7396283 68.9359653,51.2354921 C67.9972484,51.1849162 67.5436365,51.9138691 66.9474767,52.4262251 C66.3142986,52.968267 65.9512986,53.6504921 65.7999105,54.4481623 C65.5374676,54.6031885 65.3358009,54.4206754 65.1181114,54.3981361 C64.9125772,53.9418534 64.9556731,53.5955183 65.2402164,53.2052042 C65.6054265,52.7027435 65.8722895,52.1293665 66.1828009,51.5867749 L66.1828009,51.5867749 Z M69.6083717,46.9513822 C69.7266091,46.8271414 69.863632,46.7199424 69.9978922,46.6121937 C70.7664356,45.9931885 71.5791799,45.4483979 72.5317096,45.1460419 C72.5377872,45.1350471 72.5427598,45.1229529 72.5488374,45.1125079 C72.5593352,45.1152565 72.5665178,45.1119581 72.5759105,45.1147068 C72.6726,44.8293927 72.9223352,44.8200471 73.1621251,44.7958586 C73.0074219,44.9794712 72.8599014,45.1812251 72.5759105,45.1147068 C72.5737005,45.1224031 72.5687279,45.1246021 72.5665178,45.1328482 C72.5543626,45.1366963 72.5438648,45.1427435 72.5317096,45.1460419 C72.4919288,45.221356 72.4604356,45.3082147 72.3980018,45.3510942 C71.4902256,45.979445 70.5791342,46.5995497 69.6658329,47.2180052 C69.5868237,47.2718796 69.4901342,47.2993665 69.3823945,47.3477435 C69.3138831,47.1124555 69.5100247,47.0541832 69.6083717,46.9513822 L69.6083717,46.9513822 Z M81.5835041,40.6403874 C81.5536685,40.6887644 81.5243854,40.7365916 81.4923397,40.7844188 C81.4912347,40.7849686 81.4895772,40.7855183 81.4884721,40.7860681 C81.4846046,40.7926649 81.4812895,40.7992618 81.4779744,40.8053089 C81.4685817,40.8042094 81.4597416,40.8036597 81.4509014,40.8025602 C81.4387461,40.8086073 81.4276959,40.8168534 81.4155406,40.8179529 C81.3945452,40.8196021 81.3713397,40.800911 81.3486868,40.7915654 C81.383495,40.7954136 81.4166457,40.798712 81.4509014,40.8025602 C81.4630566,40.7959634 81.4763169,40.7926649 81.4884721,40.7860681 C81.4984174,40.767377 81.5072575,40.7481361 81.5188603,40.7305445 C81.5393032,40.6997592 81.5619562,40.670623 81.5835041,40.6403874 L81.5835041,40.6403874 Z M71.2156274,43.272534 C72.8151479,41.5073246 74.5903671,39.9686073 76.7678146,38.9224555 C78.336947,38.1687644 79.9198922,37.4398115 81.4000703,36.5113037 C81.6857187,36.3326387 82.0387735,36.2342356 82.3741479,36.1666178 C83.0935178,36.0209372 83.7891297,35.8142356 84.4759014,35.5531099 C85.0256502,35.3436597 85.6024721,35.2007277 86.174874,35.0533979 C86.7478283,34.9055183 87.3268603,34.7785288 87.9081023,34.6636335 C88.2816,34.5894188 88.6622804,34.5130052 89.0407507,34.5097068 C89.6070749,34.5058586 90.1474311,34.4261466 90.675632,34.2188953 C90.8977416,34.1325864 91.1452667,34.0974031 91.3839516,34.0638691 C91.9359105,33.9858063 92.493947,33.9418272 93.0431434,33.847822 C93.5658192,33.7582147 94.0652895,33.8291309 94.6139333,33.9143403 C94.4570201,34.5322461 94.3139196,35.0918796 94.1691616,35.6597592 C94.0028557,35.702089 93.8630703,35.7823508 93.7404128,35.7614607 C93.1740886,35.6641571 92.638705,35.8032408 92.0884037,35.9010942 C91.0259242,36.0902042 89.951842,36.2193927 88.8866,36.3931099 C88.3379562,36.4821675 87.7848922,36.577822 87.2528237,36.7328482 C85.7477826,37.1726387 84.2427416,37.617377 82.7564858,38.1132408 C81.8332393,38.4210942 80.9414858,38.8229529 80.0375772,39.1885288 C79.6176685,39.3578482 79.207705,39.551356 78.7855863,39.7157277 C77.5794539,40.1863037 76.4501205,40.7888168 75.3854311,41.5304136 C74.7892712,41.945466 74.1273626,42.2742094 73.4682164,42.5886597 C72.8637689,42.8783717 72.3112575,43.2258063 71.8349927,43.6952827 C71.3603854,44.1642094 70.8161616,44.5363822 70.2172393,44.8293927 C70.1360201,44.8689738 70.0327005,44.8629267 69.817221,44.8981099 C70.3316091,44.2983455 70.7609105,43.774445 71.2156274,43.272534 L71.2156274,43.272534 Z M106.301207,40.6667749 C106.374691,40.683267 106.404527,40.8883194 106.491824,41.0944712 C106.142637,41.1219581 105.880194,41.164288 105.617198,41.1598901 C104.881805,41.1477958 104.161883,41.220911 103.435331,41.3550471 C100.586582,41.8783979 97.7223626,42.2929005 94.8244402,42.4506754 C93.6746639,42.5138953 92.5293078,42.655178 91.3828466,42.7541309 C90.9380749,42.7931623 90.4905406,42.8135026 90.0275361,42.7057539 C90.1667689,42.6727696 90.3104219,42.6002042 90.4435772,42.6144974 C90.9430475,42.6667225 91.4082621,42.573267 91.8734767,42.399 C92.1303945,42.3033455 92.4094128,42.2483717 92.6834584,42.2181361 C93.5486913,42.1224817 94.4194493,42.0719058 95.2824721,41.9553613 C95.7626046,41.8910419 96.2338968,41.743712 96.702979,41.6117749 C97.5753945,41.3660419 98.4450475,41.172534 99.3655315,41.115911 C100.398728,41.0515916 101.441869,40.9262513 102.4165,40.4743665 C102.882819,40.2583194 103.416545,40.1830052 103.923751,40.0582147 C104.291723,39.9675079 104.666879,39.8998901 105.166349,39.7954398 C105.472993,40.1802565 105.789582,40.5474817 106.301207,40.6667749 L106.301207,40.6667749 Z M76.3108877,47.1498377 C76.2827096,47.1553351 76.2523215,47.1415916 76.2224858,47.1360942 C76.230221,47.1108063 76.2374037,47.065178 76.2462438,47.065178 C76.2760795,47.0629791 76.3070201,47.077822 76.3379607,47.0866178 C76.328568,47.1086073 76.3230429,47.1476387 76.3108877,47.1498377 L76.3108877,47.1498377 Z M75.0141434,47.7748901 L75.018011,47.7006754 L75.1036502,47.7380576 L75.0141434,47.7748901 Z M71.7686913,100.572298 C71.3520977,100.886749 70.9493169,101.21989 70.5388009,101.543136 C70.4365863,101.623398 70.3393443,101.762482 70.1625406,101.587665 C70.3896228,101.255073 70.6122849,100.910387 70.8548374,100.580545 C71.0808146,100.27544 71.1592712,99.9455969 71.002358,99.6036597 C70.9178237,99.4200471 70.7747233,99.2435812 70.6156,99.1176911 C70.1708283,98.7658586 69.9862895,98.3095759 69.9719242,97.7609372 C69.9647416,97.4492356 69.9255132,97.137534 69.9233032,96.8258325 C69.9177781,95.7824293 69.914463,94.7390262 69.9233032,93.6961728 C69.9697142,88.8634241 69.8122484,84.0334241 69.9768968,79.1984764 C70.1498329,74.1210942 70.4879699,69.0607539 71.0294311,64.0119581 C71.073632,63.5980052 71.0913123,63.1796545 71.0896548,62.7629529 C71.0835772,61.3726649 71.074737,59.9812775 71.0415863,58.5909895 C71.0310886,58.1424031 70.9520795,57.6938168 70.8752804,57.2496283 C70.85981,57.157822 70.7183671,57.0869058 70.5951571,56.9676126 C70.3393443,57.5717749 70.3106137,58.1220628 70.3061936,58.6783979 C70.2979059,59.8955183 70.2951434,61.1126387 70.2642027,62.3292094 C70.2509425,62.8481623 70.1879562,63.3671152 70.1216548,63.8827696 C69.8807598,65.7788168 69.5829562,67.6699162 69.3934447,69.5703613 C69.1696776,71.8182408 69.0061342,74.073267 68.8702164,76.3277435 C68.7414813,78.4788691 68.6282164,80.6338429 68.6022484,82.7888168 C68.5508648,87.0646806 68.5641251,91.3427435 68.5519699,95.6197068 C68.5497598,96.3486597 68.5519699,97.0781623 68.5519699,97.8142618 C68.291737,97.9385026 67.9734904,97.9951257 67.8165772,98.1842356 C67.3668329,98.7257277 66.7789607,98.8285288 66.1369425,98.8840524 C65.580011,98.9318796 65.0418648,99.0467749 64.6269288,99.493712 C64.3794037,99.7581361 64.0274539,99.8230052 63.6622438,99.8186073 C62.8583397,99.808712 62.0544356,99.8180576 61.251084,99.8076126 C61.0438922,99.8048639 60.8179151,99.8021152 60.6322712,99.7246021 C59.8985361,99.4150995 59.1299927,99.4293927 58.3620018,99.4546806 C57.1304539,99.495911 55.928189,99.3617749 54.7651525,98.9395759 C54.6623854,98.9032932 54.5253626,98.9643141 54.2419242,99.0011466 C54.5480155,99.2402827 54.7154265,99.4145497 54.9193032,99.5184503 C55.1657233,99.6426911 55.4557918,99.6800733 55.7016594,99.8054136 C55.9066411,99.9109634 56.070737,100.094576 56.263011,100.229262 C56.312737,100.263346 56.4000338,100.250152 56.4702027,100.246853 C56.8177324,100.229812 57.1702347,100.240806 57.5116868,100.184183 C58.5238877,100.014314 59.5228283,99.9659372 60.5051936,100.335911 C60.6344813,100.384288 60.7792393,100.427168 60.912947,100.418372 C62.2572073,100.330963 63.6395909,100.713031 64.9418603,100.098424 C65.0026365,100.069838 65.0783306,100.052796 65.1451845,100.056644 C65.7883078,100.097874 66.2927507,99.7482408 66.7706731,99.4172984 C67.2414128,99.0924031 67.7309379,98.8857016 68.2851068,98.796644 C68.3762712,98.9219843 68.4646731,99.0445759 68.5547324,99.1688168 C68.7431388,99.0390785 68.9011571,98.9307801 69.0934311,98.7988429 C69.1923306,99.0198377 69.2315589,99.2001518 69.3387461,99.321644 C69.4719014,99.4733717 69.6691479,99.5662775 69.8244037,99.7020628 C70.1172347,99.9582408 70.1614356,100.243005 69.8929151,100.515126 C69.5790886,100.833974 69.2503443,101.169864 68.8635863,101.380414 C67.857463,101.929052 66.790011,102.335309 65.6424447,102.504079 C65.4402256,102.533764 65.2507142,102.644812 65.0501525,102.695387 C64.2064676,102.908136 63.3705178,103.188503 62.5130201,103.303398 C60.6184584,103.554628 58.7763854,102.956513 56.8995041,102.861408 C56.8663534,102.860309 56.8304402,102.849864 56.7983945,102.838319 C55.8928283,102.493634 54.9110155,102.400728 54.0192621,102.021408 C53.3501708,101.737194 52.6241708,101.485963 52.0755269,101.035728 C51.2417872,100.350754 50.9810018,100.10667 52.1622712,99.2853613 C52.0479014,98.8774555 52.2661434,98.5360681 52.5738922,98.2249162 C52.805947,97.9896283 52.8860612,97.6900209 52.8816411,97.3640262 C52.8788785,97.0858586 52.8866137,96.8076911 52.8860612,96.5295236 C52.8755635,92.5653613 52.8683808,88.601199 52.8518055,84.6370366 C52.8473854,83.4545497 52.8396502,82.2720628 52.7904767,81.0917749 C52.7026274,78.972534 52.5705772,76.8554921 52.4777553,74.736801 C52.3556502,71.9556754 52.0396137,69.1937906 51.6837963,66.4352042 C51.4572667,64.6787906 51.0799014,62.9405183 51.1362575,61.1533194 C51.1627781,60.3193665 51.1500703,59.4843141 51.1246548,58.6498115 C51.110842,58.2012251 51.036253,57.7537382 50.9787918,57.306801 C50.9611114,57.170466 50.9086228,57.0368796 50.6401023,57.0594188 C50.4588785,57.506356 50.3947872,58.0033194 50.3898146,58.5151257 C50.3765543,59.9757801 50.3577689,61.4353351 50.3483763,62.8959895 C50.3461662,63.2082408 50.362189,63.5221414 50.3898146,63.8338429 C50.5997689,66.1526387 50.818011,68.4714346 51.0301753,70.7902304 C51.4097507,74.9495497 51.5025726,79.123712 51.5495361,83.2934764 C51.6081023,88.4632147 51.5108603,93.6357016 51.4810247,98.7427696 C50.9970247,99.216644 50.5892712,99.6448901 49.9610658,99.7257016 C49.8654813,99.6509372 49.7704493,99.5981623 49.7041479,99.5217487 C49.0610247,98.7801518 48.4029836,98.0627435 47.3753123,97.8527435 C46.6056639,97.1980052 45.6542393,96.9649162 44.7099973,96.7087382 C44.4425817,96.6361728 44.1895315,96.5091832 43.9254311,96.4168272 C42.2457963,95.8324555 40.5794219,95.2052042 38.8782393,94.6857016 C37.8163123,94.361356 36.7090795,94.1601518 35.6090292,93.9825864 C34.7786046,93.849 33.9597826,93.7055183 33.1685863,93.4119581 C32.4127507,93.1310419 31.6303945,92.9710681 30.8248329,92.8902565 C29.5413489,92.7627173 28.2545498,92.6417749 26.9815635,92.4383717 C25.7328877,92.2388168 24.4831068,92.1684503 23.2239333,92.1783455 C22.4896457,92.1832932 21.7559105,92.1953874 21.0221753,92.1953874 C20.6779607,92.1948377 20.3193808,92.250911 19.9773763,91.9886859 C19.9331753,91.2965654 19.8033352,90.5819058 20.0707507,89.8633979 C20.1646776,89.6121675 20.1950658,89.3114607 20.1635726,89.044288 C19.9978192,87.6298115 19.9436731,86.2087382 19.8851068,84.7882147 C19.8806868,84.6854136 19.844221,84.583712 19.8276457,84.480911 C19.4607781,82.1087906 19.1889425,79.7273246 19.0751251,77.3288168 C18.9834082,75.3849424 18.8718009,73.4482147 18.4999607,71.5257801 C18.0706594,69.3092356 17.6894265,67.0811466 17.4971525,64.8261204 C17.4441114,64.2071152 17.3065361,63.5908586 17.157358,62.9861466 C16.9087279,61.9735288 16.6186594,60.971356 16.3479288,59.9642356 C15.4815909,56.7438691 14.7285178,53.4866702 13.214084,50.4785026 C13.1356274,50.3234764 13.069326,50.1613037 13.0052347,50.0007801 C12.77539,49.4197068 12.5510703,48.8369843 12.3206731,48.2564607 C12.1156913,47.7397068 11.9383352,47.2092094 11.6913626,46.7133455 C11.2681388,45.8650995 11.0532119,44.9580314 10.7902164,44.0064346 C11.2405132,43.845911 11.6554493,43.6804398 12.0814356,43.5501518 C12.3792393,43.459445 12.5659881,43.3022199 12.6278694,42.9916178 C12.6527324,42.8695759 12.730084,42.7590785 12.7770475,42.6579267 C12.9748466,42.6469319 13.1135269,42.6282408 13.2522073,42.6315393 C15.5578374,42.6903613 17.8634676,42.7486335 20.1685452,42.816801 C20.5171799,42.8272461 20.8641571,42.8816702 21.2111342,42.9201518 C22.8078922,43.098267 24.4040977,43.2813298 26.0008557,43.4561466 C28.4296959,43.7205707 30.8695863,43.8739476 33.2840612,44.291199 C35.2504493,44.6309372 37.1693215,45.139445 39.083221,45.6809372 C39.350084,45.7562513 39.6103169,45.8650995 39.8628146,45.9810942 C41.6374813,46.7991047 43.4220932,47.5956754 45.1768694,48.4538168 C46.4283078,49.0662251 47.6836137,49.6885288 48.7654311,50.5879005 C49.3284402,51.0546283 49.8920018,51.5230052 50.4284904,52.0194188 C50.8953626,52.4526126 51.4174858,52.7896021 52.0025954,53.0259895 C52.10039,53.0661204 52.2810612,53.0050995 52.3755406,52.9308848 C52.5335589,52.8055445 52.5081434,52.6081885 52.4009562,52.4619581 C52.2992941,52.3250733 52.1534311,52.220623 52.0213808,52.1079267 C51.7307598,51.8583455 51.4318511,51.6186597 51.1456502,51.3646806 C50.4157826,50.717089 49.7030429,50.0519058 48.9610201,49.4197068 C48.6007826,49.1129529 48.1908192,48.8650209 47.7885909,48.5797068 C48.0510338,48.4263298 48.2665132,48.5439738 48.3985635,48.6715131 C49.0107461,49.2580838 49.7908922,49.574733 50.4865041,50.0238691 C50.9224356,50.3053351 51.4434539,50.5598639 51.7152895,50.9655707 C52.2274676,51.7275079 52.8893763,52.3377173 53.4993489,52.9985026 C53.9037872,53.436644 54.279495,53.8720366 54.4877918,54.6053874 C53.6894128,54.1952827 53.7098557,55.1199424 53.1954676,55.2749686 C52.8871662,55.1710681 52.5722347,55.0644188 52.3114493,54.975911 C52.2263626,54.3404136 52.5534493,53.915466 52.8230749,53.4624817 C52.6866046,53.3761728 52.5827324,53.2618272 52.5252712,53.2810681 C51.7108694,53.5630838 51.2334995,54.169445 50.9826594,54.9616178 C50.9075178,55.198555 50.9815543,55.4426387 51.1450977,55.6476911 C51.3456594,55.8994712 51.5804767,56.1391571 51.9125361,56.1408063 C52.4296868,56.143555 52.8584356,56.3612513 53.2871845,56.5948901 C53.6319516,56.784 53.9955041,56.8587644 54.3872347,56.8840524 C54.7673626,56.9087906 55.1425178,56.994 55.5193306,57.0583194 C55.8613352,57.1165916 56.2005772,57.1869581 56.5425817,57.2430314 C56.7475635,57.2765654 56.9774082,57.2457801 57.159737,57.3254921 C57.8912621,57.6459895 58.6598055,57.6152042 59.4277963,57.613555 C60.3720384,57.6119058 61.3157279,57.6047592 62.2594174,57.6152042 C62.9262986,57.6223508 63.5826822,57.600911 64.2153078,57.344733 C64.4031616,57.2683194 64.6241662,57.2562251 64.831358,57.2496283 C65.7750475,57.2171937 66.6518831,56.7636597 67.6093854,56.8164346 C67.6751342,56.8202827 67.7458557,56.7856492 67.8082895,56.7565131 C68.4050018,56.4772461 68.9818237,56.1996283 69.6614128,56.0929791 C70.4001205,55.9769843 70.6481982,55.2079005 70.3056411,54.5377696 C70.0255178,53.9907801 69.5945589,53.6026649 69.0790658,53.3036073 C68.92381,53.2134503 68.7376137,53.2645759 68.6574995,53.5553874 C68.9055772,53.9687906 69.2464767,54.4206754 69.1304493,55.0215393 C68.9232575,55.0732147 68.7563991,55.1155445 68.5884356,55.1562251 C68.4282073,55.1941571 68.2674265,55.2298901 68.0939379,55.2705707 C67.9221068,55.0369319 67.8143671,54.7972461 67.6287233,54.6625602 C67.4541297,54.5366702 67.1977644,54.520178 66.9640521,54.4520105 C67.1176502,54.1425079 67.2414128,53.854445 67.4005361,53.5867225 C67.4872804,53.4410419 67.637011,53.3327435 67.7524858,53.2030052 C68.4210247,52.4526126 69.211116,51.8077696 69.7249516,50.9226911 C69.7907005,50.809445 69.9205406,50.7247853 70.0349105,50.6489215 C70.5863169,50.2855445 71.1277781,49.9051257 71.7007324,49.5791309 C72.1245087,49.3377958 72.5521525,49.1305445 72.8969196,48.7660681 C73.0670932,48.5868534 73.3295361,48.430178 73.6256822,48.5544188 C72.9284128,49.1008586 72.2267233,49.6170628 71.5642621,50.1777958 C70.7404676,50.8743141 69.9476137,51.6071152 69.1431571,52.3267225 C69.0934311,52.371801 69.0326548,52.4317225 69.0238146,52.4921937 C69.0039242,52.6219319 68.9685635,52.7841047 69.0276822,52.8792094 C69.0845909,52.9699162 69.2536594,53.0336859 69.3718968,53.0325864 C69.5011845,53.0314869 69.6332347,52.9501257 69.7564447,52.888555 C70.2907233,52.6219319 70.7559379,52.2640524 71.1885543,51.8500995 C72.2245132,50.8589215 73.3621342,50.0062775 74.6240703,49.3075602 C76.6125589,48.2069843 78.7076822,47.3350995 80.756947,46.3675602 C80.972979,46.2653089 81.217189,46.202089 81.4553215,46.168555 C82.9415772,45.9569058 84.4289379,45.7469058 85.9190612,45.5588953 C88.694326,45.2081623 91.4220749,44.6248901 94.1266183,43.9250733 C94.7343808,43.7678482 95.3371708,43.5759895 95.9537735,43.4731885 C96.9521616,43.3071675 97.960495,43.1955707 98.9649607,43.0740785 C99.7970429,42.9734764 100.629678,42.8508848 101.465075,42.8107539 C103.071226,42.7343403 104.678481,42.7046545 106.285184,42.6650733 C107.328879,42.6397853 108.37202,42.6309895 109.421792,42.6144974 C109.530637,42.4033979 109.621248,42.2263822 109.726226,42.0224293 C110.035079,42.0224293 110.346696,42.0262775 110.658312,42.0213298 C110.866057,42.0174817 111.088719,42.0422199 111.276573,41.9757016 C111.409728,41.9289738 111.543436,41.7657016 111.587637,41.6266178 C111.615815,41.5375602 111.4915,41.3907801 111.4147,41.2841309 C111.378787,41.233555 111.299226,41.2066178 111.234029,41.185178 C110.373769,40.9103089 109.511851,40.639288 108.651038,40.3649686 C108.462079,40.3044974 108.275883,40.2341309 108.113445,40.1775079 C108.090239,39.7344188 108.11013,39.3496021 108.041618,38.9807277 C107.948244,38.4771675 107.446011,38.4733194 107.066436,38.3435812 C107.075828,38.1660157 107.101796,38.0258325 107.086879,37.8905969 C107.010079,37.2083717 106.786312,37.018712 106.111696,36.8955707 C105.428792,36.7718796 104.758043,36.5849686 104.080664,36.4310419 C103.845847,36.378267 103.597769,36.2804136 103.370687,36.3122984 C102.836961,36.3870628 102.329203,36.2787644 101.812605,36.1985026 C101.713153,36.1831099 101.606518,36.2105969 101.492148,36.2199424 C101.312029,36.3749686 101.128595,36.5321937 100.950134,36.6861204 C100.2385,36.7251518 99.5406776,36.7559372 98.8439607,36.8032147 C97.5892073,36.8873246 96.3394265,36.997822 95.1332941,37.4002304 C94.3360201,37.6663037 93.5067005,37.7779005 92.6696457,37.8697068 C91.839221,37.9615131 91.0132164,38.1209372 90.1966046,38.3007016 C89.2429699,38.511801 88.3014904,38.7773246 87.3550384,39.0203089 C85.8792804,39.3990785 84.4035224,39.7794974 82.9283169,40.1588168 C82.9250018,40.1681623 82.9222393,40.1786073 82.9183717,40.1874031 C82.9012438,40.1830052 82.884116,40.1802565 82.8664356,40.1758586 C82.7266502,40.219288 82.5857598,40.2610681 82.4459744,40.3033979 C82.4371342,40.3209895 82.4244265,40.3286859 82.4172438,40.3495759 C82.3885132,40.3600209 82.3592301,40.370466 82.3304995,40.380911 C82.3100566,40.401801 82.2901662,40.4237906 82.2680658,40.4424817 C82.2581205,40.4507277 82.2260749,40.4320366 82.205632,40.4259895 C82.2470703,40.4111466 82.2885087,40.3957539 82.3304995,40.380911 C82.3509425,40.3600209 82.3713854,40.3407801 82.3923808,40.3198901 C82.4100612,40.3143927 82.4282941,40.309445 82.4459744,40.3033979 C82.5399014,40.1236335 82.6984721,40.1362775 82.8664356,40.1758586 C82.8769333,40.1731099 82.886326,40.1703613 82.8962712,40.1670628 C82.9067689,40.1643141 82.9172667,40.1621152 82.9283169,40.1588168 C82.9570475,40.0758063 82.9725178,39.9658586 83.0272164,39.9394712 C84.7571297,39.1198115 86.4395269,38.1682147 88.3832621,37.9098377 C88.9136731,37.8394712 89.4043032,37.6904921 89.8352621,37.3683455 C90.1529562,37.1303089 90.5170612,37.0390524 90.9087918,36.9994712 C91.6032986,36.928555 92.2989105,36.8521414 92.9873397,36.7388953 C93.5011753,36.6542356 94.0216411,36.5536335 94.5106137,36.380466 C95.6675726,35.970911 96.847737,35.6822984 98.059947,35.4959372 C98.8533534,35.374445 99.6390247,35.2062251 100.425801,35.0446021 C100.589344,35.0105183 100.765595,34.9286073 100.61697,34.6350471 C98.8036274,34.6592356 96.99581,34.9621414 95.107326,35.3040785 C95.2228009,35.0528482 95.2786046,34.8884764 95.3692164,34.7455445 C95.5172895,34.5108063 95.6902256,34.2920105 95.8482438,34.0638691 C96.0443854,33.7824031 96.074221,33.4915916 95.9095726,33.1815393 C95.7532119,32.8868796 95.4973991,32.8643403 95.2001479,32.8604921 C94.572495,32.8538953 93.944842,32.8126649 93.317189,32.7879267 C92.1690703,32.7428482 91.0331068,32.5977173 89.8695178,32.7164607 C88.8335589,32.8220105 87.7848922,32.7483455 86.7666137,33.0677435 C86.3074767,33.2117749 85.7947461,33.3629529 85.3394767,33.2942356 C84.7096137,33.2002304 84.4018648,33.6911466 83.9217324,33.8379267 C83.5543123,33.950623 83.1802621,34.0424293 82.8205772,34.175466 C82.1034174,34.4415393 81.3459242,34.6465916 80.6911982,35.025911 C79.1784219,35.8999948 77.6181297,36.6745759 76.0539699,37.4469581 C74.2898009,38.3193927 72.6676274,39.3814869 71.3244721,40.8404921 C70.6161525,41.6095759 69.842084,42.3181885 69.1326594,43.0850733 C67.8773534,44.4418272 66.6397279,45.8161728 66.0236776,47.6105183 C65.9789242,47.7419058 65.9291982,47.8793403 65.8463215,47.9876387 C65.4877416,48.453267 65.1175589,48.909 64.7512438,49.3680314 C64.152874,49.4796283 64.0009333,49.9491047 63.9456822,50.4416702 C63.9014813,50.8413298 63.7313078,51.170623 63.5329562,51.4977173 C63.4550521,51.626356 63.4014584,51.8303089 63.1202301,51.7071675 C63.1202301,51.5521414 63.1323854,51.3789738 63.1185726,51.2080052 C63.0489562,50.3141309 63.1909516,49.4790785 63.7528557,48.7424293 C63.8987187,48.5511204 63.9981708,48.3213298 64.104253,48.102534 C64.9302575,46.4032932 65.9971571,44.8607277 67.1905817,43.3989738 C67.5209836,42.9949162 67.8502804,42.5848115 68.1315087,42.1477696 C68.7945224,41.1197592 69.5067096,40.1362775 70.4310612,39.320466 C70.5874219,39.1835812 70.7067644,39.0065654 70.8487598,38.8537382 C71.3940886,38.2677173 71.9173169,37.6575079 72.4952438,37.1055707 C73.3527416,36.2875602 74.2411799,35.5014346 75.1345909,34.7224555 C75.4473123,34.4503351 75.7915269,34.1947068 76.1611571,34.0121937 C76.8722393,33.660911 77.4241982,33.1491047 77.8844402,32.5251518 C77.9302986,32.4624817 77.9164858,32.3574817 77.9319562,32.2667749 C77.8186913,32.2607277 77.7247644,32.2271937 77.6916137,32.2579791 C77.3518192,32.5768272 76.9418557,32.7439476 76.5070292,32.8973246 C75.5108511,33.2475079 74.6047324,33.7648115 73.8273489,34.4899162 C73.6754082,34.6322984 73.5135224,34.7702827 73.3367187,34.8791309 C72.0979881,35.6427173 71.1294356,36.6811728 70.2675178,37.8323246 C70.0791114,38.0824555 69.8989927,38.3474293 69.6674904,38.5541309 C68.6685498,39.4469058 67.8933763,40.5122984 67.1861616,41.6354136 C67.0380886,41.8701518 66.8745452,42.0988429 66.696084,42.3115916 C65.8209059,43.3538953 65.0418648,44.4649162 64.3081297,45.6089215 C64.1860247,45.8002304 64.0280064,45.9684503 63.886011,46.1476649 C63.8539653,45.7650471 63.9147416,45.4275079 64.034084,45.1119581 C64.4191845,44.0987906 64.6700247,43.0553874 64.8114676,41.9839476 C64.8390932,41.7777958 64.8705863,41.5650471 64.9479379,41.3753874 C65.5733808,39.8295236 66.1535178,38.2605707 66.86681,36.7548377 C67.2806411,35.878555 67.8215498,35.0632932 68.075705,34.1127958 C68.1204584,33.9473246 68.1823397,33.7620628 68.2961571,33.6455183 C68.6458968,33.2876387 68.5939607,32.8341047 68.5967233,32.472377 C68.8972895,32.0903089 69.3597416,32.001801 69.6232895,31.491644 C69.3741068,31.5620105 69.2315589,31.5664084 69.1354219,31.6351257 C68.7387187,31.9165916 68.3867689,32.2766702 67.9607826,32.4971152 C67.2834037,32.846199 66.9524493,33.4261728 66.671221,34.0737644 C66.5330932,34.3909634 66.4021479,34.7241047 66.1949562,34.9945759 C65.2512667,36.2215916 64.6230612,37.6212251 63.9804904,39.0060157 C63.087632,40.9306492 62.3527918,42.9207016 61.6792804,44.9343927 C61.3140703,46.0267225 61.0278694,47.1311466 60.8505132,48.2669058 C60.7864219,48.6786597 60.7046502,49.0882147 60.6140384,49.4950209 C60.5902804,49.6016702 60.6322712,49.795178 60.3538055,49.7660419 C60.1272758,49.4032147 60.0184311,48.9716702 59.941632,48.5340785 C59.5847096,46.5011466 58.9432438,44.5638691 57.9978968,42.726644 C57.9807689,42.6953089 57.9636411,42.6645236 57.9525909,42.6326387 C57.2221708,40.5095497 56.1088603,38.5860157 54.8447142,36.7427435 C54.5900064,36.3727696 54.3021479,36.0165393 53.9816913,35.702089 C53.0109288,34.7499424 52.0130932,33.8263822 51.0345954,32.8819319 C50.7605498,32.6175079 50.4870566,32.342089 50.2721297,32.0309372 C50.0428374,31.6999948 49.7704493,31.4773508 49.3864539,31.3459634 C48.7637735,31.1337644 48.1604311,30.8737382 47.6327826,30.4663822 C47.6151023,30.4531885 47.5327781,30.5224555 47.4117781,30.5933717 C48.1184402,31.4168796 48.8438877,32.2046545 49.5980658,32.9687906 C50.8467416,34.2331885 52.0871297,35.5058325 53.3286228,36.777377 C53.4258648,36.8763298 53.5186868,36.9846283 53.5910658,37.1017225 C54.4187279,38.4309895 55.3005361,39.7316702 55.9359242,41.1681361 C56.6105406,42.6947592 57.256979,44.2340262 57.9183352,45.7661466 C58.1233169,46.2394712 58.2398968,46.7265393 58.2592347,47.4208586 C58.0166822,47.088267 57.8719242,46.9002565 57.7382164,46.704 C57.112221,45.7831885 56.5055635,44.8480838 55.8613352,43.940466 C55.1171023,42.890466 54.3408237,41.861356 53.5739379,40.8272984 C53.3672986,40.5485812 53.1623169,40.2638168 52.923632,40.0136859 C50.4909242,37.4623508 47.8245041,35.1600471 45.1812895,32.8330052 C44.6867918,32.3981623 44.1364904,32.2101518 43.391705,32.2926126 C43.6033169,32.5603351 43.75581,32.7868272 43.9409014,32.982534 C45.7199881,34.849445 47.5062575,36.7103089 49.2864493,38.5761204 C49.6709973,38.9790785 50.04339,39.3935812 50.4168877,39.807534 C51.7489927,41.2879791 52.83081,42.9569843 54.0192621,44.5468272 C54.9170932,45.7491047 55.7138146,47.0124031 56.4475498,48.3191309 C56.8995041,49.1261466 56.9050292,49.1228482 56.8381753,50.3564607 C56.2563808,49.8259634 55.8541525,49.2267487 55.6348055,48.5230838 C55.4944676,48.0744974 55.2563352,47.7193665 54.9364311,47.3834764 C54.3131982,46.7265393 53.7032256,46.0492618 53.3065224,45.2241047 C52.609253,43.7716963 51.668326,42.4798115 50.7036411,41.1983717 C49.7969699,39.9938953 48.6632164,39.0065654 47.6300201,37.9235812 C46.3708466,36.6036597 44.9111114,35.5300209 43.4331434,34.4772723 C43.2071662,34.3167487 42.954116,34.1930576 42.7076959,34.0627696 C42.0921982,33.7367749 41.4827781,33.3937382 40.8512575,33.1012775 C40.2827233,32.8379529 39.6909836,32.6263037 39.1042164,32.4075079 C38.9787963,32.3602304 38.8235406,32.3492356 38.6920429,32.3745236 C38.5715954,32.3981623 38.406947,32.4696283 38.3704813,32.562534 C38.3400932,32.6383979 38.4417553,32.8192618 38.5334721,32.8808325 C39.226874,33.345911 39.9329836,33.7928482 40.6346731,34.244733 C40.898221,34.4146021 41.1507187,34.6086597 41.431947,34.7433455 C42.2579516,35.1386073 42.9922393,35.6669058 43.6895087,36.2474293 C44.5724219,36.9829791 45.4437324,37.7339215 46.3111753,38.488712 C46.3824493,38.5502827 46.5686457,38.6453874 46.3686365,38.8388953 C46.150947,38.6805707 45.9288374,38.5222461 45.7094904,38.3600733 C45.2050475,37.9879005 44.744253,37.5277696 44.1895315,37.2589476 C42.956326,36.6619319 41.8341753,35.8972461 40.704842,35.1424555 C40.0291205,34.6916702 39.325221,34.3293927 38.5334721,34.1435812 C37.9168694,33.999 37.3345224,33.7818534 36.7996913,33.4355183 C36.662116,33.3464607 36.4610018,33.2480576 36.325084,33.2848901 C35.9930247,33.3733979 35.7101388,33.2464084 35.40681,33.1859372 C34.1100658,32.9242618 32.8199516,32.667534 31.4751388,32.7318534 C30.3993991,32.7835288 29.3148192,32.8231099 28.2390795,32.6070628 C27.8694493,32.5333979 27.4721936,32.5834241 27.0887507,32.6043141 C26.6804447,32.6252042 26.5511571,32.8258586 26.6296137,33.2321152 C26.6611068,33.3953874 26.9638831,33.5553613 26.6119333,33.7648115 C26.3384402,33.5179791 26.4323671,32.902822 25.8439425,32.9500995 C25.6621662,33.3030314 26.2119151,33.6433194 25.8820658,33.9957016 C25.5389562,34.0545236 25.1875589,34.0754136 24.8621297,34.1787644 C24.4063078,34.3233455 24.004632,34.3249948 23.5681479,34.0803613 C23.0753078,33.8049424 22.5697598,33.8175864 22.1288557,34.2496806 C21.8454174,34.5267487 21.5216457,34.6927696 21.0917918,34.6322984 C20.9525589,34.6119581 20.7321068,34.7065131 20.6497826,34.8214084 C20.4448009,35.1067225 20.1757279,35.0962775 19.9016822,35.0473508 C19.4629881,34.9698377 19.0331342,34.8417487 18.5944402,34.7664346 C18.0275635,34.6685812 17.6601434,35.0440524 17.7463352,35.6229267 C17.7750658,35.8147853 17.8568374,35.9983979 17.9192712,36.2029005 C17.7076594,36.2886597 17.5308557,36.3298901 17.3894128,36.4233455 C16.8164584,36.8021152 16.2009607,36.9719843 15.5103215,36.9076649 C15.2379333,36.8818272 14.9473123,36.8895236 14.7025498,37.1517487 C14.521326,37.7053351 14.4655224,38.2710157 14.9688603,38.7481885 C14.6798968,39.1830314 14.4124813,39.5843403 14.1483808,39.9807016 C13.7721205,40.0252304 13.3975178,39.9933455 13.0886639,40.1203351 C12.2930475,40.4490785 11.5123489,40.8223508 10.7548557,41.2319058 C10.4598146,41.3918796 10.2261023,41.6821414 9.99570502,41.9399686 C9.7863032,42.1741571 9.80895616,42.4248377 10.0321708,42.6881623 C10.1194676,42.7909634 10.2504128,42.8580314 10.3785954,42.9547853 C10.3056639,43.2444974 10.2305224,43.5430052 10.1553808,43.8409634 C10.1957142,44.2450209 10.6089927,44.5611204 10.4189288,45.0921675 C10.2680932,44.9052565 10.1465406,44.7601257 10.0299607,44.6111466 C9.90177808,44.4473246 9.79238082,44.2648115 9.64762283,44.1180314 C9.40838539,43.8772461 8.98129406,43.8134764 8.78736256,43.9833455 C8.57188311,44.171356 8.61221644,44.4220366 8.67686027,44.6611728 C8.72216621,44.8282932 8.77741735,44.9954136 8.84869132,45.1537382 C9.13599726,45.7859372 9.40728037,46.4274817 9.72939452,47.0426387 C10.0360384,47.6286597 10.3548374,48.2031361 10.5355087,48.8468796 C10.6189379,49.1459372 10.7736411,49.4246545 10.8951936,49.7127173 C11.5565498,51.2833194 12.221221,52.8522723 12.875947,54.4250733 C12.9952895,54.7125864 13.090874,55.0138429 13.1676731,55.3156492 C13.8715726,58.0769843 14.5765772,60.8377696 15.2600338,63.6051518 C15.4003717,64.1746806 15.4749607,64.764 15.535737,65.3494712 C15.7119881,67.0426649 15.7661342,68.7474031 16.1368694,70.4186073 C16.310358,71.1986859 16.4656137,71.9870105 16.5507005,72.7802827 C16.7882804,74.9918796 16.965084,77.210623 17.2054265,79.4222199 C17.4043306,81.2528482 17.6374904,83.080178 17.8988283,84.9031099 C18.0761845,86.1383717 17.9761799,87.4000209 18.2944265,88.6204398 C18.344705,88.8161466 18.3021616,89.0354921 18.3032667,89.2443927 C18.3054767,89.5571937 18.3104493,89.8705445 18.3104493,90.1833455 C18.3104493,90.5692618 18.3380749,90.9436335 18.5822849,91.2745759 C18.7822941,91.5466963 18.8187598,91.843555 18.5949927,92.1992356 C18.2198374,92.2421152 17.8082164,92.2833455 17.3977005,92.3383194 C17.2186868,92.3625079 17.062326,92.4334241 17.0833215,92.7181885 C17.3148237,92.8017487 17.5656639,92.8930052 17.8126365,92.9826126 C17.7899836,93.1502827 17.7684356,93.3091571 17.7452301,93.4823246 C17.9369516,93.5383979 18.0667918,93.590623 18.2021571,93.613712 C18.7458283,93.7071675 19.3154676,93.6675864 19.8232256,93.9474031 C19.9072073,93.9935812 20.0293123,93.9726911 20.133737,93.9781885 C21.2846183,94.0348115 22.4360521,94.117822 23.5880384,94.1398115 C25.5102256,94.176644 27.4324128,94.166199 29.3540475,94.1931361 C29.8054493,94.199733 30.2601662,94.2453613 30.7038329,94.325623 C32.4901023,94.6477696 34.2736091,94.9831099 36.0543534,95.3299948 C36.6002347,95.4355445 37.1416959,95.5762775 37.6765269,95.7329529 C40.9346868,96.686199 43.99339,98.1479529 47.1150795,99.4491832 C47.9521342,99.7977173 48.7676411,100.136356 49.7129881,100.133607 C49.7129881,100.374393 49.7030429,100.578895 49.7146457,100.782298 C49.7682393,101.729497 50.0886959,102.575545 50.9003352,103.10934 C51.4451114,103.46722 52.0827096,103.683817 52.7490384,103.769026 C53.024189,103.804759 53.2949196,103.867429 53.5662027,103.922953 C54.0430201,104.021906 54.5159699,104.153843 54.9972073,104.220361 C56.5519744,104.43366 58.1106091,104.625518 59.6664813,104.821225 C59.8388648,104.842115 60.015116,104.840466 60.1908146,104.840466 C61.7284539,104.839916 63.2660932,104.847613 64.8037324,104.828372 C65.1827553,104.823424 65.5639881,104.744812 65.9396959,104.675545 C66.5828192,104.556801 67.2010795,104.241251 67.8845361,104.457848 C67.9442073,104.477089 68.0243215,104.451251 68.0889653,104.430361 C68.8171753,104.189576 69.5481479,103.960335 70.2664128,103.695911 C70.5647689,103.586513 70.759253,103.338031 70.9355041,103.062613 C71.2543032,102.566749 71.6195132,102.100571 71.969253,101.624497 C72.091358,101.456827 72.237221,101.30455 72.3515909,101.131382 C72.4714858,100.948869 72.4162347,100.69599 72.2521388,100.56955 C72.091358,100.444759 71.9140018,100.462351 71.7686913,100.572298 L71.7686913,100.572298 Z" id="Fill-1" fill="#2F2F2F"></path>
                <path d="M111.724438,43.7923665 C111.464205,43.7527853 111.200658,43.7362932 110.912799,43.7066073 C110.482393,44.6702984 110.055854,45.614199 109.639813,46.5624974 C109.555831,46.7516073 109.508868,46.9566597 109.447539,47.1551152 C109.426543,47.2210838 109.412731,47.2892513 109.394498,47.3563194 C109.148078,48.2644869 108.821543,49.1385707 108.385612,49.9780209 C108.148032,50.4359529 107.974543,50.9351152 107.830338,51.4320785 C107.559607,52.3660838 107.397169,53.3352723 107.071187,54.2483874 C106.217005,56.6424974 105.603164,59.1031257 104.940703,61.5505602 C104.551183,62.9908743 104.171055,64.4388848 103.885406,65.902288 C103.525169,67.7422618 103.266594,69.6020262 102.963817,71.4535445 C102.823479,72.3105864 102.619603,73.1615812 102.552196,74.0241204 C102.431749,75.5479948 102.397493,77.078466 102.318484,78.605089 C102.227872,80.3406126 102.134498,82.0755864 102.030073,83.8100105 C101.911836,85.7868691 101.706301,87.7593298 101.769288,89.7438848 C101.777575,90.0209529 101.809068,90.3145131 101.733374,90.5723403 C101.620662,90.9588063 101.538338,91.3045916 101.837247,91.6454293 C101.889183,91.7059005 101.876475,91.8449843 101.858242,91.9411885 C101.798018,92.2413455 101.720114,92.5387539 101.637237,92.8878377 C100.554868,92.8878377 99.4747078,92.8762932 98.3945479,92.8933351 C97.9083379,92.9004817 97.4226804,92.9604031 96.9370228,93.0038325 C96.4176621,93.0505602 95.8994064,93.1357696 95.3783881,93.1500628 C94.6103973,93.1715026 93.8413014,93.1627068 93.0733105,93.1346702 C91.8450776,93.0895916 90.6428128,93.2297749 89.4355753,93.4639634 C87.5526164,93.8295393 85.6514247,94.1060576 83.7601781,94.4359005 C83.2126393,94.531555 82.6584703,94.6360052 82.133032,94.8141204 C80.4169315,95.3973927 78.7146438,96.0207958 77.003516,96.6183613 C76.6090228,96.7557958 76.2034795,96.8635445 75.7984886,96.9679948 C75.3885251,97.072445 74.996242,97.2071309 74.658105,97.4677068 C74.2370913,97.7926021 73.7657991,98.0015026 73.2425708,98.1109005 C73.0436667,98.1521309 72.8011142,98.214801 72.6823242,98.3549843 C72.2883836,98.8211623 71.9419589,99.3269215 71.5894566,99.8007958 C71.8552146,100.164723 72.1358904,100.224094 72.4469543,100.014094 C72.7348128,99.8200366 73.0016758,99.5973927 73.3381553,99.3412147 C74.2801872,99.5088848 75.2227717,99.2719476 76.1581735,98.9728901 C76.761516,98.7799319 77.3825388,98.7271571 78.0184795,98.731555 C78.4295479,98.7348534 78.8555342,98.6732827 79.2511324,98.5594869 C80.7926393,98.1152984 82.3192283,97.622733 83.8618402,97.1807435 C85.2016804,96.7964764 86.5415205,96.3968168 87.9051187,96.1159005 C88.862621,95.9179948 89.8145982,95.7184398 90.7566301,95.4562147 C91.2909087,95.3072356 91.8450776,95.2099319 92.396484,95.1478115 C93.5412877,95.0191728 94.7059817,95.0142251 95.83421,94.8053246 C97.4956119,94.4974712 99.1608813,94.4419476 100.837753,94.462288 C100.872009,94.462288 100.90737,94.4617382 100.942178,94.4606387 C102.286991,94.4304031 102.339479,93.9691728 102.314616,93.1082827 C102.295831,92.4573927 102.444457,91.8647749 102.812982,91.3397749 C103.046694,91.0060838 103.134543,90.6542513 103.127913,90.262288 C103.125151,90.1583874 103.126808,90.0539372 103.131228,89.9494869 C103.164379,89.2909005 103.192557,88.6482565 103.882091,88.2502461 C104.046187,88.1562408 104.123539,87.8302461 104.153374,87.5999058 C104.366644,85.9479424 104.66721,84.3064241 104.650082,82.6269738 C104.622457,79.701267 104.966119,76.8024974 105.401498,73.913623 C105.845717,70.9593298 106.299329,68.0061361 106.757913,65.0534921 C106.966763,63.7148796 107.137489,62.3663717 107.433082,61.0464503 C108.054658,58.2664241 108.762977,55.5067382 109.401128,52.7305602 C109.628763,51.7404817 109.950877,50.8009791 110.418301,49.8972094 C110.654224,49.4409267 110.837105,48.9379162 110.932689,48.4349058 C111.08463,47.6443822 111.315027,46.8945393 111.633826,46.1540419 C111.877484,45.5861623 112.020584,44.969356 112.158712,44.3629948 C112.238274,44.0161099 112.078598,43.8467906 111.724438,43.7923665" id="Fill-3" fill="#2F2F2F"></path>
                <path d="M102.468822,47.9564686 C103.312507,47.6892958 104.17332,47.609034 105.050156,47.6266257 C105.692726,47.6398194 106.275626,47.4540079 106.991128,47.0114686 C106.719845,46.9317565 106.612658,46.8597408 106.541937,46.8855785 C105.900471,47.1247147 105.240772,47.1065733 104.576653,47.0559974 C103.94458,47.0070707 103.3219,47.0450026 102.711927,47.2236675 C102.201959,47.3731963 101.683704,47.3775942 101.157713,47.3589031 C100.006279,47.317123 98.8542927,47.2874372 97.7028589,47.2758927 C97.3227311,47.2720445 96.9343155,47.3044791 96.5624753,47.3797932 C95.6342562,47.5672539 94.7054845,47.6722539 93.7562699,47.6436675 C93.4131603,47.6332225 93.062868,47.6986414 92.7230735,47.7679084 C90.9467493,48.1318351 89.1770553,48.5215995 87.3990735,48.8750812 C85.2354388,49.3060759 83.1110324,49.8613115 81.1789,50.9530916 C80.1357584,51.542411 78.9379137,51.6990864 77.8831694,52.2339817 C77.2615941,52.2702644 76.7836717,52.6330916 76.2880689,52.9447932 C75.9886078,53.1333534 75.7035119,53.3208141 75.3333292,53.3197147 C74.8493292,53.3186152 74.5089822,53.6578037 74.113384,53.8568089 C73.8653064,53.9821492 73.9122699,54.4560236 74.1824479,54.5434319 C74.4354982,54.6253429 74.7487721,54.7012068 74.983037,54.6225942 C75.5388635,54.4367827 76.1101603,54.2267827 76.5891877,53.9013377 C77.4085621,53.3461021 78.3528041,53.0860759 79.2500826,52.7650288 C80.1722242,52.4329869 81.0683977,52.0707094 81.929763,51.6171754 C83.23369,50.9294529 84.614416,50.4522801 86.0454205,50.1251859 C88.2201055,49.6287723 90.4030781,49.1680916 92.5821831,48.6920183 C93.2330416,48.5496361 93.8872151,48.4946623 94.5546489,48.4930131 C95.0734571,48.4924634 95.5922653,48.3995576 96.110521,48.3418351 C96.6989457,48.2764162 97.2846078,48.1681178 97.8752425,48.1439293 C99.0957402,48.0933534 100.317343,48.0917042 101.538393,48.0581702 C101.850562,48.0493743 102.177649,48.0482749 102.468822,47.9564686" id="Fill-5" fill="#2F2F2F"></path>
                <path d="M28.396932,48.6135707 C30.3743703,49.0352199 32.3495986,49.4673141 34.3297995,49.8768691 C36.2514342,50.2743298 38.1062151,50.8466073 39.8388909,51.7877592 C40.572626,52.1857696 41.3135438,52.5766335 42.1572288,52.718466 C42.3555804,52.7514503 42.5356991,52.8872356 42.7252105,52.9729948 C42.9130644,53.0582042 43.0987082,53.1978377 43.2926397,53.2104817 C43.7363064,53.2390681 44.0738909,53.4963455 44.4479411,53.6678639 C45.0766991,53.955377 45.6850142,54.2868691 46.3093521,54.5842775 C46.6049457,54.7250105 46.9171146,54.7178639 47.2187858,54.5776806 C47.5326123,54.4325497 47.5933886,53.9586754 47.2839822,53.8201414 C46.8795438,53.6392775 46.5441694,53.3044869 46.0480142,53.3028377 C45.8198269,53.3028377 45.5452288,53.218178 45.3722927,53.0752461 C44.5728087,52.4128115 43.5799457,52.1588325 42.6379137,51.8674712 C41.6964342,51.5772094 40.8002607,51.2215288 39.9361329,50.7718429 C38.6294434,50.0918168 37.2487174,49.6091466 35.8182653,49.2837016 C33.6087721,48.7817906 31.3882288,48.3304555 29.1754205,47.8428377 C28.4201374,47.6768168 27.6620918,47.6130471 26.8902333,47.6284398 C26.5443612,47.6350366 26.1841237,47.632288 25.8520644,47.5476283 C24.7210735,47.2590157 23.5751648,47.243623 22.421521,47.2859529 C21.7236991,47.3117906 21.0247721,47.3106911 20.3291603,47.3601675 C19.7280279,47.4030471 19.1418132,47.350822 18.5683064,47.1908482 C18.0550233,47.0479162 17.5395301,47.0149319 17.0140918,47.0534136 C16.2466534,47.1083874 15.4825301,47.1265288 14.5150826,46.7461099 C14.6642607,47.0473665 14.6813886,47.163911 14.7438224,47.1968953 C15.2753384,47.4750628 15.8350324,47.6487801 16.4466626,47.6311885 C17.2875849,47.6059005 18.1124845,47.6878115 18.9252288,47.9401414 C19.2821511,48.0511885 19.6843795,48.0759267 20.0617447,48.0561361 C22.687279,47.922 25.2708224,48.4541466 27.8836489,48.5179162 C28.0560324,48.5223141 28.2267584,48.577288 28.396932,48.6135707" id="Fill-7" fill="#2F2F2F"></path>
                <path d="M25.4374598,90.8126859 C27.2187566,90.8511675 29.0006059,90.8275288 30.7830078,90.8385236 C31.1658982,90.8412723 31.5559712,90.8379738 31.9300215,90.9077906 C34.9478388,91.4723717 37.9634461,92.0440995 40.860816,93.1023455 C42.5664187,93.725199 44.2615237,94.355199 45.7831402,95.3705654 C46.0417155,95.5431832 46.3301265,95.6932618 46.6268251,95.7779215 C46.8450671,95.8405916 47.1053,95.8087068 47.3345922,95.7597801 C47.4285192,95.7388901 47.5196836,95.5695707 47.5495192,95.4524764 C47.5660945,95.3876073 47.4732726,95.2551204 47.3964735,95.2122408 C46.6666059,94.8076335 45.9378434,94.399178 45.1936105,94.0226073 C42.2503822,92.534466 39.1414005,91.5229476 35.9130763,90.8594136 C35.4683046,90.7681571 35.0235329,90.6807487 34.5826288,90.5735497 C33.0858753,90.2090733 31.5769667,89.9842304 30.0266196,90.014466 C27.2679301,90.0688901 24.5059256,90.0001728 21.7511037,90.211822 C21.4533,90.2343613 21.1311858,90.1722408 20.7366927,90.4949372 C20.9538297,90.5570576 21.0505192,90.6037853 21.1488662,90.608733 C22.5787658,90.6829476 24.0075603,90.7824503 25.4374598,90.8126859" id="Fill-9" fill="#2F2F2F"></path>
                <path d="M90.3189858,90.0254058 C89.9720087,90.0232068 89.6200589,90.0594895 89.2797119,90.1238089 C88.1155703,90.3448037 86.9580589,90.6053796 85.7911548,90.8148298 C83.1672781,91.2854058 80.6389858,92.0830759 78.1985429,93.1237304 C76.7603557,93.7366885 75.396205,94.5206152 74.0033237,95.2358246 C73.8071822,95.3364267 73.848068,95.6404319 74.0524973,95.7421335 C74.3552735,95.892212 74.6519721,95.8905628 74.9492233,95.7217932 C75.4917895,95.4128403 76.0266205,95.0873953 76.582447,94.8031806 C79.4571639,93.3320812 82.4976342,92.3387042 85.6557895,91.681767 C86.1674151,91.5751178 86.6762781,91.4547251 87.1879037,91.3431283 C88.5531594,91.0462696 89.9178626,90.7911911 91.3311868,90.8252749 C92.9019767,90.8626571 94.4755292,90.8500131 96.0468717,90.8137304 C97.443068,90.7807461 98.8370543,90.6878403 100.231041,90.6158246 C100.349831,90.6092277 100.466963,90.5619503 100.67084,90.5124738 C100.517794,90.3865838 100.451493,90.2859817 100.371379,90.2744372 C100.095675,90.2343063 99.8161046,90.2233115 99.5381913,90.2029712 C96.4684379,89.9770288 93.3926068,90.0495942 90.3189858,90.0254058" id="Fill-11" fill="#2F2F2F"></path>
                <path d="M60.7714489,68.7485576 C62.2632297,68.5561492 63.7826361,68.4236623 65.2451338,67.8997618 C65.9965493,67.6309398 66.6485128,67.1361754 67.4479968,66.9888455 C67.5198233,66.9756518 67.6308781,66.8222749 67.6148553,66.7640026 C67.5833621,66.6502068 67.4783849,66.4742906 67.3966132,66.4709921 C67.0546087,66.456699 66.7010014,66.4517513 66.368942,66.5248665 C64.9749557,66.8327199 63.5864945,67.1625628 62.1980333,67.4979031 C61.1957776,67.739788 60.1984945,67.7386885 59.1978963,67.4885576 C58.6906909,67.3615681 58.1823804,67.2450236 57.6735174,67.1251806 C56.7928142,66.9179293 55.913216,66.6996832 55.0280927,66.5127723 C54.7275265,66.4490026 54.4087274,66.4407565 54.1015311,66.4555995 C53.9965539,66.4605471 53.8379831,66.6045785 53.8197502,66.7057304 C53.8048324,66.792589 53.93191,66.9547618 54.0346772,67.0031387 C54.2490516,67.1048403 54.5137046,67.1119869 54.7153712,67.2285314 C56.5834123,68.2999712 58.6531201,68.5380079 60.7714489,68.7485576" id="Fill-13" fill="#2F2F2F"></path>
                <path d="M68.5951763,63.4057618 C68.6355096,63.3562853 68.680263,63.2655785 68.6603726,63.2205 C68.6244594,63.138589 68.5349525,63.0143482 68.4802539,63.020945 C68.3526237,63.0352382 68.2249936,63.1039555 68.1111763,63.1726728 C67.1359936,63.7603429 66.0486511,64.0049764 64.9403132,64.1143743 C64.323158,64.1742958 63.7060027,64.1270183 63.0927151,64.329322 C62.7098247,64.4557618 62.266158,64.4255262 61.8501169,64.4244267 C61.2583772,64.423877 60.6655324,64.3842958 60.0732402,64.3639555 C59.1356283,64.3315209 58.1913863,64.3980393 57.2709023,64.1226204 C57.0797333,64.0654476 56.8576237,64.1198717 56.6493269,64.1138246 C56.4062219,64.106678 56.1520667,64.1358141 55.9238795,64.0698455 C54.9282539,63.781233 53.8641169,63.6679869 52.8441808,62.8010497 C52.8265005,63.1319921 52.7673817,63.3018613 52.8237379,63.3584843 C53.0403224,63.5756309 53.2685096,63.8065209 53.5392402,63.9406571 C54.1304274,64.2336675 54.7508977,64.4651073 55.3553452,64.7322801 C55.7752539,64.9180916 56.2111854,65.0120969 56.6697699,65.0313377 C59.3533178,65.1423848 62.0379708,65.1627251 64.7193087,65.0241911 C66.0392584,64.9560236 67.1801945,64.3282225 68.3056603,63.6998717 C68.4211352,63.6355524 68.5078795,63.512411 68.5951763,63.4057618" id="Fill-15" fill="#2F2F2F"></path>
                <path d="M54.8481397,95.7928194 C55.3658429,95.7955681 55.7802265,95.9995209 56.1796922,96.310123 C56.3564959,96.4481073 56.6189388,96.4937356 56.8509936,96.5448613 C57.1565324,96.6119293 57.4825142,96.6031335 57.7758977,96.698788 C58.3864228,96.8966937 59.0068932,96.9164843 59.6373087,96.908788 C60.089263,96.9038403 60.5489525,96.9516675 60.9959342,96.8994424 C61.9926648,96.7812487 62.9844228,96.6152277 63.9783909,96.4678979 C64.0115416,96.4629503 64.0452447,96.4492068 64.0756329,96.4332644 C64.832021,96.0577932 65.6215598,95.8406466 66.4729799,95.7708298 C67.0354365,95.7241021 67.4835233,95.3948089 67.6774548,94.7059869 C67.2835142,94.8681597 66.9895781,95.0413272 66.671884,95.1050969 C66.3376146,95.1727147 65.9790347,95.1182906 65.6337151,95.1485262 C65.3939251,95.169966 65.1513726,95.2232906 64.9215279,95.2997042 C63.619811,95.7372958 62.289916,95.9467461 60.9130575,95.843945 C60.5318247,95.8148089 60.1467242,95.8120602 59.7632813,95.8241545 C58.3013361,95.8708822 56.9382904,95.5003586 55.6260758,94.8912487 C55.4719251,94.8203325 55.1868292,94.7081859 55.1503635,94.7571126 C54.836537,95.1688665 54.547021,94.6768508 54.1928612,94.7428194 C54.1928612,94.9484215 54.1359525,95.1639188 54.2061215,95.3233429 C54.3204913,95.577322 54.5414959,95.7911702 54.8481397,95.7928194" id="Fill-17" fill="#2F2F2F"></path>
                <path d="M20.6733749,21.7234005 C19.9843932,21.3952068 19.2810461,21.0961492 18.575489,20.8036885 C17.9981146,20.5640026 17.3986397,20.3748927 16.830658,20.1170654 C16.5903155,20.0076675 16.3157174,19.8196571 16.2157128,19.5970131 C16.0383566,19.202301 15.7261877,19.0274843 15.3836306,18.8581649 C14.8537721,18.5959398 14.3217037,18.3375628 13.7885301,18.083034 C12.2470233,17.3491335 10.7392196,16.5619084 9.38777671,15.506411 C9.34136575,15.470678 9.26456667,15.4745262 9.24522877,15.4695785 C8.99659863,15.6317513 8.7772516,15.7746832 8.56287717,15.9148665 C8.62144338,16.8604162 9.0242242,17.5393429 9.86514658,18.0198141 C10.7386671,18.5189764 11.5414662,19.1390812 12.3884662,19.6860707 C12.7658315,19.9296047 13.1658498,20.1451021 13.5724982,20.3353115 C14.5465758,20.7915942 15.574247,21.1357304 16.4372699,21.8086099 C16.6240187,21.9531911 16.8754114,22.0147618 17.0925484,22.1225105 C17.5572105,22.352301 18.0356854,22.5606518 18.4799046,22.8267251 C19.3086717,23.3220393 20.1882699,23.5848141 21.1579274,23.5463325 C21.6038041,23.5287408 21.792763,23.2885052 21.6656854,22.8729031 C21.5049046,22.3457042 21.1623475,21.9564895 20.6733749,21.7234005" id="Fill-19" fill="#2F2F2F"></path>
                <path d="M44.5681676,15.6821623 C44.2803091,14.6536021 43.7211676,13.7965602 42.9725146,13.0401204 C42.7078616,12.7729476 42.4807795,12.4579476 42.2874005,12.1341518 C41.4188525,10.6734974 40.595058,9.18535602 39.6999895,7.74009424 C39.2027292,6.9369267 38.7452498,6.13925654 38.5529758,5.2008534 C38.4933046,4.90839267 38.3142909,4.62197906 38.1314096,4.37734555 C37.8684142,4.0271623 37.1816425,4.03375916 37.0573274,4.39658639 C36.9087018,4.83307853 36.6600717,5.31190052 37.0252817,5.77313089 C37.3324781,6.16344503 37.4910489,6.6175288 37.6518297,7.07765969 C37.7540443,7.36902094 37.9015648,7.64773822 38.0546105,7.91765969 C38.4491037,8.61142932 38.8629347,9.29365445 39.2601904,9.98632461 C39.9679575,11.2188377 40.6569393,12.463445 41.3801767,13.6871623 C41.732679,14.2847277 42.0791037,14.8718482 42.339889,15.5243874 C42.7432224,16.5364555 43.3244644,17.4374764 44.5946881,17.7216911 C44.9886288,17.3341257 45.0576927,16.9240209 44.8676288,16.4583927 C44.7626516,16.2016649 44.6422041,15.9482356 44.5681676,15.6821623" id="Fill-21" fill="#2F2F2F"></path>
                <path d="M63.8804306,1.30068063 C63.5782068,1.27209424 63.3345493,1.41777487 63.2251521,1.70528796 C63.1522205,1.89604712 63.1091247,2.10494764 63.0942068,2.30835079 C63.0406132,3.06918848 62.9914397,3.83112565 62.9687868,4.59251309 C62.9599466,4.90091623 62.9748644,5.22801047 63.0693438,5.5160733 C63.269353,6.12188482 63.3058187,6.73484293 63.3013986,7.36099476 C63.2969785,8.08884817 63.3002936,8.81670157 63.3146589,9.54510471 C63.343942,11.035445 63.4080333,12.5241361 63.6456132,13.9996335 C63.6721338,14.1673037 63.7108096,14.3399215 63.7853986,14.4894503 C63.8179968,14.5548691 63.9517046,14.5873037 64.045079,14.5993979 C64.0981201,14.6059948 64.2053073,14.548822 64.21249,14.5081414 C64.3423301,13.7247644 64.7655539,13.0463874 64.9920836,12.2998429 C65.0793804,12.0106806 65.0373895,11.6808377 65.0401521,11.3691361 C65.0705402,8.24882199 65.0981658,5.12850785 65.1274489,2.00819372 C65.1291064,1.77235602 65.1302114,1.53706806 65.1324215,1.20667539 C64.8550607,1.29903141 64.672732,1.40183246 64.4854306,1.41007853 C64.2865265,1.41887435 64.0848598,1.3204712 63.8804306,1.30068063" id="Fill-23" fill="#2F2F2F"></path>
                <g id="Group-27" transform="translate(0.000000, 26.229110)">
                    <mask id="mask-2" fill="white">
                        <use xlink:href="#path-1"></use>
                    </mask>
                    <g id="Clip-26"></g>
                    <path d="M12.9490995,4.20043979 C12.6932868,4.09324084 12.4247662,4.0135288 12.1590082,3.92941885 C10.3020174,3.33954974 8.42237352,2.81125131 6.59466575,2.14276963 C5.21835982,1.63975916 3.83708128,1.16753403 2.43314977,0.751931937 C2.13313607,0.662874346 1.8441726,0.536434555 1.54250137,0.453424084 C1.29552877,0.384706806 1.03750594,0.420439791 0.876172603,0.633188482 C0.710971689,0.851984293 0.752962557,1.09057068 0.980044749,1.33795288 C1.36293516,1.2692356 1.76958356,1.28957592 2.14694886,1.75960209 C1.9215242,1.77499476 1.78339635,1.79148691 1.645821,1.79258639 C1.33254703,1.79588482 1.01595799,1.76509948 0.705446575,1.79478534 C0.286642922,1.83601571 0.00541461187,2.16695812 -0.000110502283,2.56551832 C-0.00453059361,2.93219372 0.208738813,3.2411466 0.584999087,3.32910471 C0.817606393,3.3835288 1.06734155,3.36593717 1.30934155,3.37693194 C1.89997626,3.40441885 2.50055616,3.37143455 3.08069315,3.46653927 C4.38683014,3.68148691 5.68744201,3.93546597 6.98197626,4.21748168 C8.87267032,4.62978534 10.8036977,4.51818848 12.7126247,4.6853089 C12.8507525,4.69740314 13.0015881,4.56381675 13.1750767,4.48520419 C13.0745196,4.35326702 13.0297662,4.23397382 12.9490995,4.20043979" id="Fill-25" fill="#2F2F2F" mask="url(#mask-2)"></path>
                </g>
                <path d="M93.2126539,4.60097906 C93.1546402,4.44815183 92.9623662,4.38053403 92.7828,4.48168586 C92.6960557,4.53061257 92.6385945,4.62846597 92.5435626,4.7296178 C92.444663,4.56469634 92.372284,4.41131937 92.2711744,4.28048168 C92.0192292,3.95613613 91.8015397,3.93799476 91.476663,4.19967016 C91.0341014,4.55754974 90.7263525,5.01823037 90.4865626,5.52453927 C89.6688457,7.24906806 88.8212932,8.96040314 88.1704347,10.7591466 C87.8853388,11.5474712 87.5190237,12.2929162 86.9742475,12.9394084 C86.6173251,13.3638063 86.2532201,13.7832565 85.8741973,14.1873141 C85.6310922,14.4451414 85.4161653,14.7073665 85.3288685,15.0586492 C85.2432292,15.4088325 85.4769416,15.6831518 85.836074,15.653466 C86.2062566,15.6232304 86.4985352,15.4478639 86.7460603,15.1894869 C87.3455352,14.5633351 87.9980511,13.9767644 88.5223845,13.2928901 C89.0864986,12.5551414 89.5931516,11.7552723 90.0014575,10.9224188 C90.2611379,10.3930209 90.5108731,9.86582199 90.8324347,9.36995812 C91.6827498,8.05773298 92.5336174,6.74770681 93.1369598,5.29639791 C93.2342018,5.06110995 93.3071333,4.84726178 93.2126539,4.60097906" id="Fill-28" fill="#2F2F2F"></path>
                <path d="M31.7520023,13.2880524 C31.4083402,12.8872932 31.1254543,12.4667435 30.8856644,12.0022147 C30.2198881,10.7185759 29.7055,9.3590733 28.9419292,8.12436126 C28.7618105,7.833 28.5529612,7.55758115 28.3430068,7.28601047 C27.9943721,6.83467539 27.5683858,6.71813089 27.018637,7.0793089 C26.7771895,6.92153403 26.6136461,6.78904712 26.4296598,6.69998953 C26.2324132,6.60488482 26.0180388,6.60818325 25.8522854,6.78025131 C25.6859795,6.95176963 25.6881895,7.1656178 25.7920616,7.35582723 C25.8909612,7.53559162 26.029089,7.69666492 26.1633493,7.85389005 C26.8655913,8.67629843 27.4567785,9.56577487 27.9236507,10.5443089 C28.0987968,10.9104346 28.3866553,11.2292827 28.6540708,11.543733 C28.9684498,11.9131571 29.3458151,12.2320052 29.6436187,12.6129738 C30.5779155,13.815801 31.4895594,15.0362199 32.4072808,16.2522408 C32.6929292,16.6304607 33.0841073,16.8410105 33.5327466,16.9482094 C33.6117557,16.9669005 33.7167329,16.8816911 33.8189475,16.8404607 C33.8112123,16.7255654 33.8288927,16.6145183 33.7924269,16.524911 C33.310637,15.323733 32.5907146,14.2627382 31.7520023,13.2880524" id="Fill-30" fill="#2F2F2F"></path>
                <g id="Group-34" transform="translate(46.410959, 0.391414)">
                    <mask id="mask-4" fill="white">
                        <use xlink:href="#path-3"></use>
                    </mask>
                    <g id="Clip-33"></g>
                    <path d="M4.12908356,10.4808141 C4.05780959,10.2125419 3.98156301,9.94536911 3.91415662,9.67654712 C3.86443059,9.47589267 3.884321,9.29887696 3.9567,9.0850288 C4.23350822,8.27086649 4.22190548,7.47099738 3.74729817,6.69641623 C3.53402877,6.34898168 3.42739406,5.93447906 3.28208356,5.54691361 C3.08704703,5.03015969 2.93344886,4.49581414 2.70470913,3.99445288 C2.31518858,3.14290838 1.87483699,2.31885079 1.63228447,1.40243717 C1.47592374,0.809269634 1.01568174,0.427201571 0.469247945,0.164426702 C0.420626941,0.140787958 0.338855251,0.187515707 0.15486895,0.22654712 C0.198517352,0.517358639 0.295759361,0.76089267 0.255978539,0.98023822 C0.0416041096,2.16492408 0.418416895,3.24131152 0.812357534,4.31989791 C1.06209269,5.00377225 1.3090653,5.68929581 1.54388265,6.37921728 C1.84500137,7.26539529 2.093079,8.17246335 2.44005616,9.0405 C2.73564977,9.77824869 3.12572283,10.4791649 3.50585068,11.1789817 C3.56717945,11.2933272 3.79039406,11.3614948 3.94454475,11.3730393 C4.10864064,11.3851335 4.26223881,11.0910236 4.22908813,10.8837723 C4.20754018,10.7474372 4.16444429,10.6149503 4.12908356,10.4808141" id="Fill-32" fill="#2F2F2F" mask="url(#mask-4)"></path>
                </g>
                <path d="M120.584622,27.9694162 C120.713357,27.896301 120.850932,27.7121387 120.787946,27.6604634 C120.36859,27.314678 120.091782,26.8424529 119.286773,26.7555942 C117.573435,26.5708822 115.854572,26.5285524 114.180462,27.0046257 C113.532919,27.1882382 112.856092,27.3476623 112.168768,27.4636571 C111.032252,27.6560654 109.875846,27.8033953 108.727727,27.969966 C108.379645,28.0205419 108.02217,28.0557251 107.686243,28.1282906 C107.315508,28.2080026 107.111631,28.3795209 107.112736,28.6120602 C107.113841,28.8171126 107.357499,29.0040236 107.745914,29.0392068 C108.246489,29.0853848 108.75922,29.0958298 109.265873,29.1216675 C109.265873,29.1392592 109.265873,29.1579503 109.266426,29.1760916 C110.384709,29.1409084 111.507412,29.1409084 112.619065,29.0644948 C114.026864,28.9677408 115.470576,29.0172173 116.824782,28.6411963 C117.517631,28.448788 118.260206,28.3283953 119.060243,28.3525838 C119.62712,28.3690759 120.165266,28.2096518 120.584622,27.9694162" id="Fill-35" fill="#2F2F2F"></path>
                <path d="M102.799556,11.4941466 C102.617227,11.428178 102.355889,11.3671571 102.210026,11.4485183 C101.666907,11.7508743 101.106108,12.0548796 100.643104,12.4616859 C99.0778388,13.8382304 97.5711402,15.2801937 95.9025557,16.5390942 C95.6815511,16.7051152 95.4898297,16.9123665 95.3014233,17.1163194 C94.7798525,17.6765026 94.2671219,18.2432827 93.7527338,18.8106126 C93.6118434,18.9645393 93.472058,19.1206649 93.3471904,19.2866859 C93.1532589,19.5434136 93.1930397,19.8144346 93.3615557,20.0607173 C93.4311721,20.1635183 93.5615648,20.2256387 93.6444416,20.2905079 C93.7958297,20.248178 93.9035694,20.235534 93.9947338,20.1899058 C94.4925466,19.9408743 94.9820717,19.6863455 95.3826425,19.2795393 C96.0660991,18.5857696 96.7793913,17.9211361 97.4761082,17.2400105 C98.0971311,16.6314503 98.7634598,16.0580733 99.3137612,15.3906911 C99.8121265,14.7887277 100.390606,14.3148534 101.024337,13.8816597 C101.309432,13.6876021 101.571323,13.4561623 101.821058,13.2170262 C102.193451,12.8569476 102.545953,12.4765288 102.90619,12.1032565 C103.085757,11.9168953 103.043766,11.581555 102.799556,11.4941466" id="Fill-37" fill="#2F2F2F"></path>
                <path d="M85.7321466,3.13400262 C85.7150187,3.02570419 85.584626,2.88442147 85.4779913,2.8547356 C85.3713566,2.82559948 85.2238361,2.90476178 85.1067037,2.96083508 C85.0547676,2.98667277 85.0227219,3.06803403 84.9967539,3.13125393 C84.689005,3.86515445 84.3851237,4.60015445 84.0801374,5.33515445 C83.9613475,5.62266754 83.8961511,5.95196073 83.7121648,6.18999738 C83.041416,7.06023298 82.7165393,8.08824346 82.2993932,9.07612304 C81.735279,10.4141859 81.4286352,11.8490026 80.7142379,13.1353901 C80.4716854,13.5735314 80.4285895,14.1216204 80.3517904,14.408034 C80.3827311,14.8098927 80.3965438,14.9830602 80.4103566,15.155678 C80.4186443,15.2590288 80.4208543,15.3634791 80.4374297,15.4662801 C80.4921283,15.8060183 80.6838498,16.0165681 80.9473977,16.0319607 C81.2103932,16.0473534 81.4336078,15.8368037 81.4916215,15.5119084 C81.5098543,15.4096571 81.5197995,15.3052068 81.5214571,15.201856 C81.5380324,14.3497618 81.7977128,13.5641859 82.2004936,12.824788 C82.5187402,12.240966 82.7137767,11.6208613 82.8961055,10.9842644 C83.3149091,9.52196073 83.7320553,8.05196073 84.6094434,6.76887173 C84.7249183,6.60065183 84.8006123,6.39889791 84.8691237,6.20429058 C85.1525621,5.38682984 85.4360005,4.56881937 85.6984434,3.74421204 C85.7592196,3.55455236 85.7636397,3.33190838 85.7321466,3.13400262" id="Fill-39" fill="#2F2F2F"></path>
                <path d="M70.7787566,0.616421466 C70.4461447,0.502075916 70.0792772,0.62741623 69.8720854,0.943515707 C69.6030123,1.3519712 69.3991356,1.7791178 69.3980306,2.29422251 C69.3958205,3.33047906 69.4543868,4.37223298 69.1692909,5.39199738 C69.1063046,5.61739005 69.1554781,5.8741178 69.1549256,6.11655236 C69.1538205,6.80922251 69.1488479,7.50189267 69.1554781,8.19456283 C69.1576881,8.42820157 69.1924963,8.66129058 69.2162543,8.94440576 C69.633953,8.97409162 70.0013731,8.99992932 70.4052589,9.02851571 C70.4908982,8.80807068 70.5914553,8.62775654 70.629026,8.43479843 C70.8561082,7.27869895 71.0472772,6.11875131 71.0262817,4.93186649 C71.0152315,4.31011257 71.0732452,3.69605497 71.2075055,3.07704974 C71.331268,2.51136911 71.2831995,1.90665707 71.2936973,1.31898691 C71.2986699,0.969353403 71.1102635,0.730767016 70.7787566,0.616421466" id="Fill-41" fill="#2F2F2F"></path>
                <path d="M110.281665,16.2528455 C110.596044,15.9499398 110.455154,15.3809607 110.049058,15.2094424 C109.709263,15.0659607 109.372784,15.0753063 109.04404,15.2600183 C108.772204,15.413945 108.503684,15.5898613 108.213063,15.6943115 C106.612437,16.2671387 105.30188,17.3275838 103.878611,18.1978194 C103.457044,18.4550969 103.236592,18.8228717 103.247642,19.2038403 C103.24488,19.5969031 103.204547,19.895411 103.505113,20.0564843 C103.797944,20.2142592 104.026684,20.0383429 104.270894,19.8893639 C104.502396,19.7486309 104.758209,19.5771126 105.012916,19.5611702 C105.428405,19.5353325 105.735049,19.3456728 106.057163,19.1340236 C107.162186,18.4050707 108.276049,17.6909607 109.378309,16.9581597 C109.696556,16.7470602 110.008172,16.5167199 110.281665,16.2528455" id="Fill-43" fill="#2F2F2F"></path>
                <path d="M25.5734329,15.7487356 C24.2695059,14.8279241 22.9307708,13.9543901 21.5903781,13.0869031 C21.0688073,12.7488141 20.4748575,12.522322 20.0278758,12.0698874 C19.9803598,12.0220602 19.9112959,11.9945733 19.8488621,11.9648874 C19.6007845,11.8466937 19.3046384,11.9170602 19.0952365,12.1408037 C18.9372183,12.310123 18.9504785,12.5316675 19.189716,12.7779503 C19.5261954,13.1242853 19.8543872,13.4948089 20.2472228,13.7674791 C21.6163461,14.7157775 23.0081224,15.6332906 24.3998986,16.5502539 C25.0087662,16.9504634 25.6342091,17.3248351 26.258547,17.7014058 C26.403305,17.7882644 26.5734785,17.8338927 26.7552548,17.9081073 C26.8768073,17.8174005 27.00941,17.7563796 27.081789,17.6541283 C27.2182594,17.4622696 27.1856612,17.2401754 27.0254329,17.0845995 C26.5541406,16.6255681 26.1060539,16.125856 25.5734329,15.7487356" id="Fill-45" fill="#2F2F2F"></path>
                <path d="M114.523737,22.0629188 C114.816568,21.9854058 115.024313,21.8177356 115.178463,21.579699 C115.301121,21.3916885 115.333719,21.1624476 115.153048,21.0090707 C115.039783,20.9134162 114.823751,20.8381021 114.693911,20.8798822 C113.827021,21.1542016 112.952395,21.3466099 112.037989,21.3361649 C111.865605,21.3345157 111.687696,21.3691492 111.523048,21.4208246 C110.891527,21.6203796 110.242879,21.7869503 109.638984,22.0524738 C108.58645,22.5159031 107.575354,23.0606937 106.697966,24.1260864 C106.992454,24.1711649 107.124505,24.2266885 107.241637,24.2041492 C107.996368,24.0590183 108.72513,23.8440707 109.436765,23.5345681 C110.521345,23.0628927 111.618632,22.602212 112.838025,22.5752749 C113.040244,22.5697775 113.243568,22.4862173 113.442473,22.4229974 C113.804368,22.3070026 114.157422,22.1602225 114.523737,22.0629188" id="Fill-47" fill="#2F2F2F"></path>
            </g>
        </g>
    </g>
</svg>