<?xml version="1.0" encoding="UTF-8"?>
<svg width="188px" height="137px" viewBox="0 0 188 137" version="1.1" xmlns="http://www.w3.org/2000/svg" xmlns:xlink="http://www.w3.org/1999/xlink">
    <!-- Generator: Sketch 42 (36781) - http://www.bohemiancoding.com/sketch -->
    <title>Page 1</title>
    <desc>Created with Sketch.</desc>
    <defs>
        <polygon id="path-1" points="0.0219782235 25.5697446 44.7315026 25.5697446 44.7315026 0.0041719057 0.0219782235 0.0041719057 0.0219782235 25.5697446"></polygon>
        <polygon id="path-3" points="9.12562717e-21 0.195118732 9.12562717e-21 30.1210173 18.3384573 30.1210173 18.3384573 0.195118732 0 0.195118732"></polygon>
        <polygon id="path-5" points="0 136.82155 187.740625 136.82155 187.740625 0 0 0"></polygon>
    </defs>
    <g id="Page-1" stroke="none" stroke-width="1" fill="none" fill-rule="evenodd">
        <g id="01.-Landing_Page_Updated" transform="translate(-1014.000000, -1995.000000)">
            <g id="Page-1" transform="translate(1014.000000, 1995.000000)">
                <path d="M56.8968802,66.7175466 C56.8968802,66.7175466 64.3112986,91.638358 64.2108344,100.314307 C64.1109089,108.938578 62.9220378,131.782857 58.8065077,132.538106 C55.5622957,133.133478 52.6299805,132.076774 53.6276195,125.018448 C54.6255278,117.960122 54.8259175,103.183771 55.0508172,96.4909572 C55.2579404,90.3321477 46.5404504,68.2576527 46.5404504,68.2576527 L56.8968802,66.7175466 Z" id="Fill-1" fill="#EFD7BA"></path>
                <polygon id="Fill-3" fill="#D85656" points="44.0235129 116.206603 66.4531519 110.355169 69.9206476 129.281086 47.7579255 134.938998"></polygon>
                <polygon id="Fill-5" fill="#F46765" points="50.0181542 112.866871 67.4873404 108.090443 70.7091971 125.7516 69.9208361 129.281032 66.4530711 110.355384 50.2171971 114.785948"></polygon>
                <polygon id="Fill-7" fill="#966A4D" points="44.0235129 111.277752 60.2949398 107.545915 63.7627049 126.471833 47.7579255 130.010147"></polygon>
                <polygon id="Fill-9" fill="#AF8168" points="50.0181542 107.93802 61.3293977 105.281189 64.5509851 122.942347 63.7626241 126.471779 60.294859 107.545861 50.2171971 109.857097"></polygon>
                <path d="M31.3692275,41.6131444 C30.7931072,42.7110285 5.53511862,48.9422407 5.53511862,48.9422407 L8.84343381,123.902773 L52.7177318,123.902773 L52.5127633,73.8722033 C52.5127633,73.8722033 59.6640355,74.6718635 59.6548779,72.0952407 C59.6419496,68.3184548 59.2656802,50.0899185 49.8635255,47.7698006 C40.7008149,45.5086277 31.3692275,41.6131444 31.3692275,41.6131444" id="Fill-11" fill="#C0BB69"></path>
                <path d="M25.4418676,29.3632181 C26.3748648,34.4515972 25.7742344,40.4446071 23.2286928,44.5005069 C27.87671,49.2341395 36.887243,49.9094499 38.3139421,46.4578035 C37.9713404,43.3321041 38.6142573,39.2541336 39.1400109,36.9278251 C39.6657645,34.6017859 37.3378504,29.3632181 37.3378504,29.3632181 L25.4418676,29.3632181 Z" id="Fill-13" fill="#E5C7A4"></path>
                <path d="M72.708192,71.1763179 C69.9889255,78.6130762 61.9178539,95.2740527 64.8399341,99.497367 C67.9551318,103.999795 72.5961461,98.1704318 74.6353266,92.9883866 C80.2195731,78.7971784 81.7055272,73.3093729 81.7055272,73.3093729 L72.708192,71.1763179 Z" id="Fill-15" fill="#E5C7A4"></path>
                <path d="M59.6550126,78.1236444 C58.4133507,83.5368939 60.0267032,98.4144479 66.1727948,101.087428 C69.1562848,101.132377 74.0572132,101.968642 66.3594481,86.6111847 C64.8697232,83.5368939 64.8724166,78.4224067 64.8724166,78.4224067 L59.6550126,78.1236444 Z" id="Fill-17" fill="#E5C7A4"></path>
                <path d="M48.1698556,9.95728919 C52.7176779,14.2026743 48.7532481,39.7508864 39.995357,40.4444994 C33.4950819,39.7508864 27.1650304,34.0614837 26.0316436,30.1024798 C26.0677352,29.2374149 22.8550361,28.1494896 21.640039,25.3728845 C20.0194143,21.6687705 20.300337,17.9883422 20.6160046,16.8167096 C22.6293284,9.34603772 28.6278212,2.88846601 37.3717066,5.03444047 C48.5151507,7.76959568 48.1698556,9.95728919 48.1698556,9.95728919" id="Fill-19" fill="#EFD7BA"></path>
                <path d="M49.2868395,14.0811507 C45.3162149,20.0671625 31.1407994,23.6065534 26.2945473,22.1189326 C24.0603639,16.4446026 20.196937,24.6869424 26.7750516,28.8445829 C26.8870974,29.8897126 25.8544441,34.0613491 25.8544441,34.0613491 C25.8544441,34.0613491 20.1928968,27.7375475 19.2383524,23.515579 C17.7863352,17.0948815 16.6171261,-6.59239155 44.0214928,1.7648776 C59.7989484,9.95742377 49.2868395,14.0811507 49.2868395,14.0811507" id="Fill-21" fill="#000000"></path>
                <path d="M127.679796,80.9361548 C124.466828,103.636974 110.955068,95.3076971 106.048484,98.6253041 C101.141899,101.942911 107.081676,105.789947 107.081676,105.789947 C107.081676,105.789947 132.058203,113.063328 137.935223,82.57531 C138.940134,77.3620428 127.679796,80.9361548 127.679796,80.9361548" id="Fill-23" fill="#E5C7A4"></path>
                <g id="Group-27" transform="translate(136.017192, 111.251806)">
                    <mask id="mask-2" fill="white">
                        <use xlink:href="#path-1"></use>
                    </mask>
                    <g id="Clip-26"></g>
                    <polygon id="Fill-25" fill="#4F5962" mask="url(#mask-2)" points="6.83145673 0.0041719057 0.0219782235 25.5698792 44.7315026 25.5698792 39.5841272 0.0041719057"></polygon>
                </g>
                <path d="M151.20339,50.8591371 C151.20339,50.8591371 140.914565,54.5341823 136.986227,55.2490585 C133.164279,57.0419014 128.241803,80.2511548 128.241803,80.2511548 C129.413436,83.1109289 135.731098,85.0359269 138.435012,84.4997697 C139.125064,83.1930212 141.178519,77.3989171 141.839751,73.8721764 C142.453849,70.5981725 140.337098,69.5296263 140.337098,69.5296263 C140.337098,69.5296263 138.856531,78.1767756 141.07186,84.4997697 C143.28692,90.823033 142.994147,104.997015 142.848703,111.25595 C154.420399,116.389009 171.545367,114.454322 175.601373,111.25595 C175.375935,99.500866 174.494382,91.9787855 175.170428,86.142424 C175.846473,80.3060625 176.208198,72.0771804 174.856107,68.9477128 L172.912003,71.1763179 L176.175608,82.6886244 C176.175608,82.6886244 183.199751,82.974198 186.354542,80.4411784 C186.354542,80.4411784 184.349299,57.3156322 179.356256,54.5341823 C172.577751,52.3927835 164.577786,50.428758 164.577786,50.428758 L151.20339,50.8591371 Z" id="Fill-28" fill="#6A8A69"></path>
                <path d="M94.506361,49.7422238 C94.506361,49.7422238 83.2473696,51.7040961 79.8612149,53.6974595 C76.7524814,55.5277149 69.9314212,74.1524477 69.9314212,74.1524477 L81.2469742,77.2183947 L82.4204928,71.5602139 L80.580086,82.6887051 C88.9081089,95.0876088 83.1016562,114.217815 83.1016562,114.217815 L117.269175,114.217815 C117.269175,114.217815 112.161931,100.192137 117.188911,88.9374124 C120.974499,80.4625224 117.521817,72.5649703 117.521817,72.5649703 L120.484029,81.2705263 L132.185278,77.2183947 C132.185278,77.2183947 125.237358,54.8297955 121.209095,52.9427483 C115.165622,50.112043 104.554126,49.7422238 104.554126,49.7422238 L94.506361,49.7422238 Z" id="Fill-30" fill="#FABD68"></path>
                <path d="M146.400421,12.7074902 C140.79786,15.7990069 137.726295,29.8561758 143.232433,48.8684921 C146.190605,52.7812014 155.913006,51.3980128 153.322484,40.4611601 C150.439458,28.2894234 151.277378,17.1095236 151.277378,17.1095236 L146.400421,12.7074902 Z" id="Fill-32" fill="#3A4D58"></path>
                <polygon id="Fill-34" fill="#B82E2C" points="112.161823 100.192164 87.8486831 103.637082 87.8486831 72.9743823 112.161823 69.529734"></polygon>
                <path d="M152.225647,41.9353501 C152.651475,46.0213953 152.736856,48.2906428 151.203498,50.859191 C153.673893,53.3424169 162.022117,55.350853 164.577624,50.4288118 C161.594134,46.5685878 163.359934,35.6161242 163.359934,35.6161242 L158.784908,36.4058255 L152.225647,41.9353501 Z" id="Fill-36" fill="#E5C7A4"></path>
                <polygon id="Fill-38" fill="#B22B2B" points="87.8486292 103.636974 63.5354888 100.192057 63.5354888 69.5296263 87.8486292 72.9745438"></polygon>
                <path d="M143.344371,24.999001 C142.905345,32.16472 145.655855,42.91128 152.462371,44.6031896 C154.82072,44.8298183 161.983574,42.5290796 163.359907,35.6160972 C163.359907,35.6160972 168.199425,38.7431424 168.582428,30.8227122 C168.664846,29.1238045 164.307179,28.810777 164.343809,26.6556513 C164.619884,10.3647633 144.173402,11.4693762 143.344371,24.999001" id="Fill-40" fill="#EFD7BA"></path>
                <path d="M146.190658,18.3730458 C147.921174,21.6195959 159.033105,30.3991695 163.359799,29.6328847 C165.379856,27.954702 168.369541,32.3946862 163.359799,35.6162049 C161.640326,41.0663287 160.650229,50.2474819 165.999071,50.0900261 C170.089552,50.0900261 171.82734,48.6002521 171.82734,48.6002521 C169.794085,41.6926528 172.017226,22.849366 167.166664,15.5372265 C161.175174,6.50545442 146.87236,10.6636332 146.400475,12.7075978 C146.21463,13.5118336 138.843575,28.0873955 143.232487,30.2034937 L146.190658,18.3730458 Z" id="Fill-42" fill="#3A4D58"></path>
                <path d="M54.0398458,123.666939 C51.6071582,124.331214 49.076161,126.113291 49.6083788,129.567091 C50.275267,133.892684 51.8374447,134.633937 54.7937312,134.404617 C58.9717484,134.080285 61.8359203,132.511918 61.1000808,129.123523 C60.3642413,125.735128 59.8465679,124.260696 58.2386023,123.666939 C56.6120521,123.066454 54.0398458,123.666939 54.0398458,123.666939" id="Fill-44" fill="#EFD7BA"></path>
                <path d="M131.322552,77.5171031 C134.025658,84.5043723 136.943698,95.2320914 135.773681,100.64561 C135.07932,105.122199 123.541291,105.06137 113.081973,91.7680639 C109.933916,91.7680639 105.222065,89.3610088 105.06477,88.695388 C104.976964,88.3244921 103.187732,86.7806179 103.24187,84.9904666 C103.284964,83.5722878 103.75281,82.2160147 105.088202,81.7339578 L107.867801,81.3967063 L112.410237,82.1358065 C112.410237,82.1358065 109.407893,78.6825452 110.65979,77.9302564 C112.093222,77.0684214 114.575738,80.5520972 115.368139,81.8190108 C116.16054,83.0859244 117.188884,88.9373585 117.188884,88.9373585 C117.188884,88.9373585 123.368913,92.8640639 127.330649,94.1309774 L122.391474,80.6102348 L131.322552,77.5171031 Z" id="Fill-46" fill="#EFD7BA"></path>
                <path d="M39.2173117,83.5876028 C39.2173117,83.5876028 31.2230023,89.3849367 20.659988,94.0752354 C19.5632315,94.5621371 18.3334206,94.298365 18.0751226,93.0659033 C17.4693748,90.1751764 16.4803547,85.3163866 15.6238504,80.4621725 C15.5344292,79.9558916 14.6919307,74.4484377 14.6070883,73.8721764 C12.2705553,74.8486715 7.08197077,75.5958464 4.4790596,76.6600861 C6.16782751,87.7191352 10.9739479,104.503923 16.9508934,106.531469 C23.7668361,108.189465 41.5320281,92.5251705 43.9100395,89.1246637 L39.2173117,83.5876028 Z" id="Fill-48" fill="#EFD7BA"></path>
                <g id="Group-52" transform="translate(0.000000, 48.269487)">
                    <mask id="mask-4" fill="white">
                        <use xlink:href="#path-3"></use>
                    </mask>
                    <g id="Clip-51"></g>
                    <path d="M18.3384573,26.9645607 C18.0502625,22.0296 17.1191507,15.2415057 16.1158556,9.92003811 C15.6423542,7.40908919 13.9627438,2.49835246 11.7969731,1.13992613 C9.27540287,-0.442168173 5.9994086,0.188462475 3.96346017,1.38189666 C0.836680802,3.21484361 0.354829799,6.19573752 0.0418555874,9.80483969 C-0.300746132,13.7581914 1.54073811,25.780547 2.55615358,28.418268 C6.84998739,31.928321 16.013506,29.2887159 18.3384573,26.9645607" id="Fill-50" fill="#C0BB69" mask="url(#mask-4)"></path>
                </g>
                <path d="M61.6571857,72.8399124 C59.049965,72.7564743 55.723604,77.1054841 58.2893461,80.6879399 C60.0796556,83.1881226 63.632263,82.6368927 63.632263,82.6368927 L64.1477817,82.3933073 C65.1798963,81.9058672 65.9273175,80.9643623 66.1541026,79.8462916 C66.5414149,77.937712 66.838498,75.1861383 65.368435,75.0612503 C62.2656269,74.7977473 62.6664063,73.4562778 63.5353003,73.000598 C64.4044636,72.5449183 61.6571857,72.8399124 61.6571857,72.8399124" id="Fill-53" fill="#EFD7BA"></path>
                <path d="M101.741721,54.5341554 L98.7385696,54.3885424 C96.2867587,54.5341554 94.2680481,51.6969904 94.6664034,50.6750081 C95.5843175,48.3207075 94.6664034,41.6335464 94.6664034,41.6335464 L106.672547,37.0242635 C106.672547,37.0242635 104.111114,44.8214206 106.672547,49.8718489 C107.856839,52.206232 104.362409,54.5341554 101.741721,54.5341554" id="Fill-55" fill="#E5C7A4"></path>
                <path d="M109.414896,13.1799383 C111.826036,11.8408912 119.69995,11.6207222 121.307108,17.5450974 C122.629572,22.4200365 118.779881,28.6375218 117.05179,32.2256299 C115.524357,35.3965473 111.086426,42.7022271 119.67975,46.2671878 C113.722197,47.6414943 104.957033,46.0728578 106.543182,35.1954884 C108.129062,24.3181191 109.414896,13.1799383 109.414896,13.1799383" id="Fill-57" fill="#2C3E47"></path>
                <path d="M89.3045519,14.3151273 L87.4953885,14.1148758 C85.3164201,16.4958228 82.3595948,22.6540939 84.8299903,26.2580821 C87.3003857,29.8618012 91.625463,18.6251096 91.625463,18.6251096 L89.3045519,14.3151273 Z" id="Fill-59" fill="#3A4D57"></path>
                <path d="M88.8765421,16.2965941 C85.8642327,20.5748161 81.8211553,33.6159242 90.8486567,45.0953937 C93.7526911,47.4661128 100.63139,46.3902994 105.556829,39.2948299 C106.379396,38.1102778 108.489683,37.6271442 109.175694,36.0951128 C109.175694,36.0951128 111.177975,33.5973525 111.528387,32.217932 C113.743448,23.5008024 109.437763,15.9857198 109.437763,15.9857198 L88.8765421,16.2965941 Z" id="Fill-61" fill="#EFD7BA"></path>
                <path d="M87.4953616,14.1150104 C87.1417169,17.8996018 92.2163702,26.0579652 104.238135,29.1502894 C105.929866,30.1679652 105.851757,31.9925684 105.851757,31.9925684 C106.176313,28.9583817 108.388949,29.2108493 109.098124,30.2320242 C111.019872,32.9989397 108.056313,36.9382953 106.672708,37.0241558 C106.253344,38.3104485 105.55629,39.29448 105.55629,39.29448 C108.638359,38.4000772 114.486829,34.4835998 114.242267,23.5911578 C113.997705,12.6987157 103.212215,8.33893969 94.6689891,10.5858473 C90.6444963,11.6441656 87.4953616,14.1150104 87.4953616,14.1150104" id="Fill-63" fill="#3A4D58"></path>
                <path d="M94.9079754,35.8399536 L98.8869496,36.124989 C99.8721989,36.196046 100.758061,35.6335116 100.97946,34.7956314 L101.175001,33.3470381 C101.377007,32.5829065 100.744056,31.8292719 99.8452648,31.7641363 L94.8996258,31.4064291 C93.8580842,31.3310656 93.0056201,32.089545 93.1087777,32.9998279 L93.1577977,34.3332228 C93.248835,35.1355745 93.989792,35.7734723 94.9079754,35.8399536 Z" id="Stroke-65" stroke="#3A4D58" stroke-width="0.528089888"></path>
                <path d="M85.4569352,35.1532041 L88.668557,35.3854851 C89.6540756,35.4568112 90.5396688,34.8942768 90.7613364,34.0563967 L90.8472562,32.596768 C91.0492619,31.8326363 90.4163106,31.0790018 89.5177891,31.0141354 L85.3459668,30.7121432 C84.3041559,30.6367798 83.4516917,31.3952591 83.5548493,32.3058112 L83.7067576,33.6464733 C83.7977948,34.448825 84.5387519,35.0867228 85.4569352,35.1532041 Z" id="Stroke-67" stroke="#3A4D58" stroke-width="0.528089888"></path>
                <path id="Stroke-69" stroke="#3A4D58" stroke-width="0.528089888"></path>
                <polygon id="Fill-71" fill="#3A4D58" points="105.924156 30.5917232 101.41458 31.9980591 100.744998 31.9496112 101.358018 33.116399 105.986643 30.9736544"></polygon>
                <polygon id="Fill-73" fill="#3A4D58" points="85.3171203 29.6084454 83.3468911 30.9905574 83.2625874 32.1546536 83.5839112 31.9374454 83.6472063 31.3434198 85.3181977 29.8471861"></polygon>
                <path d="M39.2173117,83.5876028 C39.2173117,83.5876028 39.3662573,74.5827462 41.5589622,71.8696617 C43.751667,69.1568464 46.5067559,66.2725792 49.4948246,66.4044652 C52.4828934,66.5363513 46.7798676,69.8870644 45.7356327,71.3480389 C45.7356327,71.3480389 48.2437358,70.7179466 49.8484693,72.9051018 C51.2134894,74.7657717 52.7993691,78.2365281 50.2934206,80.1138857 C47.7872029,81.9912432 48.8683375,82.5855379 48.4505897,84.1146086 C48.0328418,85.6434102 43.9100395,89.1246637 43.9100395,89.1246637 L39.2173117,86.2694652 L39.2173117,83.5876028 Z" id="Fill-75" fill="#EFD7BA"></path>
                <polygon id="Fill-77" fill="#D1D1D1" points="63.535408 69.5296532 65.1589954 68.9477397 87.8485484 72.2287417 110.500663 68.9512387 112.161689 69.5296532 87.8485484 72.9745707"></polygon>
                <mask id="mask-6" fill="white">
                    <use xlink:href="#path-5"></use>
                </mask>
                <g id="Clip-80"></g>
                <polygon id="Fill-79" fill="#AD598B" mask="url(#mask-6)" points="145.988734 107.188639 169.693971 107.188639 169.693971 75.7060923 145.988734 75.7060923"></polygon>
                <polygon id="Fill-81" fill="#914777" mask="url(#mask-6)" points="169.693891 107.188612 170.799266 106.423134 170.799266 75.0283326 169.693891 75.7060654"></polygon>
                <polygon id="Fill-82" fill="#D1D1D1" mask="url(#mask-6)" points="146.870125 75.0283057 145.988572 75.7060385 169.69381 75.7060385 170.799185 75.0283057"></polygon>
                <polygon id="Fill-83" fill="#A9959B" mask="url(#mask-6)" points="148.827857 110.35525 172.533095 110.35525 172.533095 78.8727033 148.827857 78.8727033"></polygon>
                <polygon id="Fill-84" fill="#8E787F" mask="url(#mask-6)" points="172.533041 110.355276 173.638416 109.589799 173.638416 78.1949974 172.533041 78.8727303"></polygon>
                <polygon id="Fill-85" fill="#D1D1D1" mask="url(#mask-6)" points="149.709302 78.1949436 148.827749 78.8726764 172.532987 78.8726764 173.638362 78.1949436"></polygon>
                <path d="M121.488051,136.821496 C120.724469,126.379351 118.589942,118.471302 117.269094,114.217842 L83.1015754,114.217842 C83.1015754,114.217842 80.033243,122.496518 79.7264636,132.615139 C79.6914493,133.763355 79.7485496,135.186648 79.8797186,136.821496 L121.488051,136.821496 Z" id="Fill-86" fill="#4F5962" mask="url(#mask-6)"></path>
                <path d="M52.2271542,136.821496 C52.5428218,128.774025 52.7176241,123.902854 52.7176241,123.902854 L8.84332607,123.902854 C8.7560596,124.339424 8.82635759,129.255813 8.99415702,136.821496 L52.2271542,136.821496 Z" id="Fill-87" fill="#3A4C56" mask="url(#mask-6)"></path>
                <path d="M187.516452,92.3328322 C186.835019,87.0210542 185.62918,80.9362625 185.62918,80.9362625 C185.62918,80.9362625 183.889776,81.9902743 180.780234,82.4249599 C177.507742,82.8825238 176.175581,82.688732 176.175581,82.688732 L178.529621,92.2736181 C174.466074,92.8636063 156.575638,94.7097418 153.756716,94.9622094 C151.817461,95.1360837 150.841908,94.3716829 148.37663,93.3863057 C145.911083,92.07229 141.988939,96.1265749 141.839724,98.0975984 C141.690779,100.068622 145.59326,102.843074 145.59326,102.843074 L149.026011,102.843074 L153.756716,101.544938 C153.756716,101.544938 158.424934,101.366219 165.492441,101.108369 C188.059713,101.173504 188.338211,98.738457 187.516452,92.3328322" id="Fill-88" fill="#EFD7BA" mask="url(#mask-6)"></path>
            </g>
        </g>
    </g>
</svg>