<?xml version="1.0" encoding="UTF-8"?>
<svg width="148px" height="188px" viewBox="0 0 148 188" version="1.1" xmlns="http://www.w3.org/2000/svg" xmlns:xlink="http://www.w3.org/1999/xlink">
    <!-- Generator: Sketch 42 (36781) - http://www.bohemiancoding.com/sketch -->
    <title>Page 1</title>
    <desc>Created with Sketch.</desc>
    <defs>
        <polygon id="path-1" points="36.1155059 0.321930225 0.290025601 0.321930225 0.290025601 34.6083009 36.1155059 34.6083009 36.1155059 0.321930225"></polygon>
        <polygon id="path-3" points="1.14289118e-20 0.134552489 1.14289118e-20 47.0996577 17.5631738 47.0996577 17.5631738 0.134552489 0 0.134552489"></polygon>
        <polygon id="path-5" points="0 187.857467 147.978074 187.857467 147.978074 0.421926901 0 0.421926901"></polygon>
    </defs>
    <g id="Page-1" stroke="none" stroke-width="1" fill="none" fill-rule="evenodd">
        <g id="01.-Landing_Page_Updated" transform="translate(-1029.000000, -876.000000)">
            <g id="Page-1" transform="translate(1029.000000, 876.000000)">
                <path d="M37.104359,165.856216 C37.0200285,166.121608 33.6033789,172.098624 33.9343761,174.734402 C35.4489516,176.09174 38.436359,175.873182 39.5891567,176.531388 C40.7419544,177.190016 51.1335783,181.837963 54.0320171,180.675132 C55.0254302,177.544013 56.6757778,176.627588 46.9756638,172.5619 C44.8062621,170.20797 45.4319943,168.640089 45.4319943,168.640089 L37.104359,165.856216 Z" id="Fill-1" fill="#6B848C"></path>
                <path d="M54.0024593,180.685427 C45.2278724,177.430683 42.2164308,172.26883 40.6289094,167.034404 L37.1043168,165.856385 C37.020408,166.121355 33.6037584,172.098793 33.9343339,174.73457 C35.4489094,176.091909 38.4363168,175.873351 39.5891145,176.531557 C40.7381174,177.187653 51.0652285,181.806909 54.0024593,180.685427" id="Fill-3" fill="#7D959E"></path>
                <g id="Group-7" transform="translate(21.082621, 176.465441)" fill="#7D959E">
                    <path d="M0.926623362,1.8043282 C0.926623362,2.11992952 -0.439952137,7.90454733 0.821631909,10.6394775 C2.92356923,11.5858595 6.07710769,10.3238762 7.54867464,10.6394775 C9.0202416,10.9550788 21.843535,12.408617 24.576686,10.1567931 C24.576686,6.43202244 26.0453014,4.87511218 14.1690393,3.81312217 C11.0171875,2.01486972 10.437837,0.0993215924 10.437837,0.0993215924 L0.926623362,1.8043282 Z" id="Fill-5"></path>
                </g>
                <polygon id="Fill-8" fill="#526D51" points="40.8107681 38.9375662 45.3840103 42.4450445 47.7743578 47.2292737 42.4737652 43.9011143 39.0406712 41.5687024"></polygon>
                <polygon id="Fill-10" fill="#E5C7A4" points="34.6540946 32.9483139 32.2679635 38.0743038 40.4855476 44.9268186 43.3768182 36.8562008"></polygon>
                <path d="M50.6613276,11.2510183 C54.0661709,15.8850415 54.8723704,19.5262706 53.9190142,24.0240114 C54.7020228,25.9699383 56.5180798,28.2871608 56.5180798,28.2871608 C56.5180798,28.2871608 55.8371111,29.5141242 53.5897037,29.786689 C52.8404274,31.8309249 52.583641,32.2017986 52.583641,32.2017986 L47.8012593,30.8769481 C47.8012593,30.8769481 47.9606439,33.6793866 50.9143191,35.2856623 C50.2329288,37.4661805 48.9877892,40.0399346 44.2598006,39.0543134 C39.0321538,37.9644762 34.3172365,35.6468317 32.5462963,33.6025959 C30.7757778,31.5583601 26.6899658,18.6106893 26.6899658,18.6106893 L30.2310028,10.2970416 L39.0840171,6.48071281 L50.6613276,11.2510183 Z" id="Fill-12" fill="#EFD7BA"></path>
                <polygon id="Fill-14" fill="#D85656" points="47.561845 82.8048842 60.5542211 79.8210171 63.3227909 94.9530035 50.5437709 97.7820233"></polygon>
                <polygon id="Fill-16" fill="#F46765" points="52.348359 80.1346354 61.3801538 78.0102334 63.9522336 92.1312829 63.3227066 94.9531301 60.5541368 79.8211437 52.5073219 81.6691835"></polygon>
                <path d="M26.6439214,177.438869 L22.0091179,178.269643 C22.0091179,178.585244 20.6429641,184.370284 21.9041265,187.104792 C24.0064855,188.051174 27.1596023,186.789191 28.6311692,187.104792 C30.1027362,187.420393 42.9260296,188.873932 45.6591806,186.622108 C45.6591806,186.440679 45.6625538,186.264314 45.6680353,186.092589 C33.8887533,186.822523 29.5250724,182.113819 26.6439214,177.438869" id="Fill-18" fill="#96ABB4"></path>
                <g id="Group-22" transform="translate(21.925926, 0.099997)">
                    <mask id="mask-2" fill="white">
                        <use xlink:href="#path-1"></use>
                    </mask>
                    <g id="Clip-21"></g>
                    <path d="M8.35525356,5.13248759 C8.92574929,2.74184977 11.0947293,2.73383316 11.6652251,2.96251754 C12.0076068,1.36341459 14.0623191,1.36341459 14.518547,2.16296606 C15.546114,0.6782053 17.8251453,0.56386311 18.3960627,1.47775678 C19.7655897,-0.34960863 23.763698,-0.121346177 23.8779658,2.96251754 C25.2474929,2.6199129 26.0465242,2.93804578 26.0465242,3.63549095 C27.1879373,3.30512218 28.5574644,4.21859392 28.4436182,5.0181454 C30.2697949,3.87598928 32.0959715,5.58943442 33.2373846,4.33293611 C34.3787977,3.07685973 35.2916752,2.84817535 35.9764387,5.47509223 C36.6616239,8.10200912 34.5921538,8.44461376 34.5921538,8.44461376 C34.5921538,8.44461376 36.0907066,15.0688661 28.6717322,13.0132382 C28.2150826,14.1553944 26.2750598,15.6401551 24.2203476,13.92671 C22.9650883,14.7262615 21.8696353,15.4840422 19.677886,14.705587 C18.7418177,23.5204838 17.2580228,24.0917729 17.2580228,24.0917729 C17.2580228,24.0917729 16.2308775,19.0662016 13.9480513,20.0944374 C11.6652251,21.1222513 12.2361425,26.6043476 14.7470826,27.403899 C13.7199373,31.5155767 11.7719031,34.6083009 11.7719031,34.6083009 C8.69763533,33.5712045 1.39292877,29.003002 1.16439316,21.9218028 C-0.0908660969,20.3226999 0.022980057,17.8101252 1.39292877,16.6679691 C0.593897436,15.0688661 0.365783476,12.7845539 1.9634245,12.5562914 C2.19196011,10.3863214 3.56148718,8.55895595 5.38766382,9.35850743 C4.13198291,5.47509223 8.35525356,5.13248759 8.35525356,5.13248759" id="Fill-20" fill="#9F5F39" mask="url(#mask-2)"></path>
                </g>
                <polygon id="Fill-23" fill="#966A4D" points="42.6447875 80.5586719 55.6371635 77.5748049 58.4057333 92.7067912 45.6267134 95.5358111"></polygon>
                <polygon id="Fill-25" fill="#AF8168" points="47.4313014 77.8884231 56.4630963 75.7640212 59.0351761 89.8850707 58.405649 92.7069178 55.6370792 77.5749314 47.5902644 79.4229713"></polygon>
                <path d="M47.2816991,91.9201929 C51.7908501,106.002425 58.0414256,123.302272 54.913608,133.473664 C51.2106564,145.513348 45.43191,168.640005 45.43191,168.640005 C41.6560125,169.037882 37.9180638,167.447218 37.1042746,165.856131 C40.0663829,154.32276 45.0342917,131.852621 44.0408786,127.87596 C43.0470439,123.898877 33.906041,101.23001 33.906041,101.23001 L47.2816991,91.9201929 Z" id="Fill-27" fill="#CD9154"></path>
                <path d="M26.6897972,44.1371824 C20.1866519,45.761179 15.0024353,47.0189431 12.297535,52.9305609 C9.59305641,58.8426006 -0.68514302,83.2012845 0.0363042735,85.4564838 C0.757329915,87.712105 6.07689687,95.1097493 12.0272558,95.4704968 C17.9776148,95.8312443 26.6897972,94.5802311 26.6897972,94.5802311 L31.4110393,59.1130558 L26.6897972,44.1371824 Z" id="Fill-29" fill="#5F7783"></path>
                <path d="M24.6794427,96.5077197 C24.6794427,96.5077197 27.385608,129.387639 26.6122974,138.28439 C25.8389869,147.18114 22.0091179,169.372808 22.0091179,178.269558 C27.5774598,179.201595 31.2787248,177.05905 31.2787248,177.05905 C34.9513174,161.973054 41.8815966,114.494885 41.8815966,96.5077197 C41.8815966,78.520554 24.6794427,96.5077197 24.6794427,96.5077197" id="Fill-31" fill="#E9AE61"></path>
                <g id="Group-35" transform="translate(0.000000, 48.199663)">
                    <mask id="mask-4" fill="white">
                        <use xlink:href="#path-3"></use>
                    </mask>
                    <g id="Clip-34"></g>
                    <path d="M12.2976615,4.73102414 C9.59276125,10.6430639 -0.685016524,35.0013258 0.0360091168,37.256947 C0.708123077,39.358143 5.37202051,45.9212159 10.8189265,47.0996577 C11.8789607,43.6554684 13.0132057,39.3159503 14.209012,33.8536846 C18.8471886,12.6700007 17.9469607,4.70697431 15.8517698,0.134552489 C14.4130917,1.2640508 13.2130689,2.73024678 12.2976615,4.73102414" id="Fill-33" fill="#96AAB5" mask="url(#mask-4)"></path>
                </g>
                <path d="M31.0086986,38.9375662 L25.0499066,44.9268186 C25.0499066,44.9268186 21.1694393,50.2760078 21.308163,62.8949976 C21.4468866,75.5139873 23.1094621,103.386478 23.1094621,103.386478 C28.9619977,106.575824 49.5782712,106.298618 52.9042655,99.781113 C51.9340433,86.3300834 47.5619293,51.3477021 47.5619293,51.3477021 C46.4597299,44.1926658 42.3439806,43.6441608 42.3439806,43.6441608 L40.1286188,45.6348119 L38.2733481,41.5353701 L31.0086986,38.9375662 Z" id="Fill-36" fill="#5A7F5B"></path>
                <path d="M5.3782188,61.6571484 C6.91429858,63.2233411 12.712441,65.5625038 13.8728285,65.7025835 C12.3561447,71.4483841 8.72656068,78.9894836 8.72656068,78.9894836 C8.72656068,78.9894836 1.77224729,78.2439387 0.541865527,74.4495501 L5.3782188,61.6571484 Z" id="Fill-38" fill="#5F7783"></path>
                <path d="M24.3410245,46.1661023 C24.3410245,46.1661023 30.8150758,43.0662053 35.2829048,46.7462518 C40.8778108,51.3545374 40.6973436,58.3914342 28.9619134,78.9780915 L21.505412,90.7266461 C19.9111442,88.1157624 18.8751442,88.3613239 23.8249219,80.5733972 C30.8703123,69.4881117 36.5056969,57.7526369 34.4767054,51.8055772 C32.4472923,45.8589395 26.6238507,47.6976969 23.2674974,48.7609527 C23.2341869,48.857574 24.3410245,46.1661023 24.3410245,46.1661023" id="Fill-40" fill="#213138"></path>
                <path d="M27.4020946,49.3854889 C29.8152114,46.9708013 34.4116444,47.6454624 36.645559,50.5668842 C40.3864593,55.4574389 47.2813197,67.8359303 47.2813197,67.8359303 L41.7669493,78.9364052 C32.8030405,70.3231894 30.5535248,68.7291496 26.6899236,61.228977 C22.0057869,52.1356084 27.4020946,49.3854889 27.4020946,49.3854889" id="Fill-42" fill="#698868"></path>
                <path d="M58.04151,58.7811259 C57.9263989,58.4359897 62.6860114,54.4795811 62.6860114,54.4795811 C62.6860114,54.4795811 68.539812,52.720146 70.2635271,52.6049599 C71.9872422,52.4901958 71.7574416,53.5247606 67.6206097,55.0770296 C63.4837778,56.6297206 67.275698,56.8596708 68.4251225,56.8596708 C69.5741254,56.8596708 73.8256467,56.2845844 73.8256467,56.2845844 C73.8256467,56.2845844 75.0606667,56.9579798 74.9506154,57.7638601 C74.7608718,59.1553751 71.2590484,62.4531557 69.2292137,63.0687471 C67.1428775,63.7016374 60.1514587,63.0687471 60.1514587,63.0687471 C60.1514587,63.0687471 52.4246781,74.0430657 48.7752764,76.7577434 C46.8592877,78.1834344 42.2202678,80.4909526 40.5699202,76.2919361 C38.8550598,71.9300558 45.4159715,68.0740659 49.999755,64.8075078 C55.1388547,61.1456042 58.04151,58.7811259 58.04151,58.7811259" id="Fill-44" fill="#EFD7BA"></path>
                <path d="M117.627954,171.562819 C117.75951,171.957743 119.422507,179.094215 119.422507,179.094215 L122.535567,182.665404 L127.693219,180.321178 L126.130575,173.636168 L117.627954,171.562819 Z" id="Fill-46" fill="#EFD7BA"></path>
                <path d="M133.115838,168.315459 C132.439929,168.315459 135.847303,173.687432 137.300738,179.039153 C136.998414,180.537837 138.623884,178.865741 138.623884,178.865741 L144.450699,179.531964 C144.450699,179.531964 143.846049,170.939 140.369946,167.181319 C137.845092,164.451874 133.115838,168.315459 133.115838,168.315459" id="Fill-48" fill="#EFD7BA"></path>
                <path d="M119.820758,83.6920277 C119.820758,83.6920277 122.606194,88.4146555 122.990319,96.6751403 C123.565031,109.021565 118.447858,118.966804 118.936974,127.770731 C119.585476,139.44587 126.244211,174.234165 126.244211,174.234165 C122.81196,176.474597 117.93049,175.056923 117.93049,175.056923 C114.650034,161.951029 107.610547,141.609511 106.169339,127.623478 C104.728553,113.637867 107.367254,83.6920277 107.367254,83.6920277 L119.820758,83.6920277 Z" id="Fill-50" fill="#3A4C56"></path>
                <path d="M118.716155,177.953155 C120.959768,177.870036 123.00183,179.615969 123.00183,179.615969 C124.948178,179.366611 127.764394,179.2548 126.771825,176.275996 C127.440565,175.292484 128.354708,176.705939 128.853523,178.618112 C129.351916,180.530707 130.099505,184.687953 130.099505,184.687953 L108.74534,184.687953 C109.49293,183.108258 111.487346,182.211242 114.063221,181.911252 C116.805226,180.447587 118.716155,177.953155 118.716155,177.953155" id="Fill-52" fill="#966A4E"></path>
                <mask id="mask-6" fill="white">
                    <use xlink:href="#path-5"></use>
                </mask>
                <g id="Clip-55"></g>
                <polygon id="Fill-54" fill="#3A4C56" mask="url(#mask-6)" points="108.745003 186.022085 130.09959 186.022085 130.09959 184.684155 108.745003 184.684155"></polygon>
                <path d="M101.026487,86.0520758 C98.9186462,100.516152 96.9921162,119.18262 99.7197858,131.531576 C101.450247,139.365915 116.548777,145.907892 134.788196,172.440343 C138.696492,172.440343 142.256504,170.629011 141.818407,167.997453 C125.228492,135.856749 114.176982,134.042885 112.619398,129.245998 C112.619398,129.245998 115.167022,120.598185 117.863068,115.437597 C120.964321,109.501507 125.846635,99.5423446 124.397415,91.2063348 C123.329791,85.0664545 121.83419,78.9894414 121.83419,78.9894414 L101.026487,86.0520758 Z" id="Fill-56" fill="#4F5962" mask="url(#mask-6)"></path>
                <path d="M125.371348,8.48317788 C129.207964,4.77190886 140.973753,2.98040724 137.39308,17.1854202 C133.811986,31.3900112 133.939747,38.0623632 139.311177,38.6935659 C139.311177,38.6935659 130.277696,41.7495824 127.161684,32.1579182 C123.471804,20.7983803 127.788681,14.8854967 127.788681,14.8854967 L123.471804,12.9623539 L125.371348,8.48317788 Z" id="Fill-57" fill="#2C3E47" mask="url(#mask-6)"></path>
                <path d="M135.435011,175.806687 C137.635193,175.359866 139.934042,176.750537 139.934042,176.750537 C141.813769,176.187687 144.574327,175.619351 143.110772,172.841384 C143.611273,171.762095 144.742988,173.008467 145.545393,174.814315 C146.347797,176.61974 147.761176,180.600198 147.761176,180.600198 L126.690783,184.073922 C127.171888,182.393388 128.993848,181.184145 131.486658,180.469401 C133.954589,178.578746 135.435011,175.806687 135.435011,175.806687" id="Fill-58" fill="#966A4E" mask="url(#mask-6)"></path>
                <polygon id="Fill-59" fill="#3A4C56" mask="url(#mask-6)" points="147.977905 181.916568 126.907512 185.38987 126.68994 184.070083 147.760754 180.596781"></polygon>
                <polygon id="Fill-60" fill="#E5C7A4" mask="url(#mask-6)" points="120.774283 40.4684858 112.323525 41.6195024 110.58969 32.3679112 119.76316 27.6697552"></polygon>
                <path d="M103.712623,12.5326213 C101.444555,13.9005083 101.909216,20.3589434 102.000715,22.3723786 C101.653273,23.4613719 99.6592786,26.2114914 99.4847145,26.7059898 C100.586914,27.6772655 102.168532,28.2358967 102.168532,28.2358967 C102.720475,31.2113252 106.507336,36.0774081 108.3508,36.0976606 C112.323187,36.141963 118.679598,33.0184381 121.135301,24.7064782 C122.606447,19.7277407 125.846846,16.2852392 125.846846,16.2852392 L122.188168,8.59730911 L115.694299,5.85140884 L103.712623,12.5326213 Z" id="Fill-61" fill="#EFD7BA" mask="url(#mask-6)"></path>
                <path d="M120.72828,37.2195643 C114.03497,39.4827802 112.129944,40.1612386 109.391312,41.8814346 C104.740064,47.9335541 98.4932832,52.6506968 100.875619,64.1161384 C100.875619,64.1161384 101.53424,79.3038191 98.9077675,90.7266461 C103.105317,92.5426195 120.175916,93.0864833 125.846719,90.7266461 C120.121101,72.5778824 126.1735,53.5586835 125.152679,49.3588231 C124.131437,45.1585408 120.72828,37.2195643 120.72828,37.2195643" id="Fill-62" fill="#FABD68" mask="url(#mask-6)"></path>
                <polygon id="Fill-63" fill="#9EBD9F" mask="url(#mask-6)" points="98.4224034 48.5480906 102.720307 51.6673962 100.812329 80.8031364 96.0345858 76.6349205"></polygon>
                <polygon id="Fill-64" fill="#86A586" mask="url(#mask-6)" points="106.169466 51.1791424 102.720349 51.6673118 100.812372 80.8034739 103.884531 80.8034739"></polygon>
                <polygon id="Fill-65" fill="#9EBD9F" mask="url(#mask-6)" points="102.418193 48.3029511 106.169634 51.1792267 105.161885 51.321838 101.39695 48.418559"></polygon>
                <polygon id="Fill-66" fill="#DDDDDD" mask="url(#mask-6)" points="99.1756011 49.0947391 101.888934 48.7981245 105.161801 51.3216693 102.720433 51.6672274"></polygon>
                <path d="M113.488803,4.19268761 C108.028826,3.87793014 99.8546724,10.4034516 100.457214,14.0214748 C101.059755,17.6394979 113.136302,26.68983 117.180792,21.2841025 C117.321624,19.2221457 122.731003,19.2221457 119.991105,25.6426074 C119.358627,26.9079662 118.008496,27.0062751 118.008496,27.0062751 C118.199083,28.3412518 118.310399,29.298604 118.540621,30.1694611 C118.795299,31.1348299 119.195447,31.9942949 120.009658,33.1448896 C123.972348,29.2450193 130.820826,25.1822851 128.37735,14.7784116 C125.163094,1.09490031 113.488803,4.19268761 113.488803,4.19268761" id="Fill-67" fill="#3A4D58" mask="url(#mask-6)"></path>
                <polygon id="Fill-68" fill="#F46765" mask="url(#mask-6)" points="95.6207761 52.1551437 99.3920353 54.8921835 97.7176536 80.4563124 93.5255852 76.7990501"></polygon>
                <polygon id="Fill-69" fill="#D85656" mask="url(#mask-6)" points="102.418193 54.4636745 99.3919932 54.8919303 97.7176114 80.4564812 100.413657 80.4564812"></polygon>
                <polygon id="Fill-70" fill="#F46765" mask="url(#mask-6)" points="98.907894 51.9135483 102.41815 54.4636745 101.533945 54.5889868 98.0118826 52.0152327"></polygon>
                <polygon id="Fill-71" fill="#DDDDDD" mask="url(#mask-6)" points="96.2816319 52.6347902 98.5244011 52.3896506 101.534156 54.5887336 99.3917402 54.8920991"></polygon>
                <path d="M108.505209,56.2431512 C108.086087,56.7671844 98.5537903,67.3541742 98.5537903,67.3541742 C96.6681607,65.6770148 96.0398986,65.7816526 96.0398986,65.7816526 C96.6681607,63.3707623 97.191853,61.6033106 96.7731521,59.8143405 C96.3540296,58.0249485 95.7253459,58.4443438 95.306645,60.6455365 C94.3638302,59.1780747 95.306645,57.785716 95.306645,57.4861479 C92.7923316,59.9118056 89.8593174,62.3226959 91.430816,65.4673171 C92.6877618,67.6685097 93.7351464,67.9828453 93.7351464,67.9828453 C94.8875225,71.441802 95.6207761,75.5526358 98.9729128,76.7990079 C102.236924,75.0138352 113.847545,61.2746295 113.847545,61.2746295 L108.505209,56.2431512 Z" id="Fill-72" fill="#EFD7BA" mask="url(#mask-6)"></path>
                <path d="M118.326548,46.0667385 C115.702605,45.5865857 111.860087,48.5641238 107.776383,54.1263861 L105.280622,57.5317582 C107.549534,61.3915454 111.325431,64.6678078 113.294548,64.6758244 C119.460793,58.8941601 122.271107,54.923828 122.410674,51.4020041 C122.563312,47.5426388 118.326548,46.0667385 118.326548,46.0667385" id="Fill-73" fill="#F4AE5B" mask="url(#mask-6)"></path>
                <polygon id="Fill-74" fill="#698868" mask="url(#mask-6)" points="42.4737652 43.9012409 31.6128422 36.5230051 28.9619134 39.7410416 41.6038963 50.7655696 42.3961812 45.3725 43.6552353 47.2294002"></polygon>
                <polygon id="Fill-75" fill="#698868" mask="url(#mask-6)" points="43.6551088 47.2293581 45.3838838 42.4451289 42.2387783 40.0329728 41.1458553 43.0835043"></polygon>
                <polygon id="Fill-76" fill="#526D51" mask="url(#mask-6)" points="42.3962234 45.3724156 42.4738074 43.9011565 43.6552775 47.2293159"></polygon>
                <path d="M101.225464,20.722349 C101.093066,20.722349 100.986809,20.808844 100.921453,20.8818374 C100.707254,21.1189603 100.597202,21.5467942 100.640632,21.9716746 L100.710205,23.1193157 C100.767128,23.6699304 101.061442,24.1078905 101.380211,24.1078905 L103.264154,24.1053589 C103.619607,24.1053589 103.935846,23.6395516 103.999516,23.0218506 L104.041681,21.7830733 C104.07963,21.4100899 103.987709,21.0497643 103.807664,20.8506148 C103.755379,20.791967 103.670627,20.722349 103.5669,20.722349 L101.225464,20.722349 Z M101.380632,24.5196911 C100.836279,24.5196911 100.38216,23.9446048 100.300359,23.152648 L100.231208,22.0050068 C100.175972,21.4704254 100.323128,20.9307809 100.616177,20.6058972 C100.790319,20.4130766 101.001145,20.3109703 101.225464,20.3109703 L103.5669,20.3109703 C103.768872,20.3109703 103.957772,20.4021065 104.113362,20.5746746 C104.371413,20.861163 104.50086,21.3349869 104.451527,21.8113424 L104.409783,23.0501197 C104.321658,23.9057875 103.840131,24.5167376 103.264154,24.5167376 L101.380632,24.5196911 Z" id="Fill-77" fill="#3A4D58" mask="url(#mask-6)"></path>
                <polygon id="Fill-78" fill="#3A4D58" mask="url(#mask-6)" points="117.266809 20.8041185 104.256302 21.5040952 104.07204 21.6095769 104.440564 22.20365 117.314456 21.0041118"></polygon>
            </g>
        </g>
    </g>
</svg>