<?xml version="1.0" encoding="UTF-8"?>
<svg width="148px" height="138px" viewBox="0 0 148 138" version="1.1" xmlns="http://www.w3.org/2000/svg" xmlns:xlink="http://www.w3.org/1999/xlink">
    <!-- Generator: Sketch 42 (36781) - http://www.bohemiancoding.com/sketch -->
    <title>Page 1</title>
    <desc>Created with Sketch.</desc>
    <defs>
        <polygon id="path-1" points="0 137.986731 147.804343 137.986731 147.804343 0 0 0"></polygon>
    </defs>
    <g id="Page-1" stroke="none" stroke-width="1" fill="none" fill-rule="evenodd">
        <g id="01.-Landing_Page_Updated" transform="translate(-851.000000, -2247.000000)">
            <g id="Page-1" transform="translate(851.000000, 2247.000000)">
                <path d="M70.3461003,137.986731 C77.5870841,137.986731 83.4924757,134.608143 83.4924757,130.463559 C83.4924757,126.320423 77.5870841,122.941836 70.3461003,122.941836 C63.105356,122.941836 57.1997249,126.320423 57.1997249,130.463559 C57.1997249,134.608143 63.105356,137.986731 70.3461003,137.986731 Z" id="Fill-1" fill="#BB8768"></path>
                <mask id="mask-2" fill="white">
                    <use xlink:href="#path-1"></use>
                </mask>
                <g id="Clip-4"></g>
                <polygon id="Fill-3" fill="#BB8768" mask="url(#mask-2)" points="0 134.326112 140.690764 134.326112 140.690764 42.5621434 0 42.5621434"></polygon>
                <polygon id="Fill-5" fill="#BB8768" mask="url(#mask-2)" points="70.3457411 134.326112 140.690764 134.326112 140.690764 42.5621434 70.3457411 42.5621434"></polygon>
                <path d="M70.3457172,122.941956 C77.606099,122.941956 83.4916136,126.31017 83.4916136,130.46368 C83.4916136,134.618638 77.606099,137.986851 70.3457172,137.986851 L70.3457172,122.941956 Z" id="Fill-6" fill="#BB8768" mask="url(#mask-2)"></path>
                <polygon id="Fill-7" fill="#FFFFFF" mask="url(#mask-2)" points="3.01843366 130.61507 70.3457411 130.61507 70.3457411 44.7146538 3.01843366 44.7146538"></polygon>
                <polygon id="Fill-8" fill="#F6F6F6" mask="url(#mask-2)" points="70.3457411 130.61507 137.673049 130.61507 137.673049 44.7146538 70.3457411 44.7146538"></polygon>
                <polygon id="Fill-9" fill="#E6E6E6" mask="url(#mask-2)" points="3.01843366 130.61507 70.3457411 130.61507 70.3457411 126.117283 3.01843366 126.117283"></polygon>
                <polygon id="Fill-10" fill="#CCCCCC" mask="url(#mask-2)" points="70.3457411 130.61507 137.673049 130.61507 137.673049 126.117283 70.3457411 126.117283"></polygon>
                <path d="M80.6020693,56.0363476 C96.2072084,52.8425643 111.812587,52.7742881 127.417008,55.9934035 L127.417008,50.5023545 C111.811869,47.2832392 96.2072084,47.3524804 80.6020693,50.5462636 L80.6020693,56.0363476 Z" id="Fill-11" fill="#E0DDDD" mask="url(#mask-2)"></path>
                <path d="M80.6020693,85.8205353 C96.2072084,82.6272346 111.812587,82.5589584 127.417008,85.7775913 L127.417008,60.4311892 C111.811869,57.2120738 96.2072084,57.2810738 80.6020693,60.474857 L80.6020693,85.8205353 Z" id="Fill-12" fill="#E0DDDD" mask="url(#mask-2)"></path>
                <path d="M80.6020693,115.605881 C96.2072084,112.411374 111.812587,112.343098 127.417008,115.561248 L127.417008,90.2160524 C111.811869,86.9962133 96.2072084,87.0644895 80.6020693,90.2589965 L80.6020693,115.605881 Z" id="Fill-13" fill="#E0DDDD" mask="url(#mask-2)"></path>
                <path d="M13.2748337,56.0363476 C28.8799728,52.8425643 44.4848725,52.7742881 60.0897722,55.9934035 L60.0897722,50.5023545 C44.484633,47.2832392 28.8799728,47.3524804 13.2748337,50.5462636 L13.2748337,56.0363476 Z" id="Fill-14" fill="#E6E6E6" mask="url(#mask-2)"></path>
                <path d="M13.2748337,75.8929794 C28.8799728,72.6991962 44.4848725,72.6301962 60.0897722,75.8493115 L60.0897722,60.4311892 C44.484633,57.2120738 28.8799728,57.2810738 13.2748337,60.474857 L13.2748337,75.8929794 Z" id="Fill-15" fill="#E6E6E6" mask="url(#mask-2)"></path>
                <path d="M13.2748337,85.8205353 C28.8799728,82.6272346 44.4848725,82.5589584 60.0897722,85.7775913 L60.0897722,80.2870248 C44.484633,77.0679094 28.8799728,77.1369094 13.2748337,80.3306927 L13.2748337,85.8205353 Z" id="Fill-16" fill="#E6E6E6" mask="url(#mask-2)"></path>
                <path d="M13.2748337,115.605881 C28.8799728,112.411374 44.4848725,112.343098 60.0897722,115.561248 L60.0897722,90.2160524 C44.484633,86.9962133 28.8799728,87.0644895 13.2748337,90.2589965 L13.2748337,115.605881 Z" id="Fill-17" fill="#E6E6E6" mask="url(#mask-2)"></path>
                <path d="M29.3788382,39.96135 L29.3788382,57.196392 L22.9918479,53.932885 L16.6053366,57.196392 L16.6053366,41.485864 C20.8630906,40.7348255 25.1210841,40.2276997 29.3788382,39.96135" id="Fill-18" fill="#DE5D40" mask="url(#mask-2)"></path>
                <path d="M137.284584,0.904937413 L120.88197,0.904937413 L104.479115,0.904937413 C99.1654841,0.904937413 94.8579178,5.24445839 94.8579178,10.5977486 L94.8579178,43.646336 C94.8579178,48.9996262 99.1654841,53.3391472 104.479115,53.3391472 L120.88197,53.3391472 L137.284584,53.3391472 C142.598216,53.3391472 146.906021,48.9996262 146.906021,43.646336 L146.906021,10.5977486 C146.906021,5.24445839 142.598216,0.904937413 137.284584,0.904937413" id="Fill-19" fill="#6A8A69" mask="url(#mask-2)"></path>
                <path d="M146.007676,43.6464325 C146.007676,48.4995934 142.111779,52.4340409 137.294355,52.4340409 L120.881922,52.4340409 L104.488886,52.4340409 C99.6714621,52.4340409 95.7564071,48.4995934 95.7564071,43.6464325 L95.7564071,10.5976038 C95.7564071,5.74444301 99.6714621,1.80999545 104.488886,1.80999545 L120.881922,1.80999545 L137.294355,1.80999545 C142.111779,1.80999545 146.007676,5.74444301 146.007676,10.5976038 L146.007676,43.6464325 Z M146.986918,6.47232063 C146.456944,5.2100549 145.703533,4.07686259 144.737702,3.10386608 C143.77187,2.13086958 142.649417,1.36704441 141.396446,0.833138811 C140.099171,0.280173776 138.723825,-0.000168881119 137.303935,-0.000168881119 L120.881922,-0.000168881119 L104.498465,-0.000168881119 C103.078815,-0.000168881119 101.701074,0.280173776 100.403559,0.833138811 C99.1508278,1.36704441 98.0257405,2.13086958 97.0599087,3.10386608 C96.0943165,4.07686259 95.3260576,5.2100549 94.7960835,6.47232063 C94.2474298,7.77946049 93.9595722,9.16742203 93.9595722,10.5976038 L93.9595722,43.6464325 C93.9595722,45.0766143 94.2474298,46.4645759 94.7960835,47.7717157 C95.3260576,49.0339815 96.0892874,50.1671738 97.0551191,51.1401703 C98.0209508,52.1131668 99.148433,52.8772332 100.401164,53.4108976 C101.698679,53.9638626 103.078815,54.2442052 104.498465,54.2442052 L114.558394,54.2442052 L117.407993,58.3168941 L120.881922,63.2807927 L120.89653,63.2945444 L124.387462,58.3168941 L127.244006,54.2442052 L137.303935,54.2442052 C138.723825,54.2442052 140.101326,53.9638626 141.398841,53.4108976 C142.651812,52.8772332 143.77666,52.1131668 144.742491,51.1401703 C145.708323,50.1671738 146.456944,49.0339815 146.986918,47.7717157 C147.535812,46.4645759 147.804271,45.0766143 147.804271,43.6464325 L147.804271,10.5976038 C147.804271,9.16742203 147.535812,7.77946049 146.986918,6.47232063 L146.986918,6.47232063 Z" id="Fill-20" fill="#FABD68" mask="url(#mask-2)"></path>
                <path d="M134.516458,31.3416336 L134.869215,31.3061685 C136.399746,31.1486266 137.512619,29.7748993 137.358393,28.2390462 C137.203927,26.7048818 135.835047,25.5859238 134.303318,25.7412944 L130.156445,26.165186 L130.141118,26.0431091 L133.431364,25.7080007 C134.770069,25.5707245 135.730632,24.2146091 135.573532,22.6775497 C135.418108,21.141214 134.207047,20.0075392 132.866425,20.1450566 L126.39849,20.8073119 L131.830665,42.531214 L133.446691,42.3659517 C134.638115,42.2445986 135.475344,40.9010287 135.320639,39.3651755 C135.201137,38.1793888 134.513823,37.2408923 133.659351,36.9253259 L134.523882,36.8358189 C135.883422,36.6961301 136.861707,35.3402559 136.706762,33.8044028 C136.569778,32.4868888 135.637234,31.5199238 134.516458,31.3416336" id="Fill-21" fill="#E5C7A4" mask="url(#mask-2)"></path>
                <path d="M121.855728,21.2723622 L119.730324,21.1584881 C119.730324,21.1584881 119.733437,21.1529392 119.738945,21.1418413 C119.01499,21.3017958 118.562129,20.7435231 118.744136,18.823586 C119.417081,11.7315441 118.135612,8.75175734 117.744537,8.00723287 C117.588155,7.70976084 117.042854,7.36331329 116.444628,7.0545021 C115.619372,7.06656503 114.997916,7.29865594 114.997916,7.29865594 C114.997916,7.29865594 114.200919,15.7627364 113.954731,16.7579287 C113.750693,17.5736245 110.339748,22.9657573 109.035767,25.5252713 C108.751023,26.0837853 108.575482,26.4229951 108.575482,26.4229951 C108.575482,26.6271 107.227676,26.2562853 107.227676,26.9576245 L107.227676,41.4377329 C107.227676,41.6384601 107.353405,41.9277294 107.677424,41.9253168 C108.525909,42.0589741 109.385411,42.3429357 110.390757,42.6558483 C112.250097,43.2343867 114.615702,43.9096699 118.354977,43.9096699 C120.847029,43.9096699 123.960777,43.5029077 126.581909,43.0676769 L131.830641,42.5311175 L126.398466,20.8072154 L121.855728,21.2723622 Z" id="Fill-22" fill="#EFD7BA" mask="url(#mask-2)"></path>
            </g>
        </g>
    </g>
</svg>