<?xml version="1.0" encoding="UTF-8"?>
<svg width="291px" height="151px" viewBox="0 0 291 151" version="1.1" xmlns="http://www.w3.org/2000/svg" xmlns:xlink="http://www.w3.org/1999/xlink">
    <!-- Generator: Sketch 42 (36781) - http://www.bohemiancoding.com/sketch -->
    <title>Page 1</title>
    <desc>Created with Sketch.</desc>
    <defs>
        <polygon id="path-1" points="0 150.561165 290.583518 150.561165 290.583518 0.338273786 0 0.338273786"></polygon>
    </defs>
    <g id="Page-1" stroke="none" stroke-width="1" fill="none" fill-rule="evenodd">
        <g id="01.-Landing_Page_Updated" transform="translate(-575.000000, -895.000000)">
            <g id="Page-1" transform="translate(575.000000, 895.000000)">
                <polygon id="Fill-1" fill="#CCAB82" points="57.1491287 77.0752912 -0.00014647651 143.584219 290.58386 143.584219 228.465125 77.0752912"></polygon>
                <polygon id="Fill-2" fill="#7A8A7A" points="165.723621 32.1097593 148.032188 22.9426374 153.167166 13.0095112 170.858599 22.1766331"></polygon>
                <polygon id="Fill-3" fill="#717F71" points="161.375417 18.5156992 148.032384 22.9425885 165.723816 32.1097104"></polygon>
                <polygon id="Fill-4" fill="#889988" points="170.605439 22.0454786 153.166922 13.0093646 158.729612 23.6341922"></polygon>
                <polygon id="Fill-5" fill="#A59E5D" points="134.048857 0.488981602 110.906057 7.69294228 114.940996 20.6866641 138.084285 13.4827034"></polygon>
                <polygon id="Fill-6" fill="#B7B06E" points="123.044419 5.33196723 138.084138 13.4828012 114.94085 20.6867619"></polygon>
                <polygon id="Fill-7" fill="#BFBA68" points="134.048857 0.488981602 111.236605 7.58979811 125.123555 12.0279306"></polygon>
                <g id="Group-160" transform="translate(0.000000, 0.150561)">
                    <path d="M197.442279,129.970899 L93.1373331,129.970899 C91.9791921,129.970899 90.7561133,129.386253 90.6320965,127.683152 L90.6320965,126.117902 L102.049452,104.996322 C102.663189,103.758591 103.923863,102.975967 105.30416,102.975967 L185.123605,102.975967 C186.613271,102.975967 189.897274,105.912887 190.563254,107.246918 L199.982182,126.470841 L199.982182,127.161565 C200.005618,129.163344 198.712719,129.970899 197.442279,129.970899 Z" id="Fill-8" fill="#3B4D57"></path>
                    <path d="M197.451605,127.759703 L93.1466587,127.759703 C91.9885178,127.759703 90.0818819,126.742926 90.798152,125.492487 L102.058778,102.785125 C102.672514,101.547395 103.933189,100.764771 105.313486,100.764771 L185.132931,100.764771 C186.622597,100.764771 187.983852,101.607522 188.649832,102.941064 L199.796206,125.273 C200.577902,126.696487 198.722045,127.759703 197.451605,127.759703" id="Fill-10" fill="#E8E4D7"></path>
                    <mask id="mask-2" fill="white">
                        <use xlink:href="#path-1"></use>
                    </mask>
                    <g id="Clip-13"></g>
                    <polygon id="Fill-12" fill="#3B4D57" mask="url(#mask-2)" points="102.426141 100.874514 187.843918 100.874514 187.843918 46.8357655 102.426141 46.8357655"></polygon>
                    <polygon id="Fill-14" fill="#BCB5A5" mask="url(#mask-2)" points="105.70575 96.6084515 184.534037 96.6084515 184.534037 49.7829515 105.70575 49.7829515"></polygon>
                    <path d="M109.948149,105.620026 L106.613367,105.620026 C106.148548,105.620026 105.827277,105.482175 105.896121,105.313038 L106.099235,104.813448 C106.167102,104.646267 106.594814,104.511837 107.054262,104.511837 L110.350471,104.511837 C110.810408,104.511837 111.135097,104.646267 111.076018,104.813448 L110.898782,105.313038 C110.839215,105.482175 110.413456,105.620026 109.948149,105.620026" id="Fill-15" fill="#8A867E" mask="url(#mask-2)"></path>
                    <path d="M115.572066,105.620026 L112.237284,105.620026 C111.772465,105.620026 111.443381,105.482175 111.501972,105.313038 L111.675791,104.813448 C111.733893,104.646267 112.153792,104.511837 112.61324,104.511837 L115.90945,104.511837 C116.368898,104.511837 116.701888,104.646267 116.652574,104.813448 L116.504633,105.313038 C116.454831,105.482175 116.036885,105.620026 115.572066,105.620026" id="Fill-16" fill="#8A867E" mask="url(#mask-2)"></path>
                    <path d="M121.195983,105.620026 L117.861201,105.620026 C117.396382,105.620026 117.058998,105.482175 117.107823,105.313038 L117.252347,104.813448 C117.300684,104.646267 117.712283,104.511837 118.172219,104.511837 L121.467941,104.511837 C121.927877,104.511837 122.268679,104.646267 122.22913,104.813448 L122.110484,105.313038 C122.070447,105.482175 121.660802,105.620026 121.195983,105.620026" id="Fill-17" fill="#8A867E" mask="url(#mask-2)"></path>
                    <path d="M126.819899,105.620026 L123.485118,105.620026 C123.020299,105.620026 122.674614,105.482175 122.713675,105.313038 L122.828903,104.813448 C122.867475,104.646267 123.271262,104.511837 123.73071,104.511837 L127.02692,104.511837 C127.486856,104.511837 127.83547,104.646267 127.805686,104.813448 L127.716824,105.313038 C127.686552,105.482175 127.285207,105.620026 126.819899,105.620026" id="Fill-18" fill="#8A867E" mask="url(#mask-2)"></path>
                    <path d="M132.443865,105.620026 L129.109083,105.620026 C128.644264,105.620026 128.290768,105.482175 128.319575,105.313038 L128.405508,104.813448 C128.434315,104.646267 128.829801,104.511837 129.289738,104.511837 L132.585947,104.511837 C133.045395,104.511837 133.401821,104.646267 133.382291,104.813448 L133.322724,105.313038 C133.302217,105.482175 132.908684,105.620026 132.443865,105.620026" id="Fill-19" fill="#8A867E" mask="url(#mask-2)"></path>
                    <path d="M138.067782,105.620026 L134.733,105.620026 C134.268181,105.620026 133.906384,105.482175 133.925426,105.313038 L133.982064,104.813448 C134.001106,104.646267 134.38878,104.511837 134.848228,104.511837 L138.144438,104.511837 C138.604374,104.511837 138.968612,104.646267 138.958847,104.813448 L138.928576,105.313038 C138.918322,105.482175 138.533089,105.620026 138.067782,105.620026" id="Fill-20" fill="#8A867E" mask="url(#mask-2)"></path>
                    <path d="M143.691699,105.620026 L140.356917,105.620026 C139.892098,105.620026 139.522489,105.482175 139.531278,105.313038 L139.55862,104.813448 C139.567408,104.646267 139.947759,104.511837 140.407207,104.511837 L143.703417,104.511837 C144.162865,104.511837 144.535403,104.646267 144.534915,104.813448 L144.534427,105.313038 C144.533939,105.482175 144.157006,105.620026 143.691699,105.620026" id="Fill-21" fill="#8A867E" mask="url(#mask-2)"></path>
                    <path d="M149.315615,105.620026 L145.980834,105.620026 C145.516015,105.620026 145.138105,105.482175 145.137617,105.313038 L145.135176,104.813448 C145.134199,104.646267 145.50625,104.511837 145.966186,104.511837 L149.261907,104.511837 C149.721844,104.511837 150.102194,104.646267 150.111471,104.813448 L150.140278,105.313038 C150.150043,105.482175 149.780434,105.620026 149.315615,105.620026" id="Fill-22" fill="#8A867E" mask="url(#mask-2)"></path>
                    <path d="M154.939581,105.620026 L151.604799,105.620026 C151.13998,105.620026 150.754259,105.482175 150.743517,105.313038 L150.711781,104.813448 C150.701039,104.646267 151.065277,104.511837 151.524725,104.511837 L154.820935,104.511837 C155.280383,104.511837 155.669034,104.646267 155.688076,104.813448 L155.746178,105.313038 C155.765709,105.482175 155.4044,105.620026 154.939581,105.620026" id="Fill-23" fill="#8A867E" mask="url(#mask-2)"></path>
                    <path d="M160.563498,105.620026 L157.228716,105.620026 C156.763897,105.620026 156.369875,105.482175 156.349369,105.313038 L156.288337,104.813448 C156.26783,104.646267 156.623768,104.511837 157.083704,104.511837 L160.379914,104.511837 C160.839362,104.511837 161.235337,104.646267 161.264632,104.813448 L161.35203,105.313038 C161.381325,105.482175 161.028805,105.620026 160.563498,105.620026" id="Fill-24" fill="#8A867E" mask="url(#mask-2)"></path>
                    <path d="M166.187415,105.620026 L162.852633,105.620026 C162.387814,105.620026 161.985492,105.482175 161.95522,105.313038 L161.864893,104.813448 C161.834621,104.646267 162.182747,104.511837 162.642195,104.511837 L165.938405,104.511837 C166.398341,104.511837 166.802128,104.646267 166.841188,104.813448 L166.957881,105.313038 C166.99743,105.482175 166.652722,105.620026 166.187415,105.620026" id="Fill-25" fill="#8A867E" mask="url(#mask-2)"></path>
                    <path d="M171.811331,105.620026 L168.476549,105.620026 C168.011731,105.620026 167.601596,105.482175 167.561071,105.313038 L167.440961,104.813448 C167.400924,104.646267 167.741237,104.511837 168.201174,104.511837 L171.497383,104.511837 C171.956831,104.511837 172.368919,104.646267 172.417744,104.813448 L172.563732,105.313038 C172.613046,105.482175 172.276638,105.620026 171.811331,105.620026" id="Fill-26" fill="#8A867E" mask="url(#mask-2)"></path>
                    <path d="M177.435297,105.620026 L174.100515,105.620026 C173.635696,105.620026 173.217262,105.482175 173.166971,105.313038 L173.017565,104.813448 C172.967763,104.646267 173.300265,104.511837 173.760201,104.511837 L177.055923,104.511837 C177.515859,104.511837 177.935758,104.646267 177.994349,104.813448 L178.169633,105.313038 C178.2292,105.482175 177.900604,105.620026 177.435297,105.620026" id="Fill-27" fill="#8A867E" mask="url(#mask-2)"></path>
                    <path d="M183.059214,105.620026 L179.724432,105.620026 C179.259613,105.620026 178.833366,105.482175 178.772823,105.313038 L178.594121,104.813448 C178.534554,104.646267 178.859244,104.511837 179.318692,104.511837 L182.614902,104.511837 C183.07435,104.511837 183.502549,104.646267 183.570905,104.813448 L183.775484,105.313038 C183.844816,105.482175 183.524033,105.620026 183.059214,105.620026" id="Fill-28" fill="#8A867E" mask="url(#mask-2)"></path>
                    <path d="M109.640988,107.487767 L105.385357,107.487767 C105.279406,107.487767 105.206656,107.455503 105.222768,107.416397 L105.853594,105.857502 C105.869218,105.819373 105.965892,105.788576 106.069891,105.788576 L110.251307,105.788576 C110.355793,105.788576 110.429032,105.819373 110.41536,105.857502 L109.858261,107.416397 C109.844102,107.455503 109.746939,107.487767 109.640988,107.487767" id="Fill-29" fill="#8A867E" mask="url(#mask-2)"></path>
                    <path d="M117.497109,109.532368 L113.152616,109.532368 C113.044223,109.532368 112.967079,109.499127 112.980262,109.458065 L113.497812,107.833666 C113.510507,107.794071 113.606693,107.761807 113.713133,107.761807 L117.980482,107.761807 C118.086921,107.761807 118.164065,107.794071 118.153324,107.833666 L117.713406,109.458065 C117.702176,109.499127 117.605502,109.532368 117.497109,109.532368" id="Fill-30" fill="#8A867E" mask="url(#mask-2)"></path>
                    <path d="M118.207422,111.664519 L113.769672,111.664519 C113.659327,111.664519 113.58023,111.629812 113.593412,111.586794 L114.111451,109.892981 C114.124146,109.85143 114.222285,109.818189 114.331166,109.818189 L118.687865,109.818189 C118.796746,109.818189 118.875844,109.85143 118.865102,109.892981 L118.427626,111.586794 C118.416396,111.629812 118.317768,111.664519 118.207422,111.664519" id="Fill-31" fill="#8A867E" mask="url(#mask-2)"></path>
                    <path d="M120.705726,113.889891 L116.170813,113.889891 C116.058026,113.889891 115.976488,113.853718 115.989182,113.808745 L116.477437,112.040629 C116.489644,111.997611 116.588759,111.962415 116.699593,111.962415 L121.150526,111.962415 C121.26136,111.962415 121.342899,111.997611 121.333134,112.040629 L120.928858,113.808745 C120.918605,113.853718 120.818513,113.889891 120.705726,113.889891" id="Fill-32" fill="#8A867E" mask="url(#mask-2)"></path>
                    <path d="M106.398682,116.476268 L101.776859,116.476268 C101.654307,116.476268 101.570816,116.435695 101.591322,116.385834 L102.440886,114.287265 C102.460416,114.239359 102.573692,114.200253 102.693802,114.200253 L107.216509,114.200253 C107.337108,114.200253 107.420599,114.239359 107.40351,114.287265 L106.653551,116.385834 C106.635485,116.435695 106.521722,116.476268 106.398682,116.476268" id="Fill-33" fill="#8A867E" mask="url(#mask-2)"></path>
                    <path d="M112.570567,116.476268 L107.948745,116.476268 C107.826193,116.476268 107.740748,116.435695 107.757837,116.385834 L108.485825,114.287265 C108.502426,114.239359 108.613748,114.200253 108.733859,114.200253 L113.256565,114.200253 C113.377164,114.200253 113.462609,114.239359 113.448449,114.287265 L112.820065,116.385834 C112.805418,116.435695 112.693607,116.476268 112.570567,116.476268" id="Fill-34" fill="#8A867E" mask="url(#mask-2)"></path>
                    <path d="M118.556183,116.476268 L113.934361,116.476268 C113.811809,116.476268 113.723923,116.435695 113.738571,116.385834 L114.348401,114.287265 C114.362561,114.239359 114.471441,114.200253 114.591552,114.200253 L119.114259,114.200253 C119.234858,114.200253 119.322743,114.239359 119.311025,114.287265 L118.800799,116.385834 C118.788592,116.435695 118.679223,116.476268 118.556183,116.476268" id="Fill-35" fill="#8A867E" mask="url(#mask-2)"></path>
                    <path d="M126.099723,116.476268 L120.001418,116.476268 C119.860801,116.476268 119.758267,116.429829 119.77145,116.373124 L120.256775,114.299486 C120.269958,114.244737 120.391534,114.200253 120.528733,114.200253 L126.496675,114.200253 C126.634363,114.200253 126.737873,114.244737 126.728596,114.299486 L126.371681,116.373124 C126.361916,116.429829 126.239853,116.476268 126.099723,116.476268" id="Fill-36" fill="#8A867E" mask="url(#mask-2)"></path>
                    <path d="M163.615141,116.476268 L157.516835,116.476268 C157.376706,116.476268 157.257084,116.429829 157.250736,116.373124 L157.00612,114.299486 C156.999773,114.244737 157.105724,114.200253 157.242924,114.200253 L163.210865,114.200253 C163.348553,114.200253 163.467688,114.244737 163.477453,114.299486 L163.85048,116.373124 C163.860733,116.429829 163.75527,116.476268 163.615141,116.476268" id="Fill-37" fill="#8A867E" mask="url(#mask-2)"></path>
                    <path d="M169.789028,116.476268 L165.232632,116.476268 C165.110568,116.476268 165.004129,116.436184 164.994363,116.386323 L164.594483,114.286776 C164.585206,114.238871 164.674556,114.200253 164.794179,114.200253 L169.252924,114.200253 C169.372546,114.200253 169.478498,114.238871 169.489728,114.286776 L169.988724,116.386323 C170.000442,116.436184 169.911092,116.476268 169.789028,116.476268" id="Fill-38" fill="#8A867E" mask="url(#mask-2)"></path>
                    <path d="M155.995823,116.476268 L127.856709,116.476268 C127.561803,116.476268 127.338182,116.37899 127.357712,116.259225 L127.659454,114.408985 C127.678008,114.29362 127.927506,114.200253 128.216065,114.200253 L155.754625,114.200253 C156.043184,114.200253 156.2878,114.29362 156.300494,114.408985 L156.50605,116.259225 C156.519233,116.37899 156.290729,116.476268 155.995823,116.476268" id="Fill-39" fill="#8A867E" mask="url(#mask-2)"></path>
                    <path d="M126.594521,113.889891 L122.059608,113.889891 C121.946821,113.889891 121.86333,113.853718 121.873095,113.808745 L122.261258,112.040629 C122.271023,111.997611 122.368674,111.962415 122.479508,111.962415 L126.929952,111.962415 C127.040786,111.962415 127.124766,111.997611 127.117442,112.040629 L126.812771,113.808745 C126.805447,113.853718 126.707308,113.889891 126.594521,113.889891" id="Fill-40" fill="#8A867E" mask="url(#mask-2)"></path>
                    <path d="M132.483267,113.889891 L127.948355,113.889891 C127.835568,113.889891 127.750123,113.853718 127.757447,113.808745 L128.045517,112.040629 C128.052841,111.997611 128.148051,111.962415 128.258885,111.962415 L132.709818,111.962415 C132.820652,111.962415 132.906096,111.997611 132.901214,112.040629 L132.697123,113.808745 C132.691752,113.853718 132.596054,113.889891 132.483267,113.889891" id="Fill-41" fill="#8A867E" mask="url(#mask-2)"></path>
                    <path d="M138.372014,113.889891 L133.837101,113.889891 C133.724314,113.889891 133.636916,113.853718 133.641311,113.808745 L133.829777,112.040629 C133.834171,111.997611 133.927916,111.962415 134.03875,111.962415 L138.489195,111.962415 C138.600029,111.962415 138.687915,111.997611 138.685473,112.040629 L138.581475,113.808745 C138.578545,113.853718 138.484801,113.889891 138.372014,113.889891" id="Fill-42" fill="#8A867E" mask="url(#mask-2)"></path>
                    <path d="M144.260809,113.889891 L139.725896,113.889891 C139.613109,113.889891 139.52327,113.853718 139.525711,113.808745 L139.613597,112.040629 C139.61555,111.997611 139.707342,111.962415 139.818176,111.962415 L144.268621,111.962415 C144.379455,111.962415 144.469294,111.997611 144.469294,112.040629 L144.465388,113.808745 C144.465388,113.853718 144.373596,113.889891 144.260809,113.889891" id="Fill-43" fill="#8A867E" mask="url(#mask-2)"></path>
                    <path d="M150.149555,113.889891 L145.614642,113.889891 C145.501855,113.889891 145.410063,113.853718 145.409575,113.808745 L145.397857,112.040629 C145.397369,111.997611 145.487208,111.962415 145.598042,111.962415 L150.048486,111.962415 C150.15932,111.962415 150.251112,111.997611 150.253553,112.040629 L150.34974,113.808745 C150.352181,113.853718 150.262342,113.889891 150.149555,113.889891" id="Fill-44" fill="#8A867E" mask="url(#mask-2)"></path>
                    <path d="M156.03835,113.889891 L151.503437,113.889891 C151.390651,113.889891 151.296906,113.853718 151.293976,113.808745 L151.181677,112.040629 C151.178748,111.997611 151.266634,111.962415 151.377468,111.962415 L155.827912,111.962415 C155.938746,111.962415 156.032491,111.997611 156.037374,112.040629 L156.233652,113.808745 C156.239023,113.853718 156.151137,113.889891 156.03835,113.889891" id="Fill-45" fill="#8A867E" mask="url(#mask-2)"></path>
                    <path d="M161.927096,113.889891 L157.392184,113.889891 C157.279397,113.889891 157.183699,113.853718 157.178328,113.808745 L156.965937,112.040629 C156.960566,111.997611 157.046011,111.962415 157.156845,111.962415 L161.607778,111.962415 C161.718612,111.962415 161.81431,111.997611 161.821633,112.040629 L162.118004,113.808745 C162.125328,113.853718 162.039883,113.889891 161.927096,113.889891" id="Fill-46" fill="#8A867E" mask="url(#mask-2)"></path>
                    <path d="M167.815892,113.889891 L163.280979,113.889891 C163.168192,113.889891 163.070053,113.853718 163.062241,113.808745 L162.749757,112.040629 C162.741945,111.997611 162.825925,111.962415 162.936759,111.962415 L167.387204,111.962415 C167.498038,111.962415 167.595689,111.997611 167.605454,112.040629 L168.002405,113.808745 C168.01217,113.853718 167.928679,113.889891 167.815892,113.889891" id="Fill-47" fill="#8A867E" mask="url(#mask-2)"></path>
                    <path d="M175.248207,116.51166 L171.714217,116.51166 C171.264535,116.51166 170.864165,116.363543 170.819246,116.181207 L170.688882,115.650821 C170.644451,115.471419 170.96914,115.326235 171.413452,115.326235 L174.908382,115.326235 C175.352694,115.326235 175.755993,115.471419 175.808724,115.650821 L175.964478,116.181207 C176.018186,116.363543 175.697402,116.51166 175.248207,116.51166" id="Fill-48" fill="#8A867E" mask="url(#mask-2)"></path>
                    <path d="M181.304132,116.51166 L177.770142,116.51166 C177.320459,116.51166 176.911302,116.363543 176.856129,116.181207 L176.695981,115.650821 C176.641297,115.471419 176.957686,115.326235 177.401998,115.326235 L180.896928,115.326235 C181.34124,115.326235 181.75235,115.471419 181.815823,115.650821 L182.001849,116.181207 C182.06581,116.363543 181.753327,116.51166 181.304132,116.51166" id="Fill-49" fill="#8A867E" mask="url(#mask-2)"></path>
                    <path d="M180.848346,115.184473 L177.358299,115.184473 C176.914475,115.184473 176.510688,115.039778 176.45698,114.862331 L176.300739,114.345143 C176.247519,114.169652 176.56049,114.027889 176.999432,114.027889 L180.451395,114.027889 C180.890336,114.027889 181.295588,114.169652 181.357108,114.345143 L181.538739,114.862331 C181.601235,115.039778 181.29217,115.184473 180.848346,115.184473" id="Fill-50" fill="#8A867E" mask="url(#mask-2)"></path>
                    <path d="M187.360008,116.51166 L183.826018,116.51166 C183.376335,116.51166 182.958877,116.363543 182.893451,116.181207 L182.703032,115.650821 C182.638094,115.471419 182.946183,115.326235 183.390495,115.326235 L186.885424,115.326235 C187.329736,115.326235 187.749147,115.471419 187.822874,115.650821 L188.039171,116.181207 C188.113386,116.363543 187.809203,116.51166 187.360008,116.51166" id="Fill-51" fill="#8A867E" mask="url(#mask-2)"></path>
                    <path d="M124.023468,111.664519 L119.585718,111.664519 C119.475372,111.664519 119.394322,111.629812 119.405063,111.586794 L119.826427,109.892981 C119.836681,109.85143 119.932867,109.818189 120.041748,109.818189 L124.398447,109.818189 C124.507328,109.818189 124.588379,109.85143 124.580078,109.892981 L124.239276,111.586794 C124.230488,111.629812 124.133813,111.664519 124.023468,111.664519" id="Fill-52" fill="#8A867E" mask="url(#mask-2)"></path>
                    <path d="M129.839562,111.664519 L125.401812,111.664519 C125.291466,111.664519 125.208463,111.629812 125.216763,111.586794 L125.541453,109.892981 C125.549265,109.85143 125.643498,109.818189 125.75189,109.818189 L130.109078,109.818189 C130.217471,109.818189 130.300963,109.85143 130.294615,109.892981 L130.050976,111.586794 C130.044629,111.629812 129.949907,111.664519 129.839562,111.664519" id="Fill-53" fill="#8A867E" mask="url(#mask-2)"></path>
                    <path d="M135.655656,111.664519 L131.217906,111.664519 C131.10756,111.664519 131.022604,111.629812 131.028463,111.586794 L131.255989,109.892981 C131.26136,109.85143 131.354129,109.818189 131.462521,109.818189 L135.819709,109.818189 C135.928102,109.818189 136.013058,109.85143 136.00964,109.892981 L135.862676,111.586794 C135.85877,111.629812 135.766001,111.664519 135.655656,111.664519" id="Fill-54" fill="#8A867E" mask="url(#mask-2)"></path>
                    <path d="M141.436156,111.664519 L136.998406,111.664519 C136.88806,111.664519 136.801151,111.629812 136.804568,111.586794 L136.935909,109.892981 C136.939327,109.85143 137.029654,109.818189 137.138047,109.818189 L141.495235,109.818189 C141.603627,109.818189 141.690537,109.85143 141.68956,109.892981 L141.638782,111.586794 C141.637317,111.629812 141.546501,111.664519 141.436156,111.664519" id="Fill-55" fill="#8A867E" mask="url(#mask-2)"></path>
                    <path d="M147.25225,111.664519 L142.8145,111.664519 C142.704154,111.664519 142.615292,111.629812 142.616268,111.586794 L142.650934,109.892981 C142.651422,109.85143 142.740285,109.818189 142.848678,109.818189 L147.205865,109.818189 C147.314258,109.818189 147.40312,109.85143 147.404585,109.892981 L147.450481,111.586794 C147.451458,111.629812 147.362595,111.664519 147.25225,111.664519" id="Fill-56" fill="#8A867E" mask="url(#mask-2)"></path>
                    <path d="M152.819334,111.664519 L148.381584,111.664519 C148.271238,111.664519 148.180422,111.629812 148.178958,111.586794 L148.120855,109.892981 C148.119391,109.85143 148.2063,109.818189 148.314693,109.818189 L152.671881,109.818189 C152.780273,109.818189 152.871089,109.85143 152.874506,109.892981 L153.013171,111.586794 C153.016589,111.629812 152.929679,111.664519 152.819334,111.664519" id="Fill-57" fill="#8A867E" mask="url(#mask-2)"></path>
                    <path d="M158.582061,111.664519 L154.144311,111.664519 C154.033966,111.664519 153.941197,111.629812 153.937291,111.586794 L153.783491,109.892981 C153.779585,109.85143 153.864541,109.818189 153.972934,109.818189 L158.330122,109.818189 C158.438514,109.818189 158.531283,109.85143 158.537142,109.892981 L158.771504,111.586794 C158.777363,111.629812 158.692407,111.664519 158.582061,111.664519" id="Fill-58" fill="#8A867E" mask="url(#mask-2)"></path>
                    <path d="M164.344789,111.664519 L159.907039,111.664519 C159.796693,111.664519 159.701972,111.629812 159.695624,111.586794 L159.445638,109.892981 C159.439779,109.85143 159.522782,109.818189 159.631175,109.818189 L163.988363,109.818189 C164.096755,109.818189 164.191477,109.85143 164.199289,109.892981 L164.529838,111.586794 C164.538138,111.629812 164.455135,111.664519 164.344789,111.664519" id="Fill-59" fill="#8A867E" mask="url(#mask-2)"></path>
                    <path d="M170.071923,111.664519 L165.634173,111.664519 C165.523827,111.664519 165.427153,111.629812 165.418364,111.586794 L165.073168,109.892981 C165.064867,109.85143 165.145918,109.818189 165.25431,109.818189 L169.611498,109.818189 C169.719891,109.818189 169.816077,109.85143 169.826819,109.892981 L170.252577,111.586794 C170.263319,111.629812 170.182268,111.664519 170.071923,111.664519" id="Fill-60" fill="#8A867E" mask="url(#mask-2)"></path>
                    <path d="M175.799106,111.664519 L171.361356,111.664519 C171.25101,111.664519 171.152382,111.629812 171.141153,111.586794 L170.700746,109.892981 C170.690005,109.85143 170.769102,109.818189 170.877495,109.818189 L175.234683,109.818189 C175.343075,109.818189 175.441703,109.85143 175.454397,109.892981 L175.975366,111.586794 C175.988548,111.629812 175.909451,111.664519 175.799106,111.664519" id="Fill-61" fill="#8A867E" mask="url(#mask-2)"></path>
                    <path d="M173.647073,113.889891 L169.11216,113.889891 C168.999373,113.889891 168.899281,113.853718 168.889027,113.808745 L168.477428,112.040629 C168.467175,111.997611 168.548714,111.962415 168.659547,111.962415 L173.11048,111.962415 C173.221314,111.962415 173.320918,111.997611 173.333125,112.040629 L173.828704,113.808745 C173.841398,113.853718 173.75986,113.889891 173.647073,113.889891" id="Fill-62" fill="#8A867E" mask="url(#mask-2)"></path>
                    <path d="M185.945631,111.664519 L177.376755,111.664519 C177.224908,111.664519 177.086732,111.616613 177.068178,111.557953 L176.546722,109.921334 C176.528656,109.86414 176.634608,109.818189 176.783525,109.818189 L185.197136,109.818189 C185.346054,109.818189 185.485695,109.86414 185.508643,109.921334 L186.176576,111.557953 C186.200988,111.616613 186.097478,111.664519 185.945631,111.664519" id="Fill-63" fill="#8A867E" mask="url(#mask-2)"></path>
                    <path d="M186.804862,113.889891 L175.062817,113.889891 C174.884116,113.889891 174.722503,113.832209 174.701996,113.761328 L174.218136,112.086579 C174.198117,112.018142 174.324575,111.962415 174.499859,111.962415 L186.024142,111.962415 C186.199914,111.962415 186.364456,112.018142 186.392775,112.086579 L187.076332,113.761328 C187.105139,113.832209 186.983564,113.889891 186.804862,113.889891" id="Fill-64" fill="#8A867E" mask="url(#mask-2)"></path>
                    <path d="M112.439763,111.664519 L103.778607,111.664519 C103.626272,111.664519 103.522273,111.616613 103.546198,111.557464 L104.208272,109.921822 C104.23122,109.864629 104.371349,109.818189 104.521243,109.818189 L113.025181,109.818189 C113.174587,109.818189 113.281515,109.864629 113.26345,109.921822 L112.749805,111.557464 C112.730763,111.616613 112.592099,111.664519 112.439763,111.664519" id="Fill-65" fill="#8A867E" mask="url(#mask-2)"></path>
                    <path d="M114.743937,113.889891 L102.830514,113.889891 C102.650836,113.889891 102.528284,113.83172 102.557091,113.76035 L103.236254,112.087557 C103.264084,112.018631 103.430091,111.962415 103.606839,111.962415 L115.299083,111.962415 C115.475831,111.962415 115.603265,112.018631 115.583735,112.087557 L115.10671,113.76035 C115.086203,113.83172 114.924103,113.889891 114.743937,113.889891" id="Fill-66" fill="#8A867E" mask="url(#mask-2)"></path>
                    <path d="M123.162283,109.532368 L118.81779,109.532368 C118.709397,109.532368 118.6303,109.499127 118.641042,109.458065 L119.066312,107.833666 C119.076565,107.794071 119.171287,107.761807 119.277726,107.761807 L123.545075,107.761807 C123.651515,107.761807 123.730612,107.794071 123.721824,107.833666 L123.374186,109.458065 C123.365397,109.499127 123.270676,109.532368 123.162283,109.532368" id="Fill-67" fill="#8A867E" mask="url(#mask-2)"></path>
                    <path d="M128.792645,109.532368 L124.448152,109.532368 C124.339759,109.532368 124.258709,109.499127 124.267497,109.458065 L124.600487,107.833666 C124.608788,107.794071 124.701556,107.761807 124.807996,107.761807 L129.075345,107.761807 C129.181784,107.761807 129.262835,107.794071 129.256487,107.833666 L129.000154,109.458065 C128.993806,109.499127 128.901038,109.532368 128.792645,109.532368" id="Fill-68" fill="#8A867E" mask="url(#mask-2)"></path>
                    <path d="M134.457771,109.532368 L130.113277,109.532368 C130.004885,109.532368 129.92237,109.499127 129.928229,109.458065 L130.169427,107.833666 C130.175286,107.794071 130.266101,107.761807 130.372541,107.761807 L134.63989,107.761807 C134.745841,107.761807 134.828844,107.794071 134.824938,107.833666 L134.661373,109.458065 C134.656979,109.499127 134.566163,109.532368 134.457771,109.532368" id="Fill-69" fill="#8A867E" mask="url(#mask-2)"></path>
                    <path d="M140.122994,109.532368 L135.778501,109.532368 C135.670108,109.532368 135.58564,109.499127 135.589058,109.458065 L135.737975,107.833666 C135.741393,107.794071 135.830744,107.761807 135.936695,107.761807 L140.204044,107.761807 C140.310484,107.761807 140.39544,107.794071 140.393487,107.833666 L140.322202,109.458065 C140.320249,109.499127 140.231386,109.532368 140.122994,109.532368" id="Fill-70" fill="#8A867E" mask="url(#mask-2)"></path>
                    <path d="M145.753356,109.532368 L141.408862,109.532368 C141.30047,109.532368 141.214048,109.499127 141.215513,109.458065 L141.272151,107.833666 C141.273616,107.794071 141.361013,107.761807 141.466965,107.761807 L145.734314,107.761807 C145.840753,107.761807 145.927174,107.794071 145.927663,107.833666 L145.948169,109.458065 C145.948658,109.499127 145.861748,109.532368 145.753356,109.532368" id="Fill-71" fill="#8A867E" mask="url(#mask-2)"></path>
                    <path d="M151.256039,109.532368 L146.911545,109.532368 C146.803153,109.532368 146.714779,109.499127 146.713802,109.458065 L146.681089,107.833666 C146.680112,107.794071 146.765557,107.761807 146.871997,107.761807 L151.139346,107.761807 C151.245785,107.761807 151.334159,107.794071 151.336601,107.833666 L151.446946,109.458065 C151.449876,109.499127 151.364431,109.532368 151.256039,109.532368" id="Fill-72" fill="#8A867E" mask="url(#mask-2)"></path>
                    <path d="M156.967646,109.532368 L152.623153,109.532368 C152.51476,109.532368 152.424433,109.499127 152.421503,109.458065 L152.295045,107.833666 C152.292116,107.794071 152.375607,107.761807 152.482047,107.761807 L156.749396,107.761807 C156.855836,107.761807 156.946163,107.794071 156.951045,107.833666 L157.154159,109.458065 C157.15953,109.499127 157.076039,109.532368 156.967646,109.532368" id="Fill-73" fill="#8A867E" mask="url(#mask-2)"></path>
                    <path d="M162.609628,109.532368 L158.265135,109.532368 C158.156742,109.532368 158.064462,109.499127 158.059091,109.458065 L157.840841,107.833666 C157.83547,107.794071 157.917497,107.761807 158.023937,107.761807 L162.291286,107.761807 C162.397726,107.761807 162.489517,107.794071 162.496841,107.833666 L162.791747,109.458065 C162.799559,109.499127 162.718021,109.532368 162.609628,109.532368" id="Fill-74" fill="#8A867E" mask="url(#mask-2)"></path>
                    <path d="M168.158695,109.532368 L163.814202,109.532368 C163.70581,109.532368 163.611576,109.499127 163.603764,109.458065 L163.295675,107.833666 C163.287863,107.794071 163.367937,107.761807 163.474377,107.761807 L167.741726,107.761807 C167.848165,107.761807 167.94191,107.794071 167.951187,107.833666 L168.336909,109.458065 C168.346674,109.499127 168.267088,109.532368 168.158695,109.532368" id="Fill-75" fill="#8A867E" mask="url(#mask-2)"></path>
                    <path d="M173.939977,109.532368 L169.595484,109.532368 C169.487091,109.532368 169.391393,109.499127 169.38114,109.458065 L168.978329,107.833666 C168.968564,107.794071 169.046685,107.761807 169.152636,107.761807 L173.419985,107.761807 C173.526425,107.761807 173.622123,107.794071 173.633841,107.833666 L174.113796,109.458065 C174.126002,109.499127 174.048369,109.532368 173.939977,109.532368" id="Fill-76" fill="#8A867E" mask="url(#mask-2)"></path>
                    <path d="M179.465901,109.532368 L175.121408,109.532368 C175.013015,109.532368 174.915364,109.499127 174.902669,109.458065 L174.41002,107.833666 C174.397814,107.794071 174.473981,107.761807 174.580421,107.761807 L178.84777,107.761807 C178.95421,107.761807 179.051861,107.794071 179.065532,107.833666 L179.635814,109.458065 C179.649973,109.499127 179.574293,109.532368 179.465901,109.532368" id="Fill-77" fill="#8A867E" mask="url(#mask-2)"></path>
                    <path d="M185.154267,109.532368 L180.809774,109.532368 C180.701381,109.532368 180.601777,109.499127 180.586641,109.458065 L180.001224,107.833666 C179.987064,107.794071 180.061279,107.761807 180.167719,107.761807 L184.435068,107.761807 C184.541507,107.761807 184.640623,107.794071 184.656735,107.833666 L185.319786,109.458065 C185.336386,109.499127 185.26266,109.532368 185.154267,109.532368" id="Fill-78" fill="#8A867E" mask="url(#mask-2)"></path>
                    <path d="M115.269494,107.487767 L111.013863,107.487767 C110.907912,107.487767 110.833209,107.455503 110.84688,107.416397 L111.387867,105.857502 C111.401538,105.819373 111.496259,105.788576 111.600746,105.788576 L115.782162,105.788576 C115.88616,105.788576 115.961352,105.819373 115.949634,105.857502 L115.482862,107.416397 C115.471144,107.455503 115.375446,107.487767 115.269494,107.487767" id="Fill-79" fill="#8A867E" mask="url(#mask-2)"></path>
                    <path d="M120.727453,107.487767 L116.471822,107.487767 C116.365871,107.487767 116.289215,107.455503 116.300933,107.416397 L116.75501,105.857502 C116.765752,105.819373 116.859497,105.788576 116.963495,105.788576 L121.144911,105.788576 C121.24891,105.788576 121.326054,105.819373 121.316777,105.857502 L120.936915,107.416397 C120.927149,107.455503 120.833405,107.487767 120.727453,107.487767" id="Fill-80" fill="#8A867E" mask="url(#mask-2)"></path>
                    <path d="M126.321831,107.487767 L122.0662,107.487767 C121.960248,107.487767 121.882128,107.455503 121.891404,107.416397 L122.255643,105.857502 C122.264919,105.819373 122.356223,105.788576 122.460221,105.788576 L126.641638,105.788576 C126.746124,105.788576 126.824733,105.819373 126.817409,105.857502 L126.526898,107.416397 C126.519574,107.455503 126.427782,107.487767 126.321831,107.487767" id="Fill-81" fill="#8A867E" mask="url(#mask-2)"></path>
                    <path d="M131.776909,107.487767 L127.521278,107.487767 C127.415327,107.487767 127.335253,107.455503 127.342088,107.416397 L127.619905,105.857502 C127.626253,105.819373 127.71658,105.788576 127.820578,105.788576 L132.001994,105.788576 C132.105993,105.788576 132.186555,105.819373 132.181184,105.857502 L131.97807,107.416397 C131.973187,107.455503 131.88286,107.487767 131.776909,107.487767" id="Fill-82" fill="#8A867E" mask="url(#mask-2)"></path>
                    <path d="M137.402583,107.487767 L133.146952,107.487767 C133.041001,107.487767 132.958974,107.455503 132.963857,107.416397 L133.151347,105.857502 C133.155741,105.819373 133.244115,105.788576 133.348113,105.788576 L137.52953,105.788576 C137.633528,105.788576 137.716043,105.819373 137.713113,105.857502 L137.599838,107.416397 C137.596909,107.455503 137.508535,107.487767 137.402583,107.487767" id="Fill-83" fill="#8A867E" mask="url(#mask-2)"></path>
                    <path d="M142.809373,107.487767 L138.553742,107.487767 C138.447791,107.487767 138.364299,107.455503 138.36674,107.416397 L138.467809,105.857502 C138.470251,105.819373 138.556672,105.788576 138.66067,105.788576 L142.842086,105.788576 C142.946573,105.788576 143.030064,105.819373 143.029576,105.857502 L143.002722,107.416397 C143.001745,107.455503 142.915324,107.487767 142.809373,107.487767" id="Fill-84" fill="#8A867E" mask="url(#mask-2)"></path>
                    <path d="M148.426503,107.487767 L144.170872,107.487767 C144.064921,107.487767 143.979476,107.455503 143.979476,107.416397 L143.991194,105.857502 C143.991194,105.819373 144.076151,105.788576 144.180149,105.788576 L148.361565,105.788576 C148.465563,105.788576 148.551496,105.819373 148.552961,105.857502 L148.615458,107.416397 C148.616922,107.455503 148.532454,107.487767 148.426503,107.487767" id="Fill-85" fill="#8A867E" mask="url(#mask-2)"></path>
                    <path d="M153.884462,107.487767 L149.628831,107.487767 C149.52288,107.487767 149.435482,107.455503 149.433529,107.416397 L149.357849,105.857502 C149.355896,105.819373 149.4389,105.788576 149.542898,105.788576 L153.724314,105.788576 C153.828313,105.788576 153.91571,105.819373 153.919616,105.857502 L154.069511,107.416397 C154.073417,107.455503 153.990413,107.487767 153.884462,107.487767" id="Fill-86" fill="#8A867E" mask="url(#mask-2)"></path>
                    <path d="M159.490216,107.487767 L155.234585,107.487767 C155.128633,107.487767 155.039283,107.455503 155.035377,107.416397 L154.869858,105.857502 C154.865952,105.819373 154.947003,105.788576 155.051001,105.788576 L159.232417,105.788576 C159.336904,105.788576 159.425766,105.819373 159.431625,105.857502 L159.671358,107.416397 C159.677217,107.455503 159.596167,107.487767 159.490216,107.487767" id="Fill-87" fill="#8A867E" mask="url(#mask-2)"></path>
                    <path d="M165.084642,107.487767 L160.829011,107.487767 C160.72306,107.487767 160.631756,107.455503 160.625409,107.416397 L160.371028,105.857502 C160.36468,105.819373 160.444266,105.788576 160.548264,105.788576 L164.72968,105.788576 C164.833679,105.788576 164.924494,105.819373 164.932794,105.857502 L165.26139,107.416397 C165.26969,107.455503 165.190593,107.487767 165.084642,107.487767" id="Fill-88" fill="#8A867E" mask="url(#mask-2)"></path>
                    <path d="M170.622137,107.487767 L166.366507,107.487767 C166.260555,107.487767 166.167787,107.455503 166.158998,107.416397 L165.815755,105.857502 C165.807455,105.819373 165.885087,105.788576 165.989085,105.788576 L170.170502,105.788576 C170.274988,105.788576 170.367268,105.819373 170.377522,105.857502 L170.79498,107.416397 C170.805233,107.455503 170.728089,107.487767 170.622137,107.487767" id="Fill-89" fill="#8A867E" mask="url(#mask-2)"></path>
                    <path d="M175.943678,107.487767 L171.688047,107.487767 C171.582096,107.487767 171.487374,107.455503 171.476633,107.416397 L171.048433,105.857502 C171.03818,105.819373 171.113859,105.788576 171.217857,105.788576 L175.399273,105.788576 C175.50376,105.788576 175.597993,105.819373 175.6102,105.857502 L176.112614,107.416397 C176.125309,107.455503 176.049629,107.487767 175.943678,107.487767" id="Fill-90" fill="#8A867E" mask="url(#mask-2)"></path>
                    <path d="M183.920203,107.487767 L177.55531,107.487767 C177.260892,107.487767 176.99284,107.398799 176.956709,107.2893 L176.523139,105.980688 C176.487985,105.874611 176.694028,105.788576 176.983075,105.788576 L183.237134,105.788576 C183.526181,105.788576 183.795698,105.874611 183.839152,105.980688 L184.372327,107.2893 C184.416758,107.398799 184.21462,107.487767 183.920203,107.487767" id="Fill-91" fill="#8A867E" mask="url(#mask-2)"></path>
                    <path d="M111.408129,109.532368 L104.909943,109.532368 C104.609666,109.532368 104.403134,109.439489 104.449519,109.32559 L105.001735,107.96223 C105.046655,107.851264 105.32203,107.761807 105.616936,107.761807 L111.999894,107.761807 C112.294801,107.761807 112.50475,107.851264 112.468619,107.96223 L112.020401,109.32559 C111.982806,109.439489 111.708894,109.532368 111.408129,109.532368" id="Fill-92" fill="#8A867E" mask="url(#mask-2)"></path>
                    <polygon id="Fill-93" fill="#000000" mask="url(#mask-2)" points="128.367619 81.5498908 161.791606 81.5498908 161.791606 41.1183519 128.367619 41.1183519"></polygon>
                    <path d="M127.509462,69.7451133 L163.105207,69.7451133 C164.109059,69.7451133 164.922981,68.9219152 164.922981,67.9070939 L164.922981,67.2153924 L145.81219,54.5775424 L125.691689,67.3586211 L125.691689,67.9070939 C125.691689,68.9219152 126.50561,69.7451133 127.509462,69.7451133" id="Fill-94" fill="#C69560" mask="url(#mask-2)"></path>
                    <polygon id="Fill-95" fill="#FFFFFF" mask="url(#mask-2)" points="129.029693 82.1985748 161.143203 82.1985748 161.143203 41.7670359 129.029693 41.7670359"></polygon>
                    <g id="Group-108" mask="url(#mask-2)" fill="#000000">
                        <g transform="translate(133.293624, 50.838835)">
                            <polygon id="Fill-96" points="0.439917785 0.745962136 23.5871124 0.745962136 23.5871124 0.435551942 0.439917785 0.435551942"></polygon>
                            <polygon id="Fill-97" points="0.439917785 2.70667913 23.5871124 2.70667913 23.5871124 2.39626893 0.439917785 2.39626893"></polygon>
                            <polygon id="Fill-98" points="0.439917785 4.66788495 23.5871124 4.66788495 23.5871124 4.35747476 0.439917785 4.35747476"></polygon>
                            <polygon id="Fill-99" points="0.439917785 6.62860194 23.5871124 6.62860194 23.5871124 6.31819175 0.439917785 6.31819175"></polygon>
                            <polygon id="Fill-100" points="0.439917785 8.58980777 23.5871124 8.58980777 23.5871124 8.27939757 0.439917785 8.27939757"></polygon>
                            <polygon id="Fill-101" points="0.439917785 10.5505248 23.5871124 10.5505248 23.5871124 10.2401146 0.439917785 10.2401146"></polygon>
                            <polygon id="Fill-102" points="0.439917785 12.5112417 23.5871124 12.5112417 23.5871124 12.2008316 0.439917785 12.2008316"></polygon>
                            <polygon id="Fill-103" points="0.439917785 14.4724476 23.5871124 14.4724476 23.5871124 14.1620374 0.439917785 14.1620374"></polygon>
                            <polygon id="Fill-104" points="0.439917785 16.4331646 23.5871124 16.4331646 23.5871124 16.1227544 0.439917785 16.1227544"></polygon>
                            <polygon id="Fill-105" points="0.439917785 18.3943704 23.5871124 18.3943704 23.5871124 18.0839602 0.439917785 18.0839602"></polygon>
                            <polygon id="Fill-106" points="0.439917785 20.3550874 23.5871124 20.3550874 23.5871124 20.0446772 0.439917785 20.0446772"></polygon>
                            <polygon id="Fill-107" points="0.439917785 22.3162932 23.5871124 22.3162932 23.5871124 22.005883 0.439917785 22.005883"></polygon>
                        </g>
                    </g>
                    <polygon id="Fill-109" fill="#BD8868" mask="url(#mask-2)" points="133.695946 48.9094034 134.247674 48.9094034 134.247674 45.9974136 133.695946 45.9974136"></polygon>
                    <polygon id="Fill-110" fill="#BD8868" mask="url(#mask-2)" points="135.478175 45.9973647 136.964423 47.989856 136.964423 45.9973647 137.500039 45.9973647 137.500039 48.9093545 136.97663 48.9093545 135.494776 46.9207739 135.494776 48.9093545 134.955254 48.9093545 134.955254 45.9973647"></polygon>
                    <polygon id="Fill-111" fill="#BD8868" mask="url(#mask-2)" points="138.453552 45.9973647 139.301651 48.289023 140.158051 45.9973647 140.726379 45.9973647 139.573609 48.9093545 139.001374 48.9093545 137.860322 45.9973647"></polygon>
                    <polygon id="Fill-112" fill="#BD8868" mask="url(#mask-2)" points="141.091545 48.9094034 141.643273 48.9094034 141.643273 45.9974136 141.091545 45.9974136"></polygon>
                    <polygon id="Fill-113" fill="#BD8868" mask="url(#mask-2)" points="144.380822 45.9973647 144.380822 46.4920657 143.483409 46.4920657 143.483409 48.9093545 142.927287 48.9093545 142.927287 46.4920657 142.029874 46.4920657 142.029874 45.9973647"></polygon>
                    <path d="M146.162611,47.8149997 L145.660196,46.5919347 L145.14997,47.8149997 L146.162611,47.8149997 Z M146.360354,48.2935691 L144.952227,48.2935691 L144.696869,48.9090123 L144.124634,48.9090123 L145.388727,45.9975114 L145.960962,45.9975114 L147.208453,48.9090123 L146.615712,48.9090123 L146.360354,48.2935691 Z" id="Fill-114" fill="#BD8868" mask="url(#mask-2)"></path>
                    <polygon id="Fill-115" fill="#BD8868" mask="url(#mask-2)" points="149.299112 45.9973647 149.299112 46.4920657 148.401211 46.4920657 148.401211 48.9093545 147.845577 48.9093545 147.845577 46.4920657 146.948164 46.4920657 146.948164 45.9973647"></polygon>
                    <polygon id="Fill-116" fill="#BD8868" mask="url(#mask-2)" points="149.689228 48.9094034 150.240956 48.9094034 150.240956 45.9974136 149.689228 45.9974136"></polygon>
                    <path d="M151.286164,47.4530174 C151.286164,48.0024679 151.73487,48.4350868 152.266092,48.4350868 C152.793407,48.4350868 153.229419,48.0024679 153.229419,47.4530174 C153.229419,46.9040558 152.793407,46.479747 152.266092,46.479747 C151.730964,46.479747 151.286164,46.9040558 151.286164,47.4530174 M153.793354,47.4530174 C153.793354,48.289414 153.126885,48.9346762 152.257791,48.9346762 C151.389186,48.9346762 150.722229,48.289414 150.722229,47.4530174 C150.722229,46.6127101 151.389186,45.9801577 152.257791,45.9801577 C153.126885,45.9801577 153.793354,46.6166208 153.793354,47.4530174" id="Fill-117" fill="#BD8868" mask="url(#mask-2)"></path>
                    <polygon id="Fill-118" fill="#BD8868" mask="url(#mask-2)" points="154.800965 45.9973647 156.287214 47.989856 156.287214 45.9973647 156.822341 45.9973647 156.822341 48.9093545 156.29942 48.9093545 154.817078 46.9207739 154.817078 48.9093545 154.277556 48.9093545 154.277556 45.9973647"></polygon>
                    <path d="M127.509462,90.3176833 L163.105207,90.3176833 C164.109059,90.3176833 164.922981,89.4944853 164.922981,88.4796639 L164.922981,87.9311911 L145.81219,75.1501125 L125.691689,87.9311911 L125.691689,88.4796639 C125.691689,89.4944853 126.50561,90.3176833 127.509462,90.3176833" id="Fill-119" fill="#FABD68" mask="url(#mask-2)"></path>
                    <polygon id="Fill-120" fill="#E5AA63" mask="url(#mask-2)" points="125.691737 67.2153435 141.775835 77.7140518 125.691737 87.9311911"></polygon>
                    <polygon id="Fill-121" fill="#E5AA63" mask="url(#mask-2)" points="164.923029 67.2153435 148.838932 77.7140518 164.923029 87.9311911"></polygon>
                    <polygon id="Fill-122" fill="#EB8165" mask="url(#mask-2)" points="207.488908 44.426738 181.816458 57.3613108 174.571242 42.9470346 200.243691 30.0124618"></polygon>
                    <polygon id="Fill-123" fill="#DD7766" mask="url(#mask-2)" points="187.944742 38.0063798 181.816654 57.3613108 207.489103 44.426738"></polygon>
                    <polygon id="Fill-124" fill="#FA8C66" mask="url(#mask-2)" points="199.876524 30.1975347 174.571242 42.9473279 191.678233 45.4340313"></polygon>
                    <polygon id="Fill-125" fill="#8E634C" mask="url(#mask-2)" points="94.5958485 61.2791274 119.012018 46.1008022 110.510033 32.3919148 86.0938636 47.57024"></polygon>
                    <polygon id="Fill-126" fill="#976B4E" mask="url(#mask-2)" points="99.3225478 41.2364545 119.01192 46.1008511 94.5957508 61.2791763"></polygon>
                    <path d="M86.4432589,47.3530996 L110.510326,32.391817" id="Fill-127" fill="#060606" mask="url(#mask-2)"></path>
                    <polygon id="Fill-128" fill="#AD7B60" mask="url(#mask-2)" points="86.4432589 47.3530996 110.510326 32.391817 103.703563 48.3009505"></polygon>
                    <polygon id="Fill-129" fill="#916645" mask="url(#mask-2)" points="0 150.561165 290.583518 150.561165 290.583518 143.487234 0 143.487234"></polygon>
                    <polygon id="Fill-130" fill="#FAFAFA" mask="url(#mask-2)" points="43.9197609 125.953605 39.6118867 125.953605 44.5754874 79.5470362 48.8828733 79.5470362"></polygon>
                    <polygon id="Fill-131" fill="#6789A5" mask="url(#mask-2)" points="57.7122332 96.2866514 57.7122332 61.0788029 48.8831174 79.5469873 43.920005 125.953556"></polygon>
                    <polygon id="Fill-132" fill="#6789A5" mask="url(#mask-2)" points="53.4045544 61.0789495 44.5754386 79.5466451 39.6118379 125.953702 38.8994738 125.953702 43.9177591 79.5466451 52.7493161 61.0789495"></polygon>
                    <polygon id="Fill-133" fill="#CE8D45" mask="url(#mask-2)" points="261.885401 114.701357 213.382146 114.701357 200.710952 100.168294 245.156807 100.168294"></polygon>
                    <polygon id="Fill-134" fill="#FFFFFF" mask="url(#mask-2)" points="213.382097 119.234177 261.885352 119.234177 261.885352 114.701211 213.382097 114.701211"></polygon>
                    <polygon id="Fill-135" fill="#BD8868" mask="url(#mask-2)" points="213.382097 115.265815 261.885352 115.265815 261.885352 114.701211 213.382097 114.701211"></polygon>
                    <polygon id="Fill-136" fill="#BD8868" mask="url(#mask-2)" points="213.382097 119.234177 261.885352 119.234177 261.885352 118.669573 213.382097 118.669573"></polygon>
                    <polygon id="Fill-137" fill="#D8D8D8" mask="url(#mask-2)" points="213.382 119.234128 200.710805 104.701065 200.710805 100.168099 213.382 114.701162"></polygon>
                    <polygon id="Fill-138" fill="#A8755A" mask="url(#mask-2)" points="213.382 119.234128 200.710805 104.701065 200.710805 104.136461 213.382 118.669524"></polygon>
                    <polygon id="Fill-139" fill="#A8755A" mask="url(#mask-2)" points="213.382 115.265962 200.710805 100.732899 200.710805 100.168294 213.382 114.701357"></polygon>
                    <polygon id="Fill-140" fill="#835AA0" mask="url(#mask-2)" points="263.764353 109.136656 215.261098 109.136656 202.589903 94.6035927 247.035759 94.6035927"></polygon>
                    <polygon id="Fill-141" fill="#FFFFFF" mask="url(#mask-2)" points="215.260903 113.66928 263.764158 113.66928 263.764158 109.136314 215.260903 109.136314"></polygon>
                    <polygon id="Fill-142" fill="#65467F" mask="url(#mask-2)" points="215.260903 109.701407 263.764158 109.701407 263.764158 109.136802 215.260903 109.136802"></polygon>
                    <polygon id="Fill-143" fill="#65467F" mask="url(#mask-2)" points="215.260903 113.66928 263.764158 113.66928 263.764158 113.104676 215.260903 113.104676"></polygon>
                    <polygon id="Fill-144" fill="#D8D8D8" mask="url(#mask-2)" points="215.260952 113.669378 202.589757 99.1363148 202.589757 94.6033483 215.260952 109.136411"></polygon>
                    <polygon id="Fill-145" fill="#65467F" mask="url(#mask-2)" points="215.260952 113.669378 202.589757 99.1363148 202.589757 98.5717104 215.260952 113.104773"></polygon>
                    <polygon id="Fill-146" fill="#65467F" mask="url(#mask-2)" points="215.260952 109.701211 202.589757 95.1681482 202.589757 94.6035438 215.260952 109.136607"></polygon>
                    <polygon id="Fill-147" fill="#CCCCCC" mask="url(#mask-2)" points="44.5752921 79.5468407 48.8831663 79.5468407 57.712282 61.079145 53.4044079 61.079145"></polygon>
                    <polygon id="Fill-148" fill="#FAFAFA" mask="url(#mask-2)" points="51.0519463 125.953702 54.0024715 125.953702 54.0024715 79.547134 51.0519463 79.547134"></polygon>
                    <polygon id="Fill-149" fill="#95B55D" mask="url(#mask-2)" points="62.1346032 96.2866514 62.1346032 61.0788029 54.0027156 79.5469873 54.0027156 125.953556"></polygon>
                    <polygon id="Fill-150" fill="#95B55D" mask="url(#mask-2)" points="59.1839804 61.0789495 51.0520928 79.5466451 51.0520928 125.953702 50.3392404 125.953702 50.3944133 79.5466451 58.5287421 61.0789495"></polygon>
                    <polygon id="Fill-151" fill="#CCCCCC" mask="url(#mask-2)" points="51.0519463 79.5468407 54.0024715 79.5468407 62.1348473 61.079145 59.1838339 61.079145"></polygon>
                    <polygon id="Fill-152" fill="#FAFAFA" mask="url(#mask-2)" points="55.4740721 125.953702 61.8174815 125.953702 61.8174815 79.547134 55.4740721 79.547134"></polygon>
                    <polygon id="Fill-153" fill="#F46765" mask="url(#mask-2)" points="69.9496621 96.2866514 69.9496621 61.0788029 61.8177745 79.5469873 61.8177745 125.953556"></polygon>
                    <polygon id="Fill-154" fill="#F46765" mask="url(#mask-2)" points="63.6063503 61.0789495 55.4744628 79.5466451 55.4744628 125.953702 54.7616104 125.953702 54.8167832 79.5466451 62.9511121 61.0789495"></polygon>
                    <polygon id="Fill-155" fill="#CCCCCC" mask="url(#mask-2)" points="55.4743163 79.5468407 61.8177257 79.5468407 69.9496133 61.079145 63.6062039 61.079145"></polygon>
                    <polygon id="Fill-156" fill="#CCCCCC" mask="url(#mask-2)" points="70.7687099 79.5468407 64.4253005 79.5468407 72.5576763 61.079145 78.9005975 61.079145"></polygon>
                    <polygon id="Fill-157" fill="#FAFAFA" mask="url(#mask-2)" points="64.4252517 125.953702 70.7686611 125.953702 70.7686611 79.547134 64.4252517 79.547134"></polygon>
                    <polygon id="Fill-158" fill="#C6BC61" mask="url(#mask-2)" points="78.9007928 96.2866514 78.9007928 61.0788029 70.7689052 79.5469873 70.7689052 125.953556"></polygon>
                    <polygon id="Fill-159" fill="#C6BC61" mask="url(#mask-2)" points="72.557481 61.0789495 64.4255935 79.5466451 64.4255935 125.953702 63.7127411 125.953702 63.7679139 79.5466451 71.9022428 61.0789495"></polygon>
                </g>
            </g>
        </g>
    </g>
</svg>