<?xml version="1.0" encoding="UTF-8"?>
<svg width="100px" height="87px" viewBox="0 0 100 87" version="1.1" xmlns="http://www.w3.org/2000/svg" xmlns:xlink="http://www.w3.org/1999/xlink">
    <!-- Generator: Sketch 42 (36781) - http://www.bohemiancoding.com/sketch -->
    <title>Page 1</title>
    <desc>Created with Sketch.</desc>
    <defs>
        <polygon id="path-1" points="0 0.349440041 0 3.88274947 10.8884932 3.88274947 10.8884932 0.349440041 1.23767371e-20 0.349440041"></polygon>
        <polygon id="path-3" points="3.49887056 0.131183246 0.127990868 0.131183246 0.127990868 9.4236748 3.49887056 9.4236748 3.49887056 0.131183246"></polygon>
    </defs>
    <g id="Page-1" stroke="none" stroke-width="1" fill="none" fill-rule="evenodd">
        <g id="09.My_Club" transform="translate(-670.000000, -249.000000)">
            <g id="Page-1" transform="translate(670.000000, 249.000000)">
                <path d="M10.1001826,34.6263644 C10.3088584,34.5379979 10.5494977,34.4806052 10.7125114,34.3371236 C10.9919635,34.0916105 11.2978995,33.9517728 11.6558904,33.9836576 C12.1965297,34.0328513 12.5554338,33.6529665 12.9878539,33.4552806 C13.22621,33.3468723 13.3540639,33.0913382 13.3421918,32.8057414 C13.3243836,32.4080921 13.3015525,32.0099874 13.2773516,31.5485686 C13.5586301,31.5421916 13.8727854,31.5490241 14.1842009,31.5235162 C14.3805479,31.5075738 14.5842009,31.471134 14.7622831,31.3936995 C14.9056621,31.3312963 14.9426484,31.1837152 14.8243836,31.0393225 C14.7631963,30.9650764 14.7093151,30.8849089 14.6266667,30.7719455 C14.9481279,30.6567047 15.1326027,30.8375372 15.3170776,30.9309141 C15.4207306,30.9842073 15.4586301,31.1664063 15.5604566,31.3549822 C16.0056621,31.3568042 16.4933333,31.3736576 16.9800913,31.3572597 C17.4211872,31.3417728 17.843105,31.4014429 18.2499543,31.566333 C18.8184475,31.7963592 19.3992694,31.916155 20.020274,31.8847257 C20.6353425,31.8542073 21.2093151,32.0860555 21.7855708,32.265066 C21.8339726,32.2800974 21.8453881,32.4135581 21.8741553,32.4941812 C21.8750685,32.4946366 21.8764384,32.4950921 21.8773516,32.4955476 C21.8782648,32.4955476 21.8787215,32.4955476 21.8791781,32.4960031 C22.1522374,32.3766628 22.4303196,32.3989822 22.7207306,32.4285895 C23.4344292,32.4996471 24.1508676,32.5397309 24.876895,32.5934796 C24.963653,32.4313225 25.0271233,32.3128932 25.1084018,32.1616681 C25.2357991,32.1803435 25.3787215,32.1885424 25.5152511,32.2240712 C27.4645662,32.7278513 29.4134247,33.2352754 31.3613699,33.7445215 C31.5275799,33.7882492 31.6947032,33.8378984 31.8526941,33.9057675 C33.6476712,34.6819351 35.4791781,35.3765686 37.2134247,36.2880188 C37.4682192,36.4219351 37.7189041,36.5631393 37.9604566,36.7180084 C38.0061187,36.7476157 38.0115982,36.8400817 38.0294064,36.9125058 C38.0408219,36.9170607 38.0522374,36.9216157 38.063653,36.9261707 C38.0869406,36.9243487 38.1111416,36.9216157 38.1353425,36.9202492 C38.1531507,36.9193382 38.1705023,36.9207047 38.1887671,36.9211602 C38.1371689,36.9252597 38.0855708,36.9289037 38.0344292,36.9325476 C38.0326027,36.9266262 38.0312329,36.9193382 38.0294064,36.9125058 C35.9960731,36.0333958 33.8444749,35.5214168 31.7627397,34.8049194 C31.3545205,34.6641707 30.9403653,34.5425529 30.5339726,34.3967937 C28.5736986,33.6939613 26.5545205,33.2653382 24.4846575,33.0394115 C23.9161644,32.9770084 23.3609132,32.7984534 22.7992694,32.6782021 C22.49379,32.6126105 22.1860274,32.5561288 21.8791781,32.4960031 C21.8778082,32.4964586 21.8764384,32.4964586 21.8750685,32.4973696 C21.8746119,32.4964586 21.8741553,32.4950921 21.8741553,32.4941812 C21.3307763,32.2527675 20.8275799,32.3466 20.3531507,32.6886785 C19.3115982,32.2504901 18.2157078,32.2336366 17.1184475,32.2281707 C16.9312329,32.2272597 16.7120548,32.1634901 16.5778082,32.3716524 C16.5622831,32.5511183 16.7088584,32.5470188 16.8029224,32.5588618 C18.290137,32.7492597 19.7650228,33.044422 21.2750685,33.0293906 C21.5577169,33.0266576 21.8494977,33.0917937 22.1230137,33.1737832 C23.1472146,33.4816995 24.1860274,33.6866733 25.2508676,33.818312 C26.7682192,34.0055215 28.2577169,34.3535215 29.7157078,34.8254168 C31.4705023,35.393422 33.2421918,35.9131445 34.9878539,36.5066576 C36.3513242,36.9703539 37.7038356,37.4764115 39.0284932,38.0398618 C39.6842009,38.3186262 40.2791781,38.7513487 40.8805479,39.1467204 C41.5787215,39.6063173 42.2449315,40.1132859 42.9399087,40.5778932 C43.6449315,41.048422 44.2723288,41.5822649 44.6590868,42.3575215 C44.7353425,42.5101131 44.8499543,42.6458513 44.96,42.7779455 C45.1284932,42.9801864 45.2531507,42.9382806 45.4494977,42.6276314 C45.463653,42.6039455 45.4860274,42.5848147 45.5056621,42.5634063 C45.8723288,43.1459874 46.2618265,43.7153592 46.590137,44.3184377 C46.6828311,44.4892492 46.6595434,44.7898775 46.5686758,44.9711654 C46.5029224,45.1028042 46.2385388,45.1360555 46.0417352,45.2221445 C45.9933333,45.0955162 45.9531507,45.0235476 45.9371689,44.9465686 C45.7097717,43.836066 44.8508676,43.2238775 44.0371689,42.5880031 C43.8746119,42.4618304 43.6061187,42.4709403 43.36,42.4108147 C43.1490411,42.0145319 42.8595434,41.6956838 42.4403653,41.4497152 C41.8983562,41.131778 41.4125114,40.7190974 40.8284932,40.4644743 C40.1307763,39.738867 39.0969863,39.5880974 38.3120548,38.9941288 C37.7371689,38.5591288 36.9969863,38.4306785 36.3275799,38.1733225 C36.3010959,38.1628461 36.2714155,38.1510031 36.2440183,38.1523696 C35.1791781,38.2129508 34.3449315,37.5524796 33.3983562,37.2450188 C33.0157078,37.1206681 32.6476712,36.9462126 32.26,36.8446366 C30.3618265,36.3472335 28.4947032,35.7528094 26.6380822,35.122401 C26.1705023,34.9634325 25.707032,34.8131183 25.2052055,34.8477361 C25.1481279,34.8513801 25.0855708,34.8559351 25.0330594,34.8381707 C24.007032,34.4933592 22.9170776,34.6035895 21.8750685,34.3890503 C21.1709589,34.2442021 20.4796347,34.0369508 19.776895,33.8839037 C19.3572603,33.7928042 18.9275799,33.739511 18.499726,33.6925948 C17.5837443,33.5928408 16.6750685,33.5108513 15.7988128,33.1578408 C15.2266667,32.9269037 14.6065753,32.7160084 13.8609132,32.9323696 C14.0001826,33.0312126 14.0705023,33.1204901 14.1526941,33.1336995 C14.8394521,33.2434743 15.4851142,33.4684901 16.1412785,33.6953277 C16.812968,33.9276314 17.5481279,34.0260188 18.2627397,34.0706576 C18.933516,34.1130188 19.5796347,34.2123173 20.2120548,34.4177466 C21.3189041,34.777134 22.4568037,34.9333696 23.6143379,34.9757309 C23.729863,34.9798304 23.8545205,34.9570555 23.9590868,34.9925843 C24.6088584,35.2125895 25.2700457,35.3706471 25.963653,35.4444377 C25.8111416,35.4567361 25.6568037,35.4904429 25.5065753,35.4781445 C23.8380822,35.3414953 22.1705023,35.2016576 20.503379,35.0545319 C19.2097717,34.9406576 17.9189041,34.779867 16.6239269,34.7092649 C15.7618265,34.6614377 14.8933333,34.7361393 14.0275799,34.7534482 C12.9892237,34.774401 11.9499543,34.7939874 10.9106849,34.8108408 C10.6800913,34.8144848 10.4481279,34.7876105 10.2184475,34.8035529 C10.0042922,34.8190398 9.79287671,34.8736995 9.55680365,34.8363487 C9.73808219,34.7671131 9.92118721,34.701977 10.1001826,34.6263644 L10.1001826,34.6263644 Z M16.2179909,29.7999141 C16.4275799,29.7999141 16.6517808,29.7830607 16.8727854,29.8035581 C17.3787215,29.8500188 17.8549772,29.7762283 18.269589,29.471045 C18.499726,29.3016 18.7303196,29.2911236 19.0024658,29.3412283 C20.1357991,29.5503016 21.2650228,29.7648408 22.3513242,30.174333 C22.750411,30.3246471 23.1869406,30.3929717 23.6120548,30.4526419 C24.6969863,30.6043225 25.7869406,30.7168304 26.8714155,30.872155 C27.3252968,30.9372911 27.7764384,31.047066 28.216621,31.1787047 C29.3750685,31.5248827 30.5294064,31.8892806 31.6819178,32.257778 C32.0650228,32.3803068 32.4417352,32.5265215 32.8134247,32.6813906 C33.6376256,33.0252911 34.450411,33.396977 35.2796347,33.7276681 C36.0326027,34.0292073 36.7294064,34.4209351 37.4074886,34.8636785 C38.0326027,35.2713487 38.6960731,35.6239037 39.3568037,35.9741812 C39.7408219,36.1777885 40.1038356,36.3991602 40.4271233,36.692956 C41.0453881,37.2550398 41.6796347,37.7998147 42.3015525,38.3573435 C42.5791781,38.606045 42.8426484,38.8702335 43.1125114,39.128045 C43.0727854,39.1685843 43.0339726,39.2091236 42.9942466,39.2501183 C42.7609132,39.0934272 42.5239269,38.9412911 42.29379,38.780045 C40.4741553,37.5055634 38.5915068,36.3294691 36.5837443,35.3774796 C35.0494977,34.6500503 33.490137,33.9631602 31.9015525,33.3646366 C30.8010959,32.950134 29.6348858,32.7082649 28.4942466,32.4039927 C27.6312329,32.173511 26.7668493,31.9466733 25.8951598,31.7553644 C25.1645662,31.5954848 24.4225571,31.4920869 23.6855708,31.3586262 C23.063653,31.2465738 22.4266667,31.1800712 21.8239269,30.9996942 C20.7079452,30.6658147 19.5673059,30.5596838 18.416621,30.4735948 C17.7568037,30.4239455 17.1015525,30.3223696 16.4458447,30.2335476 C16.2385388,30.2053068 16.1572603,30.0663801 16.2179909,29.7999141 L16.2179909,29.7999141 Z M21.4481279,28.8625005 C21.7316895,28.8775319 22.0138813,28.9162492 22.312968,28.947223 C22.3682192,29.0829613 22.4193607,29.209134 22.4686758,29.3298408 C22.3960731,29.3776681 22.3490411,29.4359717 22.3052055,29.4336942 C21.9056621,29.4090974 21.5417352,29.2806471 21.2216438,29.0856942 C21.2115982,28.868422 21.3463014,28.8565791 21.4481279,28.8625005 L21.4481279,28.8625005 Z M23.2814612,27.7242126 C24.5746119,28.173333 25.8887671,28.346422 27.1673059,28.6684586 C27.4143379,28.7308618 27.6782648,28.7345058 27.9348858,28.7395162 C27.9883105,28.7404272 28.0741553,28.6352073 28.0896804,28.5655162 C28.1061187,28.4953696 28.0796347,28.3678304 28.0284932,28.3368565 C27.8595434,28.2352806 27.676895,28.1478251 27.4883105,28.088155 C27.0303196,27.9437623 26.5663927,27.8175895 26.1152511,27.6271916 C26.7641096,27.554312 27.3992694,27.4645791 28.0380822,27.6882283 C28.3307763,27.7916262 28.6572603,27.7970921 28.9668493,27.8549403 C29.1928767,27.8973016 29.4211872,27.9355634 29.6380822,28.0061654 C30.4517808,28.2708094 31.2654795,28.5381864 32.0522374,28.8761654 C32.39379,29.0232911 32.7353425,29.1827152 33.0472146,29.382223 C34.1152511,30.0631916 35.1175342,30.8480136 36.2778082,31.384134 C36.5079452,31.4907204 36.699726,31.6824848 36.907032,31.8382649 C37.4367123,32.2359141 37.9869406,32.611244 38.4887671,33.0412335 C39.5988128,33.992312 40.856347,34.7866995 41.6787215,36.0479717 C41.8805479,36.3572545 42.1654795,36.615066 42.4239269,36.8851759 C42.6627397,37.134333 42.8663927,37.397155 42.9577169,37.9473958 C42.190137,37.2659717 41.5604566,36.7189194 40.9449315,36.1554691 C40.5800913,35.821134 40.1915068,35.5332597 39.7362557,35.3346628 C38.9134247,34.9752754 38.1627397,34.4938147 37.4157078,34.0018775 C36.9846575,33.7190136 36.5216438,33.479422 36.0540639,33.2594168 C33.650411,32.1270503 31.1408219,31.2821026 28.599726,30.5136785 C27.5079452,30.1838984 26.3883105,30.1228618 25.2773516,29.9657152 C24.6778082,29.8814482 24.0746119,29.826333 23.4736986,29.7507204 C23.3928767,29.740244 23.3175342,29.6883173 23.2184475,29.6464115 C23.2147945,29.1954691 23.3157078,28.7422492 23.1111416,28.2963173 C23.0508676,28.165134 23.212968,27.9323749 23.2814612,27.7242126 L23.2814612,27.7242126 Z M47.3463014,43.3331969 C47.6568037,43.8488199 47.7093151,44.441422 47.5915068,45.1738618 C47.4837443,44.9748094 47.4015525,44.8878094 47.3919635,44.793977 C47.3266667,44.1266733 47.0915068,43.5399927 46.6773516,43.0034168 C46.4832877,42.7506157 46.2942466,42.4527204 46.3093151,41.999045 C46.6988128,42.4928042 47.0755251,42.8813435 47.3463014,43.3331969 L47.3463014,43.3331969 Z M47.763653,45.4508042 C47.7782648,45.4945319 47.7933333,45.5382597 47.8074886,45.5819874 C47.7814612,45.5992963 47.7558904,45.6170607 47.729863,45.6348251 C47.7234703,45.5874534 47.7138813,45.5396262 47.7138813,45.4922545 C47.7147945,45.4785895 47.7458447,45.4649246 47.763653,45.4508042 L47.763653,45.4508042 Z M38.3266667,39.5794429 L38.3367123,39.5215948 L38.4001826,39.561223 L38.3266667,39.5794429 Z M37.3499543,39.0779403 C37.3367123,39.049244 37.3230137,39.0205476 37.3088584,38.9913958 C37.3321461,39.0014168 37.3554338,39.0105267 37.3782648,39.0200921 C37.3686758,39.039223 37.3590868,39.0583539 37.3499543,39.0779403 L37.3499543,39.0779403 Z M48.533516,43.9850136 C48.776895,44.3781079 48.9590868,44.7989874 49.0481279,45.2512963 C49.0978995,45.5054639 48.9408219,45.6147832 48.6056621,45.6029403 C48.4933333,45.0030503 48.6924201,44.3680869 48.2097717,43.8797937 C48.4444749,43.7727518 48.4782648,43.8966471 48.533516,43.9850136 L48.533516,43.9850136 Z M50.4723288,44.6359194 C50.7001826,43.9954901 50.6905936,43.3400293 50.6883105,42.6804691 C50.6873973,42.5661393 50.6883105,42.4522649 50.6883105,42.1325058 C50.8120548,43.9362754 50.8006393,44.1530921 50.4846575,45.652134 C50.3915068,45.3091445 50.3572603,44.957956 50.4723288,44.6359194 L50.4723288,44.6359194 Z M52.6097717,45.4439717 C52.6243836,45.4676576 52.6389954,45.490888 52.6536073,45.5141183 C52.6348858,45.564223 52.6161644,45.6138723 52.5978995,45.6635215 C52.5837443,45.6398356 52.5554338,45.6125058 52.5590868,45.5915529 C52.5682192,45.5409927 52.5919635,45.4931654 52.6097717,45.4439717 L52.6097717,45.4439717 Z M53.3787215,42.872689 C53.6170776,42.6417518 53.7773516,42.3320136 54.0275799,41.9821916 C54.0951598,42.4185581 53.9047489,42.6927675 53.7316895,42.9200607 C53.2873973,43.5044639 53.0216438,44.1407937 52.9545205,44.868223 C52.9481279,44.9329037 52.8609132,44.9907518 52.7490411,45.1278565 C52.6773516,44.2309822 52.7444749,43.486244 53.3787215,42.872689 L53.3787215,42.872689 Z M54.6965297,42.7433277 C54.7705023,42.6130555 54.8590868,42.5060136 55.0339726,42.5501969 C55.0115982,42.346134 54.9189041,42.1233958 55.1526941,41.9844691 C55.1558904,41.9689822 55.1595434,41.9539508 55.1622831,41.9380084 C55.1700457,41.922066 55.176895,41.9052126 55.1837443,41.8888147 C55.1823744,41.8514639 55.1810046,41.8136576 55.1805479,41.7758513 C55.1942466,41.7876942 55.2211872,41.8036366 55.2193607,41.8095581 C55.2093151,41.836888 55.1965297,41.8628513 55.1837443,41.8888147 C55.1846575,41.9134115 55.1855708,41.9384639 55.186484,41.9630607 C55.173242,41.9698932 55.1641096,41.9776366 55.1526941,41.9844691 C55.116621,42.1716785 55.0764384,42.3556995 55.0357991,42.5388094 C55.0321461,42.6481288 55.0284932,42.7524377 55.0252968,42.8562911 C55.1316895,42.8508251 55.2842009,42.8872649 55.3344292,42.8312387 C55.507032,42.6417518 55.6746119,42.434045 55.7883105,42.2058408 C56.0549772,41.6715424 56.4682192,41.2597728 56.9316895,40.9277152 C58.1280365,40.0727466 59.3485845,39.2514848 60.5819178,38.4507204 C61.0125114,38.1705895 61.499726,37.9710817 61.9750685,37.7661079 C64.1522374,36.8291497 66.4339726,36.1969194 68.6873973,35.4826995 C69.8143379,35.126045 70.9330594,34.7388723 72.0723288,34.4277675 C73.3243836,34.0861445 74.6015525,33.8597623 75.8965297,33.7103592 C76.6362557,33.6251812 77.3554338,33.3760241 78.0878539,33.2206995 C78.5084018,33.131422 78.9367123,33.0275686 79.3622831,33.0239246 C80.8138813,33.0102597 82.2316895,32.7278513 83.6609132,32.5347204 C83.7115982,32.527888 83.7554338,32.4750503 83.8545205,32.4080921 C83.7572603,32.338401 83.6782648,32.2345476 83.5983562,32.2336366 C83.0796347,32.2290817 82.5604566,32.2400136 82.0426484,32.2600555 C81.1485845,32.2942178 80.256347,32.3543435 79.3622831,32.3743853 C78.8983562,32.3853173 78.4426484,32.3912387 77.9974429,32.5497518 C76.9284932,32.9310031 75.8061187,33.0412335 74.6915068,33.1997466 C73.2330594,33.4069979 71.8038356,33.7381445 70.4010959,34.2000188 C68.6490411,34.777134 66.8791781,35.3023225 65.1252968,35.8767047 C64.303379,36.1459037 63.503379,36.4788723 62.6919635,36.7795005 C62.563653,36.8268723 62.4303196,36.8592126 62.2992694,36.8970188 C62.2992694,36.9024848 62.2960731,36.9052178 62.2960731,36.9106838 C62.2517808,36.9275372 62.2065753,36.9443906 62.1622831,36.961244 C62.2010959,36.9421131 62.2394521,36.9225267 62.2782648,36.9033958 C62.2855708,36.9015738 62.2928767,36.8992963 62.2992694,36.8970188 C62.3061187,36.6460398 62.5403653,36.608689 62.6956164,36.528066 C63.4138813,36.1595686 64.133516,35.7924377 64.869589,35.4626576 C65.9741553,34.9679874 67.0778082,34.4614743 68.2120548,34.0410503 C69.2093151,33.6716419 70.2417352,33.3910555 71.269589,33.1113801 C72.4097717,32.8011864 73.5586301,32.5183225 74.7115982,32.2591445 C75.412968,32.1010869 76.1266667,31.9721812 76.8412785,31.8993016 C77.5357991,31.828244 78.2106849,31.6911393 78.8700457,31.4788775 C79.4764384,31.2839246 80.0910502,31.1395319 80.7239269,31.0680188 C81.4403653,30.9869403 82.1568037,30.8972073 82.8741553,30.8275162 C83.1883105,30.7969979 83.5079452,30.776045 83.7741553,31.0238356 C83.8513242,31.0958042 83.9787215,31.1281445 84.0892237,31.1490974 C84.8499543,31.2934901 85.612968,31.4292283 86.3800913,31.569066 C86.5161644,31.826422 86.2572603,31.9817466 86.2193607,32.1917309 C86.1855708,32.3816733 86.1814612,32.5766262 86.1622831,32.7893435 C85.4275799,32.9004848 84.7453881,33.1068251 84.0604566,33.3386733 C83.4147945,33.557312 82.7047489,33.6383906 82.0184475,33.6707309 C81.3152511,33.7044377 80.6426484,33.826511 79.9855708,34.0456052 C78.9622831,34.3863173 77.899726,34.4714953 76.8385388,34.5808147 C76.4691324,34.6190764 76.103379,34.6942335 75.7362557,34.7543592 C75.5659361,34.7821445 75.3942466,34.8504691 75.2271233,34.8399927 C74.6321461,34.8012754 74.0878539,34.9889403 73.5426484,35.1779717 C71.7170776,35.8124796 69.8718721,36.3795738 68.0015525,36.8674115 C67.7234703,36.9398356 67.4513242,37.038223 67.1860274,37.1489089 C66.5221005,37.4244848 65.8654795,37.7169141 65.203379,37.9965895 C65.0727854,38.0517047 64.9307763,38.1081864 64.7924201,38.1136524 C63.569589,38.1628461 62.5239269,38.6889455 61.5111416,39.3088775 C61.3147945,39.4286733 61.1289498,39.5812649 60.9161644,39.656422 C60.4221005,39.8308775 60.0047489,40.1005319 59.5755251,40.4048042 C59.0426484,40.7815005 58.4736986,41.127223 57.9074886,41.4579141 C57.4842009,41.7047937 57.2161644,42.0414063 56.9718721,42.4522649 C56.1960731,42.4103592 55.8211872,43.0143487 55.3284932,43.4388723 C54.8052055,43.8879927 54.5052055,44.4532649 54.3800913,45.1141916 C54.1631963,45.2426419 53.9965297,45.0914168 53.816621,45.0727414 C53.646758,44.6946785 53.6823744,44.4077152 53.9175342,44.084312 C54.2193607,43.6679874 54.4399087,43.1929037 54.6965297,42.7433277 L54.6965297,42.7433277 Z M57.5275799,38.9025738 C57.6252968,38.7996314 57.7385388,38.7108094 57.8494977,38.6215319 C58.4846575,38.1086419 59.156347,37.657244 59.9435616,37.4067204 C59.9485845,37.3976105 59.9526941,37.3875895 59.9577169,37.3789351 C59.9663927,37.3812126 59.9723288,37.3784796 59.9800913,37.3807571 C60.06,37.1443539 60.2663927,37.1366105 60.4645662,37.1165686 C60.3367123,37.2687047 60.2147945,37.4358723 59.9800913,37.3807571 C59.9782648,37.387134 59.9741553,37.388956 59.9723288,37.3957885 C59.9622831,37.398977 59.9536073,37.4039874 59.9435616,37.4067204 C59.9106849,37.4691236 59.8846575,37.5410921 59.8330594,37.5766209 C59.0828311,38.0972545 58.329863,38.6110555 57.5750685,39.1234901 C57.5097717,39.1681288 57.429863,39.1909037 57.3408219,39.2309874 C57.2842009,39.0360346 57.4463014,38.9877518 57.5275799,38.9025738 L57.5275799,38.9025738 Z M67.4243836,33.6734639 C67.399726,33.7135476 67.3755251,33.7531759 67.3490411,33.7928042 C67.3481279,33.7932597 67.346758,33.7937152 67.3458447,33.7941707 C67.3426484,33.7996366 67.3399087,33.8051026 67.3371689,33.8101131 C67.3294064,33.8092021 67.3221005,33.8087466 67.3147945,33.8078356 C67.3047489,33.8128461 67.2956164,33.8196785 67.2855708,33.8205895 C67.2682192,33.821956 67.2490411,33.8064691 67.2303196,33.7987257 C67.2590868,33.8019141 67.286484,33.8046471 67.3147945,33.8078356 C67.3248402,33.8023696 67.3357991,33.7996366 67.3458447,33.7941707 C67.3540639,33.7786838 67.3613699,33.7627414 67.3709589,33.7481654 C67.3878539,33.7226576 67.4065753,33.6985162 67.4243836,33.6734639 L67.4243836,33.6734639 Z M58.8558904,35.8543853 C60.1778082,34.3917832 61.6449315,33.1168461 63.4444749,32.2500346 C64.7412785,31.6255476 66.0494977,31.0215581 67.2727854,30.252223 C67.5088584,30.1041864 67.8006393,30.0226524 68.0778082,29.9666262 C68.6723288,29.8459194 69.2472146,29.6746524 69.8147945,29.4582911 C70.2691324,29.2847466 70.7458447,29.1663173 71.2189041,29.044244 C71.6924201,28.9217152 72.1709589,28.8164953 72.6513242,28.7212963 C72.96,28.6598042 73.2746119,28.5964901 73.5873973,28.5937571 C74.0554338,28.5905686 74.5020091,28.5245215 74.9385388,28.352799 C75.1221005,28.2812859 75.3266667,28.252134 75.5239269,28.2243487 C75.9800913,28.1596681 76.4412785,28.1232283 76.8951598,28.0453382 C77.3271233,27.9710921 77.7399087,28.0298513 78.1933333,28.1004534 C78.063653,28.6124325 77.9453881,29.0761288 77.8257534,29.5466576 C77.6883105,29.5817309 77.5727854,29.6482335 77.4714155,29.6309246 C77.003379,29.5503016 76.5609132,29.6655424 76.1061187,29.7466209 C75.2280365,29.903312 74.3403653,30.0103539 73.46,30.1542911 C73.0065753,30.2280817 72.5494977,30.3073382 72.1097717,30.4357885 C70.8659361,30.8001864 69.6221005,31.1686838 68.39379,31.5795424 C67.6307763,31.8346209 66.89379,32.1675895 66.146758,32.4704953 C65.799726,32.6107885 65.4609132,32.7711236 65.1120548,32.9073173 C64.1152511,33.297223 63.1819178,33.7964482 62.3020091,34.4109141 C61.8093151,34.7548147 61.2622831,35.0272021 60.7175342,35.2877466 C60.2179909,35.5277937 59.7613699,35.8156681 59.3677626,36.2046628 C58.9755251,36.5932021 58.5257534,36.9015738 58.0307763,37.1443539 C57.963653,37.1771497 57.8782648,37.1721393 57.7001826,37.2012911 C58.1252968,36.7043435 58.4800913,36.2702545 58.8558904,35.8543853 L58.8558904,35.8543853 Z M87.8522374,33.6953277 C87.912968,33.7089927 87.9376256,33.8788932 88.0097717,34.0497047 C87.7211872,34.0724796 87.5042922,34.1075529 87.2869406,34.1039089 C86.6791781,34.093888 86.0842009,34.1544691 85.4837443,34.2656105 C83.1294064,34.699244 80.7622831,35.042689 78.3673059,35.1734168 C77.4170776,35.225799 76.4705023,35.3428618 75.5230137,35.4248513 C75.1554338,35.4571916 74.7855708,35.474045 74.4029224,35.3847675 C74.5179909,35.3574377 74.6367123,35.297312 74.746758,35.309155 C75.1595434,35.3524272 75.5440183,35.2749927 75.9284932,35.1306 C76.1408219,35.0513435 76.3714155,35.0057937 76.5978995,34.9807414 C77.312968,34.9014848 78.0326027,34.8595791 78.7458447,34.7630136 C79.1426484,34.7097204 79.5321461,34.5876471 79.9198174,34.4783277 C80.6408219,34.2747204 81.3595434,34.1143853 82.120274,34.0674691 C82.9741553,34.0141759 83.8362557,33.9103225 84.6417352,33.5359037 C85.0271233,33.3568932 85.4682192,33.2944901 85.8873973,33.1910921 C86.1915068,33.1159351 86.5015525,33.0599089 86.9143379,32.9733644 C87.1677626,33.2922126 87.4294064,33.5964848 87.8522374,33.6953277 L87.8522374,33.6953277 Z M63.0668493,39.0670084 C63.0435616,39.0715634 63.0184475,39.0601759 62.99379,39.0556209 C63.0001826,39.0346681 63.0061187,38.9968618 63.0134247,38.9968618 C63.0380822,38.9950398 63.063653,39.0073382 63.0892237,39.0146262 C63.0814612,39.0328461 63.076895,39.0651864 63.0668493,39.0670084 L63.0668493,39.0670084 Z M61.9951598,39.5849089 L61.9983562,39.5234168 L62.0691324,39.5543906 L61.9951598,39.5849089 Z M59.312968,83.331333 C58.9686758,83.5918775 58.6357991,83.8679089 58.2965297,84.1357414 C58.2120548,84.202244 58.1316895,84.3174848 57.9855708,84.1726366 C58.173242,83.8970607 58.3572603,83.6114639 58.5577169,83.3381654 C58.7444749,83.0853644 58.8093151,82.812066 58.6796347,82.5287466 C58.6097717,82.3766105 58.4915068,82.2303958 58.36,82.1260869 C57.9924201,81.8345686 57.8399087,81.4565058 57.8280365,81.0019194 C57.8221005,80.7436524 57.7896804,80.4853853 57.7878539,80.2271183 C57.7832877,79.3625843 57.7805479,78.4980503 57.7878539,77.6339717 C57.82621,73.6296942 57.6960731,69.6276942 57.8321461,65.6215948 C57.9750685,61.4146209 58.2545205,57.2217675 58.7020091,53.0384796 C58.7385388,52.6954901 58.7531507,52.3488565 58.7517808,52.0035895 C58.746758,50.8516366 58.7394521,49.6987728 58.7120548,48.5468199 C58.703379,48.175134 58.6380822,47.8034482 58.5746119,47.4354063 C58.5618265,47.3593382 58.4449315,47.3005791 58.343105,47.2017361 C58.1316895,47.7023277 58.1079452,48.1582806 58.1042922,48.619244 C58.0974429,49.6277152 58.0951598,50.6361864 58.069589,51.6442021 C58.0586301,52.0741916 58.0065753,52.5041812 57.9517808,52.9314377 C57.7526941,54.5024482 57.5065753,56.0693592 57.3499543,57.6440136 C57.1650228,59.5065424 57.029863,61.3749927 56.9175342,63.2429874 C56.8111416,65.0253487 56.7175342,66.8108984 56.6960731,68.5964482 C56.6536073,72.1393068 56.6645662,75.6839874 56.6545205,79.2277571 C56.6526941,79.8317466 56.6545205,80.4361916 56.6545205,81.0461026 C56.4394521,81.149045 56.1764384,81.1959613 56.046758,81.3526524 C55.6750685,81.8013173 55.1892237,81.8864953 54.6586301,81.9325005 C54.1983562,81.9721288 53.7536073,82.0673277 53.4106849,82.4376471 C53.2061187,82.6567414 52.9152511,82.7104901 52.6134247,82.7068461 C51.9490411,82.6986471 51.2846575,82.7063906 50.6207306,82.6977361 C50.4494977,82.6954586 50.2627397,82.6931812 50.1093151,82.628956 C49.5029224,82.372511 48.8677626,82.3843539 48.2330594,82.4053068 C47.2152511,82.4394691 46.2216438,82.3283277 45.2604566,81.9785058 C45.1755251,81.9484429 45.0622831,81.9990031 44.8280365,82.0295215 C45.0810046,82.2276628 45.2193607,82.3720555 45.3878539,82.4581445 C45.5915068,82.5610869 45.8312329,82.5920607 46.0344292,82.6959141 C46.2038356,82.7833696 46.3394521,82.9355058 46.4983562,83.0471026 C46.5394521,83.0753435 46.6115982,83.0644115 46.669589,83.0616785 C46.9568037,83.0475581 47.2481279,83.0566681 47.5303196,83.0097518 C48.3668493,82.8690031 49.1924201,82.8289194 50.0042922,83.1354691 C50.1111416,83.1755529 50.2307763,83.2110817 50.3412785,83.2037937 C51.4522374,83.1313696 52.5947032,83.4479403 53.6709589,82.9386942 C53.7211872,82.9150084 53.7837443,82.900888 53.8389954,82.9040764 C54.3705023,82.9382387 54.7873973,82.6485424 55.1823744,82.374333 C55.5714155,82.105134 55.9759817,81.933867 56.4339726,81.8600764 C56.5093151,81.9639298 56.5823744,82.0655058 56.6568037,82.1684482 C56.8125114,82.0609508 56.943105,81.9712178 57.1020091,81.8618984 C57.1837443,82.0450084 57.2161644,82.1944115 57.3047489,82.2950764 C57.4147945,82.4207937 57.5778082,82.4977728 57.7061187,82.6102806 C57.9481279,82.8225424 57.9846575,83.0584901 57.7627397,83.2839613 C57.503379,83.5481497 57.2316895,83.8264586 56.9120548,84.0009141 C56.0805479,84.4555005 55.1983562,84.7921131 54.2499543,84.9319508 C54.0828311,84.9565476 53.92621,85.0485581 53.7604566,85.0904639 C53.0631963,85.2667414 52.3723288,85.499045 51.663653,85.594244 C50.0978995,85.8024063 48.5755251,85.3068251 47.0243836,85.2280241 C46.9969863,85.2271131 46.9673059,85.2184586 46.9408219,85.2088932 C46.1924201,84.9232963 45.3810046,84.8463173 44.6440183,84.5320241 C44.0910502,84.2965319 43.4910502,84.0883696 43.0376256,83.7153173 C42.3485845,83.1477675 42.1330594,82.9455267 43.1093151,82.2650136 C43.0147945,81.9270346 43.1951598,81.6441707 43.4494977,81.3863592 C43.6412785,81.1914063 43.7074886,80.9431602 43.7038356,80.6730503 C43.7015525,80.4425686 43.7079452,80.2120869 43.7074886,79.9816052 C43.6988128,76.6970136 43.6928767,73.412422 43.6791781,70.1278304 C43.6755251,69.1480555 43.6691324,68.1682806 43.6284932,67.1903277 C43.5558904,65.4343853 43.446758,63.6802649 43.3700457,61.924778 C43.2691324,59.6204168 43.0079452,57.3319979 42.7138813,55.046312 C42.5266667,53.5909979 42.2147945,52.1507152 42.2613699,50.6698932 C42.2832877,49.9789037 42.2727854,49.2870031 42.2517808,48.5955581 C42.2403653,48.2238723 42.1787215,47.8530974 42.1312329,47.482778 C42.116621,47.3698147 42.073242,47.2591288 41.8513242,47.2778042 C41.7015525,47.6481236 41.6485845,48.0598932 41.6444749,48.4839613 C41.633516,49.6942178 41.6179909,50.9035634 41.6102283,52.1138199 C41.6084018,52.3725424 41.6216438,52.6326314 41.6444749,52.8908984 C41.8179909,54.8121864 41.9983562,56.7334743 42.1736986,58.6547623 C42.4873973,62.1010555 42.5641096,65.5596471 42.6029224,69.0145948 C42.6513242,73.2980921 42.5709589,77.583867 42.5463014,81.8154377 C42.1463014,82.2080764 41.8093151,82.5629089 41.290137,82.629867 C41.2111416,82.5679194 41.1326027,82.5241916 41.0778082,82.4608775 C40.5463014,81.8464115 40.0024658,81.2519874 39.1531507,81.0779874 C38.5170776,80.5354901 37.7307763,80.3423592 36.950411,80.1300974 C36.7294064,80.0699717 36.520274,79.9647518 36.3020091,79.8882283 C34.9138813,79.4040346 33.5367123,78.884312 32.1307763,78.453867 C31.2531507,78.1851236 30.3380822,78.0184115 29.4289498,77.8712859 C28.7426484,77.7606 28.0659361,77.6417152 27.4120548,77.3984796 C26.7873973,77.1657204 26.1408219,77.0331707 25.4750685,76.9662126 C24.4143379,76.8605372 23.3508676,76.7603277 22.2988128,76.5917937 C21.2668493,76.4264482 20.2339726,76.3681445 19.1933333,76.3763435 C18.586484,76.3804429 17.9800913,76.3904639 17.3736986,76.3904639 C17.0892237,76.3900084 16.7928767,76.4364691 16.5102283,76.2191969 C16.4736986,75.6457257 16.3663927,75.0535791 16.5873973,74.458244 C16.6650228,74.2500817 16.690137,74.0009246 16.6641096,73.7795529 C16.5271233,72.6075581 16.4823744,71.4300974 16.4339726,70.2530921 C16.4303196,70.1679141 16.4001826,70.0836471 16.386484,69.9984691 C16.0832877,68.0329979 15.8586301,66.0597832 15.7645662,64.0724482 C15.6887671,62.4618094 15.5965297,60.8570921 15.2892237,59.2642178 C14.9344292,57.4276524 14.6193607,55.5815215 14.4604566,53.7130712 C14.416621,53.2001812 14.3029224,52.6895686 14.1796347,52.1885215 C13.9741553,51.3494953 13.7344292,50.5191236 13.5106849,49.6846524 C12.7947032,47.0163487 12.1723288,44.3175267 10.9207306,41.825045 C10.8558904,41.6965948 10.8010959,41.562223 10.7481279,41.4292178 C10.5581735,40.9477571 10.3727854,40.4649298 10.1823744,39.9839246 C10.012968,39.5557571 9.86639269,39.1162021 9.66228311,38.7053435 C9.31251142,38.002511 9.13488584,37.2509403 8.91753425,36.4624743 C9.28968037,36.3294691 9.63260274,36.1923644 9.98465753,36.0844115 C10.2307763,36.0092545 10.3851142,35.8789822 10.4362557,35.6216262 C10.4568037,35.5205058 10.5207306,35.4289508 10.5595434,35.3451393 C10.7230137,35.3360293 10.8376256,35.3205424 10.9522374,35.3232754 C12.8577169,35.3720136 14.7631963,35.4202963 16.6682192,35.476778 C16.956347,35.4854325 17.243105,35.5305267 17.529863,35.5624115 C18.8494977,35.7099927 20.1686758,35.8616733 21.4883105,36.0065215 C23.4956164,36.2256157 25.5120548,36.3526995 27.5074886,36.698422 C29.1326027,36.9799194 30.7184475,37.4012545 32.3001826,37.8499194 C32.5207306,37.9123225 32.7357991,38.002511 32.9444749,38.0986209 C34.4111416,38.776401 35.8860274,39.4364168 37.3362557,40.1474482 C38.3705023,40.6548723 39.4079452,41.1704953 40.3020091,41.915689 C40.7673059,42.3024063 41.2330594,42.6904901 41.6764384,43.1018042 C42.0622831,43.4607361 42.49379,43.739956 42.9773516,43.9358199 C43.0581735,43.9690712 43.2074886,43.918511 43.2855708,43.8570188 C43.4161644,43.7531654 43.3951598,43.5896419 43.3065753,43.4684796 C43.2225571,43.3550607 43.1020091,43.2685162 42.9928767,43.1751393 C42.7526941,42.9683435 42.5056621,42.7697466 42.2691324,42.5593068 C41.6659361,42.0227309 41.076895,41.4715791 40.463653,40.9477571 C40.1659361,40.6935895 39.8271233,40.4881602 39.4947032,40.2517571 C39.7115982,40.1246733 39.8896804,40.2221497 39.9988128,40.3278251 C40.5047489,40.8138408 41.1494977,41.0762073 41.7243836,41.4483487 C42.0846575,41.6815634 42.5152511,41.8924586 42.7399087,42.2286157 C43.1631963,42.8599351 43.7102283,43.3655372 44.2143379,43.913045 C44.5485845,44.2760764 44.8590868,44.6368304 45.0312329,45.2444639 C44.3714155,44.9046628 44.3883105,45.6708094 43.9631963,45.7992597 C43.7084018,45.7131707 43.4481279,45.6248042 43.2326027,45.5514691 C43.1622831,45.0249141 43.4326027,44.6728147 43.6554338,44.2974848 C43.5426484,44.2259717 43.4568037,44.1312283 43.4093151,44.1471707 C42.7362557,44.3808408 42.3417352,44.8832545 42.1344292,45.5396262 C42.0723288,45.7359455 42.133516,45.9381864 42.2686758,46.1080869 C42.4344292,46.3167047 42.6284932,46.5153016 42.9029224,46.5166681 C43.3303196,46.5189455 43.6846575,46.6993225 44.0389954,46.8929089 C44.3239269,47.0496 44.6243836,47.1115476 44.9481279,47.1325005 C45.2622831,47.1529979 45.5723288,47.2236 45.8837443,47.2768932 C46.1663927,47.3251759 46.446758,47.3834796 46.7294064,47.4299403 C46.8988128,47.4577257 47.0887671,47.4322178 47.2394521,47.4982649 C47.8440183,47.7638199 48.4791781,47.738312 49.1138813,47.7369455 C49.8942466,47.7355791 50.6741553,47.7296576 51.4540639,47.738312 C52.0052055,47.7442335 52.5476712,47.7264691 53.0705023,47.5142073 C53.2257534,47.4508932 53.4084018,47.4408723 53.5796347,47.4354063 C54.3595434,47.4085319 55.0842009,47.0327466 55.8755251,47.0764743 C55.929863,47.0796628 55.9883105,47.0509665 56.0399087,47.0268251 C56.5330594,46.7954325 57.0097717,46.5654063 57.5714155,46.4770398 C58.1819178,46.3809298 58.3869406,45.743689 58.1038356,45.1884377 C57.8723288,44.7352178 57.5161644,44.4136366 57.090137,44.1658461 C56.9618265,44.0911445 56.8079452,44.1335058 56.7417352,44.3744639 C56.946758,44.7169979 57.2284932,45.0914168 57.1326027,45.5892754 C56.9613699,45.6320921 56.8234703,45.6671654 56.6846575,45.7008723 C56.5522374,45.7323016 56.4193607,45.7619089 56.2759817,45.7956157 C56.1339726,45.6020293 56.0449315,45.4034325 55.8915068,45.2918356 C55.7472146,45.1875267 55.5353425,45.1738618 55.3421918,45.1173801 C55.4691324,44.8609351 55.5714155,44.6222545 55.7029224,44.4004272 C55.7746119,44.2797204 55.8983562,44.1899874 55.99379,44.0824901 C56.5463014,43.4607361 57.1992694,42.9264377 57.6239269,42.1930869 C57.6782648,42.0992545 57.7855708,42.0291079 57.8800913,41.9662492 C58.3357991,41.6651654 58.7832877,41.3499613 59.2568037,41.0798513 C59.607032,40.879888 59.9604566,40.7081654 60.2453881,40.4061707 C60.3860274,40.2576785 60.6029224,40.1278618 60.8476712,40.2308042 C60.2714155,40.6835686 59.6915068,41.1112806 59.1440183,41.575888 C58.4631963,42.1530031 57.8079452,42.7601812 57.143105,43.3564272 C57.1020091,43.393778 57.0517808,43.4434272 57.0444749,43.4935319 C57.0280365,43.6010293 56.9988128,43.735401 57.0476712,43.8142021 C57.0947032,43.8893592 57.2344292,43.9421969 57.3321461,43.9412859 C57.4389954,43.9403749 57.5481279,43.8729613 57.6499543,43.8219455 C58.0915068,43.6010293 58.4759817,43.3045005 58.833516,42.961511 C59.6896804,42.1402492 60.629863,41.4337728 61.6727854,40.8548356 C63.3161644,39.9429298 65.0476712,39.220511 66.7412785,38.4188356 C66.9198174,38.3341131 67.1216438,38.2817309 67.3184475,38.2539455 C68.546758,38.0785791 69.7759817,37.9045791 71.0074886,37.748799 C73.3010959,37.4581916 75.5554338,36.9749089 77.7905936,36.3950607 C78.2928767,36.2647885 78.7910502,36.1058199 79.3006393,36.0206419 C80.1257534,35.8830817 80.9590868,35.7906157 81.7892237,35.6899508 C82.476895,35.6065948 83.1650228,35.5050188 83.8554338,35.4717675 C85.1828311,35.4084534 86.5111416,35.3838565 87.8389954,35.3510607 C88.7015525,35.3301079 89.563653,35.3228199 90.4312329,35.309155 C90.5211872,35.134244 90.5960731,34.9875738 90.6828311,34.8185843 C90.9380822,34.8185843 91.1956164,34.8217728 91.4531507,34.8176733 C91.6248402,34.8144848 91.8088584,34.8349822 91.9641096,34.779867 C92.0741553,34.7411497 92.1846575,34.605867 92.2211872,34.4906262 C92.2444749,34.4168356 92.1417352,34.2952178 92.0782648,34.2068513 C92.0485845,34.1649455 91.9828311,34.1426262 91.9289498,34.1248618 C91.2179909,33.8971131 90.5056621,33.6725529 89.7942466,33.4452597 C89.6380822,33.395155 89.4842009,33.3368513 89.3499543,33.2899351 C89.3307763,32.9228042 89.3472146,32.603956 89.2905936,32.2983173 C89.2134247,31.8810817 88.7983562,31.8778932 88.4846575,31.7703958 C88.4924201,31.6232702 88.5138813,31.5071183 88.5015525,31.395066 C88.4380822,30.8297937 88.2531507,30.6726471 87.6956164,30.5706157 C87.1312329,30.4681288 86.576895,30.3132597 86.0170776,30.1857204 C85.8230137,30.1419927 85.6179909,30.0609141 85.4303196,30.087333 C84.9892237,30.1492806 84.569589,30.0595476 84.1426484,29.993045 C84.0604566,29.9802911 83.9723288,30.003066 83.8778082,30.0108094 C83.7289498,30.1392597 83.5773516,30.2695319 83.429863,30.3970712 C82.8417352,30.4294115 82.2650228,30.4549194 81.6892237,30.4940921 C80.6522374,30.5637832 79.6193607,30.6553382 78.6225571,30.9887623 C77.963653,31.209223 77.2782648,31.301689 76.586484,31.3777571 C75.9001826,31.4538251 75.2175342,31.5859194 74.5426484,31.734867 C73.7545205,31.909778 72.9764384,32.1297832 72.1942466,32.3311131 C70.9746119,32.6449508 69.7549772,32.960155 68.5357991,33.2744482 C68.5330594,33.2821916 68.5307763,33.2908461 68.5275799,33.298134 C68.5134247,33.2944901 68.4992694,33.2922126 68.4846575,33.2885686 C68.3691324,33.3245529 68.2526941,33.3591707 68.1371689,33.394244 C68.129863,33.4088199 68.1193607,33.4151969 68.1134247,33.4325058 C68.0896804,33.4411602 68.0654795,33.4498147 68.0417352,33.4584691 C68.0248402,33.475778 68.0084018,33.4939979 67.990137,33.5094848 C67.9819178,33.5163173 67.9554338,33.5008304 67.9385388,33.4958199 C67.9727854,33.4835215 68.007032,33.4707675 68.0417352,33.4584691 C68.0586301,33.4411602 68.0755251,33.4252178 68.0928767,33.4079089 C68.1074886,33.4033539 68.1225571,33.3992545 68.1371689,33.394244 C68.2147945,33.2452963 68.3458447,33.2557728 68.4846575,33.2885686 C68.4933333,33.2862911 68.5010959,33.2840136 68.5093151,33.2812806 C68.5179909,33.2790031 68.5266667,33.2771812 68.5357991,33.2744482 C68.5595434,33.2056681 68.5723288,33.1145686 68.6175342,33.0927047 C70.0472146,32.4135581 71.4376256,31.6250921 73.0440183,31.4110084 C73.4823744,31.3527047 73.8878539,31.2292649 74.2440183,30.9623435 C74.5065753,30.7651131 74.8074886,30.6895005 75.1312329,30.6567047 C75.7052055,30.5979455 76.2800913,30.5346314 76.8490411,30.440799 C77.2736986,30.3706524 77.7038356,30.2872963 78.1079452,30.1438147 C79.0641096,29.8044691 80.0394521,29.565333 81.0412785,29.4109194 C81.6969863,29.3102545 82.3463014,29.1708723 82.9965297,29.036956 C83.1316895,29.0087152 83.2773516,28.9408461 83.1545205,28.6976105 C81.6558904,28.7176524 80.1618265,28.9686314 78.6010959,29.2519508 C78.6965297,29.0437885 78.7426484,28.9075948 78.8175342,28.7891654 C78.9399087,28.5946681 79.0828311,28.4133801 79.2134247,28.2243487 C79.3755251,27.991134 79.4001826,27.7501759 79.2641096,27.4932754 C79.1348858,27.2491288 78.9234703,27.2304534 78.6778082,27.2272649 C78.1590868,27.221799 77.6403653,27.1876366 77.1216438,27.1671393 C76.1727854,27.1297885 75.2339726,27.0095372 74.2723288,27.1079246 C73.4161644,27.1953801 72.5494977,27.1343435 71.7079452,27.3989874 C71.3284932,27.5183277 70.9047489,27.6435895 70.5284932,27.5866524 C70.0079452,27.5087623 69.7536073,27.9155215 69.3568037,28.0371393 C69.0531507,28.1305162 68.7440183,28.2065843 68.446758,28.3168147 C67.8540639,28.5372754 67.2280365,28.7071759 66.6869406,29.0214691 C65.4367123,29.7457099 64.1472146,30.3875058 62.8545205,31.0274796 C61.3965297,31.7503539 60.0558904,32.6303749 58.9458447,33.8392649 C58.3604566,34.4765058 57.7207306,35.0636419 57.1344292,35.6990607 C56.0969863,36.8232283 55.0741553,37.9619717 54.5650228,39.4487152 C54.5280365,39.5575791 54.4869406,39.6714534 54.4184475,39.7611864 C54.1221005,40.1469927 53.8161644,40.5246 53.5134247,40.9049403 C53.0189041,40.9974063 52.8933333,41.386401 52.8476712,41.7945267 C52.8111416,42.1256733 52.6705023,42.3985162 52.5065753,42.6695372 C52.4421918,42.7761236 52.3978995,42.9451131 52.1654795,42.8430817 C52.1654795,42.7146314 52.1755251,42.5711497 52.1641096,42.4294901 C52.1065753,41.6888513 52.2239269,40.9969508 52.6883105,40.3865843 C52.8088584,40.2280712 52.8910502,40.0376733 52.9787215,39.8563853 C53.6613699,38.4484429 54.543105,37.1703173 55.5294064,35.9591497 C55.8024658,35.6243592 56.0746119,35.2845581 56.307032,34.9224377 C56.8549772,34.0706576 57.4435616,33.2557728 58.2074886,32.5798147 C58.3367123,32.4663958 58.4353425,32.3197257 58.5526941,32.1930974 C59.003379,31.7075372 59.4357991,31.2019351 59.9134247,30.7446157 C60.6221005,30.0668356 61.356347,29.4154743 62.0947032,28.7700346 C62.3531507,28.5445634 62.6376256,28.3327571 62.943105,28.1815319 C63.5307763,27.8904691 63.9869406,27.466401 64.3673059,26.9494115 C64.4052055,26.8974848 64.39379,26.8104848 64.4065753,26.7353277 C64.312968,26.7303173 64.2353425,26.7025319 64.2079452,26.7280398 C63.9271233,26.9922283 63.5883105,27.1306995 63.2289498,27.2577832 C62.4056621,27.5479351 61.6568037,27.9765581 61.0143379,28.5773592 C60.8887671,28.695333 60.7549772,28.8096628 60.6088584,28.8998513 C59.5851142,29.5325372 58.7846575,30.3929717 58.0723288,31.3467832 C57.916621,31.5540346 57.7677626,31.7735843 57.5764384,31.9448513 C56.7508676,32.6845791 56.1102283,33.567333 55.5257534,34.4979141 C55.403379,34.6924115 55.2682192,34.8818984 55.1207306,35.0581759 C54.3974429,35.921799 53.7536073,36.8423592 53.1472146,37.7902492 C53.0463014,37.9487623 52.9157078,38.0881445 52.7983562,38.2366366 C52.7718721,37.9196105 52.8221005,37.6399351 52.9207306,37.3784796 C53.2389954,36.5389979 53.4463014,35.6744639 53.5631963,34.7866995 C53.5860274,34.615888 53.6120548,34.4396105 53.6759817,34.2824639 C54.1928767,33.0016052 54.6723288,31.7016157 55.2618265,30.4540084 C55.6038356,29.7279455 56.0508676,29.0524429 56.2609132,28.264888 C56.2978995,28.1277832 56.3490411,27.9742806 56.443105,27.8777152 C56.7321461,27.5811864 56.6892237,27.205401 56.6915068,26.9056838 C56.9399087,26.5891131 57.3221005,26.515778 57.5399087,26.0930764 C57.3339726,26.1513801 57.2161644,26.1550241 57.1367123,26.2119613 C56.8088584,26.4451759 56.5179909,26.7435267 56.1659361,26.9261812 C55.6061187,27.215422 55.3326027,27.6959717 55.1001826,28.2325476 C54.9860274,28.4953696 54.8778082,28.771401 54.7065753,28.9955058 C53.9266667,30.0121759 53.4074886,31.1718723 52.8764384,32.3192702 C52.1385388,33.9139665 51.5312329,35.562867 50.9746119,37.2313539 C50.6727854,38.1364272 50.4362557,39.0515215 50.2896804,39.9925791 C50.2367123,40.3337466 50.1691324,40.6730921 50.0942466,41.0101602 C50.0746119,41.0985267 50.1093151,41.2588618 49.8791781,41.2347204 C49.6919635,40.9340921 49.6020091,40.5765267 49.5385388,40.2139508 C49.2435616,38.5295215 48.7134247,36.9243487 47.9321461,35.4020764 C47.9179909,35.3761131 47.9038356,35.3506052 47.8947032,35.3241864 C47.2910502,33.5650555 46.3709589,31.9712702 45.32621,30.4439874 C45.1157078,30.1374377 44.8778082,29.8422754 44.612968,29.5817309 C43.8106849,28.7928094 42.9860274,28.0275738 42.1773516,27.2450293 C41.9508676,27.0259351 41.7248402,26.7977309 41.5472146,26.5399194 C41.3577169,26.2657099 41.1326027,26.0812335 40.8152511,25.9723696 C40.3006393,25.7965476 39.8020091,25.5810974 39.3659361,25.2435738 C39.3513242,25.2326419 39.2832877,25.2900346 39.1832877,25.3487937 C39.7673059,26.0311288 40.3668493,26.6838565 40.990137,27.3169979 C42.0221005,28.3646419 43.0472146,29.4191183 44.073242,30.4726838 C44.1536073,30.5546733 44.2303196,30.6444063 44.290137,30.7414272 C44.9741553,31.8428199 45.7029224,32.9205267 46.2280365,34.1107414 C46.7855708,35.3756576 47.3198174,36.6510503 47.8663927,37.9205215 C48.0357991,38.3127047 48.1321461,38.7162754 48.1481279,39.2915686 C47.9476712,39.0159927 47.8280365,38.8602126 47.7175342,38.6976 C47.2001826,37.9346419 46.6988128,37.1598408 46.1663927,36.4078147 C45.5513242,35.5378147 44.9097717,34.6851236 44.2759817,33.828333 C44.1052055,33.5973958 43.9357991,33.3614482 43.7385388,33.1541969 C41.7280365,31.0402335 39.5243836,29.1326105 37.3399087,27.2044901 C36.9312329,26.8441916 36.4764384,26.6884115 35.8609132,26.7567361 C36.0357991,26.9785634 36.1618265,27.1662283 36.3147945,27.3283853 C37.7851142,28.8752545 39.2613699,30.4171131 40.7326027,31.9630712 C41.050411,32.2969508 41.3581735,32.6403958 41.6668493,32.9833853 C42.7677626,34.2100398 43.6618265,35.5929298 44.6440183,36.9102283 C45.3860274,37.906401 46.0444749,38.953134 46.6508676,40.0358513 C47.0243836,40.7045215 47.0289498,40.7017885 46.9736986,41.7239246 C46.4928767,41.2843696 46.1604566,40.7878775 45.9791781,40.2048408 C45.8631963,39.833155 45.6663927,39.5389037 45.4020091,39.2605948 C44.8869406,38.7162754 44.3828311,38.1551026 44.0549772,37.471401 C43.4787215,36.267977 42.7010959,35.1975581 41.9038356,34.1357937 C41.1545205,33.137799 40.2175342,32.3197257 39.363653,31.4223958 C38.3230137,30.3287466 37.116621,29.4391602 35.8951598,28.5668827 C35.7084018,28.4338775 35.4992694,28.3313906 35.2956164,28.2234377 C34.7869406,27.9533277 34.2832877,27.6690974 33.7613699,27.4267728 C33.2915068,27.2085895 32.8024658,27.033223 32.3175342,26.8519351 C32.2138813,26.8127623 32.0855708,26.8036524 31.976895,26.8246052 C31.8773516,26.8441916 31.7412785,26.9034063 31.7111416,26.9803853 C31.6860274,27.043244 31.7700457,27.1931026 31.8458447,27.2441183 C32.4189041,27.6294691 33.0024658,27.9997885 33.5823744,28.3742073 C33.8001826,28.514956 34.0088584,28.6757466 34.2412785,28.7873435 C34.9239269,29.1148461 35.5307763,29.5525791 36.107032,30.0335843 C36.8367123,30.6430398 37.5568037,31.2652492 38.2736986,31.8906471 C38.3326027,31.9416628 38.486484,32.0204639 38.3211872,32.180799 C38.1412785,32.0496157 37.9577169,31.9184325 37.7764384,31.7840607 C37.3595434,31.475689 36.9787215,31.0944377 36.520274,30.8716995 C35.5010959,30.3770293 34.5736986,29.7434325 33.6403653,29.1180346 C33.0819178,28.7445267 32.5001826,28.4443539 31.8458447,28.2903958 C31.3362557,28.1706 30.8549772,27.9906785 30.412968,27.7037152 C30.2992694,27.6299246 30.1330594,27.5483906 30.0207306,27.5789089 C29.7463014,27.652244 29.5125114,27.5470241 29.2618265,27.4969194 C28.190137,27.2801026 27.1239269,27.0673853 26.0125114,27.1206785 C25.1234703,27.1634953 24.2271233,27.1962911 23.3380822,27.0172806 C23.0326027,26.956244 22.7042922,26.9976942 22.3873973,27.0150031 C22.0499543,27.032312 21.943105,27.1985686 22.0079452,27.5351812 C22.0339726,27.6704639 22.2842009,27.8030136 21.9933333,27.9765581 C21.7673059,27.7720398 21.8449315,27.2623382 21.3586301,27.301511 C21.2084018,27.5939403 21.6627397,27.8758932 21.390137,28.167867 C21.1065753,28.2166052 20.8161644,28.2339141 20.5472146,28.3195476 C20.1705023,28.4393435 19.8385388,28.4407099 19.4778082,28.2380136 C19.0705023,28.0098094 18.6526941,28.0202859 18.2883105,28.3783068 C18.0540639,28.6078775 17.786484,28.7454377 17.4312329,28.695333 C17.3161644,28.6784796 17.1339726,28.7568251 17.0659361,28.8520241 C16.8965297,29.0884272 16.6741553,29.0797728 16.4476712,29.0392335 C16.0851142,28.9750084 15.729863,28.8688775 15.3673059,28.8064743 C14.8988128,28.7253958 14.5951598,29.0365005 14.6663927,29.5161393 C14.690137,29.6751079 14.7577169,29.827244 14.8093151,29.996689 C14.6344292,30.0677466 14.4883105,30.1019089 14.3714155,30.1793435 C13.8978995,30.4931812 13.3892237,30.6339298 12.8184475,30.5806366 C12.5933333,30.5592283 12.3531507,30.5656052 12.1508676,30.7828775 C12.0010959,31.2415634 11.9549772,31.7102702 12.3709589,32.1056419 C12.1321461,32.4659403 11.9111416,32.7984534 11.6928767,33.126867 C11.3819178,33.1637623 11.0723288,33.1373435 10.8170776,33.2425634 C10.1595434,33.5149508 9.5143379,33.8242335 8.8883105,34.1635791 C8.64447489,34.2961288 8.4513242,34.5366314 8.26091324,34.7502597 C8.08785388,34.9443016 8.10657534,35.1520084 8.29105023,35.3701916 C8.36319635,35.4553696 8.47141553,35.5109403 8.5773516,35.5911079 C8.51707763,35.831155 8.45497717,36.0784901 8.39287671,36.3253696 C8.42621005,36.6601602 8.76776256,36.9220712 8.61068493,37.3620817 C8.4860274,37.2072126 8.38557078,37.0869613 8.28922374,36.9635215 C8.18328767,36.8277832 8.09287671,36.6765581 7.97324201,36.5549403 C7.77552511,36.3554325 7.42255708,36.3025948 7.26228311,36.4433435 C7.08420091,36.5991236 7.11753425,36.8068304 7.1709589,37.0049717 C7.20840183,37.1434429 7.25406393,37.2819141 7.31296804,37.4130974 C7.55041096,37.9369194 7.77461187,38.4684848 8.04082192,38.9781864 C8.29424658,39.4637466 8.55771689,39.9397414 8.70703196,40.4731288 C8.77598174,40.7209194 8.90383562,40.9518565 9.00429224,41.1905372 C9.55086758,42.4918932 10.1001826,43.7918827 10.6412785,45.0950607 C10.7399087,45.3332859 10.8189041,45.5828984 10.8823744,45.8329665 C11.4641096,48.1209298 12.046758,50.4084377 12.6115982,52.7014115 C12.7275799,53.1733068 12.7892237,53.6616 12.8394521,54.1467047 C12.9851142,55.5496366 13.029863,56.962134 13.3362557,58.3468461 C13.4796347,58.9931969 13.6079452,59.6463801 13.6782648,60.3036628 C13.8746119,62.1361288 14.0207306,63.9745162 14.2193607,65.8069822 C14.3837443,67.3237885 14.5764384,68.8378618 14.7924201,70.3482911 C14.9389954,71.3717937 14.856347,72.4171602 15.1193607,73.4283644 C15.1609132,73.5905215 15.1257534,73.7722649 15.1266667,73.9453539 C15.1284932,74.2045319 15.1326027,74.4641654 15.1326027,74.7233435 C15.1326027,75.0431026 15.1554338,75.3532963 15.3572603,75.6275058 C15.5225571,75.852977 15.5526941,76.0989455 15.3677626,76.3936524 C15.0577169,76.4291812 14.7175342,76.4633435 14.3782648,76.5088932 C14.2303196,76.5289351 14.1010959,76.5876942 14.1184475,76.8236419 C14.3097717,76.8928775 14.5170776,76.9684901 14.7211872,77.0427361 C14.7024658,77.1816628 14.6846575,77.3133016 14.6654795,77.4567832 C14.8239269,77.503244 14.9312329,77.5465162 15.043105,77.5656471 C15.4924201,77.6430817 15.9631963,77.6102859 16.3828311,77.842134 C16.4522374,77.8803958 16.5531507,77.8630869 16.6394521,77.8676419 C17.5905936,77.9145581 18.5421918,77.9833382 19.4942466,78.0015581 C21.0828311,78.0320764 22.6714155,78.023422 24.2595434,78.0457414 C24.6326027,78.0512073 25.0084018,78.0890136 25.3750685,78.1555162 C26.8513242,78.4224377 28.3252968,78.7002911 29.7969863,78.9877099 C30.2481279,79.0751654 30.6956164,79.1917728 31.1376256,79.3215895 C33.8303196,80.111422 36.3581735,81.3225895 38.9380822,82.4007518 C39.629863,82.6895372 40.3038356,82.9701236 41.0851142,82.9678461 C41.0851142,83.1673539 41.076895,83.336799 41.086484,83.505333 C41.1307763,84.290155 41.3956164,84.9911654 42.0663927,85.4334534 C42.516621,85.7299822 43.0435616,85.9094482 43.5942466,85.9800503 C43.8216438,86.0096576 44.0453881,86.0615843 44.269589,86.1075895 C44.663653,86.1895791 45.0545205,86.2988984 45.4522374,86.3540136 C46.7371689,86.5307466 48.0252968,86.6897152 49.3111416,86.8518723 C49.4536073,86.8691812 49.5992694,86.8678147 49.7444749,86.8678147 C51.0152511,86.8673592 52.2860274,86.8737361 53.5568037,86.8577937 C53.8700457,86.8536942 54.1851142,86.7885581 54.4956164,86.7311654 C55.0271233,86.632778 55.5380822,86.3713225 56.1029224,86.5507885 C56.1522374,86.5667309 56.2184475,86.5453225 56.2718721,86.5280136 C56.8736986,86.3285058 57.4778082,86.1385634 58.0714155,85.9194691 C58.3179909,85.8288251 58.4787215,85.6229403 58.6243836,85.3947361 C58.8878539,84.9838775 59.1896804,84.5976157 59.4787215,84.203155 C59.5796347,84.0642283 59.7001826,83.9380555 59.7947032,83.7945738 C59.89379,83.6433487 59.8481279,83.4338199 59.7125114,83.3290555 C59.5796347,83.2256576 59.4330594,83.2402335 59.312968,83.331333 L59.312968,83.331333 Z" id="Fill-1" fill="#3D5B3D"></path>
                <path d="M92.3342466,36.2851037 C92.1191781,36.2523079 91.9013699,36.2386429 91.6634703,36.2140461 C91.3077626,37.012533 90.9552511,37.794622 90.6114155,38.580355 C90.5420091,38.7370461 90.5031963,38.9069466 90.4525114,39.0713812 C90.4351598,39.1260408 90.4237443,39.1825225 90.4086758,39.2380932 C90.2050228,39.9905749 89.9351598,40.7148157 89.5748858,41.4103602 C89.3785388,41.7897895 89.2351598,42.2033812 89.1159817,42.6151508 C88.8922374,43.3890408 88.7579909,44.1920827 88.4885845,44.9486639 C87.7826484,46.932355 87.2753425,48.9711613 86.7278539,50.9990356 C86.4059361,52.1924387 86.0917808,53.3922188 85.8557078,54.6047529 C85.5579909,56.1293026 85.3442922,57.6702503 85.0940639,59.2043654 C84.9780822,59.9144859 84.809589,60.6195958 84.7538813,61.3342712 C84.6543379,62.5969099 84.6260274,63.8650147 84.5607306,65.1299309 C84.4858447,66.5679361 84.4086758,68.0054859 84.3223744,69.4425801 C84.2246575,71.0805487 84.0547945,72.7148733 84.1068493,74.3592188 C84.1136986,74.5887895 84.139726,74.8320251 84.0771689,75.0456534 C83.9840183,75.3658681 83.9159817,75.6523759 84.1630137,75.9347843 C84.2059361,75.984889 84.1954338,76.1001298 84.1803653,76.1798419 C84.1305936,76.4285435 84.06621,76.6749675 83.9977169,76.9642084 C83.1031963,76.9642084 82.2105023,76.9546429 81.3178082,76.9687634 C80.9159817,76.9746848 80.5146119,77.024334 80.113242,77.0603183 C79.6840183,77.0990356 79.2557078,77.1696377 78.8251142,77.1814806 C78.190411,77.199245 77.5547945,77.1919571 76.9200913,77.1687267 C75.9050228,77.1313759 74.9114155,77.2475277 73.9136986,77.4415696 C72.3575342,77.7444754 70.7863014,77.9735906 69.2232877,78.246889 C68.7707763,78.3261455 68.3127854,78.4126901 67.8785388,78.5602712 C66.460274,79.0435539 65.0534247,79.560088 63.6392694,80.0552136 C63.313242,80.169088 62.9780822,80.2583654 62.643379,80.3449099 C62.3045662,80.4314545 61.9803653,80.5430513 61.7009132,80.7589571 C61.352968,81.028156 60.9634703,81.201245 60.5310502,81.291889 C60.3666667,81.3260513 60.16621,81.377978 60.0680365,81.4941298 C59.7424658,81.8803916 59.4561644,82.2994492 59.1648402,82.692088 C59.3844749,82.9936272 59.6164384,83.0428209 59.873516,82.8688209 C60.1114155,82.7080304 60.3319635,82.5235539 60.6100457,82.3112921 C61.3885845,82.4502188 62.1675799,82.2538995 62.9406393,82.0061089 C63.4392694,81.8462293 63.9525114,81.8025016 64.4780822,81.8061455 C64.8178082,81.8088785 65.169863,81.7578628 65.4968037,81.6635749 C66.7707763,81.295533 68.0324201,80.8874073 69.3073059,80.5211874 C70.4146119,80.2027948 71.5219178,79.8716482 72.6488584,79.638889 C73.4401826,79.4749099 74.2269406,79.3095644 75.0054795,79.0922921 C75.447032,78.9688524 75.9050228,78.8882293 76.3607306,78.8367581 C77.3068493,78.7301717 78.2694064,78.7260723 79.2018265,78.5529832 C80.5748858,78.2979047 81.9511416,78.2518995 83.3369863,78.2687529 C83.3652968,78.2687529 83.3945205,78.2682974 83.4232877,78.2673864 C84.5347032,78.242334 84.5780822,77.8601717 84.5575342,77.1468628 C84.5420091,76.6075539 84.6648402,76.1165277 84.9694064,75.6815277 C85.1625571,75.4050408 85.2351598,75.1135225 85.2296804,74.7887529 C85.2273973,74.7026639 85.2287671,74.6161194 85.2324201,74.5295749 C85.2598174,73.983889 85.283105,73.4514126 85.852968,73.1216325 C85.9885845,73.0437424 86.0525114,72.7736325 86.0771689,72.5827791 C86.2534247,71.2140094 86.5018265,69.8538942 86.4876712,68.4623497 C86.4648402,66.0381927 86.7488584,63.636355 87.1086758,61.2427162 C87.4757991,58.7948733 87.8506849,56.3479414 88.2296804,53.9014649 C88.4022831,52.7923288 88.543379,51.6749937 88.7876712,50.5813445 C89.3013699,48.2778942 89.886758,45.9912974 90.4141553,43.6910356 C90.6022831,42.8706848 90.8684932,42.0922398 91.2547945,41.3434021 C91.4497717,40.9653393 91.6009132,40.5485592 91.6799087,40.1317791 C91.8054795,39.4767738 91.9958904,38.8554754 92.2593607,38.2419204 C92.4607306,37.7713916 92.5789954,37.2603236 92.6931507,36.7579099 C92.7589041,36.4704911 92.6269406,36.3301979 92.3342466,36.2851037" id="Fill-3" fill="#3D5B3D"></path>
                <path d="M84.6849772,39.7353597 C85.3822374,39.513988 86.093653,39.4474853 86.8183105,39.4620613 C87.3493607,39.4729932 87.8310959,39.3190351 88.4224201,38.9523597 C88.1982192,38.8863126 88.1096347,38.8266424 88.0511872,38.8480508 C87.5210502,39.0461921 86.9758447,39.0311607 86.4269863,38.989255 C85.9046119,38.9487157 85.39,38.980145 84.8858904,39.1281817 C84.4644292,39.252077 84.0361187,39.2557209 83.6014155,39.240234 C82.6498174,39.2056162 81.6977626,39.1810194 80.7461644,39.1714539 C80.4320091,39.1682654 80.1110046,39.1951398 79.8036986,39.2575429 C79.0365753,39.4128675 78.2689954,39.4998675 77.4845205,39.4761817 C77.2009589,39.4675272 76.9114612,39.5217314 76.6306393,39.5791241 C75.1626027,39.8806634 73.7000457,40.203611 72.2306393,40.4964958 C70.4425114,40.8536058 68.6868037,41.3136581 67.09,42.2182759 C66.2278995,42.7065691 65.2379452,42.8363859 64.3662557,43.2795848 C63.8525571,43.3096476 63.4575799,43.6102759 63.0479909,43.8685429 C62.8005023,44.0247785 62.5648858,44.1801031 62.2589498,44.1791921 C61.8589498,44.1782812 61.5776712,44.459323 61.2507306,44.6242131 C61.0457078,44.7280665 61.0845205,45.1207052 61.3078082,45.1931293 C61.5169406,45.2609984 61.7758447,45.3238571 61.9694521,45.2587209 C62.4288128,45.1047628 62.9009589,44.9307628 63.2968493,44.6611084 C63.9740183,44.201056 64.7543836,43.9856058 65.4959361,43.7195953 C66.2580365,43.4444749 66.9986758,43.1443021 67.7105479,42.7685168 C68.7881735,42.1986895 69.9292694,41.8033178 71.1119178,41.5322969 C72.9091781,41.1209827 74.7132877,40.7392759 76.5142009,40.3448152 C77.0521005,40.2268414 77.5927397,40.1812916 78.1443379,40.1799251 C78.573105,40.1794696 79.0018721,40.1024906 79.4301826,40.0546634 C79.916484,40.0004592 80.4005023,39.9107262 80.8886301,39.8906843 C81.8973059,39.8487785 82.906895,39.847412 83.9160274,39.8196267 C84.1740183,39.8123387 84.4443379,39.8114277 84.6849772,39.7353597" id="Fill-5" fill="#3D5B3D"></path>
                <path d="M23.4685388,40.2798157 C25.1027854,40.6291822 26.7352055,40.9872031 28.3717352,41.3265487 C29.959863,41.6558733 31.4927397,42.1300461 32.9247032,42.9098576 C33.5310959,43.2396377 34.1434247,43.5634963 34.8406849,43.6810147 C35.0046119,43.7083445 35.1534703,43.8208524 35.3100913,43.8919099 C35.4653425,43.962512 35.6187671,44.0782084 35.7790411,44.0886848 C36.1457078,44.1123707 36.4247032,44.3255435 36.7338356,44.4676586 C37.2534703,44.7058838 37.75621,44.9805487 38.2721918,45.2269728 C38.516484,45.3435801 38.7744749,45.3376586 39.02379,45.2215068 C39.2831507,45.1012555 39.333379,44.7086168 39.0776712,44.5938314 C38.7434247,44.4439728 38.4662557,44.1665749 38.05621,44.1652084 C37.8676256,44.1652084 37.6406849,44.0950618 37.4977626,43.9766325 C36.837032,43.4277581 36.016484,43.2173183 35.2379452,42.9759047 C34.459863,42.7354021 33.7192237,42.4406953 33.0050685,42.0680984 C31.9251598,41.5046482 30.7840639,41.1047215 29.6018721,40.835067 C27.7758447,40.4191979 25.9406849,40.0452346 24.1119178,39.6412084 C23.4877169,39.5036482 22.8612329,39.4508105 22.2233333,39.4635644 C21.9374886,39.4690304 21.6397717,39.4667529 21.3653425,39.3966063 C20.4306393,39.1574702 19.4836073,39.1447162 18.5301826,39.1797895 C17.9534703,39.2011979 17.3758447,39.2002869 16.8009589,39.2412817 C16.3041553,39.2768105 15.8196804,39.2335382 15.3457078,39.1009885 C14.9215068,38.9825592 14.4954795,38.9552293 14.0612329,38.9871141 C13.4269863,39.0326639 12.7954795,39.0476953 11.9959361,38.7324911 C12.1192237,38.9821037 12.133379,39.0786691 12.1849772,39.105999 C12.6242466,39.3364806 13.0868037,39.4804178 13.5922831,39.4658419 C14.2872603,39.444889 14.9689954,39.5127581 15.6406849,39.7218314 C15.9356621,39.8138419 16.2680822,39.8343393 16.5799543,39.8179414 C18.7498174,39.7068 20.8849772,40.1477215 23.0443379,40.2005592 C23.1868037,40.2042031 23.3278995,40.2497529 23.4685388,40.2798157" id="Fill-7" fill="#3D5B3D"></path>
                <path d="M21.0226941,75.2447969 C22.4948402,75.2766817 23.9674429,75.2570953 25.4405023,75.2662052 C25.7569406,75.2684827 26.0793151,75.2657497 26.3884475,75.3235979 C28.8825114,75.7913937 31.3747489,76.265111 33.7692694,77.1419435 C35.1788584,77.658022 36.5797717,78.180022 37.8373059,79.0213257 C38.0510046,79.1643518 38.2893607,79.2887026 38.5345662,79.3588492 C38.7149315,79.4107759 38.93,79.3843571 39.1194977,79.3438178 C39.1971233,79.3265089 39.2724658,79.1862157 39.2971233,79.0891948 C39.3108219,79.0354461 39.2341096,78.9256712 39.1706393,78.8901424 C38.5674429,78.5548963 37.9651598,78.2164618 37.3500913,77.9044461 C34.9176712,76.6714147 32.3482648,75.8332995 29.6802283,75.2835141 C29.3126484,75.2079016 28.9450685,75.1354775 28.5806849,75.0466555 C27.3436986,74.7446607 26.0966667,74.5583623 24.8153881,74.5834147 C22.5354795,74.6285089 20.2528311,74.5715717 17.9761187,74.7469382 C17.73,74.7656136 17.46379,74.7141424 17.1377626,74.9815194 C17.3172146,75.0329906 17.3971233,75.0717079 17.4784018,75.0758073 C18.660137,75.1372995 19.8409589,75.2197445 21.0226941,75.2447969" id="Fill-9" fill="#3D5B3D"></path>
                <path d="M74.64379,74.5924791 C74.357032,74.5906571 74.0661644,74.6207199 73.7848858,74.6740131 C72.8227854,74.857123 71.8661644,75.0730288 70.9017808,75.2465733 C68.7332877,75.6364791 66.64379,76.2974058 64.626895,77.1596623 C63.4383105,77.6675419 62.3109132,78.3170812 61.1597717,78.9096832 C60.9976712,78.9930393 61.0314612,79.2449293 61.200411,79.3291963 C61.4506393,79.4535471 61.6958447,79.4521806 61.9415068,79.3123429 C62.3899087,79.0563534 62.8319178,78.786699 63.2912785,78.5512068 C65.6670776,77.3322958 68.179863,76.509212 70.7899087,75.9648927 C71.2127397,75.8765262 71.6332877,75.7767723 72.0561187,75.6843063 C73.1844292,75.4383377 74.3122831,75.2269869 75.4803196,75.2552277 C76.7784932,75.2862016 78.0789498,75.2757251 79.3775799,75.2456623 C80.5314612,75.2183325 81.683516,75.1413534 82.8355708,75.0816832 C82.9337443,75.0762173 83.0305479,75.0370445 83.1990411,74.9960497 C83.0725571,74.8917408 83.0177626,74.8083848 82.9515525,74.7988194 C82.7236986,74.7655681 82.4926484,74.7564581 82.262968,74.7396047 C79.7259817,74.5523953 77.1839726,74.6125209 74.64379,74.5924791" id="Fill-11" fill="#3D5B3D"></path>
                <path d="M50.2243379,56.9630906 C51.4572146,56.8036665 52.7129224,56.6938916 53.9215982,56.2598026 C54.5426027,56.0370644 55.0814155,55.6271168 55.7421461,55.5050435 C55.8015068,55.4941115 55.8932877,55.3670277 55.8800457,55.318745 C55.8540183,55.2244571 55.7672603,55.0786979 55.6996804,55.0759649 C55.417032,55.064122 55.1247945,55.0600225 54.8503653,55.1206037 C53.6983105,55.3756822 52.5508219,55.6489806 51.4033333,55.926834 C50.5750228,56.1272529 49.7508219,56.1263419 48.9238813,55.9190906 C48.5047032,55.8138707 48.0846119,55.7173052 47.6640639,55.6180068 C46.93621,55.4462843 46.2092694,55.2654518 45.4777626,55.1105827 C45.2293607,55.057745 44.9658904,55.0509126 44.7120091,55.063211 C44.6252511,55.0673105 44.4942009,55.1866508 44.4791324,55.2704623 C44.4668037,55.3424309 44.5718265,55.4768026 44.656758,55.5168864 C44.8339269,55.6011534 45.0526484,55.6070749 45.2193151,55.7036403 C46.7631507,56.5914047 48.473653,56.7886351 50.2243379,56.9630906" id="Fill-13" fill="#3D5B3D"></path>
                <path d="M56.6902283,52.5362026 C56.7235616,52.4952079 56.7605479,52.4200508 56.7441096,52.3827 C56.7144292,52.3148309 56.6404566,52.2118885 56.5952511,52.2173545 C56.4897717,52.2291974 56.3842922,52.2861346 56.2902283,52.3430717 C55.4842922,52.8299984 54.5856621,53.0326948 53.6696804,53.1233387 C53.1596347,53.172988 52.649589,53.1338152 52.1427397,53.3014382 C51.8263014,53.4062026 51.4596347,53.3811503 51.1157991,53.3802393 C50.626758,53.3797838 50.1368037,53.346988 49.6473059,53.3301346 C48.8724201,53.3032602 48.0920548,53.3583754 47.3313242,53.1301712 C47.1733333,53.0827995 46.9897717,53.1278937 46.8176256,53.1228832 C46.6167123,53.1169618 46.4066667,53.1411031 46.2180822,53.0864435 C45.3952511,52.8473073 44.5157991,52.7534749 43.6728767,52.0351555 C43.6582648,52.3093649 43.6094064,52.4501136 43.6559817,52.4970298 C43.8349772,52.6769513 44.0235616,52.8682602 44.2473059,52.9794016 C44.7358904,53.2221817 45.2486758,53.4139461 45.7482192,53.6353178 C46.0952511,53.7892759 46.4555251,53.867166 46.8345205,53.8831084 C49.0523288,53.9751188 51.2710502,53.9919723 53.487032,53.8771869 C54.5778995,53.8207052 55.5208219,53.3005272 56.4509589,52.7798937 C56.5463927,52.7266005 56.6180822,52.6245691 56.6902283,52.5362026" id="Fill-15" fill="#3D5B3D"></path>
                <path d="M45.3290411,79.3711932 C45.756895,79.3734707 46.0993607,79.5424602 46.4294977,79.7998162 C46.5756164,79.9141461 46.7925114,79.9519524 46.9842922,79.9943136 C47.2368037,80.0498843 47.50621,80.0425963 47.7486758,80.1218529 C48.253242,80.2858319 48.7660274,80.3022298 49.287032,80.2958529 C49.6605479,80.2917534 50.0404566,80.3313817 50.409863,80.2881094 C51.2336073,80.1901775 52.053242,80.0526173 52.8747032,79.930544 C52.9021005,79.9264445 52.9299543,79.9150571 52.9550685,79.9018476 C53.5801826,79.5907429 54.2326941,79.4108215 54.936347,79.3529733 C55.4011872,79.314256 55.7715068,79.0414131 55.9317808,78.4706749 C55.60621,78.6050466 55.3632877,78.7485283 55.1007306,78.801366 C54.8244749,78.8573921 54.5281279,78.8122979 54.2427397,78.8373503 C54.0445662,78.8551147 53.8441096,78.8992979 53.6541553,78.962612 C52.5783562,79.325188 51.4792694,79.4987325 50.3413699,79.4135545 C50.0263014,79.3894131 49.7080365,79.3871356 49.3911416,79.3971565 C48.1829224,79.4358738 47.0564384,79.1288686 45.9719635,78.6241775 C45.8445662,78.5654183 45.6089498,78.4724969 45.5788128,78.5130361 C45.3194521,78.8542037 45.0801826,78.4465335 44.7874886,78.5011932 C44.7874886,78.6715492 44.7404566,78.8501042 44.7984475,78.9821984 C44.892968,79.1926382 45.0756164,79.3698267 45.3290411,79.3711932" id="Fill-17" fill="#3D5B3D"></path>
                <path d="M17.0854338,17.999389 C16.5160274,17.7274571 15.9347489,17.4796665 15.3516438,17.2373419 C14.8744749,17.038745 14.3790411,16.8820539 13.9096347,16.6684257 C13.7110046,16.5777817 13.4840639,16.4220016 13.4014155,16.2375251 C13.2548402,15.910478 12.9968493,15.7656298 12.7137443,15.6253366 C12.2758447,15.4080644 11.8361187,15.1939806 11.3954795,14.9830853 C10.1215068,14.3749963 8.87538813,13.7227241 7.75849315,12.8481691 C7.72013699,12.8185618 7.65666667,12.8217503 7.64068493,12.8176508 C7.43520548,12.9520225 7.25392694,13.0704518 7.07675799,13.1866037 C7.12515982,13.9700592 7.45803653,14.5325984 8.1530137,14.9307031 C8.87493151,15.3442948 9.53840183,15.8580958 10.2384018,16.3113157 C10.550274,16.513101 10.8808676,16.691656 11.2169406,16.8492581 C12.0219635,17.2273209 12.8712785,17.5124623 13.5845205,18.0699911 C13.7388584,18.1897869 13.946621,18.2408026 14.1260731,18.3300801 C14.5100913,18.520478 14.9055251,18.6931115 15.2726484,18.9135723 C15.9575799,19.3239754 16.6845205,19.5417031 17.4858904,19.5098183 C17.8543836,19.4952424 18.0105479,19.2961901 17.9055251,18.951834 C17.7726484,18.515012 17.4895434,18.1925199 17.0854338,17.999389" id="Fill-19" fill="#9F8300"></path>
                <path d="M36.8331963,12.9937916 C36.5952968,12.141556 36.1331963,11.4314356 35.5144749,10.8046712 C35.2957534,10.5832995 35.1080822,10.3222995 34.9482648,10.0540115 C34.2304566,8.84375497 33.5496347,7.61072356 32.8099087,6.41322094 C32.3989498,5.74773927 32.0208676,5.08681257 31.8619635,4.30927853 C31.8126484,4.06695393 31.6647032,3.82963979 31.5135616,3.62694346 C31.29621,3.33679162 30.7286301,3.34225759 30.6258904,3.64288586 C30.5030594,4.00455079 30.2975799,4.40128901 30.5994064,4.78345131 C30.8532877,5.10685445 30.9843379,5.48309529 31.1172146,5.8643466 C31.2016895,6.10576021 31.3236073,6.33669738 31.4500913,6.5603466 C31.7761187,7.13518429 32.1181279,7.70045654 32.4464384,8.27438325 C33.0313699,9.29560838 33.6007763,10.3268545 34.1984932,11.3407916 C34.4898174,11.8359173 34.7761187,12.3223885 34.9916438,12.8630639 C35.3249772,13.7016346 35.8053425,14.4481948 36.8551142,14.6836869 C37.1806849,14.3625613 37.2377626,14.0227602 37.0806849,13.6369539 C36.9939269,13.4242366 36.8943836,13.2142524 36.8331963,12.9937916" id="Fill-21" fill="#9F8300"></path>
                <path d="M52.7937443,1.07770681 C52.5439726,1.05402094 52.3426027,1.17472775 52.2521918,1.41295288 C52.1919178,1.57101047 52.1563014,1.74409948 52.1439726,1.91263351 C52.0996804,2.54304188 52.0590411,3.17436126 52.0403196,3.80522513 C52.0330137,4.06075916 52.0453425,4.3317801 52.1234247,4.57046073 C52.2887215,5.07241885 52.3188584,5.58029843 52.3152055,6.09910995 C52.3115525,6.70218848 52.3142922,7.30526702 52.3261644,7.90880105 C52.3503653,9.14365445 52.4033333,10.3771414 52.5996804,11.5996963 C52.6215982,11.738623 52.6535616,11.8816492 52.7152055,12.0055445 C52.7421461,12.0597487 52.8526484,12.086623 52.9298174,12.096644 C52.973653,12.1021099 53.0622374,12.0547382 53.0681735,12.0210314 C53.1754795,11.3719476 53.5252511,10.8098639 53.7124658,10.1912984 C53.7846119,9.95170681 53.7499087,9.67840838 53.7521918,9.42014136 C53.7773059,6.83473822 53.800137,4.24933508 53.8243379,1.66393194 C53.8257078,1.46852356 53.826621,1.27357068 53.8284475,0.999816754 C53.5992237,1.07634031 53.4485388,1.16151832 53.2937443,1.16835079 C53.1293607,1.17563874 52.9626941,1.09410471 52.7937443,1.07770681" id="Fill-23" fill="#9F8300"></path>
                <g id="Group-27" transform="translate(0.000000, 21.732691)">
                    <mask id="mask-2" fill="white">
                        <use xlink:href="#path-1"></use>
                    </mask>
                    <g id="Clip-26"></g>
                    <path d="M10.7017352,3.4803644 C10.4903196,3.39154241 10.2684018,3.32549529 10.0487671,3.25580419 C8.51406393,2.7670555 6.96063927,2.32932251 5.45013699,1.7754377 C4.31269406,1.35865759 3.17114155,0.96738534 2.01086758,0.623029319 C1.76292237,0.549238743 1.52410959,0.444474346 1.27479452,0.375694241 C1.07068493,0.318757068 0.857442922,0.348364398 0.724109589,0.524641885 C0.587579909,0.705929843 0.622283105,0.903615707 0.809954338,1.10858953 C1.12639269,1.05165236 1.46246575,1.06850576 1.7743379,1.45795602 C1.58803653,1.47070995 1.47388128,1.48437487 1.36018265,1.48528586 C1.10127854,1.48801885 0.839634703,1.46251099 0.583013699,1.48710785 C0.236894977,1.52127016 0.00447488584,1.79547958 -9.13242012e-05,2.12571518 C-0.00374429224,2.42953194 0.172511416,2.68552147 0.48347032,2.75840105 C0.675707763,2.80349529 0.882100457,2.78891937 1.08210046,2.79802932 C1.57022831,2.82080419 2.06657534,2.79347435 2.5460274,2.87227539 C3.62547945,3.05037487 4.7003653,3.26081466 5.77022831,3.49448482 C7.33278539,3.83610785 8.9286758,3.74364188 10.5063014,3.88211309 C10.6204566,3.89213403 10.7451142,3.78144817 10.8884932,3.71631204 C10.8053881,3.60699267 10.7684018,3.50814974 10.7017352,3.4803644" id="Fill-25" fill="#9F8300" mask="url(#mask-2)"></path>
                </g>
                <path d="M77.0352511,3.81223979 C76.9873059,3.68561152 76.8284018,3.62958534 76.68,3.71339686 C76.6083105,3.75393613 76.5608219,3.83501466 76.4822831,3.91882618 C76.4005479,3.78217696 76.3407306,3.65509319 76.2571689,3.54668482 C76.0489498,3.27794136 75.8690411,3.26290995 75.6005479,3.4797267 C75.2347945,3.7762555 74.9804566,4.1579623 74.7822831,4.57747539 C74.106484,6.00637068 73.4060274,7.42433403 72.8681279,8.91472147 C72.6325114,9.56790471 72.3297717,10.1855592 71.8795434,10.7212241 C71.5845662,11.0728681 71.283653,11.4204126 70.970411,11.7552031 C70.7694977,11.9688314 70.5918721,12.1861037 70.519726,12.4771665 C70.4489498,12.7673183 70.6421005,12.9946115 70.9389041,12.9700147 C71.2448402,12.9449623 71.4863927,12.7996586 71.6909589,12.5855749 C72.1863927,12.0667634 72.7256621,11.5807476 73.1589954,11.0141089 C73.6252055,10.4028314 74.0439269,9.74008272 74.3813699,9.05000419 C74.5959817,8.61136021 74.8023744,8.17453822 75.0681279,7.76367958 C75.7708676,6.67640733 76.4740639,5.59095707 76.9726941,4.38844398 C77.0530594,4.1934911 77.1133333,4.01630262 77.0352511,3.81223979" id="Fill-28" fill="#9F8300"></path>
                <path d="M26.2413242,11.0101005 C25.9573059,10.6780429 25.723516,10.3295874 25.5253425,9.94469215 C24.9751142,8.88110576 24.55,7.75466073 23.9189498,6.73161361 C23.7700913,6.4902 23.5974886,6.26199581 23.4239726,6.0369801 C23.1358447,5.66301675 22.78379,5.56645131 22.3294521,5.86571309 C22.1299087,5.73498534 21.9947489,5.62521047 21.8426941,5.5514199 C21.6796804,5.47261885 21.5025114,5.47535183 21.3655251,5.61792251 C21.2280822,5.7600377 21.2299087,5.93722618 21.3157534,6.09482827 C21.3974886,6.24377592 21.5116438,6.37723665 21.6226027,6.5075089 C22.202968,7.18893298 22.6915525,7.92592775 23.0773973,8.73671309 C23.2221461,9.04007435 23.4600457,9.30426283 23.6810502,9.56480733 C23.9408676,9.87090157 24.2527397,10.1350901 24.4988584,10.4507497 C25.2710046,11.447378 26.0244292,12.4585822 26.7828767,13.4661424 C27.0189498,13.7795246 27.3422374,13.9539801 27.7130137,14.0428021 C27.7783105,14.058289 27.8650685,13.9876869 27.9495434,13.9535246 C27.9431507,13.8583257 27.9577626,13.7663152 27.9276256,13.6920691 C27.5294521,12.6968073 26.9344749,11.8176974 26.2413242,11.0101005" id="Fill-30" fill="#9F8300"></path>
                <g id="Group-34" transform="translate(38.356164, 0.324314)">
                    <mask id="mask-4" fill="white">
                        <use xlink:href="#path-3"></use>
                    </mask>
                    <g id="Clip-33"></g>
                    <path d="M3.41246575,8.68410314 C3.35356164,8.46182042 3.29054795,8.24044869 3.23484018,8.01771047 C3.19374429,7.85145393 3.21018265,7.70478377 3.27,7.52759529 C3.49876712,6.85300366 3.48917808,6.19025497 3.09694064,5.54845916 C2.92068493,5.26058482 2.83255708,4.91713979 2.71246575,4.59601414 C2.55127854,4.1678466 2.4243379,3.72510314 2.2352968,3.30968953 C1.913379,2.60412408 1.54945205,1.92133351 1.34899543,1.16201937 C1.21977169,0.670537696 0.839406393,0.353967016 0.387808219,0.136239267 C0.347625571,0.11665288 0.280045662,0.155370157 0.127990868,0.187710471 C0.164063927,0.428668586 0.244429224,0.630453927 0.211552511,0.812197382 C0.0343835616,1.79379424 0.345799087,2.68565812 0.671369863,3.57934398 C0.877762557,4.14598272 1.08187215,4.71398796 1.27593607,5.28563717 C1.52479452,6.01989895 1.72981735,6.77146963 2.01657534,7.4907 C2.26086758,8.10197749 2.58324201,8.68273665 2.89739726,9.26258482 C2.94808219,9.35732827 3.13255708,9.41380995 3.25995434,9.42337539 C3.39557078,9.43339634 3.52251142,9.18970524 3.49511416,9.01798272 C3.47730594,8.90501937 3.4416895,8.7952445 3.41246575,8.68410314" id="Fill-32" fill="#9F8300" mask="url(#mask-4)"></path>
                </g>
                <path d="M99.6567123,23.1746592 C99.763105,23.114078 99.8768037,22.9614864 99.8247489,22.9186696 C99.4781735,22.6321618 99.2494064,22.2408895 98.5841096,22.1689209 C97.1681279,22.0158738 95.7475799,21.9808005 94.3640183,22.3752613 C93.8288584,22.5273974 93.2694977,22.6594916 92.7014612,22.7556016 C91.7621918,22.9150257 90.806484,23.037099 89.8576256,23.1751147 C89.5699543,23.2170204 89.2745205,23.2461723 88.996895,23.3062979 C88.6905023,23.372345 88.5220091,23.5144602 88.5229224,23.7071356 C88.5238356,23.8770361 88.7252055,24.0319052 89.04621,24.0610571 C89.4599087,24.0993188 89.883653,24.1079733 90.3023744,24.1293817 C90.3023744,24.1439576 90.3023744,24.1594445 90.3028311,24.1744759 C91.227032,24.1453241 92.1548858,24.1453241 93.0736073,24.0820099 C94.2370776,24.0018424 95.4302283,24.0428372 96.5494064,23.731277 C97.1220091,23.5718529 97.7357078,23.472099 98.396895,23.4921408 C98.8653881,23.5058058 99.310137,23.3737115 99.6567123,23.1746592" id="Fill-35" fill="#9F8300"></path>
                <path d="M84.9583105,9.52372147 C84.8076256,9.46906178 84.5916438,9.41850157 84.4710959,9.48591518 C84.0222374,9.73643874 83.5587671,9.9883288 83.1761187,10.3253969 C81.8825114,11.4659623 80.6373059,12.6607319 79.2583105,13.7038209 C79.0756621,13.8413812 78.9172146,14.0131037 78.7615068,14.1820932 C78.3304566,14.646245 77.9067123,15.1158628 77.4815982,15.5859361 C77.3651598,15.7134754 77.2496347,15.8428366 77.1464384,15.9803969 C76.9861644,16.1931141 77.0190411,16.4176743 77.1583105,16.6217372 C77.2158447,16.7069152 77.3236073,16.7583864 77.3921005,16.8121351 C77.5172146,16.7770618 77.6062557,16.7665853 77.6815982,16.7287791 C78.0930137,16.5224387 78.4975799,16.3115435 78.8286301,15.9744754 C79.3934703,15.3996377 79.982968,14.8489414 80.5587671,14.2845801 C81.0720091,13.7803445 81.6226941,13.3052607 82.0774886,12.7522869 C82.4893607,12.2535173 82.9674429,11.8608785 83.4911872,11.5019466 C83.7268037,11.341156 83.943242,11.1493916 84.1496347,10.9512503 C84.4573973,10.6528995 84.7487215,10.3376953 85.0464384,10.0284126 C85.1948402,9.87399895 85.160137,9.59614555 84.9583105,9.52372147" id="Fill-37" fill="#9F8300"></path>
                <path d="M70.8530137,2.59674503 C70.8388584,2.50701204 70.7310959,2.38994921 70.642968,2.36535236 C70.5548402,2.34121099 70.4329224,2.40680262 70.3361187,2.45326335 C70.2931963,2.47467173 70.2667123,2.54208534 70.2452511,2.59446754 C69.9909132,3.20255654 69.7397717,3.81155654 69.4877169,4.42055654 C69.3895434,4.65878168 69.3356621,4.93162461 69.1836073,5.12885497 C68.6292694,5.84990733 68.3607763,6.70168743 68.0160274,7.52021623 C67.5498174,8.62889686 67.2963927,9.81774503 66.7059817,10.8836089 C66.5055251,11.2466403 66.4699087,11.7007712 66.4064384,11.9380853 C66.4320091,12.2710539 66.4434247,12.4145356 66.4548402,12.5575618 C66.4616895,12.6431953 66.463516,12.7297398 66.4772146,12.8149178 C66.5224201,13.0964152 66.6808676,13.2708707 66.8986758,13.2836246 C67.1160274,13.2963785 67.3005023,13.121923 67.3484475,12.8527241 C67.363516,12.7680016 67.3717352,12.6814571 67.373105,12.5958236 C67.3868037,11.8898026 67.6014155,11.2388969 67.9342922,10.6262529 C68.1973059,10.1425147 68.3584932,9.62871361 68.5091781,9.10124764 C68.8552968,7.88962461 69.2000457,6.67162461 69.9251598,5.60849372 C70.0205936,5.46911152 70.0831507,5.30194398 70.1397717,5.14069791 C70.3740183,4.4633733 70.6082648,3.78559319 70.8251598,3.10234712 C70.8753881,2.94520052 70.8790411,2.76072408 70.8530137,2.59674503" id="Fill-39" fill="#9F8300"></path>
                <path d="M58.4948402,0.510749215 C58.2199543,0.416005759 57.916758,0.519859162 57.7455251,0.781770157 C57.5231507,1.12020471 57.3546575,1.47412618 57.3537443,1.90092723 C57.3519178,2.75953979 57.4003196,3.62270733 57.1647032,4.46765497 C57.1126484,4.6544089 57.1532877,4.86712618 57.1528311,5.06800052 C57.1519178,5.64192723 57.1478082,6.21585393 57.1532877,6.78978063 C57.1551142,6.98336702 57.1838813,7.17649791 57.203516,7.41107906 C57.5487215,7.43567592 57.8523744,7.45708429 58.1861644,7.48077016 C58.2569406,7.29811571 58.3400457,7.14871257 58.3710959,6.98883298 C58.5587671,6.03092199 58.716758,5.06982251 58.6994064,4.08640366 C58.690274,3.57123613 58.7382192,3.06244555 58.8491781,2.5495555 C58.9514612,2.08084869 58.9117352,1.57980157 58.920411,1.09287487 C58.9245205,0.803178534 58.7688128,0.60549267 58.4948402,0.510749215" id="Fill-41" fill="#9F8300"></path>
                <path d="M91.1418721,13.4666435 C91.4016895,13.2156644 91.2852511,12.7442246 90.9496347,12.6021094 C90.6688128,12.4832246 90.3907306,12.4909681 90.1190411,12.6440152 C89.8943836,12.7715545 89.6724658,12.9173136 89.4322831,13.0038581 C88.1094521,13.4784864 87.026347,14.3571408 85.8500913,15.0781932 C85.5016895,15.291366 85.3194977,15.5960937 85.3286301,15.9117534 C85.326347,16.237434 85.2930137,16.4847691 85.5414155,16.6182298 C85.7834247,16.7489576 85.9724658,16.6031984 86.1742922,16.4797586 C86.3656164,16.3631513 86.577032,16.2210361 86.7875342,16.2078267 C87.1309132,16.1864183 87.3843379,16.0292717 87.6505479,15.8539052 C88.56379,15.2499157 89.4843379,14.6582246 90.3952968,14.0510466 C90.6583105,13.8761356 90.9158447,13.6852822 91.1418721,13.4666435" id="Fill-43" fill="#9F8300"></path>
                <path d="M21.1350685,13.0489524 C20.0574429,12.2859942 18.9510502,11.5622089 17.8432877,10.843434 C17.4122374,10.5633031 16.9213699,10.3756382 16.5519635,10.0007639 C16.5126941,9.9611356 16.4556164,9.93836073 16.4040183,9.91376387 C16.1989954,9.81583194 15.9542466,9.8741356 15.7811872,10.059523 C15.6505936,10.1998162 15.6615525,10.3833817 15.8592694,10.5874445 C16.1373516,10.8744079 16.4085845,11.1814131 16.733242,11.4073398 C17.8647489,12.1930728 19.0149772,12.9532979 20.1652055,13.7130675 C20.6684018,14.0446696 21.1852968,14.3548634 21.7012785,14.6668791 C21.8209132,14.7388476 21.9615525,14.7766539 22.1117808,14.8381461 C22.2122374,14.762989 22.3218265,14.7124288 22.3816438,14.6277063 C22.4944292,14.4687377 22.4674886,14.2847168 22.3350685,14.155811 C21.9455708,13.7754707 21.5752511,13.3614236 21.1350685,13.0489524" id="Fill-45" fill="#9F8300"></path>
                <path d="M94.6477169,18.2807042 C94.889726,18.2164791 95.0614155,18.0775524 95.1888128,17.880322 C95.2901826,17.7245419 95.3171233,17.5345995 95.1678082,17.4075157 C95.0742009,17.3282592 94.8956621,17.265856 94.7883562,17.3004738 C94.0719178,17.527767 93.3490868,17.6871911 92.593379,17.6785366 C92.4509132,17.6771702 92.3038813,17.7058665 92.1678082,17.7486832 C91.6458904,17.9140288 91.1098174,18.0520445 90.6107306,18.2720497 C89.7408676,18.656034 88.9052511,19.1074319 88.180137,19.9901859 C88.423516,20.0275366 88.5326484,20.0735419 88.6294521,20.0548665 C89.2531963,19.9346152 89.8554795,19.7565157 90.4436073,19.5000707 C91.3399543,19.1092539 92.2468037,18.7275471 93.2545662,18.7052277 C93.4216895,18.7006728 93.589726,18.6314372 93.7541096,18.579055 C94.0531963,18.482945 94.3449772,18.3613272 94.6477169,18.2807042" id="Fill-47" fill="#9F8300"></path>
            </g>
        </g>
    </g>
</svg>