<?xml version="1.0" encoding="UTF-8"?>
<svg width="176px" height="101px" viewBox="0 0 176 101" version="1.1" xmlns="http://www.w3.org/2000/svg" xmlns:xlink="http://www.w3.org/1999/xlink">
    <!-- Generator: Sketch 42 (36781) - http://www.bohemiancoding.com/sketch -->
    <title>Page 1</title>
    <desc>Created with Sketch.</desc>
    <defs></defs>
    <g id="Page-1" stroke="none" stroke-width="1" fill="none" fill-rule="evenodd">
        <g id="11.My_Club_Details_Messages" transform="translate(-807.000000, -191.000000)" fill="#3D2C00">
            <g id="Page-1" transform="translate(807.000000, 191.000000)">
                <path d="M29.7457552,28.6197573 C29.9168622,28.6197573 30.041446,28.5913724 30.1199539,28.5343791 C30.1980145,28.4776092 30.2373803,28.363399 30.2373803,28.1926425 L30.2373803,25.2868757 C30.2373803,24.8456802 30.212553,24.4679596 30.1626747,24.1543844 C30.1125728,23.8417032 30.016395,23.5851214 29.8739177,23.3853094 C29.7314403,23.186168 29.528125,23.0326212 29.2646426,22.9260101 C29.0007128,22.8191755 28.6479863,22.751901 28.2062395,22.7230691 C28.1207979,22.7230691 28.0568284,22.683956 28.0138839,22.6055063 C27.9711631,22.5275037 27.9499145,22.4457015 27.9499145,22.3600997 C27.9499145,22.2742744 27.9711631,22.1962718 28.0138839,22.1249742 C28.0568284,22.0539001 28.1207979,22.0181396 28.2062395,22.0181396 C28.6625249,22.0181396 29.1825559,22.0393724 29.7670038,22.0822851 C30.3514516,22.1249742 30.900336,22.1459835 31.4134333,22.1459835 C31.7127028,22.1459835 31.9940788,22.1390549 32.2580085,22.1249742 C32.5214909,22.11067 32.7782633,22.0963658 33.0276545,22.0822851 C33.2770458,22.0684278 33.5302394,22.0539001 33.7867881,22.0393724 C34.0433367,22.0252917 34.3213576,22.0181396 34.6206271,22.0181396 C34.7060688,22.0181396 34.7666832,22.0539001 34.8024703,22.1249742 C34.83781,22.1962718 34.8521248,22.2742744 34.8451911,22.3600997 C34.83781,22.4457015 34.8129827,22.5275037 34.7702619,22.6055063 C34.727541,22.683956 34.6702817,22.7230691 34.5991549,22.7230691 C34.1571844,22.751901 33.8008792,22.8122469 33.5302394,22.9047773 C33.2593759,22.9973077 33.0524818,23.1399028 32.9102281,23.3323392 C32.7675271,23.5243285 32.6749281,23.7771108 32.6322072,24.0906859 C32.5894864,24.4040376 32.5680142,24.8027675 32.5680142,25.2868757 L32.5680142,33.6619924 C32.5680142,34.1322434 32.5964201,34.4987888 32.6536795,34.7622992 C32.7102678,35.0260332 32.8138267,35.2325502 32.9636851,35.3818505 C33.1133199,35.5313742 33.3233453,35.6382088 33.5944325,35.7023542 C33.8650723,35.7664997 34.2144437,35.819917 34.6418757,35.8626061 C34.727541,35.8771338 34.7948655,35.9195995 34.8451911,35.990897 C34.8948457,36.0621946 34.9198966,36.1406443 34.9198966,36.225799 C34.9198966,36.3111773 34.8948457,36.389627 34.8451911,36.4609245 C34.7948655,36.5317751 34.72016,36.5677591 34.6206271,36.5677591 C34.0502705,36.5677591 33.5051884,36.5389272 32.9849337,36.4821573 C32.4644553,36.425611 31.9480029,36.3967791 31.4346819,36.3967791 C30.8929549,36.3967791 30.3337817,36.425611 29.7564913,36.4821573 C29.1792009,36.5389272 28.6553674,36.5677591 28.1849909,36.5677591 C28.0993256,36.5677591 28.0351325,36.5317751 27.9926354,36.4609245 C27.9499145,36.389627 27.9284423,36.3111773 27.9284423,36.225799 C27.9284423,36.1406443 27.9499145,36.0621946 27.9926354,35.990897 C28.0351325,35.9195995 28.0993256,35.8771338 28.1849909,35.8626061 C28.6265141,35.819917 28.9794642,35.7664997 29.243394,35.7023542 C29.5068764,35.6382088 29.7137705,35.5313742 29.8634052,35.3818505 C30.01304,35.2325502 30.1125728,35.0260332 30.1626747,34.7622992 C30.212553,34.4987888 30.2373803,34.1322434 30.2373803,33.6619924 L30.2373803,30.1156651 C30.2373803,29.7453201 30.0803644,29.5600358 29.7670038,29.5600358 L23.3743121,29.5600358 C23.0607277,29.5600358 22.9039356,29.7021839 22.9039356,29.9873742 L22.9039356,33.6619924 C22.9039356,34.1322434 22.9323416,34.4987888 22.9893772,34.7622992 C23.0461892,35.0260332 23.1497481,35.2325502 23.2993829,35.3818505 C23.4490176,35.5313742 23.6592667,35.6382088 23.9301302,35.7023542 C24.2007701,35.7664997 24.5501415,35.819917 24.9777971,35.8626061 C25.0632388,35.8771338 25.1307869,35.9195995 25.1808888,35.990897 C25.2307671,36.0621946 25.255818,36.1406443 25.255818,36.225799 C25.255818,36.3111773 25.2307671,36.389627 25.1808888,36.4609245 C25.1307869,36.5317751 25.0560814,36.5677591 24.9565486,36.5677591 C24.3861919,36.5677591 23.8411099,36.5389272 23.3208551,36.4821573 C22.8003767,36.425611 22.2839243,36.3967791 21.7706033,36.3967791 C21.2288763,36.3967791 20.6697031,36.425611 20.0921891,36.4821573 C19.5148986,36.5389272 18.9912889,36.5677591 18.5209124,36.5677591 C18.435247,36.5677591 18.3710539,36.5317751 18.3283331,36.4609245 C18.2856123,36.389627 18.26414,36.3111773 18.26414,36.225799 C18.26414,36.1406443 18.2856123,36.0621946 18.3283331,35.990897 C18.3710539,35.9195995 18.435247,35.8771338 18.5209124,35.8626061 C18.9624355,35.819917 19.3153856,35.7664997 19.5790917,35.7023542 C19.8427978,35.6382088 20.0494682,35.5313742 20.1993266,35.3818505 C20.3487377,35.2325502 20.4484942,35.0260332 20.4985961,34.7622992 C20.5482507,34.4987888 20.5733017,34.1322434 20.5733017,33.6619924 L20.5733017,25.2868757 C20.5733017,24.8456802 20.5482507,24.4679596 20.4985961,24.1543844 C20.4484942,23.8417032 20.3520928,23.5851214 20.2098391,23.3853094 C20.0671381,23.186168 19.8640464,23.0326212 19.600564,22.9260101 C19.3366342,22.8191755 18.9836841,22.751901 18.5421609,22.7230691 C18.4567193,22.7230691 18.3925262,22.683956 18.3498054,22.6055063 C18.3070845,22.5275037 18.2856123,22.4457015 18.2856123,22.3600997 C18.2856123,22.2742744 18.3070845,22.1962718 18.3498054,22.1249742 C18.3925262,22.0539001 18.4567193,22.0181396 18.5421609,22.0181396 C18.9982226,22.0181396 19.5182537,22.0393724 20.1029252,22.0822851 C20.687373,22.1249742 21.2360338,22.1459835 21.7493547,22.1459835 C22.0486242,22.1459835 22.3297765,22.1390549 22.5939299,22.1249742 C22.8574124,22.11067 23.113961,22.0963658 23.3635759,22.0822851 C23.6127435,22.0684278 23.8659371,22.0539001 24.1227095,22.0393724 C24.3792581,22.0252917 24.6570554,22.0181396 24.9565486,22.0181396 C25.0419902,22.0181396 25.1023809,22.0539001 25.138168,22.1249742 C25.1735078,22.1962718 25.1878226,22.2742744 25.1808888,22.3600997 C25.1735078,22.4457015 25.1489041,22.5275037 25.1061833,22.6055063 C25.0632388,22.683956 25.0062031,22.7230691 24.9350763,22.7230691 C24.4931058,22.751901 24.1368006,22.8122469 23.8659371,22.9047773 C23.5950736,22.9973077 23.3881796,23.1399028 23.2459259,23.3323392 C23.1032249,23.5243285 23.0108495,23.7771108 22.967905,24.0906859 C22.9251842,24.4040376 22.9039356,24.8027675 22.9039356,25.2868757 L22.9039356,28.1926425 C22.9039356,28.4776092 23.0607277,28.6197573 23.3743121,28.6197573 L29.7457552,28.6197573 Z" id="Fill-1"></path>
                <path d="M46.572328,22.0822627 C46.6863993,22.0822627 46.796892,22.0965669 46.9038059,22.1249518 C47.0107198,22.1537838 47.0498619,22.2673235 47.0214559,22.4669119 C46.9926026,22.6238113 46.9787351,22.8014964 46.9787351,23.0010849 L46.9787351,23.5989563 C46.9787351,24.2399638 46.9999837,24.8382822 47.0427045,25.393688 C47.0427045,25.4509048 47.0107198,25.4973935 46.9465267,25.5327071 C46.8823336,25.5684676 46.8076281,25.5894769 46.7219628,25.596629 C46.6365211,25.6040046 46.5542108,25.5932765 46.4761502,25.5648915 C46.3976423,25.5365066 46.3511191,25.4792898 46.3372516,25.393688 C46.2372714,24.8382822 46.1372913,24.4040153 46.0377584,24.0906636 C45.9380019,23.7770884 45.7991033,23.5388339 45.6208389,23.3745589 C45.4425745,23.211178 45.2003406,23.1079195 44.8941374,23.0650068 C44.5872631,23.0223177 44.1848821,22.9939328 43.6858759,22.9796286 L42.4031326,22.9796286 C42.032289,22.9796286 41.7365982,22.9870042 41.5158366,23.0010849 C41.2946277,23.0149421 41.1201656,23.0688064 40.9920031,23.1611133 C40.863617,23.2538671 40.7781753,23.3998148 40.7354545,23.5989563 C40.69251,23.7985447 40.6712614,24.0765829 40.6712614,24.4324002 L40.6712614,28.1711638 C40.6712614,28.3707523 40.7066011,28.4952436 40.7781753,28.5453084 C40.8493021,28.5951496 40.920429,28.619735 40.9920031,28.619735 C41.6473541,28.619735 42.1642538,28.5913501 42.5420313,28.5343567 C42.919585,28.4775869 43.2047633,28.3743283 43.3973426,28.2248046 C43.5896982,28.0750574 43.7180843,27.879492 43.7820537,27.6369909 C43.8462468,27.3951603 43.8997038,27.0815851 43.9426483,26.6971594 C43.9565158,26.6113341 43.9992366,26.5476357 44.0708108,26.504723 C44.1419376,26.4620339 44.2204455,26.4408011 44.3061109,26.4408011 C44.3915525,26.4408011 44.4696131,26.4620339 44.5411873,26.504723 C44.6123141,26.5476357 44.6481012,26.6113341 44.6481012,26.6971594 C44.6481012,26.9249093 44.6407201,27.1280738 44.6266289,27.3059824 C44.6123141,27.4841146 44.5979993,27.6624702 44.5839081,27.8399319 C44.5695933,28.018064 44.5552784,28.2033483 44.5411873,28.3953376 C44.5268724,28.587774 44.519715,28.8121714 44.519715,29.0685297 C44.519715,29.4956445 44.5411873,29.8843168 44.5839081,30.2332055 C44.6266289,30.5818707 44.6481012,31.005633 44.6481012,31.5040454 C44.6481012,31.575343 44.6123141,31.6292073 44.5411873,31.6645208 C44.4696131,31.7002813 44.3915525,31.714362 44.3061109,31.7072099 C44.2204455,31.7002813 44.1419376,31.6786015 44.0708108,31.6430645 C43.9992366,31.6075275 43.9565158,31.546958 43.9426483,31.4615798 C43.8997038,31.0483221 43.8462468,30.7137376 43.7820537,30.4573793 C43.7180843,30.2007975 43.5896982,30.0052321 43.3973426,29.8697891 C43.2047633,29.7345696 42.919585,29.6422627 42.5420313,29.5919745 C42.1642538,29.5423567 41.6473541,29.5171008 40.9920031,29.5171008 C40.920429,29.5171008 40.8493021,29.5423567 40.7781753,29.5919745 C40.7066011,29.6422627 40.6712614,29.7452977 40.6712614,29.9019736 L40.6712614,32.7006822 C40.6712614,33.156629 40.7032461,33.5446308 40.7674392,33.864911 C40.8316323,34.1854148 40.9278101,34.4491487 41.0559726,34.6554423 C41.1843587,34.8621829 41.3411509,35.0262343 41.5263491,35.1469261 C41.7115472,35.2678414 41.9327561,35.3572427 42.1893048,35.4137891 C42.3888178,35.4569252 42.6131581,35.4886627 42.862773,35.5098955 C43.1121642,35.5313518 43.3722916,35.54208 43.6431551,35.54208 C43.9853691,35.54208 44.3061109,35.5282228 44.6053804,35.4993909 C44.9046499,35.4710059 45.1325689,35.4283168 45.289361,35.3711 C45.5745393,35.271641 45.8203519,35.1648064 46.027246,35.0508197 C46.2336927,34.9366095 46.4083784,34.7875328 46.5510794,34.602025 C46.6933331,34.4171878 46.8109831,34.1854148 46.9038059,33.9078237 C46.996405,33.6297855 47.0711105,33.2775443 47.1281462,32.8499824 C47.1422373,32.7648277 47.1923393,32.7078343 47.2780046,32.6794494 C47.3634463,32.6510645 47.4560453,32.6365368 47.5558018,32.6365368 C47.6555583,32.6365368 47.7445787,32.6579931 47.8230866,32.7006822 C47.9013709,32.7431478 47.9333556,32.8003647 47.9194881,32.8714388 C47.8479139,33.4699807 47.7837208,34.0289625 47.7269088,34.5486077 C47.6698732,35.0687 47.6484009,35.5992969 47.6627157,36.1406219 C47.6627157,36.182864 47.6340861,36.2438804 47.5772741,36.3218831 C47.5202384,36.4003328 47.3849185,36.4394459 47.1710907,36.4394459 L39.4097667,36.4394459 C38.867816,36.4394459 38.3370488,36.4533031 37.816794,36.482135 C37.2963156,36.5105199 36.8297415,36.5391283 36.4164007,36.5677368 C36.3021057,36.5677368 36.216664,36.5355523 36.159852,36.4716303 C36.1028164,36.4072614 36.0670293,36.3294822 36.0529381,36.2367283 C36.0386233,36.1439745 36.0598718,36.0583727 36.1171312,35.9801465 C36.1739432,35.9019204 36.2667659,35.8556552 36.3949284,35.8411275 C36.7371424,35.7986618 37.0292545,35.7380924 37.271712,35.6596427 C37.5139458,35.5816401 37.7132352,35.4676534 37.8704747,35.3176827 C38.0270432,35.1683824 38.1444695,34.9797456 38.2232011,34.7515487 C38.3012617,34.5240224 38.3408512,34.232127 38.3408512,33.8756392 L38.3408512,25.6502698 C38.3408512,25.3366946 38.330115,25.0307186 38.3086428,24.7314476 C38.2873942,24.4324002 38.240871,24.154362 38.1697442,23.8982272 C38.09817,23.6418689 37.987901,23.4212711 37.8382663,23.2359869 C37.6886315,23.0511496 37.4855398,22.9228587 37.2289912,22.8513376 C37.0717517,22.808425 36.9082494,22.773335 36.7371424,22.7445031 C36.5660354,22.7161181 36.4020858,22.6946618 36.2455174,22.6803576 C36.159852,22.6803576 36.0956589,22.6450441 36.0529381,22.573523 C36.0102173,22.502449 35.988745,22.4242228 35.988745,22.338621 C35.988745,22.2527957 36.0102173,22.1752401 36.0529381,22.103719 C36.0956589,22.0324215 36.159852,21.9968844 36.2455174,21.9968844 C36.7297613,21.9968844 37.1647981,22.0109651 37.5497329,22.0393501 C37.9344441,22.0684055 38.383572,22.0822627 38.8966693,22.0822627 L46.572328,22.0822627 Z" id="Fill-3"></path>
                <path d="M51.1477068,25.2868757 C51.1477068,24.8456802 51.1226558,24.4679596 51.0730013,24.1543844 C51.0228993,23.8417032 50.9267215,23.5851214 50.7842442,23.3853094 C50.6415432,23.1863915 50.4386752,23.0326212 50.1749691,22.9260101 C49.9110393,22.8191755 49.5583129,22.751901 49.1165661,22.7230691 C49.0309007,22.7230691 48.9669313,22.683956 48.9242105,22.6055063 C48.8814897,22.5275037 48.8600174,22.4457015 48.8600174,22.3600997 C48.8600174,22.2742744 48.8814897,22.1962718 48.9242105,22.1249742 C48.9669313,22.0539001 49.0309007,22.0181396 49.1165661,22.0181396 C49.5726277,22.0181396 50.0928825,22.0393724 50.6773303,22.0822851 C51.2617781,22.1249742 51.8106625,22.1459835 52.3237599,22.1459835 C52.6230294,22.1459835 52.9044053,22.1390549 53.1683351,22.1249742 C53.4318175,22.11067 53.6883661,22.0965893 53.9379811,22.0822851 C54.1873723,22.0684278 54.4403423,22.0539001 54.6968909,22.0393724 C54.9536633,22.0252917 55.2314605,22.0181396 55.53073,22.0181396 C55.6163953,22.0181396 55.6770097,22.0539001 55.7125731,22.1249742 C55.7481365,22.1962718 55.7622277,22.2742744 55.755294,22.3600997 C55.7481365,22.4457015 55.7233093,22.5275037 55.6805884,22.6055063 C55.6376439,22.683956 55.5806083,22.7230691 55.5094814,22.7230691 C55.0675109,22.751901 54.7109821,22.8122469 54.4403423,22.9047773 C54.1694788,22.9973077 53.9628084,23.1399028 53.8205547,23.3323392 C53.67763,23.5243285 53.5852546,23.7771108 53.5423101,24.0906859 C53.4995893,24.4040376 53.4783407,24.8027675 53.4783407,25.2868757 L53.4783407,32.7217139 C53.4783407,33.1781077 53.4995893,33.5591808 53.5423101,33.8649334 C53.5852546,34.1713565 53.6633152,34.4279383 53.7776102,34.6340083 C53.8916815,34.8407489 54.04825,35.0012243 54.2479867,35.1149875 C54.4474997,35.2289742 54.6968909,35.3284332 54.9963841,35.4138114 C55.1958971,35.4567241 55.4202374,35.4886851 55.6698523,35.5099179 C55.9190199,35.5313742 56.1793709,35.5421024 56.4502344,35.5421024 C56.7924484,35.5421024 57.1129665,35.5282451 57.4124597,35.4994132 C57.7117292,35.4710283 57.9396482,35.4283392 58.0964403,35.3711223 C58.381395,35.2716633 58.6274312,35.1648287 58.8343253,35.050842 C59.0405483,34.9366318 59.2154577,34.7875551 59.3581587,34.6020474 C59.5004124,34.4172101 59.6180624,34.1854372 59.7108852,33.907846 C59.8032606,33.6298079 59.8781898,33.2775667 59.9352255,32.8500048 C59.9493166,32.7646265 59.9994186,32.7078567 60.0850839,32.6794718 C60.1705256,32.6508633 60.2631246,32.6363356 60.3628811,32.6363356 C60.462414,32.6363356 60.551658,32.6580154 60.6301659,32.7004811 C60.7084502,32.7431702 60.7404349,32.8003871 60.7265674,32.8714611 C60.6549932,33.470003 60.5908001,34.0289848 60.5339881,34.5486301 C60.4767288,35.0687223 60.4554802,35.5993192 60.469795,36.1406443 C60.469795,36.1828864 60.4411654,36.2439028 60.3843534,36.3219055 C60.3273177,36.4003551 60.1919978,36.4394682 59.97817,36.4394682 L52.216846,36.4394682 C51.6608041,36.4394682 51.1264582,36.457125 50.6133609,36.4928855 C50.1000399,36.528199 49.5941,36.56016 49.0950938,36.5892154 C48.9953373,36.5892154 48.9204081,36.5532314 48.8707535,36.4821573 C48.8206516,36.4110833 48.7958243,36.3326336 48.7958243,36.2474788 C48.7958243,36.1616536 48.8206516,36.0798514 48.8707535,36.0016252 C48.9204081,35.9231755 48.9953373,35.8771338 49.0950938,35.8626061 C49.5368406,35.8060598 49.8933695,35.7450434 50.164233,35.6811214 C50.4348728,35.616976 50.6415432,35.517517 50.7842442,35.3818505 C50.9267215,35.246631 51.0228993,35.047266 51.0730013,34.7837556 C51.1226558,34.5202451 51.1477068,34.1534762 51.1477068,33.6836722 L51.1477068,25.3083321 L51.1477068,25.2868757 Z" id="Fill-5"></path>
                <path d="M64.1685468,25.2868757 C64.1685468,24.8456802 64.1434959,24.4679596 64.0938413,24.1543844 C64.0437394,23.8417032 63.9475616,23.5851214 63.8050843,23.3853094 C63.6623832,23.1863915 63.4595152,23.0326212 63.1958091,22.9260101 C62.9318794,22.8191755 62.5791529,22.751901 62.1374061,22.7230691 C62.0517408,22.7230691 61.9877714,22.683956 61.9450505,22.6055063 C61.9023297,22.5275037 61.8808574,22.4457015 61.8808574,22.3600997 C61.8808574,22.2742744 61.9023297,22.1962718 61.9450505,22.1249742 C61.9877714,22.0539001 62.0517408,22.0181396 62.1374061,22.0181396 C62.5934678,22.0181396 63.1137225,22.0393724 63.6981703,22.0822851 C64.2826182,22.1249742 64.8315026,22.1459835 65.3445999,22.1459835 C65.6438694,22.1459835 65.9252454,22.1390549 66.1891751,22.1249742 C66.4526575,22.11067 66.7092062,22.0965893 66.9588211,22.0822851 C67.2082123,22.0684278 67.4611823,22.0539001 67.717731,22.0393724 C67.9745033,22.0252917 68.2523005,22.0181396 68.55157,22.0181396 C68.6372354,22.0181396 68.6978497,22.0539001 68.7334132,22.1249742 C68.7689766,22.1962718 68.7830677,22.2742744 68.776134,22.3600997 C68.7689766,22.4457015 68.7441493,22.5275037 68.7014285,22.6055063 C68.658484,22.683956 68.6014483,22.7230691 68.5303215,22.7230691 C68.088351,22.751901 67.7318221,22.8122469 67.4611823,22.9047773 C67.1903188,22.9973077 66.9836484,23.1399028 66.8413947,23.3323392 C66.6984701,23.5243285 66.6060946,23.7771108 66.5631501,24.0906859 C66.5204293,24.4040376 66.4991807,24.8027675 66.4991807,25.2868757 L66.4991807,32.7217139 C66.4991807,33.1781077 66.5204293,33.5591808 66.5631501,33.8649334 C66.6060946,34.1713565 66.6841552,34.4279383 66.7984502,34.6340083 C66.9125216,34.8407489 67.0690901,35.0012243 67.2688267,35.1149875 C67.4683397,35.2289742 67.717731,35.3284332 68.0172241,35.4138114 C68.2167371,35.4567241 68.4410774,35.4886851 68.6906923,35.5099179 C68.9398599,35.5313742 69.200211,35.5421024 69.4710745,35.5421024 C69.8132884,35.5421024 70.1338065,35.5282451 70.4332997,35.4994132 C70.7325692,35.4710283 70.9604882,35.4283392 71.1172804,35.3711223 C71.402235,35.2716633 71.6482712,35.1648287 71.8551653,35.050842 C72.0613884,34.9366318 72.2362978,34.7875551 72.3789988,34.6020474 C72.5212524,34.4172101 72.6389025,34.1854372 72.7317252,33.907846 C72.8241006,33.6298079 72.8990298,33.2775667 72.9560655,32.8500048 C72.9701567,32.7646265 73.0202586,32.7078567 73.1059239,32.6794718 C73.1913656,32.6508633 73.2839647,32.6363356 73.3837212,32.6363356 C73.483254,32.6363356 73.572498,32.6580154 73.651006,32.7004811 C73.7292902,32.7431702 73.7612749,32.8003871 73.7474074,32.8714611 C73.6758332,33.470003 73.6116402,34.0289848 73.5548282,34.5486301 C73.4975688,35.0687223 73.4763202,35.5993192 73.4906351,36.1406443 C73.4906351,36.1828864 73.4620054,36.2439028 73.4051934,36.3219055 C73.3481577,36.4003551 73.2128378,36.4394682 72.99901,36.4394682 L65.237686,36.4394682 C64.6816442,36.4394682 64.1472982,36.457125 63.6342009,36.4928855 C63.1208799,36.528199 62.61494,36.56016 62.1159338,36.5892154 C62.0161773,36.5892154 61.9412481,36.5532314 61.8915936,36.4821573 C61.8414916,36.4110833 61.8166644,36.3326336 61.8166644,36.2474788 C61.8166644,36.1616536 61.8414916,36.0798514 61.8915936,36.0016252 C61.9412481,35.9231755 62.0161773,35.8771338 62.1159338,35.8626061 C62.5576807,35.8060598 62.9142095,35.7450434 63.185073,35.6811214 C63.4557128,35.616976 63.6623832,35.517517 63.8050843,35.3818505 C63.9475616,35.246631 64.0437394,35.047266 64.0938413,34.7837556 C64.1434959,34.5202451 64.1685468,34.1534762 64.1685468,33.6836722 L64.1685468,25.3083321 L64.1685468,25.2868757 Z" id="Fill-7"></path>
                <path d="M82.406182,35.7557268 C83.1044775,35.7557268 83.7211337,35.5708896 84.2557033,35.2003211 C84.7902729,34.8299761 85.2425322,34.3422918 85.6133759,33.7365978 C85.9837722,33.1315743 86.2655955,32.4335734 86.4579511,31.6430421 C86.6503066,30.8525109 86.7464844,30.0300186 86.7464844,29.1753419 C86.7464844,28.3492736 86.6717789,27.5375095 86.5221441,26.7398262 C86.3722857,25.9421428 86.1264732,25.2334137 85.7844829,24.6138625 C85.4422689,23.9945348 84.9859835,23.4958989 84.4160742,23.1184018 C83.8457175,22.7413517 83.1471984,22.5524914 82.3207404,22.5524914 C81.5510944,22.5524914 80.8843363,22.7444807 80.3215844,23.1291299 C79.7581614,23.5135557 79.2987447,24.0157676 78.9426632,24.6353188 C78.5861344,25.2548701 78.3224283,25.9597996 78.151545,26.7505543 C77.980438,27.5410856 77.8947727,28.342345 77.8947727,29.1541091 C77.8947727,30.0087858 77.9658995,30.8348541 78.1086005,31.632314 C78.2510778,32.4304443 78.4935353,33.1315743 78.8355257,33.7365978 C79.1777397,34.3422918 79.63738,34.8299761 80.2146704,35.2003211 C80.7919609,35.5708896 81.5222411,35.7557268 82.406182,35.7557268 M82.3207404,36.6530927 C80.0827056,36.6530927 78.3293621,36.0194608 77.0609336,34.7515264 C75.7922814,33.4842625 75.1579554,31.5896248 75.1579554,29.0685073 C75.1579554,27.9863042 75.3362198,26.9892559 75.6925249,26.0773623 C76.0488301,25.1661392 76.5442576,24.3825366 77.1785836,23.7272248 C77.812686,23.0725836 78.5715959,22.5627725 79.4555369,22.1998031 C80.3392542,21.8363867 81.3157943,21.6551255 82.3849335,21.6551255 C83.4252193,21.6551255 84.3802871,21.8294581 85.2499133,22.1783468 C86.1190921,22.527459 86.8674895,23.0222953 87.4948818,23.6633029 C88.1220505,24.3040869 88.6100969,25.0769614 88.9594683,25.9814794 C89.308616,26.8859973 89.4833017,27.8935503 89.4833017,29.0045854 C89.4833017,30.2434643 89.2940775,31.3370661 88.9167474,32.2838262 C88.53897,33.2314803 88.025649,34.0289401 87.3772318,34.6770998 C86.7283672,35.3252594 85.9694573,35.8162962 85.1002785,36.1511042 C84.2306524,36.4856887 83.3042142,36.6530927 82.3207404,36.6530927" id="Fill-9"></path>
                <path d="M98.5914951,36.7172381 C98.3060931,36.7172381 98.0569255,36.6247078 97.8430976,36.4394235 C97.6292698,36.2543627 97.5223559,36.0194608 97.5223559,35.7342705 C97.5223559,35.4783592 97.6187574,35.2432337 97.8111129,35.0295645 C98.0034685,34.8156718 98.2492811,34.7088373 98.5485506,34.7088373 C98.8337289,34.7088373 99.0902775,34.7980151 99.3184202,34.9759237 C99.5463392,35.1540559 99.6606342,35.3927574 99.6606342,35.6918049 C99.6606342,35.9624674 99.560654,36.201169 99.361141,36.407239 C99.1614044,36.6139796 98.9048557,36.7172381 98.5914951,36.7172381 M98.869516,32.6579707 C98.869516,32.7292683 98.8301502,32.779333 98.7518659,32.807271 C98.673358,32.8361029 98.5914951,32.8499601 98.5060534,32.8499601 C98.4203881,32.8499601 98.3383014,32.8361029 98.2600172,32.807271 C98.1815093,32.779333 98.1423671,32.7292683 98.1423671,32.6579707 C98.1423671,31.6609224 98.131631,30.8205499 98.1103824,30.1368532 C98.0891339,29.45338 98.0602805,28.8655663 98.0249408,28.374306 C97.9891537,27.8828222 97.9426305,27.4485552 97.8858185,27.0708346 C97.8287828,26.693561 97.7717471,26.3055592 97.7147115,25.9066058 C97.643361,25.5364843 97.5579193,25.1265792 97.4583865,24.678008 C97.3584063,24.2292133 97.3085281,23.8271308 97.3085281,23.4708665 C97.3085281,23.0864408 97.4047059,22.7590084 97.5972851,22.4878989 C97.7896407,22.2174599 98.1068037,22.0822404 98.5485506,22.0822404 C99.0330182,22.0822404 99.3718772,22.2141073 99.5642328,22.4771707 C99.756812,22.7413517 99.8529898,23.0725836 99.8529898,23.4708665 C99.8529898,23.6279894 99.8348726,23.8164027 99.7995328,24.0367769 C99.7637457,24.2580452 99.7210249,24.478643 99.6711467,24.6994643 C99.6210447,24.9202856 99.5711665,25.1408834 99.5215119,25.3617047 C99.47141,25.5825259 99.4322679,25.7711627 99.4040855,25.9276151 C99.3325114,26.3270155 99.2649633,26.7150173 99.2007702,27.0922909 C99.1365771,27.4695645 99.0795414,27.904055 99.0296632,28.3955388 C98.9795613,28.8870226 98.9406428,29.4710368 98.9122368,30.1475814 C98.8836071,30.8239024 98.869516,31.6609224 98.869516,32.6579707" id="Fill-11"></path>
                <path d="M130.95257,62.4749907 C131.175569,62.4749907 131.338176,62.4378891 131.440617,62.363686 C131.542386,62.2894829 131.59383,62.1404062 131.59383,61.9177969 L131.59383,58.128745 C131.59383,57.5530004 131.561174,57.0606226 131.49631,56.651835 C131.430999,56.2434945 131.305521,55.909357 131.119875,55.6489756 C130.933782,55.3888177 130.668958,55.1890058 130.325178,55.0497632 C129.980951,54.9105206 129.521087,54.8222368 128.944915,54.7851353 C128.833528,54.7851353 128.749875,54.7341765 128.694182,54.6320355 C128.638488,54.529671 128.610529,54.4230599 128.610529,54.3113082 C128.610529,54.2002271 128.638488,54.0978625 128.694182,54.0048851 C128.749875,53.9125783 128.833528,53.8656426 128.944915,53.8656426 C129.539875,53.8656426 130.218264,53.8935805 130.980305,53.9496798 C131.742347,54.0048851 132.458312,54.0328231 133.127307,54.0328231 C133.51761,54.0328231 133.884651,54.0236594 134.228878,54.0048851 C134.572434,53.9867814 134.907043,53.9677836 135.232482,53.9496798 C135.557697,53.931129 135.887609,53.9125783 136.222219,53.8935805 C136.557052,53.8754767 136.919396,53.8656426 137.309699,53.8656426 C137.42131,53.8656426 137.500265,53.9125783 137.546788,54.0048851 C137.593088,54.0978625 137.611652,54.2002271 137.602482,54.3113082 C137.593088,54.4230599 137.560656,54.529671 137.504962,54.6320355 C137.449045,54.7341765 137.374563,54.7851353 137.281964,54.7851353 C136.705344,54.8222368 136.240783,54.901357 135.887609,55.0218253 C135.534436,55.1429641 135.264914,55.3282483 135.079269,55.5792426 C134.893176,55.8302368 134.772394,56.1599042 134.716701,56.5682448 C134.661007,56.9774794 134.633048,57.4973481 134.633048,58.128745 L134.633048,69.0504585 C134.633048,69.6633047 134.669954,70.1416018 134.744659,70.4853499 C134.818694,70.8288745 134.95379,71.0979725 135.149053,71.2928674 C135.344093,71.4882093 135.618088,71.6274519 135.971485,71.7108186 C136.324435,71.7948559 136.78005,71.8641419 137.337657,71.9200177 C137.449045,71.9390155 137.53717,71.9942208 137.602482,72.0874217 C137.667346,72.1803991 137.700002,72.2823166 137.700002,72.3938448 C137.700002,72.5051494 137.667346,72.6072905 137.602482,72.7000443 C137.53717,72.7927982 137.439651,72.8392869 137.309699,72.8392869 C136.565998,72.8392869 135.855177,72.8019619 135.176788,72.7277588 C134.497952,72.6540027 133.824484,72.6164541 133.155265,72.6164541 C132.448694,72.6164541 131.719309,72.6540027 130.966662,72.7277588 C130.213567,72.8019619 129.530481,72.8392869 128.91718,72.8392869 C128.805569,72.8392869 128.721917,72.7927982 128.666223,72.7000443 C128.610529,72.6072905 128.582571,72.5051494 128.582571,72.3938448 C128.582571,72.2823166 128.610529,72.1803991 128.666223,72.0874217 C128.721917,71.9942208 128.805569,71.9390155 128.91718,71.9200177 C129.493128,71.8641419 129.953216,71.7948559 130.297219,71.7108186 C130.640999,71.6274519 130.910744,71.4882093 131.106008,71.2928674 C131.301047,71.0979725 131.430999,70.8288745 131.49631,70.4853499 C131.561174,70.1416018 131.59383,69.6633047 131.59383,69.0504585 L131.59383,64.4252807 C131.59383,63.942737 131.388949,63.7009064 130.980305,63.7009064 L122.643704,63.7009064 C122.234613,63.7009064 122.030403,63.8866377 122.030403,64.2583237 L122.030403,69.0504585 C122.030403,69.6633047 122.067308,70.1416018 122.14179,70.4853499 C122.215825,70.8288745 122.350921,71.0979725 122.54596,71.2928674 C122.741224,71.4882093 123.015219,71.6274519 123.368616,71.7108186 C123.721343,71.7948559 124.177181,71.8641419 124.734788,71.9200177 C124.846399,71.9390155 124.934301,71.9942208 124.999836,72.0874217 C125.0647,72.1803991 125.097356,72.2823166 125.097356,72.3938448 C125.097356,72.5051494 125.0647,72.6072905 124.999836,72.7000443 C124.934301,72.7927982 124.836781,72.8392869 124.707053,72.8392869 C123.963353,72.8392869 123.252308,72.8019619 122.574143,72.7277588 C121.895307,72.6540027 121.221615,72.6164541 120.552396,72.6164541 C119.845825,72.6164541 119.116663,72.6540027 118.363569,72.7277588 C117.610922,72.8019619 116.927836,72.8392869 116.314534,72.8392869 C116.202923,72.8392869 116.119271,72.7927982 116.063577,72.7000443 C116.00766,72.6072905 115.979701,72.5051494 115.979701,72.3938448 C115.979701,72.2823166 116.00766,72.1803991 116.063577,72.0874217 C116.119271,71.9942208 116.202923,71.9390155 116.314534,71.9200177 C116.890259,71.8641419 117.35057,71.7948559 117.694574,71.7108186 C118.038353,71.6274519 118.307875,71.4882093 118.503138,71.2928674 C118.698178,71.0979725 118.82813,70.8288745 118.893441,70.4853499 C118.958529,70.1416018 118.990961,69.6633047 118.990961,69.0504585 L118.990961,58.128745 C118.990961,57.5530004 118.958529,57.0606226 118.893441,56.651835 C118.82813,56.2434945 118.702651,55.909357 118.517006,55.6489756 C118.331137,55.3888177 118.066088,55.1890058 117.722309,55.0497632 C117.378305,54.9105206 116.918218,54.8222368 116.342269,54.7851353 C116.230658,54.7851353 116.147006,54.7341765 116.091312,54.6320355 C116.035619,54.529671 116.00766,54.4230599 116.00766,54.3113082 C116.00766,54.2002271 116.035619,54.0978625 116.091312,54.0048851 C116.147006,53.9125783 116.230658,53.8656426 116.342269,53.8656426 C116.936782,53.8656426 117.615171,53.8935805 118.37766,53.9496798 C119.139701,54.0048851 119.855443,54.0328231 120.524661,54.0328231 C120.914964,54.0328231 121.281782,54.0236594 121.626009,54.0048851 C121.969788,53.9867814 122.304398,53.9677836 122.629613,53.9496798 C122.954604,53.931129 123.284964,53.9125783 123.619573,53.8935805 C123.954182,53.8754767 124.31675,53.8656426 124.707053,53.8656426 C124.81844,53.8656426 124.897172,53.9125783 124.943919,54.0048851 C124.989995,54.0978625 125.008783,54.2002271 124.999836,54.3113082 C124.989995,54.4230599 124.957786,54.529671 124.902316,54.6320355 C124.846399,54.7341765 124.771917,54.7851353 124.679094,54.7851353 C124.102699,54.8222368 123.637914,54.901357 123.284964,55.0218253 C122.931566,55.1429641 122.661821,55.3282483 122.476399,55.5792426 C122.290307,55.8302368 122.169749,56.1599042 122.113831,56.5682448 C122.058138,56.9774794 122.030403,57.4973481 122.030403,58.128745 L122.030403,61.9177969 C122.030403,62.2894829 122.234613,62.4749907 122.643704,62.4749907 L130.95257,62.4749907 Z" id="Fill-13"></path>
                <path d="M142.188977,56.9584145 C141.723968,56.9584145 141.324719,56.8147019 140.99011,56.5266061 C140.6555,56.2389573 140.488196,55.881352 140.488196,55.4535667 C140.488196,55.0266753 140.645883,54.6645999 140.962151,54.3673405 C141.277972,54.0703046 141.668275,53.9216749 142.13306,53.9216749 C142.57928,53.9216749 142.946097,54.0747746 143.234407,54.3814212 C143.522493,54.6876208 143.66676,55.0546132 143.66676,55.4815046 C143.66676,55.8902922 143.52719,56.2389573 143.248498,56.5266061 C142.969583,56.8147019 142.616409,56.9584145 142.188977,56.9584145 L142.188977,56.9584145 Z M143.66676,69.3011622 C143.66676,69.7653786 143.67593,70.1556154 143.694495,70.4712021 C143.712836,70.7874593 143.778147,71.0473937 143.889758,71.2512287 C144.001369,71.4561813 144.173147,71.6135276 144.405539,71.7248323 C144.637708,71.8363604 144.96762,71.9201742 145.3955,71.9758265 C145.507111,71.9941538 145.590539,72.0453361 145.646457,72.1289263 C145.70215,72.21274 145.729885,72.309964 145.729885,72.4214922 C145.729885,72.514693 145.70215,72.6025298 145.646457,72.6865671 C145.590539,72.7697103 145.507111,72.811729 145.3955,72.811729 C145.06089,72.811729 144.624064,72.778874 144.085021,72.714058 C143.545531,72.6494655 142.997541,72.6163871 142.439934,72.6163871 C141.84475,72.6163871 141.264104,72.6494655 140.697326,72.714058 C140.130101,72.778874 139.586361,72.811729 139.066106,72.811729 C138.97306,72.811729 138.898802,72.7697103 138.843108,72.6865671 C138.787191,72.6025298 138.759456,72.514693 138.759456,72.4214922 C138.759456,72.309964 138.787191,72.21274 138.843108,72.1289263 C138.898802,72.0453361 138.982454,71.9941538 139.094065,71.9758265 C139.577191,71.9201742 139.953626,71.8363604 140.223148,71.7248323 C140.492445,71.6135276 140.687485,71.4602043 140.808714,71.2653094 C140.929495,71.0704145 140.999056,70.829031 141.017845,70.5409352 C141.036185,70.2528394 141.045803,69.8956811 141.045803,69.4683427 L141.045803,64.9828545 C141.045803,64.1842771 141.027015,63.543046 140.99011,63.0600553 C140.952533,62.5772882 140.868881,62.2105192 140.739153,61.959525 C140.608753,61.7085307 140.41349,61.5371037 140.153586,61.4441263 C139.893012,61.3513724 139.540285,61.2767223 139.094065,61.22107 C138.982454,61.22107 138.898802,61.1750283 138.843108,61.0818274 C138.787191,60.9890735 138.759456,60.8963196 138.759456,60.8033423 C138.759456,60.7105884 138.787191,60.6178345 138.843108,60.5246336 C138.898802,60.4321032 138.982454,60.384944 139.094065,60.384944 C139.279487,60.3668403 139.507406,60.3482895 139.777151,60.3297387 C140.046449,60.3111879 140.330062,60.2877201 140.627542,60.2597822 C140.924574,60.2322913 141.226975,60.1951897 141.533626,60.1484775 C141.840276,60.1024358 142.114495,60.0512536 142.356282,59.9951542 C142.560492,59.9582762 142.722875,59.9164811 142.844328,59.8699924 C142.964886,59.8237272 143.062405,59.8000358 143.136887,59.8000358 C143.360109,59.8000358 143.503705,59.8655223 143.56924,59.9951542 C143.634104,60.1254567 143.66676,60.2457015 143.66676,60.3574531 L143.66676,69.3011622 Z" id="Fill-15"></path>
                <path d="M149.800711,73.0342712 C149.428525,73.0342712 149.103534,72.9135794 148.824842,72.6724193 C148.545926,72.4310357 148.40658,72.1243892 148.40658,71.7527031 C148.40658,71.4185657 148.532059,71.1121426 148.783016,70.833434 C149.033973,70.5545018 149.354491,70.4152592 149.744794,70.4152592 C150.116532,70.4152592 150.451141,70.531481 150.748621,70.7639244 C151.045878,70.9961444 151.194842,71.3070375 151.194842,71.6970508 C151.194842,72.0501861 151.064666,72.3613027 150.804315,72.6304007 C150.543964,72.8994987 150.209355,73.0342712 149.800711,73.0342712 M150.163279,67.741042 C150.163279,67.8342428 150.111835,67.8988353 150.009842,67.9354898 C149.907401,67.9734854 149.800711,67.9915892 149.6891,67.9915892 C149.577713,67.9915892 149.470351,67.9734854 149.368582,67.9354898 C149.266141,67.8988353 149.215145,67.8342428 149.215145,67.741042 C149.215145,66.4404761 149.201054,65.3444158 149.173319,64.452861 C149.14536,63.5615298 149.108007,62.7955839 149.061708,62.1543528 C149.015184,61.5135688 148.95457,60.9469878 148.880535,60.455057 C148.806054,59.9631262 148.731572,59.4566677 148.657537,58.9363519 C148.564267,58.4538082 148.452656,57.9194118 148.322928,57.3342801 C148.192752,56.7491484 148.127665,56.2250331 148.127665,55.7601462 C148.127665,55.2590517 148.253143,54.8317133 148.504324,54.4785781 C148.755281,54.1258898 149.168622,53.9495457 149.744794,53.9495457 C150.376659,53.9495457 150.818406,54.1209728 151.069363,54.4647209 C151.32032,54.8086925 151.445798,55.2405009 151.445798,55.7601462 C151.445798,55.9648752 151.42209,56.2109524 151.376237,56.4986012 C151.329267,56.7869204 151.273573,57.0745692 151.208709,57.362218 C151.143398,57.6507608 151.07831,57.9381861 151.013446,58.2258349 C150.948358,58.5143776 150.897138,58.7600078 150.860232,58.9642898 C150.766962,59.4846056 150.67906,59.9910641 150.595408,60.4832184 C150.511532,60.9751493 150.437274,61.5412832 150.372186,62.1825142 C150.306874,62.8230748 150.255878,63.5849976 150.218749,64.4669417 C150.18162,65.3495564 150.163279,66.4404761 150.163279,67.741042" id="Fill-17"></path>
                <path d="M108.972792,7.88461623 C108.972792,7.88461623 108.594343,7.72212931 107.88464,7.41704727 C107.529901,7.264618 107.092404,7.0764282 106.577741,6.85515991 C106.058381,6.6459608 105.450448,6.42938608 104.772282,6.17749783 C104.432529,6.05345348 104.074211,5.92248053 103.69867,5.78524949 C103.318879,5.66254616 102.921196,5.53403175 102.50696,5.40015326 C101.678936,5.12814971 100.780233,4.84094794 99.8066008,4.58369561 C98.8365471,4.31325659 97.8047607,4.01756169 96.7034132,3.76455592 C96.1538578,3.63268896 95.5899875,3.49769295 95.0126971,3.35934439 C94.433841,3.22837144 93.837986,3.11326723 93.2311713,2.98519982 C92.6234619,2.86227299 92.004569,2.72548896 91.3706902,2.60658519 C90.7356931,2.492822 90.0888416,2.37682377 89.4308066,2.25881401 C88.1163022,2.00692576 86.7449858,1.83505171 85.3401191,1.61780647 C83.9332393,1.41955902 82.4838624,1.24656745 81.0022771,1.06731778 C80.2601424,0.991773659 79.5099556,0.915335521 78.7528351,0.838226874 C77.9954909,0.758212683 77.2296473,0.694067228 76.45687,0.636626874 C75.6843163,0.575833969 74.9052762,0.514594058 74.1206443,0.45290714 C73.3351178,0.405300931 72.5439996,0.35747122 71.7481843,0.309194501 C70.15633,0.198783858 68.5427798,0.155424213 66.9167042,0.0932902882 C63.6641055,0.0141701109 60.3580499,-0.0329890909 57.0533363,0.0275803104 C53.748399,0.0818916186 50.4459221,0.231638847 47.1986915,0.425863237 C46.3872193,0.480174545 45.5788785,0.534038847 44.7745638,0.587679645 C43.9702491,0.641320443 43.1721971,0.724910687 42.3777238,0.791067672 C40.7887772,0.921370111 39.2228686,1.09346767 37.6822346,1.25550758 C36.9112466,1.3303812 36.1496527,1.43475725 35.3940979,1.52393508 C34.6389904,1.61780647 33.8901456,1.70162022 33.1522607,1.81113685 C31.6769381,2.03128763 30.2311399,2.22260647 28.8311939,2.46577809 C26.0241444,2.90049206 23.3904386,3.43935858 20.9681003,3.96347388 C19.7578258,4.23100736 18.6030214,4.51329206 17.5054762,4.77859051 C16.4150885,5.07786146 15.3770393,5.34204239 14.4105644,5.62544461 C13.4476681,5.92292754 12.5388998,6.17034572 11.7146785,6.45486545 C10.8906809,6.74050271 10.1306527,6.9885914 9.45226377,7.2375741 C8.77879557,7.49840248 8.17734888,7.73129295 7.65396276,7.93401047 C7.13102398,8.13538696 6.7013553,8.34726812 6.34594481,8.49790936 C5.63959723,8.81081401 5.26271449,8.97732399 5.26271449,8.97732399 C5.26271449,8.97732399 5.65078069,8.83897543 6.37837686,8.57948807 C6.74407613,8.45566723 7.18492828,8.27731157 7.72083988,8.11549517 C8.25406744,7.94898519 8.86714494,7.75744284 9.55380962,7.54287965 C10.242711,7.33725659 11.0141464,7.13699761 11.8479854,6.90410714 C12.6836139,6.67702776 13.5979739,6.46782865 14.5675802,6.22421002 C15.5407652,5.99199007 16.5857481,5.78189694 17.6808329,5.54028984 C18.7844171,5.33176124 19.9387743,5.08926013 21.1510618,4.87424993 C22.3660333,4.67175592 23.625515,4.43305437 24.9409141,4.24911113 C25.5967124,4.14831113 26.2636942,4.0454996 26.9407411,3.94134705 C27.6200247,3.84904018 28.3093734,3.75539228 29.0083399,3.66040337 C31.8037586,3.2795537 34.7635742,2.96977809 37.8265013,2.67274217 C40.8909941,2.38375237 44.0648612,2.17567078 47.2906195,1.98524594 C50.5172726,1.81024284 53.7985009,1.68306945 57.0808476,1.64417987 C60.3627469,1.56505969 63.645541,1.59322111 66.8757727,1.6533435 C70.1044388,1.75213197 73.2841212,1.83393419 76.3530874,2.05386146 C77.8901427,2.13141712 79.394095,2.28965747 80.8718779,2.38866945 C82.3454111,2.52411246 83.788749,2.65486191 85.1895897,2.81153774 C86.5884173,2.9838588 87.9536946,3.12667743 89.2650676,3.32358386 C89.922208,3.41477322 90.5681648,3.50417455 91.2024909,3.59201135 C91.8356987,3.68476523 92.4534732,3.79606989 93.0611826,3.89418785 C93.6675501,3.99722288 94.2638524,4.08796523 94.8427085,4.19524683 C95.4208935,4.307222 95.9854348,4.41673863 96.5358849,4.52357322 C97.6417058,4.71958563 98.6777419,4.96052222 99.6538347,5.18044949 C100.140763,5.29421268 100.617626,5.38562554 101.068319,5.50810537 C101.520802,5.62544461 101.956734,5.73853729 102.37589,5.84738341 C102.795717,5.95511202 103.198322,6.05859406 103.583033,6.15738253 C103.963047,6.27047521 104.325391,6.37842732 104.669395,6.48056834 C105.358296,6.68797942 105.973163,6.87326368 106.50818,7.03440958 C107.037605,7.2170118 107.487851,7.37234661 107.853103,7.49840248 C108.583383,7.75029073 108.972792,7.88461623 108.972792,7.88461623" id="Fill-19"></path>
                <path d="M111.818446,10.7054741 C111.818446,10.7054741 111.904335,10.8786891 112.065154,11.203663 C112.239168,11.5232727 112.433984,12.0192266 112.697243,12.6309552 C112.813775,12.9452009 112.942832,13.2931956 113.083296,13.6722572 C113.20117,14.0595885 113.353265,14.4672585 113.484111,14.9144887 C113.606682,15.3648479 113.760567,15.8342049 113.874191,16.34491 C113.937489,16.5976922 114.002353,16.8571796 114.068783,17.122478 C114.127161,17.3900115 114.18688,17.6638031 114.247942,17.9431823 C114.491518,19.0602519 114.684321,20.2848266 114.864598,21.5793579 C115.0366,22.8763477 115.141277,24.2515636 115.228061,25.6725978 C115.289794,27.09542 115.307911,28.5667424 115.249086,30.05818 C115.244389,30.4314306 115.223811,30.8051282 115.197194,31.1797197 C115.171696,31.5543113 115.155145,31.9309144 115.122042,32.3064 C115.043534,33.0564772 114.98359,33.8114714 114.865269,34.5588665 C114.686334,36.0612559 114.396906,37.5468825 114.045745,38.9904905 C113.686085,40.4325339 113.264916,41.8327823 112.771054,43.158604 C112.516071,43.8172683 112.244536,44.4580523 111.974344,45.0825206 C111.679324,45.6944727 111.422104,46.3129064 111.096889,46.8741233 C110.942334,47.159537 110.789568,47.4411512 110.639486,47.7185188 C110.482917,47.9923104 110.308679,48.2493392 110.153452,48.5130732 C109.99241,48.7730075 109.842552,49.0349534 109.679944,49.2814776 C109.510403,49.5233082 109.344217,49.7608922 109.181162,49.9933357 C109.015199,50.2239911 108.864446,50.4600106 108.695352,50.6732328 C108.52514,50.886008 108.358954,51.0938661 108.197017,51.2965836 C108.035975,51.5013126 107.879183,51.7009011 107.726864,51.8946785 C107.561573,52.0777277 107.400978,52.2551894 107.245304,52.4275104 C106.635805,53.1319929 106.043977,53.6889632 105.563535,54.1605552 C105.080186,54.6283477 104.663713,54.9562271 104.395534,55.2007397 C104.121763,55.4394412 103.975707,55.5666146 103.975707,55.5666146 C103.975707,55.5666146 104.139656,55.4642501 104.446978,55.2720373 C104.60131,55.1757073 104.791429,55.0568035 105.015098,54.9168905 C105.238767,54.7760834 105.502697,54.6218661 105.767969,54.4093144 C106.040621,54.2045854 106.342351,53.9777295 106.670922,53.7307583 C106.753232,53.6686244 106.837331,53.6053729 106.922997,53.540557 C107.00307,53.4697064 107.084486,53.3972914 107.167467,53.3237588 C107.333877,53.1760231 107.506103,53.0226998 107.68392,52.8646829 C107.862184,52.7057721 108.046264,52.5419441 108.235712,52.3731991 C108.413082,52.1919379 108.595596,52.0055361 108.782807,51.8142173 C108.9689,51.6208869 109.159913,51.4226395 109.3554,51.2196984 C109.548874,51.0142989 109.724455,50.7858785 109.916139,50.5619282 C110.105363,50.3355193 110.298614,50.1041933 110.495443,49.8686208 C110.685561,49.6276843 110.863602,49.3711024 111.053721,49.1154146 C111.240932,48.8579388 111.433735,48.5966634 111.615578,48.3228718 C111.789817,48.0439397 111.966739,47.760761 112.145898,47.4735592 C112.521215,46.9072018 112.828537,46.2831805 113.175895,45.6609472 C113.355278,45.3520656 113.48948,45.0181517 113.645601,44.6902723 C113.792999,44.3585933 113.960751,44.030714 114.095176,43.6867424 C114.363803,42.9990226 114.662625,42.3068328 114.891886,41.581788 C115.010878,41.2208302 115.145527,40.8614368 115.253559,40.4926563 C115.355552,40.1220878 115.457769,39.7497313 115.560657,39.3760337 C115.944921,37.8745384 116.267452,36.3308009 116.469202,34.7714182 C116.582155,33.9929561 116.635388,33.2089064 116.706962,32.4299973 C116.736486,32.039984 116.749236,31.6499707 116.770932,31.2617455 C116.793298,30.8732967 116.80985,30.4859654 116.810297,30.0997517 C116.814771,29.7137614 116.819468,29.3295592 116.823941,28.9469215 C116.811416,28.5647308 116.79889,28.1843282 116.786365,27.806384 C116.77876,27.4282164 116.753262,27.0534013 116.726645,26.6812683 C116.699134,26.3091353 116.68124,25.9394608 116.646571,25.5740328 C116.518185,24.1112035 116.308607,22.7064851 116.053177,21.3869215 C115.998154,21.0554661 115.917857,20.7331743 115.851203,20.4135645 C115.778735,20.0952958 115.721699,19.7790386 115.63581,19.47418 C115.470742,18.863122 115.324462,18.2710616 115.144185,17.7125268 C114.820088,16.5865171 114.42643,15.5829871 114.063639,14.7048426 C113.879782,14.2665525 113.687203,13.8640231 113.513412,13.4921135 C113.321728,13.1286971 113.145476,12.7947831 112.986447,12.4928302 C112.64222,11.8998758 112.357042,11.4490696 112.140083,11.1589623 C111.930281,10.8630439 111.818446,10.7054741 111.818446,10.7054741" id="Fill-21"></path>
                <path d="M100.363068,55.5665252 C100.363068,55.5665252 100.164897,55.5678663 99.7936056,55.5701013 C99.4223146,55.5743478 98.8765616,55.5712188 98.1843051,55.58597 C97.492496,55.5953572 96.6526179,55.6067558 95.6890506,55.6194955 C94.7261544,55.6351408 93.639569,55.652574 92.4543455,55.6715718 C91.2700167,55.6943691 89.9870497,55.7189545 88.6298245,55.7451044 C87.2737177,55.7806414 85.8422343,55.788911 84.3635567,55.8389758 C82.8844317,55.8725013 81.3560995,55.9071443 79.80294,55.9424578 C78.2504516,55.9862645 76.6731358,56.02426 75.09582,56.0501864 C73.5187279,56.1033802 71.9418595,56.1299771 70.389371,56.1690902 C68.8371062,56.1822769 67.3094451,56.2524569 65.8309911,56.2705607 C62.8729649,56.3275541 60.112215,56.3805243 57.7460177,56.4258955 C56.5616888,56.4437758 55.4759981,56.459868 54.5137729,56.4741722 C53.5511003,56.4840064 52.7103275,56.5076977 52.0189657,56.5052392 C51.3271567,56.5054627 50.7820746,56.5235665 50.4107836,56.52826 C50.0390453,56.5351886 49.8408743,56.5387647 49.8408743,56.5387647 C49.8408743,56.5387647 50.0370323,56.5655851 50.4049682,56.6158733 C50.7731279,56.6637031 51.3123945,56.7455053 52.0010722,56.826637 C52.6895262,56.9169323 53.5264967,57.0085687 54.4884983,57.0926059 C54.9693872,57.1375301 55.4813662,57.1853598 56.0208565,57.2356481 C56.5607941,57.2825838 57.1289141,57.3125332 57.7218614,57.3545518 C58.3148086,57.3941119 58.9328069,57.43546 59.5720537,57.4779257 C60.2119715,57.5060871 60.8733615,57.5351425 61.5533161,57.5648685 C62.9136727,57.6287904 64.3485111,57.6734911 65.8332278,57.6951709 C66.5753625,57.7047816 67.3300226,57.7146157 68.0940769,57.7244498 C68.8579075,57.7340605 69.6311322,57.7394246 70.410396,57.7311549 C71.9684762,57.7096986 73.5522783,57.7047816 75.1347385,57.6665625 C76.7171986,57.6214148 78.2989878,57.564645 79.855726,57.502064 C80.6343187,57.4774787 81.4062014,57.4347895 82.1684663,57.3889714 C82.9307312,57.3447177 83.6838257,57.301358 84.4246184,57.2586689 C85.9057563,57.1697146 87.3363451,57.061092 88.6920046,56.9464348 C89.3699461,56.8887709 90.0295469,56.8418352 90.6667806,56.7794778 C91.3037907,56.7157793 91.9193286,56.6538689 92.5100392,56.5946405 C93.6921313,56.4849004 94.7733486,56.3461048 95.7315478,56.2341297 C96.6901943,56.1208135 97.5242571,55.9981102 98.2106981,55.9049093 C98.8969155,55.8096969 99.4337217,55.7131434 99.800763,55.6570441 C100.167581,55.5980392 100.363068,55.5665252 100.363068,55.5665252" id="Fill-23"></path>
                <path d="M56.5615994,69.749644 C56.5615994,69.749644 56.3645467,69.5862631 56.0075705,69.3238702 C55.8248327,69.1978143 55.6199517,69.0241522 55.3808492,68.842891 C55.1399574,68.6645353 54.8822904,68.441479 54.5955464,68.2112706 C54.450385,68.0986249 54.3081314,67.970334 54.16297,67.8364555 C54.0193743,67.700789 53.8569904,67.5792032 53.710487,67.4305735 C53.560405,67.2877549 53.4058495,67.1409132 53.2481626,66.9909424 C53.0978569,66.8353841 52.9444198,66.6764733 52.7882986,66.5148804 C52.6395585,66.3481469 52.4883581,66.1787314 52.3351446,66.0073043 C52.1906543,65.8300662 52.0441509,65.65104 51.8965292,65.4702258 C51.7589726,65.28293 51.6202976,65.0942932 51.4811753,64.9047624 C51.3541312,64.7076325 51.2132195,64.5181016 51.0960168,64.3142666 C50.8466256,63.9157602 50.6211669,63.5025025 50.4221013,63.0843278 C50.3176477,62.8773637 50.2362321,62.66213 50.1393833,62.4556129 C50.0608754,62.2423908 49.9700657,62.0354267 49.9007282,61.8244396 C49.6007877,60.9874196 49.4131292,60.1678329 49.284743,59.4501637 C49.2317334,59.0907704 49.1789474,58.7570799 49.1505414,58.458703 C49.1234774,58.160326 49.0986502,57.8968156 49.089256,57.6788999 C49.0657708,57.2426214 49.0700205,56.9867101 49.0700205,56.9867101 C49.0700205,56.9867101 48.9552781,57.2169185 48.8331547,57.6491739 C48.7090183,58.0800883 48.5761587,58.7146143 48.542161,59.4919588 C48.5238201,59.8804076 48.5265041,60.3043934 48.5654226,60.7520706 C48.6123931,61.1977362 48.6754679,61.6708928 48.7987097,62.1487429 C48.913452,62.6281575 49.0702442,63.1169593 49.2742305,63.5950329 C49.4701648,64.0773531 49.7213454,64.5446985 49.995564,64.9959518 C50.1315549,65.2225841 50.2912548,65.4335713 50.4377581,65.6517105 C50.594774,65.8620271 50.7618549,66.0638506 50.9255808,66.2641096 C51.2653345,66.6552404 51.626113,67.0141868 51.9931543,67.3384901 C52.1819312,67.4933779 52.3675767,67.6458072 52.5494198,67.7951074 C52.7404334,67.9307739 52.9271972,68.0635349 53.1090403,68.1924963 C53.481226,68.4361149 53.8402152,68.6542542 54.1851133,68.8267988 C54.3575623,68.9137416 54.5192752,69.0009078 54.6778567,69.0757815 C54.8357672,69.1511021 54.9945724,69.210107 55.1379444,69.2715704 C55.4260304,69.3949442 55.6794477,69.4890391 55.8912625,69.5520671 C56.3135501,69.6863925 56.5615994,69.749644 56.5615994,69.749644" id="Fill-25"></path>
                <path d="M36.9618853,56.2765059 C36.9618853,56.2765059 36.9728451,56.3759649 36.9936464,56.5628137 C37.0218287,56.7485449 37.0341305,57.0227835 37.1173355,57.3676491 C37.1560303,57.5395232 37.1877913,57.7368766 37.2443796,57.9427232 C37.2996259,58.1487933 37.3680687,58.3696145 37.4380772,58.6078691 C37.5230715,58.8412066 37.6136576,59.0890718 37.7089407,59.3507941 C37.8201043,59.6058114 37.9406621,59.8737919 38.0737453,60.150042 C38.3535556,60.6942726 38.67385,61.2825334 39.0892038,61.8520199 C39.4889008,62.432905 39.9563696,63.0142372 40.4862422,63.571431 C41.0129833,64.1319773 41.5945234,64.6746434 42.2174424,65.186913 C42.8443874,65.6938185 43.5133822,66.1665281 44.2022836,66.6059356 C44.8999081,67.0303684 45.6096107,67.43558 46.3363122,67.776646 C47.0589876,68.1250877 47.7921755,68.4196651 48.5106013,68.6742354 C49.2252246,68.9395338 49.9369403,69.1353227 50.6137635,69.3018327 C51.2903631,69.4708012 51.9392276,69.590599 52.5413453,69.6715072 C53.14145,69.7626966 53.6972682,69.8042682 54.1886696,69.8281831 C54.680071,69.8520979 55.1086213,69.8512039 55.4609005,69.8348882 C55.8122849,69.8295241 56.0880691,69.7959986 56.2752803,69.7794593 C56.4620442,69.7600145 56.561577,69.7497334 56.561577,69.7497334 C56.561577,69.7497334 56.4624915,69.7340882 56.276846,69.7050327 C56.0912005,69.6802239 55.8201133,69.6384287 55.4778993,69.5778593 C55.135238,69.524442 54.7232392,69.4339232 54.2535337,69.3371463 C53.7844992,69.2316527 53.2599947,69.1006797 52.6934405,68.9442274 C52.4102751,68.8648837 52.1165974,68.780176 51.8164332,68.679376 C51.5140323,68.5870691 51.2042504,68.4838106 50.8870874,68.3751879 C50.2538796,68.1536961 49.5967393,67.8946558 48.9248368,67.6123711 C48.2495792,67.336568 47.5783477,66.9943844 46.8966037,66.6528713 C46.2182148,66.3033121 45.547207,65.9170984 44.8902903,65.5096518 C44.2347156,65.0999702 43.6019552,64.6576571 42.9942458,64.2023808 C42.3995092,63.7325769 41.8108116,63.270372 41.2914516,62.7683835 C40.7734335,62.266842 40.2764404,61.7737937 39.8523634,61.2648766 C39.419116,60.7624412 39.048496,60.2562061 38.7145578,59.7794735 C38.5584366,59.5336199 38.4088019,59.2982709 38.2663246,59.074097 C38.1345834,58.8423241 38.0095522,58.6223968 37.8921259,58.4156562 C37.6827714,57.9885414 37.4904158,57.6164083 37.363819,57.2974691 C37.221118,56.9838939 37.1327687,56.719266 37.0654442,56.5451569 C36.9978961,56.3699303 36.9618853,56.2765059 36.9618853,56.2765059" id="Fill-27"></path>
                <path d="M3.87762011,10.7054741 C3.87762011,10.7054741 3.80917731,10.9504337 3.68079114,11.41018 C3.54457655,11.8672443 3.34439254,12.5375308 3.09008057,13.3908665 C2.83912364,14.2453197 2.52867068,15.2825987 2.21329699,16.4850466 C1.89367359,17.6863769 1.54698621,19.0479592 1.23809893,20.5510191 C0.920264885,22.0518439 0.619429704,23.6907938 0.402694172,25.4428364 C0.181037915,27.1930909 0.0128386167,29.0553206 0.00165515267,30.9926475 C-0.0135543584,32.9279627 0.0756896843,34.9426217 0.404483526,36.9686794 C0.730369667,38.992502 1.25599247,41.0344284 2.06232023,42.9818129 C2.46268824,43.9558404 2.95185296,44.8952248 3.49447463,45.7966137 C4.03217558,46.7018022 4.65218682,47.5540204 5.32274732,48.3505863 C6.65111918,49.9613747 8.26601138,51.2646226 9.92272973,52.3262634 C11.5890659,53.3843282 13.3441987,54.1370874 15.0364805,54.7034448 C16.7307753,55.2738253 18.3785469,55.6309836 19.9039714,55.8786253 C21.4327509,56.1068222 22.8391833,56.2482998 24.0879289,56.2934475 C24.7110715,56.3339016 25.2952957,56.3383716 25.8345623,56.3428417 C26.3738289,56.3546874 26.8690327,56.3390421 27.315924,56.3280905 C28.2092591,56.3204914 28.9095676,56.2581339 29.3864305,56.2299725 C29.8630697,56.1989055 30.117158,56.1823663 30.117158,56.1823663 C30.117158,56.1823663 29.862846,56.1682856 29.3857595,56.1421357 C28.9091202,56.1175503 28.2103774,56.0797783 27.3246471,56.0064692 C26.8815582,55.9731672 26.3912751,55.9396417 25.8600606,55.8748257 C25.3288461,55.8122448 24.7531213,55.7700027 24.1431752,55.6768018 C23.8380903,55.6354537 23.523164,55.592541 23.1990672,55.5487344 C22.8769834,55.4937525 22.5457292,55.4372062 22.2055282,55.3790953 C21.5240079,55.2738253 20.8176604,55.1149144 20.0788807,54.9660612 C18.6107156,54.6254421 17.0430176,54.1770945 15.4455716,53.5669304 C13.8517043,52.9496142 12.2341281,52.1514838 10.6995331,51.1314146 C9.17075362,50.1026288 7.74419095,48.8326829 6.52385136,47.3506324 C5.91278688,46.6108364 5.34846929,45.8211991 4.85997558,44.9797091 C4.36589014,44.1426891 3.92257763,43.2681206 3.55553634,42.3591326 C2.78835071,40.5545667 2.27324036,38.6371317 1.9453412,36.7150031 C1.6263888,34.790416 1.45036108,32.8626998 1.42352077,30.9872834 C1.39623311,29.1125375 1.4604262,27.2914324 1.60044317,25.5671042 C1.74448618,23.8434466 1.93371039,22.2132133 2.14932758,20.7119415 C2.58525901,17.7093978 3.07352904,15.2162182 3.40142821,13.4657401 C3.73737947,11.7163796 3.87762011,10.7054741 3.87762011,10.7054741" id="Fill-29"></path>
                <path d="M121.526565,32.8500495 C121.526565,32.8500495 121.898975,32.7879156 122.597047,32.6714703 C122.945523,32.6102304 123.377652,32.547426 123.886053,32.4718819 C124.394006,32.3905267 124.980019,32.3174411 125.636936,32.2378739 C128.262366,31.9256397 132.047745,31.5910553 136.605454,31.7640468 C138.882407,31.845849 141.350821,32.0508016 143.938227,32.4649533 C146.522278,32.885363 149.236952,33.4707182 151.963705,34.3703191 C154.688891,35.2650029 157.446062,36.4158216 160.07686,37.9211165 C162.704975,39.4246233 165.210965,41.2691963 167.408292,43.4510357 C169.61054,45.6261701 171.457377,48.1687439 172.84189,50.892579 C174.2226,53.6206606 175.094463,56.5440841 175.473135,59.4205719 C175.665044,60.8590393 175.742209,62.2854375 175.722303,63.6774162 C175.717159,64.0254109 175.711119,64.3716176 175.686292,64.7146952 L175.65632,65.2283058 L175.648939,65.3559262 L175.636414,65.4918162 L175.613152,65.7403519 C175.586088,66.0630907 175.535092,66.4278482 175.488569,66.7593036 C175.437572,67.0938881 175.382773,67.42512 175.316567,67.7516584 C175.063821,69.0604938 174.695214,70.3018313 174.269571,71.4741063 C173.834311,72.6439227 173.316963,73.7352894 172.755106,74.7446304 C172.191683,75.7533009 171.576145,76.6770402 170.928399,77.506461 C170.277298,78.3338703 169.591752,79.0629382 168.903969,79.6979111 C168.216186,80.3331076 167.526166,80.8768912 166.849566,81.3192043 C166.518983,81.5514242 166.176098,81.7351439 165.861619,81.9282508 C165.532825,82.0981133 165.227964,82.274234 164.923103,82.411018 C163.715289,82.983857 162.70654,83.2759759 162.017639,83.4424859 C161.67453,83.5327812 161.404338,83.5721178 161.226073,83.6127954 C161.047138,83.6487794 160.954539,83.6675537 160.954539,83.6675537 C160.954539,83.6675537 161.045125,83.6409568 161.220705,83.589551 C161.394944,83.5338987 161.659097,83.4719883 161.991693,83.3530845 C162.661135,83.1320397 163.625597,82.747167 164.766758,82.1110765 C165.054173,81.9568592 165.339799,81.7630819 165.646897,81.5762331 C165.93968,81.3659165 166.258185,81.165434 166.562599,80.9173453 C167.188425,80.4462003 167.825659,79.8856539 168.450591,79.2343652 C169.70135,77.9346934 170.90894,76.2731697 171.899348,74.2920362 C172.883045,72.3113497 173.678637,70.0202171 174.086162,67.5317311 C174.138724,67.221285 174.179656,66.9074863 174.217232,66.5914526 C174.250335,66.2713958 174.284109,65.980171 174.301556,65.6395519 C174.339803,64.9963094 174.353447,64.333622 174.34875,63.6707111 C174.342934,62.3422074 174.244073,60.9871067 174.036955,59.626642 C173.625403,56.9048184 172.745041,54.1731608 171.441944,51.6037666 C170.124308,49.0392894 168.353295,46.6623315 166.269592,44.5913497 C164.196625,42.5069577 161.814323,40.7276477 159.297149,39.2675005 C156.782883,37.7997541 154.148059,36.6183156 151.513682,35.705975 C148.877292,34.7981045 146.25477,34.1177604 143.733123,33.6361107 C141.209238,33.1656362 138.794057,32.8482615 136.551997,32.6741524 C134.310159,32.4998198 132.244797,32.4256167 130.412499,32.4256167 C128.579976,32.4289692 126.980517,32.482163 125.664,32.5512255 C124.347482,32.6258757 123.313459,32.6938207 122.607783,32.7561781 C121.902553,32.817418 121.526565,32.8500495 121.526565,32.8500495" id="Fill-31"></path>
                <path d="M89.0067296,59.2490331 C89.0067296,59.2490331 88.9865994,59.3196601 88.9479046,59.4562207 C88.9116702,59.5936752 88.8443457,59.7948282 88.785297,60.0625852 C88.6508718,60.5925116 88.4929613,61.3839369 88.4019279,62.3959599 C88.3106708,63.4077595 88.3104471,64.6437329 88.4828961,66.0383936 C88.6645156,67.4317133 89.0371486,68.9783564 89.6397137,70.5922739 C90.2471994,72.2041799 91.09759,73.8759847 92.1723209,75.5285683 C93.2515252,77.1795874 94.5740816,78.7968575 96.0818363,80.3296433 C97.5904856,81.8644406 99.3225805,83.2725116 101.181943,84.5525151 C103.046003,85.8276016 105.066631,86.9370721 107.173596,87.8456131 C109.273403,88.7711404 111.463796,89.4928326 113.667386,90.0019732 C114.770076,90.2527439 115.872765,90.4679776 116.971205,90.6277825 C117.246318,90.6646606 117.520537,90.7013151 117.793861,90.7379697 C118.042134,90.7735067 118.34364,90.797198 118.614503,90.827371 C119.170098,90.8843643 119.72189,90.9411342 120.268985,90.9972335 C120.542309,91.0245009 120.814291,91.0517683 121.085378,91.0785887 C121.354005,91.0975865 121.621513,91.1163608 121.887903,91.1349116 C122.42046,91.1753657 122.948095,91.2153728 123.469916,91.2549329 C124.515346,91.3271244 125.54512,91.3586384 126.544698,91.4087031 C128.545419,91.4428992 130.440569,91.4661435 132.187873,91.3894819 C132.6247,91.3713781 133.052579,91.3539448 133.47084,91.3365116 C133.888431,91.3083502 134.296404,91.2806357 134.694088,91.2538153 C135.491692,91.2147023 136.242103,91.1223954 136.951805,91.0624965 C138.364277,90.897998 139.598037,90.7415457 140.604101,90.5551439 C141.612402,90.3785763 142.400836,90.2113958 142.934511,90.0806464 C143.469305,89.9519085 143.749115,89.8625071 143.749115,89.8625071 C143.749115,89.8625071 143.479817,89.9802934 142.959562,90.1637896 C142.43886,90.3441568 141.671898,90.6094553 140.672991,90.8658136 C139.677439,91.1378171 138.453968,91.4107147 137.038365,91.669308 C135.621197,91.9071156 134.014357,92.1654854 132.248264,92.3080805 C131.366336,92.405081 130.445042,92.4491111 129.491093,92.5134801 C128.53692,92.576061 127.548973,92.573379 126.532843,92.6073515 C125.517385,92.5972938 124.474638,92.6069045 123.405723,92.5758375 C122.870706,92.5537107 122.330097,92.5313604 121.784121,92.50901 C121.236578,92.4868832 120.686575,92.4580513 120.141046,92.408657 C119.592833,92.3657444 119.039922,92.3223847 118.482986,92.2785781 C118.198031,92.2539927 117.939917,92.241253 117.630135,92.20661 C117.34518,92.1753196 117.059331,92.1442526 116.772587,92.1129621 C115.626505,91.9764016 114.472148,91.7824007 113.322041,91.5231369 C111.021155,91.0110907 108.729216,90.2768823 106.527192,89.3278872 C104.331654,88.3643643 102.231399,87.1853843 100.293752,85.8381063 C98.3491718,84.4988743 96.600078,82.9502198 95.0558653,81.3190925 C93.5085212,79.6888592 92.2027399,77.9361462 91.1467973,76.1682349 C90.0843682,74.4032291 89.2941446,72.6084974 88.7604697,70.8940034 C88.2176244,69.1812974 87.9472082,67.5461471 87.8657926,66.0947165 C87.782364,64.6410508 87.901356,63.3740105 88.0827518,62.3532708 C88.2576612,61.3296255 88.5151045,60.5556335 88.701421,60.0362118 C88.7888757,59.7740424 88.8761067,59.5822765 88.926656,59.4490686 C88.9794419,59.3172016 89.0067296,59.2490331 89.0067296,59.2490331" id="Fill-34"></path>
                <path d="M146.597566,89.2103244 C146.597566,89.2103244 146.635813,89.248767 146.707387,89.3205116 C146.778514,89.3918091 146.879165,89.5022198 146.999723,89.6526375 C147.116255,89.8035023 147.256943,89.989904 147.394723,90.2185479 C147.532727,90.4467448 147.686388,90.7089142 147.817234,91.0117612 C147.956356,91.3114792 148.090334,91.6456167 148.19613,92.0108211 C148.30953,92.374014 148.4028,92.7671564 148.465651,93.1806375 C148.533423,93.5936717 148.558921,94.0288326 148.555566,94.4718162 C148.556014,94.9154703 148.498307,95.3665 148.415102,95.8123892 C148.327871,96.2582783 148.185617,96.6943333 148.013392,97.1082615 C147.838035,97.5219661 147.616379,97.9068388 147.373474,98.256398 C147.126991,98.6041692 146.853219,98.9119333 146.572067,99.1765612 C146.295165,99.4456592 146.00596,99.6673745 145.729058,99.8510943 C145.456852,100.04219 145.186883,100.181879 144.94957,100.303689 C144.710244,100.421922 144.492838,100.505512 144.317705,100.57681 C143.956255,100.700183 143.749137,100.757847 143.749137,100.757847 C143.749137,100.757847 143.92181,100.622404 144.224882,100.407394 C144.369819,100.29229 144.545847,100.152377 144.747597,99.9919014 C144.940847,99.8236034 145.156912,99.6363076 145.377002,99.4188388 C145.597093,99.2018171 145.81942,98.9541754 146.03884,98.6853009 C146.258259,98.4155324 146.457772,98.1104504 146.649009,97.7903936 C146.834208,97.4660903 146.999723,97.1194366 147.139516,96.7560202 C147.269244,96.3888043 147.392262,96.0117541 147.463389,95.6199528 C147.540555,95.2303865 147.595578,94.8343386 147.615261,94.4394082 C147.633154,94.0449249 147.639193,93.6531235 147.611906,93.2729444 C147.583947,92.8938827 147.553528,92.5233142 147.49269,92.1755431 C147.433641,91.8277719 147.369225,91.497881 147.293624,91.1961515 C147.218919,90.8937515 147.136608,90.6192894 147.05989,90.3752238 C146.977803,90.1336167 146.90265,89.921959 146.83376,89.749638 C146.760397,89.5820105 146.708505,89.4420974 146.661759,89.3520255 C146.619932,89.2597187 146.597566,89.2103244 146.597566,89.2103244" id="Fill-36"></path>
                <path d="M160.954539,84.6429222 C160.954539,84.6429222 160.963933,84.7376876 160.981603,84.9153728 C160.998154,85.0932814 161.027008,85.3518748 161.016942,85.6911528 C161.020297,85.8614624 161.014035,86.0489816 160.996365,86.2510286 C160.985405,86.4546402 160.965051,86.6750145 160.925909,86.9072344 C160.893253,87.1410189 160.855006,87.3902251 160.795063,87.6488184 C160.746079,87.9109878 160.668466,88.1787448 160.585708,88.458571 C160.511226,88.7419732 160.400063,89.0238109 160.300082,89.3237524 C160.186682,89.6169887 160.060085,89.9180477 159.918503,90.2208947 C159.638469,90.8294943 159.29961,91.45061 158.907965,92.0679262 C158.507149,92.6778668 158.067192,93.293842 157.569081,93.8762916 C157.072758,94.4600823 156.539531,95.0293453 155.966266,95.5556956 C155.393449,96.0820459 154.796029,96.5824699 154.171991,97.0263475 C153.556901,97.4818473 152.913404,97.8774482 152.278407,98.2337125 C151.642516,98.5893063 151.001256,98.8838836 150.383705,99.1348779 C150.076607,99.2640628 149.769285,99.3700034 149.475384,99.476838 C149.174772,99.5680273 148.886239,99.6580992 148.606429,99.7352078 C148.323487,99.8027058 148.057544,99.8807085 147.797641,99.9301027 C147.536842,99.9761444 147.292148,100.025092 147.059979,100.060405 C146.826469,100.089684 146.609733,100.121645 146.408207,100.141984 C146.206234,100.160311 146.01947,100.166793 145.852389,100.177968 C145.519122,100.2068 145.253403,100.184673 145.075362,100.187132 C144.896874,100.182438 144.801814,100.179979 144.801814,100.179979 C144.801814,100.179979 144.894413,100.156735 145.067757,100.113152 C145.240877,100.069569 145.495189,100.017045 145.812128,99.9238446 C145.97071,99.8780264 146.146738,99.8333258 146.335515,99.7743209 C146.523173,99.7090579 146.727383,99.6484885 146.943448,99.578979 C147.37334,99.4285612 147.85065,99.2448415 148.363748,99.0327369 C148.87349,98.810351 149.415217,98.5519812 149.976403,98.2585213 C150.536471,97.9623794 151.109064,97.6195253 151.689039,97.2485098 C152.266106,96.8728007 152.849659,96.4662482 153.418673,96.0214765 C153.990148,95.580728 154.551111,95.1075714 155.085904,94.606924 C155.630763,94.1167812 156.134466,93.5839493 156.622288,93.0537994 C157.10698,92.5198499 157.548503,91.9651147 157.964751,91.4188725 C158.364672,90.8623493 158.747594,90.3181187 159.065428,89.7741116 C159.380354,89.229434 159.665756,88.7042012 159.891662,88.2008717 C160.00797,87.9503244 160.109293,87.7058118 160.198984,87.4702393 C160.29874,87.2373488 160.375683,87.0107165 160.445467,86.7959298 C160.523975,86.5829311 160.573183,86.377755 160.628653,86.1888947 C160.687254,85.9998109 160.731093,85.8250313 160.761736,85.6658969 C160.794392,85.5063156 160.831297,85.3641675 160.85523,85.2372176 C160.875807,85.1093737 160.893477,85.000751 160.907568,84.9126907 C160.938211,84.7367936 160.954539,84.6429222 160.954539,84.6429222" id="Fill-39"></path>
            </g>
        </g>
    </g>
</svg>