<?xml version="1.0" encoding="utf-8"?>
<!-- Generator: Adobe Illustrator 19.0.0, SVG Export Plug-In . SVG Version: 6.00 Build 0)  -->
<svg version="1.1" id="Layer_1" xmlns="http://www.w3.org/2000/svg" xmlns:xlink="http://www.w3.org/1999/xlink" x="0px" y="0px"
	 viewBox="-749 1182.9 185 18" style="enable-background:new -749 1182.9 185 18;" xml:space="preserve">
<style type="text/css">
	.st0{enable-background:new    ;}
</style>
<title>BOOKCLUBZ</title>
<desc>Created with Sketch.</desc>
<g id="Page-1">
	<g id="_x30_1.-Landing_x5F_Page_x5F_Updated" transform="translate(-35.000000, -35.000000)">
		<g class="st0">
			<path d="M-704.9,1234c-1.3,0.8-2.5,0.9-4,0.9h-4.5v-16.3h4.1c2.1,0,4.1,0.6,5,2.7c0.2,0.5,0.3,1.1,0.3,1.7c0,1.5-0.7,2.4-1.8,3.3
				c1.7,0.7,2.7,2.2,2.7,4C-703,1231.7-703.6,1233.2-704.9,1234z M-706.3,1221.1c-0.8-0.9-2.2-1-3.3-1h-2.2v5.5h2
				c0.9,0,1.9,0,2.8-0.5c0.8-0.4,1.3-1.4,1.3-2.3C-705.6,1222.2-705.8,1221.7-706.3,1221.1z M-706.6,1227.5c-1-0.4-2.1-0.4-3.2-0.4
				h-2v6.3h2.3c1,0,2.1,0,3.1-0.4c1.1-0.5,1.7-1.6,1.7-2.8C-704.7,1229-705.5,1228-706.6,1227.5z"/>
			<path d="M-685.8,1235.2c-4.6,0-8.6-3.7-8.6-8.3c0-4.8,3.9-8.5,8.6-8.5c4.7,0,8.6,3.7,8.6,8.4
				C-677.2,1231.5-681.2,1235.2-685.8,1235.2z M-685.8,1219.8c-3.9,0-7,3.2-7,7c0,3.8,3.2,6.9,7,6.9c3.8,0,7-3.1,7-6.9
				C-678.8,1223-682,1219.8-685.8,1219.8z"/>
			<path d="M-659.7,1235.2c-4.6,0-8.6-3.7-8.6-8.3c0-4.8,3.9-8.5,8.6-8.5c4.7,0,8.6,3.7,8.6,8.4
				C-651,1231.5-655,1235.2-659.7,1235.2z M-659.7,1219.8c-3.9,0-7,3.2-7,7c0,3.8,3.2,6.9,7,6.9c3.8,0,7-3.1,7-6.9
				C-652.7,1223-655.8,1219.8-659.7,1219.8z"/>
			<path d="M-632.1,1234.9l-5.4-7.1l-2.1,2.6v4.5h-1.6v-16.3h1.6v9.4h0l7.5-9.4h2.1l-6.4,7.9l6.4,8.3H-632.1z"/>
			<path d="M-613.6,1235.2c-4.7,0-8.5-3.7-8.5-8.4c0-4.8,3.8-8.4,8.5-8.4c2.5,0,4.8,1.1,6.4,2.9c0.4,0.5,0.8,1,1,1.5h-1.8
				c-1.3-1.9-3.4-3-5.7-3c-3.7,0-6.8,3.3-6.8,7c0,3.7,3.2,6.9,6.9,6.9c2.4,0,4.3-1.2,5.7-3.1h1.8
				C-607.6,1233.4-610.5,1235.2-613.6,1235.2z"/>
			<path d="M-596.4,1234.9v-16.3h1.6v14.8h6.7v1.5H-596.4z"/>
			<path d="M-568.9,1232.2c-0.9,2-2.8,3-4.9,3c-2.2,0-4-1.1-4.9-3c-0.5-1-0.6-2.3-0.6-3.4v-10.1h1.6v10.1c0,0.9,0.1,2.2,0.6,2.9
				c0.7,1.3,1.9,2,3.4,2c1.5,0,2.6-0.7,3.4-2c0.4-0.8,0.6-2.1,0.6-2.9v-10.1h1.6v10.1C-568.2,1229.9-568.4,1231.2-568.9,1232.2z"/>
			<path d="M-549.4,1234c-1.3,0.8-2.5,0.9-4,0.9h-4.5v-16.3h4.1c2.1,0,4.1,0.6,5,2.7c0.2,0.5,0.3,1.1,0.3,1.7c0,1.5-0.7,2.4-1.8,3.3
				c1.7,0.7,2.7,2.2,2.7,4C-547.6,1231.7-548.2,1233.2-549.4,1234z M-550.8,1221.1c-0.8-0.9-2.2-1-3.3-1h-2.2v5.5h2
				c0.9,0,1.9,0,2.8-0.5c0.8-0.4,1.3-1.4,1.3-2.3C-550.1,1222.2-550.4,1221.7-550.8,1221.1z M-551.1,1227.5c-1-0.4-2.1-0.4-3.2-0.4
				h-2v6.3h2.3c1,0,2.1,0,3.1-0.4c1.1-0.5,1.7-1.6,1.7-2.8C-549.2,1229-550,1228-551.1,1227.5z"/>
			<path d="M-539.6,1234.9v-1.5l8-13.3h-7.8v-1.5h9.6v1.5l-8,13.3h8.2v1.5H-539.6z"/>
		</g>
	</g>
</g>
</svg>
