<?xml version="1.0" encoding="UTF-8"?>
<svg width="98px" height="117px" viewBox="0 0 98 117" version="1.1" xmlns="http://www.w3.org/2000/svg" xmlns:xlink="http://www.w3.org/1999/xlink">
    <!-- Generator: Sketch 42 (36781) - http://www.bohemiancoding.com/sketch -->
    <title>Page 1</title>
    <desc>Created with Sketch.</desc>
    <defs></defs>
    <g id="Page-1" stroke="none" stroke-width="1" fill="none" fill-rule="evenodd">
        <g id="10.My_Club_Meeting_No_Data" transform="translate(-820.000000, -235.000000)" fill="#3D2C00">
            <g id="Page-1" transform="translate(815.000000, 231.000000)">
                <g id="Group-5" transform="translate(54.141608, 63.294536) rotate(4.000000) translate(-54.141608, -63.294536) translate(4.641608, 4.294536)">
                    <path d="M91.6893456,28.7168016 C91.0697998,29.3895144 90.4472755,30.0726454 89.7339043,30.6917794 C89.3779633,31.0028346 88.9952151,31.2975186 88.5543845,31.5371353 C88.3488621,31.6725709 88.0941931,31.7484743 87.8544169,31.8437257 C87.6131515,31.9389771 87.3286966,31.9493952 87.0636025,31.9940443 L87.4195435,31.2439397 L89.8604942,34.3024018 L92.0229471,37.5766679 C92.663343,38.7181961 93.2650172,39.8835372 93.8890308,41.0399484 C94.4341119,42.2335672 94.9270678,43.4524872 95.4498095,44.6639656 C95.8891509,45.9037218 96.2570062,47.1687791 96.6635831,48.4249067 C96.9927167,49.7018704 97.253343,50.9966938 97.5512015,52.285564 C97.7701275,53.5863406 97.9205461,54.9034885 98.1067077,56.2161716 C98.2124474,57.5333195 98.251169,58.8608856 98.3241444,60.1884516 C98.31223,61.5145294 98.2377654,62.8435837 98.1945759,64.1741264 C98.0605396,65.4987158 97.8728887,66.8203287 97.7105558,68.1464064 C97.4484403,69.4546245 97.1565389,70.7628427 96.8571911,72.0695725 L95.6076746,75.8959989 L93.9873241,79.5944312 L92.0006077,83.1202204 L89.6579504,86.4331823 L86.9816914,89.4961094 L86.6778757,86.4361589 C88.8313929,87.827722 91.1308608,89.2073787 93.2873566,91.1347307 C94.3447544,92.1318936 95.446831,93.2540739 96.1706272,95.014736 C96.3359387,95.4597385 96.4550821,95.9687381 96.5444396,96.4613663 C96.5548647,96.9897138 96.6233722,97.5388975 96.4997609,98.0568268 C96.3746603,98.5792211 96.2972171,99.0956622 96.0008478,99.6016851 C95.752136,100.092825 95.3917271,100.686658 95.2308835,100.835488 L94.9225999,101.21054 L94.7677135,101.398067 L94.7483527,101.421879 L94.5994234,101.584104 L94.5904877,101.593034 L94.5711269,101.609406 L94.4936836,101.674891 L94.3402865,101.805861 C93.930731,102.164542 93.492879,102.483039 92.968648,102.698843 C92.4682456,102.969714 91.9380574,103.044129 91.4108478,103.160217 C90.9119348,103.200401 90.3802573,103.233144 89.9215552,103.173612 C88.9877687,103.070919 88.1358933,102.834279 87.4046506,102.511317 C86.6451113,102.206215 85.971951,101.829674 85.336023,101.426344 C84.0641671,100.615219 82.9516655,99.6820534 81.9285214,98.6685193 C80.9083559,97.6534968 79.9805266,96.558106 79.1554585,95.3451392 L82.3499912,96.0327351 L80.0222268,97.4495993 L77.6393585,98.7786537 L75.1998971,100.007992 L72.7053319,101.13166 L70.1601308,102.151148 L67.5687615,103.059012 L64.9312242,103.849301 L62.2504974,104.507131 L59.5325383,105.026549 C58.6181126,105.163472 57.6977297,105.273607 56.7803254,105.388206 L53.999816,105.569779 L51.2073923,105.572756 L48.4134792,105.386718 L45.6344591,104.999759 L42.8867141,104.407415 L40.1896051,103.599266 L42.4726908,103.061989 C42.3505688,103.216772 42.2224896,103.365603 42.0884533,103.511456 C41.9335668,103.649869 41.8993131,103.828465 41.7846376,103.977295 C41.6669835,104.124637 41.6297511,104.307698 41.5612437,104.477365 C41.4778433,104.63959 41.4465681,104.836046 41.4123144,105.031014 C41.3586999,105.215563 41.3423177,105.432855 41.3348712,105.656101 C41.3095532,105.86744 41.3110425,106.10408 41.3274247,106.354115 C41.3318926,106.834836 41.4033787,107.370625 41.4793326,107.94511 C41.5508186,108.513642 41.6580477,109.119381 41.7265552,109.799536 C41.7682554,110.123986 41.7980412,110.475225 41.8084663,110.854742 C41.8367628,111.210447 41.8218699,111.613777 41.7861269,112.03199 C41.7801697,112.423413 41.659537,112.889252 41.5537972,113.325325 C41.4569932,113.762886 41.2023241,114.216818 41.0012696,114.645449 C40.743622,115.048779 40.4338491,115.431273 40.122587,115.785489 C39.7860068,116.077197 39.4375123,116.359974 39.08455,116.627869 L39.4047479,116.367416 C38.9937031,116.755863 38.5067044,117.083289 37.9824734,117.281233 C37.4656888,117.477689 36.9384792,117.568476 36.4738199,117.574429 C35.5251405,117.595265 34.7462404,117.386903 34.0477622,117.132403 C32.66272,116.590661 31.5576648,115.862881 30.5136707,114.835952 L30.4943099,114.818092 C30.2992125,114.624613 30.1532618,114.392438 30.0609257,114.149844 C29.8464676,113.578336 29.6751989,112.997898 29.5530769,112.414483 C29.4413799,111.834045 29.365426,111.258072 29.329683,110.689541 C29.258197,109.555454 29.3341509,108.466016 29.4592515,107.427181 C29.7094526,105.34951 30.1711334,103.426623 30.4109095,101.64066 C30.5285636,100.753631 30.586646,99.9038106 30.5136707,99.1745422 C30.4436739,98.4348557 30.2262372,97.8960901 29.8807213,97.4495993 C29.706474,97.2233773 29.4696765,97.0269213 29.2016038,96.8349303 C28.9156596,96.651869 28.5880152,96.489644 28.2335636,96.3408138 C27.8582618,96.2128197 27.4829601,96.0773842 27.0629796,95.988086 C26.6653384,95.8719984 26.2140827,95.8273493 25.7896343,95.7410278 L25.5707083,95.697867 C25.2936999,95.6427998 25.0524345,95.5073642 24.8647836,95.3228147 L22.4461723,92.9370654 L20.221169,90.3801612 L18.1808381,87.6818683 C17.5434208,86.7531674 16.9462145,85.7991654 16.3311366,84.8600463 C15.753291,83.8956261 15.2260814,82.9014399 14.6735539,81.9266016 C14.1567693,80.9309271 13.7010457,79.9054865 13.2155363,78.8979055 C12.7613021,77.8724649 12.3800432,76.8187466 11.9541055,75.7858644 C11.5639108,74.7380993 11.24967,73.6620564 10.8952184,72.6053615 C10.5705526,71.5367601 10.3292872,70.4428576 10.043343,69.3653264 C9.7916525,68.2803537 9.62336243,67.1745447 9.41039358,66.0806422 C9.23167846,64.9807865 9.13785302,63.867536 8.9993488,62.7647037 C8.8980769,61.6559181 8.87871609,60.5396911 8.8161658,59.4309055 C8.79978358,58.3191433 8.85339812,57.2058929 8.857866,56.0941307 C8.91594841,54.9823686 9.03807041,53.8750713 9.12742797,52.7692624 C9.27933582,51.6679183 9.47592245,50.5725275 9.6486804,49.4741601 L10.4231126,46.2311484 L11.6130574,46.9217209 C11.2705201,47.29082 10.9533008,47.6673606 10.6673566,48.1302227 L10.2056759,48.8520495 C10.018025,49.1184557 9.8125026,49.3923034 9.4863475,49.6512681 C9.34039682,49.7792622 9.06934555,49.8893966 8.85190883,49.9727415 C8.61511129,50.0590631 8.54660383,50.0278087 8.38427093,50.0620397 L8.28002044,50.0769227 L8.1266233,50.0888291 L8.07003018,50.0843642 L7.8421684,50.0724578 L7.38793413,50.0412034 C7.08262914,50.0322736 6.78179202,49.9950661 6.48542278,49.9251158 C6.18905354,49.8581422 5.88374854,49.8268878 5.59482576,49.7301482 C5.01251233,49.5500635 4.43764536,49.3521193 3.90001071,49.0574353 C3.62002369,48.9353945 3.35939747,48.7776344 3.11068559,48.5975498 C2.86346301,48.4189534 2.58943316,48.2745881 2.36603926,48.0662257 L1.6869218,47.44858 C1.45906003,47.2446826 1.28481278,46.9886945 1.08226898,46.7609842 C0.657820571,46.313005 0.404640818,45.74745 0.0725285529,45.2354739 C0.0248711875,45.1610587 0.00253179753,45.0762255 0.00104250487,44.9943688 L0.00104250487,44.9303718 C-0.00342537313,44.1415713 -0.0049146658,43.264961 0.240818624,42.3853741 C0.36145133,41.9433482 0.54016645,41.5266234 0.776963984,41.1188284 C0.906532446,40.9208842 1.04354737,40.7065686 1.179073,40.5294606 L1.56926768,40.0799931 L3.13302498,38.299983 C3.66619176,37.7418695 4.1248939,37.1182706 4.55381019,36.4693706 C4.98868365,35.8279122 5.4444072,35.2013367 5.86289844,34.5494601 L6.9679536,32.5104853 L7.5160133,31.4909979 L7.93897242,30.41942 L8.78489066,28.2792406 L8.80127287,28.2360798 C8.83403731,28.1542232 8.88020539,28.0738548 8.93233063,28.0068812 C9.68293413,27.0484142 10.5511918,26.1167367 11.6905006,25.4127695 C12.262389,25.0704599 12.9027849,24.7847057 13.5982846,24.6418287 C14.2952735,24.5004399 15.0265162,24.5034165 15.7130801,24.6328989 C17.096633,24.8948401 18.2478563,25.5809477 19.2456823,26.2596138 L20.648596,27.2359404 C20.8585863,27.3788174 21.0685766,27.4874635 21.1653806,27.5187179 C21.1936772,27.529136 21.2115487,27.5350892 21.1906986,27.5231828 C21.1951665,27.5276477 21.1638913,27.5157413 21.090916,27.5127647 C20.979219,27.5157413 20.7454001,27.5856915 20.6694461,27.6943376 L21.2383559,27.3728642 C22.0142774,27.1243177 22.7872203,26.8236805 23.543781,26.4114206 C24.301831,26.0125555 25.0464773,25.55267 25.7836772,25.0496236 C27.2610555,24.0554374 28.7116265,22.937722 30.2128335,21.8348897 C31.7155299,20.730569 33.2688621,19.6307133 34.968145,18.6618282 C35.8170419,18.1796181 36.7091282,17.7420571 37.6310003,17.3461686 L39.059232,16.8193094 L40.550014,16.4115144 L39.1485896,18.3909571 C38.9788102,17.5322064 38.8358381,16.6585727 38.6094656,15.8534009 C38.5171295,15.4292346 38.3950075,15.0512057 38.2713962,14.6716885 C38.1641671,14.2653819 37.995877,13.9840927 37.8663086,13.6402947 C37.7873761,13.5212305 37.7144007,13.4051429 37.6458933,13.2816138 C37.5758965,13.1714794 37.5252605,13.1685028 37.4850496,13.0866461 C37.4686674,13.1238537 37.4701567,13.0598567 37.5267498,13.1238537 C37.5982359,13.1342718 37.6354682,13.1655261 37.6712112,13.1432016 C37.6473825,13.1714794 37.6265324,13.1506431 37.5029212,13.2101752 C37.4195208,13.2310115 37.2437842,13.3307278 37.0769835,13.4110961 L36.397866,13.7578706 C36.2519153,13.8278209 36.0329893,13.9096775 35.8498063,13.9766511 C35.6353482,14.0510663 35.2391963,14.1120867 34.9398485,14.1299463 L34.8951697,14.1329229 C34.3694494,14.162689 33.8824507,13.9320021 33.5637421,13.5599264 L32.6939951,12.5374624 C32.5599588,12.3514245 32.3946473,12.215989 32.2903968,11.9867904 L31.9523274,11.3438436 L31.6321295,10.6934553 C31.5487291,10.4597917 31.5010717,10.205292 31.4400107,9.96121032 C31.3149101,9.4626289 31.222574,8.96553578 31.2657635,8.45058303 L31.2955493,7.68410711 C31.329803,7.43704885 31.3983105,7.20040872 31.4534143,6.95781537 C31.553197,6.46221055 31.7304228,6.01720803 31.9433916,5.59453005 C32.1265746,5.14506261 32.3946473,4.77596353 32.6493164,4.39049312 C32.8995175,4.0020461 33.2316298,3.68503761 33.527999,3.33528647 C33.5994851,3.25342982 33.6813962,3.18347959 33.7692644,3.12692408 L33.8318147,3.08673991 C34.4245532,2.71466422 35.0262274,2.35895986 35.6502411,2.07767064 C35.9570354,1.91544564 36.2787226,1.80679954 36.5944526,1.6773172 C36.9101827,1.54485826 37.2333592,1.43770046 37.5595143,1.34244908 C38.2058673,1.13111009 38.8715811,0.986744725 39.5432521,0.864703899 C40.2164124,0.744151376 40.9089335,0.696525688 41.6059225,0.671224541 C42.3118472,0.672712844 43.0296862,0.723315138 43.7639075,0.848332569 C44.1362307,0.928700917 44.5115324,1.0284172 44.8838556,1.13259839 C45.2666038,1.28887018 45.6433949,1.41388761 46.0216752,1.62522661 C46.3984663,1.86633165 46.7797252,2.04939289 47.1237518,2.40212064 L47.6316006,2.89921376 C47.7790406,3.09715803 47.9190341,3.30403211 48.0530704,3.51090619 C48.3524182,3.91423624 48.4730509,4.39793463 48.6353838,4.85930849 C48.7560165,5.31919404 48.7709095,5.77461468 48.8111204,6.23450023 L48.6041087,5.35937821 C48.7441022,5.70615275 48.8989886,6.0573922 48.9808997,6.42202638 C49.0404714,6.78517225 49.1283397,7.17361927 49.1060003,7.5159289 C49.1208933,8.23775573 48.9794104,8.85242477 48.8364384,9.38821376 C48.6875091,9.93144427 48.5177297,10.3868649 48.3643326,10.8184727 C48.2094461,11.242639 48.0768991,11.6295977 47.9652021,11.9942319 C47.750744,12.7205236 47.6718115,13.3217979 47.750744,13.8858647 C47.7522333,14.0317183 47.8177622,14.1686422 47.8386123,14.310031 C47.8549945,14.452908 47.9294591,14.5942968 47.9830737,14.7371739 C48.0649848,15.0259046 48.2824215,15.3086821 48.4253936,15.6033661 L46.5429276,14.7892644 L49.6942709,14.4261186 C50.2185019,14.3621216 50.7516687,14.3710514 51.2803676,14.3427736 L52.8694429,14.2832415 C53.3981418,14.2430573 53.92833,14.3055661 54.4570289,14.3144959 L56.0461042,14.3784929 C56.5762923,14.3814695 57.1005234,14.4811858 57.6262437,14.5317881 L59.2034046,14.7178259 C59.7321035,14.7654516 60.2429309,14.9023755 60.7641833,14.9901853 L62.3175156,15.2908225 C63.3451275,15.5215094 64.3533787,15.8206583 65.3690762,16.0900411 C66.3669023,16.4055612 67.3528141,16.7508475 68.3431937,17.082739 L71.2428465,18.2272438 L69.2486836,20.1054819 C68.6693488,18.1692 68.4459549,16.1064124 68.9061463,14.0406482 C69.138476,13.0137193 69.5450529,11.9719073 70.3016136,11.0446947 C70.7052119,10.5967156 71.1668926,10.1606429 71.7655883,9.87786537 C72.0515324,9.71712867 72.3687518,9.6233656 72.6919283,9.54299725 C73.0091476,9.45518739 73.3382813,9.4626289 73.6599685,9.43732775 C73.8059192,9.42542133 73.9459127,9.45072248 74.0725026,9.50430138 L74.1290957,9.52811422 C76.2870808,10.4523502 78.5284663,11.3349138 80.7266622,12.3350532 C81.8242709,12.8470294 82.908476,13.3917482 83.9807667,13.9721862 C84.5154228,14.2624053 85.0366752,14.5883436 85.5638848,14.8949339 C86.094073,15.1955711 86.5900075,15.5721117 87.1008348,15.9084681 C87.620598,16.2314298 88.0822787,16.6615493 88.5692774,17.0366016 C89.0681905,17.3997475 89.4837031,17.8834459 89.9319802,18.3105888 C90.3996181,18.719872 90.734709,19.2794739 91.1308608,19.7601956 C91.5270127,20.2468706 91.7623209,20.8615397 92.0765616,21.4032819 C92.3252735,21.98372 92.4712242,22.6147603 92.6514286,23.2175229 C92.6782359,23.8530282 92.770572,24.481092 92.7273825,25.1091557 C92.612707,25.7312663 92.5590925,26.3816546 92.3818666,26.9546511 L91.7444494,28.6260151 C91.732535,28.6602461 91.7116849,28.6915005 91.6893456,28.7168016 M91.3348939,28.4340241 L91.793596,26.7656367 C91.9082716,26.1926401 91.8784857,25.6345266 91.9365681,25.0823663 C91.9201859,24.5257411 91.7772138,23.9691158 91.7116849,23.4214204 C91.503184,22.9034911 91.3453189,22.3677021 91.0906499,21.8765622 C90.7659841,21.4181649 90.5440795,20.9061888 90.1509062,20.4954172 C89.7547544,20.0891106 89.4464708,19.6232718 88.9818115,19.2764972 C88.5380023,18.916328 88.1478076,18.5115096 87.6533624,18.2064076 C87.1708316,17.8908874 86.7314903,17.5292298 86.2147057,17.259847 C84.236925,16.0721814 82.0878757,15.1390156 79.8941476,14.3011011 C77.7033981,13.4438388 75.4635019,12.6981991 73.1908413,11.8707028 L73.6599685,11.9600009 C73.5393358,11.9986968 73.4082781,11.9778606 73.2980704,12.0299511 C73.1878628,12.0716236 73.0731872,12.0999014 72.9734046,12.1772931 C72.7574572,12.2814743 72.5712956,12.4972782 72.3836447,12.7160587 C72.0306823,13.2057103 71.7834598,13.8843764 71.6509127,14.6076915 C71.3798615,16.0677165 71.6062339,17.6840133 72.1140827,19.1499915 C72.385134,19.9343271 71.9711106,20.7886128 71.1877427,21.0594839 C70.8556304,21.1755716 70.5101145,21.1666417 70.201831,21.0579956 L70.1199199,21.0297179 L67.3185604,20.0533913 C66.3728595,19.7810319 65.4316265,19.4937894 64.4859257,19.2348248 L63.0547154,18.9088865 C62.5781418,18.8076819 62.1075253,18.6677814 61.6264838,18.5903897 L60.1863378,18.3537495 C59.7052962,18.2852876 59.2302119,18.1692 58.7447025,18.1409222 L57.29711,18.0099516 C56.8130899,17.9772089 56.3335376,17.8953523 55.8480282,17.9072587 L54.3959679,17.8893991 C53.9119478,17.8953523 53.4279276,17.8462383 52.9439075,17.8968406 L51.4948258,17.992092 C51.0122949,18.0322761 50.5267855,18.0322761 50.0472333,18.1037147 L47.1639627,18.5159745 L47.0046084,18.5368108 C46.2927265,18.6395037 45.6195662,18.2837993 45.2800075,17.7003846 C44.992574,17.2018032 44.6708868,16.7419177 44.4638751,16.1644562 C44.3521781,15.8876319 44.2285668,15.6167608 44.1645273,15.3116587 C44.0975091,15.0110216 43.9977265,14.7178259 43.9709192,14.4097472 C43.8830509,13.7935899 43.8830509,13.1804092 43.9381548,12.5850881 C44.0051729,12.0001851 44.1213378,11.4495131 44.2643099,10.9360486 C44.5517433,9.92102615 44.9136415,9.05632225 45.0863994,8.3806328 C45.1742677,8.04278807 45.2204358,7.75852225 45.2055428,7.57546101 C45.2263929,7.4608617 45.1712891,7.4102594 45.1772463,7.32542615 C45.160864,7.24952271 45.1087388,7.18850229 45.1012923,7.10962225 C45.0759744,6.85661078 45.0238491,6.61252913 44.9449166,6.3833305 L44.8942807,6.23450023 C44.8510912,6.1094828 44.8674734,5.96065252 44.834709,5.85349472 C44.7691801,5.77312638 44.7959873,5.64662064 44.7066298,5.58708853 C44.6753546,5.54988096 44.6530152,5.50820849 44.6336544,5.4620711 C44.5830185,5.42932844 44.5368504,5.39212087 44.4951502,5.3519367 C44.4415357,5.25519702 44.259842,5.20459472 44.1496343,5.11529656 C44.0126194,5.03641651 43.8160328,4.98730252 43.6581677,4.90842248 L43.0535149,4.76554541 C42.6171522,4.69857179 42.1554714,4.67327064 41.6744299,4.67475894 C41.1889205,4.70006009 40.7019218,4.74322087 40.2059873,4.82507752 C39.7145208,4.91437569 39.2185863,5.01260367 38.7390341,5.17185206 C38.4962794,5.23882569 38.2565032,5.31621743 38.0256629,5.41444541 C37.7948225,5.50969679 37.5505785,5.58262362 37.3331418,5.70168784 C36.8759289,5.90409702 36.4604163,6.15413188 36.0449036,6.40416674 L36.3487193,6.15562018 C36.2042579,6.34909954 36.006182,6.50537133 35.8855493,6.71373372 C35.7589594,6.91465459 35.5981158,7.10515734 35.5296084,7.31351972 C35.42089,7.5159289 35.334511,7.71833807 35.3091931,7.91479404 C35.2868537,8.01451032 35.2451535,8.1127383 35.2287713,8.21096628 C35.2347284,8.30621766 35.2347284,8.39998073 35.2317498,8.49374381 C35.1900496,8.68424656 35.2466428,8.8702844 35.2957894,9.05483394 C35.3196181,9.14859702 35.3181288,9.24384839 35.3508933,9.33909977 L35.5013118,9.6263422 L35.6338589,9.92251445 C35.654709,10.0266956 35.7812988,10.1159938 35.848317,10.2157101 C36.0076713,10.4091894 36.1625578,10.6071337 36.3129763,10.8140078 L34.9383592,10.2439878 C34.8624053,10.2157101 34.7015616,10.2722656 34.7015616,10.2722656 C34.7328368,10.254406 34.7328368,10.2633358 34.7953871,10.2380346 L35.3479147,9.97014014 C35.5966265,9.85851743 35.8244883,9.73052339 36.17894,9.61294748 C36.4797771,9.49090665 36.9146506,9.39714358 37.3420775,9.34356468 C37.8395013,9.32719335 38.336925,9.35844771 38.8358381,9.56085688 C39.3496441,9.72159358 39.680267,10.0281839 40.0436544,10.3064966 C40.2923663,10.5803443 40.585757,10.8913995 40.7585149,11.1712005 L41.2306207,12.0016734 C41.4316752,12.5121612 41.6833657,13.0553917 41.8010198,13.5405784 C41.9469705,14.0391599 42.097389,14.5377413 42.1778108,15.0169748 C42.3952476,15.9933014 42.5039659,16.9383736 42.6424701,17.8908874 C42.7765065,18.8061936 42.1793001,19.6589911 41.2901924,19.8599119 L41.2410457,19.87033 L40.0481223,20.1352479 L38.8596668,20.5088119 C38.0733202,20.8064725 37.288463,21.1413406 36.5125415,21.5327642 C34.9621879,22.3185881 33.4490665,23.2785433 31.9284987,24.2861243 C30.4064416,25.2937053 28.8799166,26.35933 27.2461626,27.3475631 C26.4315195,27.8431679 25.5811334,28.3149599 24.6845792,28.7301963 C23.7954714,29.1558509 22.8289205,29.4877424 21.8310944,29.7452188 L22.4000042,29.4237454 C22.1051243,29.7154528 21.6091898,29.9386982 21.2026129,29.932745 C20.9836869,29.9416748 20.8109289,29.9178619 20.673914,29.8776778 C20.5100918,29.8449351 20.393927,29.7987977 20.2866979,29.7526603 C19.8503352,29.5636459 19.5688589,29.362725 19.3082326,29.1751989 L17.9187226,28.1021326 C17.0534435,27.4413261 16.1792287,26.8980956 15.2886317,26.6867567 C14.4039919,26.4605346 13.5104163,26.6063883 12.6510944,27.076692 C11.7977297,27.5499722 10.9964903,28.2688225 10.3084371,29.1097135 L10.4573663,28.8373541 L9.48932609,31.0921328 L9.00381668,32.2158014 L8.39469598,33.2724963 L7.1704974,35.3754681 C6.71179526,36.0422278 6.2173501,36.6866628 5.74226574,37.3400278 L5.03038384,38.3223076 C4.78167197,38.6422927 4.49423848,38.9325117 4.22765509,39.2376138 L2.63411194,41.0131589 L2.23944938,41.4581615 L1.97584458,41.8495851 C1.81351168,42.1249211 1.67053958,42.438953 1.58118202,42.7619147 C1.38906327,43.4093264 1.36970247,44.1385947 1.36821317,44.9303718 L1.29672713,44.6252697 C1.57969273,45.0539009 1.77776866,45.5450408 2.13668819,45.9186048 C2.43752531,46.3412828 2.82325211,46.6821041 3.21344679,47.0199489 C3.40109766,47.1970569 3.6378952,47.3116562 3.84639617,47.4634631 C4.05638644,47.6137817 4.27680175,47.7477289 4.51657787,47.8474452 C4.97230143,48.0959917 5.4652573,48.2567284 5.96119176,48.407047 C6.20692505,48.490392 6.47052985,48.5112282 6.72222031,48.5677837 C6.97688936,48.6273158 7.23453699,48.6570819 7.49516321,48.6600585 L7.88386859,48.6838713 L8.07747664,48.6972661 L8.1266233,48.7002427 L8.12960188,48.7002427 C8.15343056,48.6987544 7.94046171,48.7136374 8.03279786,48.7076842 L8.03875503,48.7061959 L8.05215866,48.7047076 L8.07747664,48.7002427 L8.18321642,48.6853596 C8.29342408,48.6600585 8.52426444,48.6600585 8.53766807,48.6154094 C8.56447534,48.5633188 8.57936827,48.5960615 8.64191856,48.5365294 C8.76106197,48.441278 8.90105548,48.2701232 9.03658112,48.0736672 L9.48039033,47.3667234 C9.78420604,46.8666537 10.1803579,46.3695606 10.6062956,45.9156282 C10.872879,45.6298741 11.3181775,45.6164794 11.6026324,45.8828856 C11.7902833,46.057017 11.86028,46.3115167 11.8096441,46.5466686 L11.7962404,46.6062007 L11.1111658,49.7494961 L10.6807602,52.9359523 C10.6211885,54.0075303 10.5273631,55.07762 10.4931093,56.1477096 C10.5094916,57.2192876 10.4960879,58.2923539 10.5586382,59.3624436 C10.664378,60.4295567 10.7239497,61.4996463 10.8639432,62.5608062 C11.0426583,63.6175011 11.1737161,64.6801493 11.3881742,65.7279144 C11.6368861,66.7682381 11.8379406,67.8189798 12.1223955,68.8503736 C12.4396149,69.8713493 12.7106661,70.9057197 13.0606499,71.914789 C13.4419088,72.9104635 13.7814676,73.9239977 14.1954909,74.9062775 C14.6393001,75.8766509 15.0518342,76.860419 15.5269186,77.8114445 C16.0362567,78.7475869 16.511341,79.701589 17.0430185,80.6198718 C17.6119283,81.520295 18.1510522,82.4356011 18.7378335,83.319653 C19.3633365,84.1769154 19.9650107,85.0505491 20.6039173,85.8929284 L22.6323339,88.3322567 L24.8201048,90.6227546 L27.1404228,92.7644222 L26.215572,92.3462092 C26.7502281,92.4310424 27.2744591,92.4712266 27.8195402,92.6051739 C28.3571749,92.7034018 28.9082132,92.8730683 29.4562729,93.0486881 C30.0102897,93.2555622 30.5643066,93.5041087 31.110877,93.8330236 C31.6514903,94.1797982 32.1816785,94.5965229 32.6299555,95.1204055 C33.0797219,95.6413115 33.4520451,96.2440741 33.6947998,96.8661846 C33.9524474,97.4882952 34.0924409,98.1163589 34.1788199,98.7191216 C34.3351957,99.9261351 34.2696668,101.033432 34.1669056,102.076733 C33.9464903,104.15738 33.553317,106.043059 33.3984306,107.840929 C33.3180088,108.736887 33.2971587,109.600103 33.3582197,110.40974 C33.3924734,110.811581 33.4520451,111.200028 33.527999,111.573592 C33.614378,111.94418 33.7290535,112.293931 33.858622,112.633264 L33.405877,111.947156 C33.9569153,112.484434 34.7715584,112.994922 35.4759938,113.240492 C35.8259776,113.365509 36.1551113,113.416111 36.3248907,113.401228 C36.5110522,113.380392 36.4380769,113.374439 36.4306304,113.393787 C36.4246733,113.404205 36.4306304,113.4176 36.4410555,113.423553 C36.4499912,113.428018 36.4604163,113.425041 36.4663735,113.419088 L36.7508284,113.131845 C36.8640146,113.015758 36.983158,112.914553 37.1127265,112.823767 C37.1797446,112.710656 37.2571879,112.621358 37.3316525,112.524618 C37.3510133,112.392159 37.4448387,112.32965 37.4597317,112.170402 C37.4761139,112.015618 37.5401535,111.899531 37.5297284,111.682239 C37.5416428,111.496201 37.5535571,111.29528 37.5267498,111.046733 C37.5193034,110.824976 37.4939854,110.571965 37.4537745,110.299605 C37.3927135,109.775723 37.2810165,109.192308 37.1901697,108.561268 C37.0978335,107.942134 36.9920938,107.278351 36.9667758,106.550571 C36.9399685,106.196355 36.9310328,105.830232 36.9593293,105.43732 C36.9682651,105.056315 36.9950724,104.669356 37.0829406,104.264538 C37.1484695,103.862696 37.2229341,103.465319 37.3793099,103.066454 C37.5193034,102.669077 37.6458933,102.265747 37.8707764,101.907066 C38.0852346,101.55285 38.2624604,101.145055 38.5320224,100.845906 L39.3183689,99.9097638 C39.8202605,99.3114661 40.6095857,99.0926856 41.3155104,99.2906298 L41.6014546,99.3709982 L43.9724085,100.034781 L46.3925091,100.512526 L48.8453741,100.808699 L51.3205785,100.930739 L53.8047187,100.883114 L56.2873696,100.679216 L58.7655526,100.339883 L61.2288426,99.8636264 L63.6727719,99.2563989 L66.0884046,98.5286188 L68.4757408,97.6877278 L70.8273339,96.7396789 L73.1416947,95.6919138 L75.4218018,94.562292 L77.6646765,93.3523018 L79.8628725,92.0559901 L79.9194656,92.0232475 C80.9947349,91.3892305 82.3738199,91.7181454 83.0574053,92.7450743 C84.2994753,94.6128943 85.997269,96.3705798 87.8097382,97.5746167 C88.2580152,97.8722773 88.7226746,98.1357069 89.1635052,98.3172798 C89.610293,98.5315954 90.0302735,98.6238702 90.378768,98.6759608 C90.7257732,98.7087034 90.9700172,98.6923321 91.1234143,98.6015456 C91.2157505,98.5881509 91.2902151,98.5152241 91.3751048,98.4482505 L91.4108478,98.4274142 L91.4287193,98.4184844 L91.4346765,98.4155078 L91.4361658,98.4155078 C91.5627557,98.2756073 91.2648971,98.6030339 91.2976616,98.5673147 L91.3170224,98.5435018 L91.4748874,98.3589523 L91.7906175,97.9883649 C92.0944332,97.6758213 91.9812469,97.6579617 92.0482651,97.5850349 C92.124219,97.5448507 92.1033689,97.3945321 92.1584727,97.2977924 C92.2195337,97.1906346 92.149537,97.0775236 92.1971944,96.9629243 C92.1569835,96.8274888 92.1450691,96.6920532 92.098901,96.5298282 C91.9678433,96.199425 91.7652995,95.810978 91.4644624,95.4136011 C91.1666038,95.0132477 90.7927914,94.611406 90.3966395,94.2140291 C88.7360782,92.6215452 86.6257505,91.2225406 84.470744,89.744656 C83.554829,89.1165922 83.3210101,87.8649296 83.9509809,86.9496234 C84.0045954,86.869255 84.0641671,86.7948399 84.1282067,86.726378 L84.1669283,86.6832172 L86.6614935,84.0042722 L88.8701145,81.078269 L90.7749199,77.931997 L92.3610165,74.6026638 L93.6179796,71.1245002 L94.577084,67.5406672 L95.2145013,63.8720009 C95.3157732,62.633733 95.4498095,61.3939768 95.5272528,60.1497557 C95.518317,58.9040463 95.5481029,57.6523837 95.5138491,56.4036977 C95.3991736,55.1609649 95.3217304,53.907814 95.1787583,52.6635929 C94.9568537,51.4312782 94.7736707,50.1870571 94.5249588,48.9562307 C94.200293,47.7447523 93.9039238,46.5198791 93.5554293,45.3113773 C93.1384273,44.1252 92.7482326,42.9226514 92.3059127,41.7394507 L90.7436447,38.2836117 L88.8745824,34.9676732 L86.7076616,31.8258661 C86.557243,31.6085739 86.6123469,31.309425 86.8297836,31.1605947 C86.8893553,31.1189222 86.9533949,31.0951094 87.020413,31.083203 L87.0636025,31.0757615 C87.2482748,31.0445071 87.4344364,31.0727849 87.6250659,31.0132528 C87.814206,30.9522323 88.0107927,30.9224663 88.1984435,30.8167968 C88.5797025,30.6545718 88.9520256,30.4179317 89.3079666,30.1574787 C90.012402,29.6455025 90.6721587,29.0397633 91.3348939,28.4340241" id="Fill-3"></path>
                </g>
                <path d="M91.4870081,55.1922149 C91.2606357,53.840836 91.0670276,52.4820156 90.636622,51.1782624 C90.4742891,50.5115028 90.2196201,49.8759975 89.9679296,49.2404922 C89.7177285,48.6034986 89.4645487,47.97097 89.1279686,47.3741606 C88.539698,46.1418459 87.8054767,44.9898996 87.0533839,43.8617661 C86.2208693,42.7812583 85.3868654,41.7156335 84.4366967,40.749725 C83.9973553,40.2347723 83.4775922,39.7942347 82.9801684,39.3417906 C82.484234,38.8833934 81.9868102,38.4309493 81.4417291,38.0320842 C80.4051814,37.1733335 79.2792762,36.433647 78.1697531,35.6939606 C77.0095941,35.0212477 75.8673067,34.3351402 74.6535331,33.7844681 C74.0637732,33.4778778 73.4561418,33.2099833 72.8351068,32.9718548 C72.2170503,32.7307498 71.619844,32.4524372 70.9883839,32.2485397 L69.1237895,31.5981514 L67.2770665,31.0876636 C66.6813495,30.9120438 65.9456389,30.790003 65.2903501,30.6248014 L64.7839906,30.5102021 L64.5308109,30.4536466 L64.404221,30.4238805 L64.3878388,30.4194156 C64.4637927,30.4357869 64.1972093,30.3792314 64.5531503,30.4551349 L64.5233644,30.4536466 L64.4637927,30.4491817 L63.5017096,30.3807197 L61.5879686,30.2348661 C60.9460834,30.2289129 60.2982411,30.2720736 59.6548667,30.2720736 C58.3710964,30.2333778 57.0754118,30.4491817 55.7856843,30.5801523 C54.4959569,30.7498188 53.2077187,31.0400379 51.9239484,31.3049558 C50.6476246,31.6636367 49.3638543,31.9419493 48.0890198,32.3586741 C46.8112067,32.7307498 45.5378615,33.1489629 44.2689841,33.6148016 C42.9986175,34.0404562 41.734208,34.5717803 40.4653307,35.0465489 L40.6455351,34.9646922 C39.5777122,35.6180571 38.4413819,36.1642642 37.3988771,36.8622782 L35.8932022,37.9963649 C35.3868427,38.3714172 34.8715474,38.7360514 34.4441204,39.2048668 C33.5684163,40.1112431 32.5661224,40.9030202 31.8274332,41.9448321 L30.6300419,43.4256934 C30.2130399,43.9079035 29.9360315,44.4928064 29.5800906,45.0196656 L28.5614144,46.6434039 L27.7378355,48.3787649 C27.4772093,48.9606913 27.1570114,49.5336879 26.941064,50.1230558 L26.3274754,51.8911594 C25.8598375,53.0088748 25.5962327,54.3944847 25.2968848,55.7265156 L25.0645552,56.7266551 L25.0064728,56.9752016 L24.9990263,57.0079443 C24.9930691,57.0406869 25.0377479,56.7683275 25.0183871,56.8918567 L25.0168978,56.9052514 L25.0094514,56.9677601 L24.9960477,57.0898009 L24.9409439,57.5794525 L24.7190393,59.5425239 C24.5224527,60.8522303 24.5030919,62.1664016 24.4807525,63.4850379 L24.4345844,65.4674571 L24.5939387,67.4394583 L24.7503144,69.4218775 C24.8218005,70.0797074 24.987112,70.7211658 25.0988089,71.3745308 C25.3519887,72.6738191 25.5575111,73.9954319 26.025149,75.2426296 C26.4510867,76.4972688 26.7668167,77.8099519 27.3982768,78.985711 L28.2486629,80.8014404 L28.6835364,81.7048402 C28.8473586,81.9950592 29.0424559,82.2674186 29.221171,82.5501961 C29.9762424,83.6500519 30.6181275,84.8406941 31.4670244,85.8780411 L34.1090296,88.915667 L34.0360542,88.8531583 C35.388332,89.8101369 36.7718848,90.7254431 38.1450127,91.6511675 C38.8330659,92.111053 39.5836694,92.4637808 40.3000192,92.8745523 L42.4892794,94.0369168 C43.2130756,94.4328053 44.0083579,94.6768869 44.76194,95.0043136 L47.0539614,95.9077133 C47.4292632,96.0788681 47.8388187,96.1428652 48.2305026,96.2589528 L49.4174689,96.5729847 L51.7824656,97.1906303 L51.6439614,97.1653292 L55.9792924,97.2754636 L60.2744124,96.9688732 L64.4846428,96.2544879 C65.8458563,95.8496695 67.2219627,95.532661 68.5727512,95.1352842 L70.5341496,94.3583902 C71.1879491,94.1038904 71.8625987,93.895528 72.5000159,93.605309 L74.3660996,92.6364239 C74.9826668,92.3060207 75.6230627,92.0158016 76.2232476,91.6556324 L77.9731665,90.4932679 C78.5480335,90.0929145 79.1660899,89.7506048 79.7275532,89.3294152 C80.7923975,88.414109 81.8974527,87.5389869 82.9965506,86.6460053 L82.8878323,86.7650695 C83.827576,85.7068863 84.7256194,84.614472 85.6117486,83.5012216 L86.8716902,81.7852085 L88.05121,80.0096633 L89.1443508,78.1716094 L90.1332411,76.2725351 L91.002988,74.3124404 C91.2487213,73.6397275 91.516794,72.9729679 91.7476344,72.2928136 C92.1810185,70.923575 92.519088,69.5245704 92.7677998,68.101753 C92.8586467,67.3873677 92.9867259,66.6714941 93.0239582,65.9511555 C93.043319,65.2278404 93.1058693,64.5045253 93.0909763,63.7797218 C93.0522547,63.057895 93.0567226,62.3286266 92.9852366,61.6067998 C92.8869433,60.8879496 92.8080107,60.1616578 92.6739744,59.4487608 C92.5131308,58.7433053 92.3701587,58.0333849 92.1765506,57.330906 L91.4959439,55.236864 C91.4929653,55.2279342 91.491476,55.2190044 91.4899867,55.2100746 L91.4870081,55.1922149 Z M91.9263495,55.1133349 L92.6173813,57.1880289 L93.1699089,59.3460679 C93.3352203,60.0693831 93.4245779,60.8046046 93.56755,61.5353613 C93.6911613,62.2676062 93.7358401,63.0102693 93.822219,63.7484675 C93.8877479,64.4896422 93.8743443,65.2352819 93.9026408,65.9824099 C93.9011516,66.7280496 93.8445584,67.4722009 93.8326441,68.2223055 C93.7894546,68.9694335 93.6852041,69.7106083 93.6122288,70.4592246 C93.5124462,71.2018876 93.3545811,71.9356209 93.236927,72.6812606 C93.0879978,73.4179704 92.8988576,74.1472388 92.7290782,74.8854369 L92.0797466,77.0568707 L91.2993573,79.1925851 L90.3968459,81.2821622 L89.3707233,83.3181603 L88.2329037,85.2961147 L86.9908336,87.2145369 L85.6370665,89.0540792 C85.6117486,89.0883101 85.583452,89.1210528 85.5536662,89.1493305 L85.5268589,89.1746317 C84.4024429,90.2447214 83.2795163,91.3311824 82.117868,92.3774592 C81.5132152,92.8685991 80.8594157,93.3031835 80.2205091,93.7556275 L78.2874072,95.0936117 C77.6276506,95.5148014 76.9008758,95.8213918 76.209844,96.1875142 L74.1099413,97.2427209 C73.3950808,97.5597294 72.6444773,97.7904163 71.9132346,98.0672406 L69.6941885,98.8173452 C68.9406065,99.0152895 68.1721314,99.1566782 67.4125922,99.3263447 L65.1295065,99.7966484 L60.5052528,100.19849 L55.895892,100.069008 L51.3520601,99.4915464 L51.2865312,99.4841048 C51.2612132,99.4796399 51.2358952,99.4736867 51.2135558,99.4647569 L48.7800516,98.58517 L47.5677674,98.1505856 C47.1701262,97.9943138 46.7501457,97.887156 46.3733547,97.6802819 L44.0604832,96.5714964 C43.2994546,96.1890025 42.4952366,95.8883654 41.7714403,95.4374097 L39.5792015,94.1351447 C38.8524267,93.699072 38.0899089,93.3195548 37.3929199,92.8373447 C36.0048991,91.8669714 34.6258141,90.8832032 33.2169433,89.9455725 C33.190136,89.9262246 33.164818,89.9039 33.1439679,89.8815755 L30.3545227,86.7665578 C29.4475435,85.7083746 28.7088543,84.5162441 27.877829,83.3910872 C27.6797531,83.1038447 27.4638057,82.8255321 27.2791334,82.5293599 L26.7817096,81.6066122 L25.7645227,79.76707 C25.0124299,78.5689863 24.6073423,77.2176074 24.0384325,75.9287372 C23.4382476,74.6443319 23.1001782,73.27807 22.7159407,71.9177613 C22.5357362,71.2361186 22.3048959,70.5619175 22.1663917,69.8698567 L21.8149186,67.7817679 L21.4649348,65.683261 L21.3279199,63.5654062 L21.1968621,61.4386216 C21.1551619,60.7287012 21.2385623,60.024734 21.2534553,59.3148136 L21.34877,57.1880289 L21.3725987,56.6537282 L21.3800451,56.5212693 L21.3830237,56.455784 L21.3830237,56.4379243 L21.4068524,56.2890941 L21.4113203,56.2578397 L21.4530205,56.0048282 L21.6242891,54.9927824 C21.8640652,53.6443801 22.0398018,52.3227672 22.5268005,50.8672071 L23.1597499,48.7270278 C23.3905902,48.0260372 23.7137667,47.3830904 23.9892859,46.7088892 L24.8590328,44.707122 L25.9477057,42.809536 C26.330454,42.1904021 26.635759,41.5162009 27.0885039,40.9402278 L28.4035494,39.1780773 C29.2226603,37.9517158 30.345587,36.9783658 31.347881,35.8993464 C31.8393475,35.3456977 32.4246396,34.894742 33.0039744,34.4363447 L34.7390004,33.0551998 C35.9453274,32.2024023 37.2529264,31.488017 38.5218037,30.7215411 C38.5575468,30.6992165 38.5947791,30.6798686 38.6335007,30.6649856 L38.7020081,30.6396844 C40.0215214,30.1381264 41.3082703,29.5934076 42.6575695,29.133522 C43.9860185,28.6394055 45.3382963,28.1884498 46.715892,27.7821431 C48.0666804,27.3163044 49.5023586,27.0528748 50.8993151,26.7031236 C52.3275468,26.4456473 53.7557784,26.1658464 55.2108174,26.0125512 C56.674792,25.8979519 58.1268524,25.7074491 59.6131665,25.7788876 C60.3533449,25.7893058 61.0920341,25.7788876 61.829234,25.8384197 L64.0408336,26.134592 L65.1429102,26.2849106 L65.2114176,26.2953287 L65.2456713,26.2997936 L65.4571509,26.3474193 L65.5822515,26.3846269 L65.8309634,26.4545771 L66.3298764,26.6004308 C67.0075046,26.8073048 67.6344968,26.9486936 68.3434001,27.2329594 L70.434367,28.0292014 L72.413637,28.9385544 C73.0823294,29.2183553 73.6914501,29.6246619 74.327378,29.9669716 C74.9618167,30.3107695 75.5783839,30.6843335 76.1741009,31.0965934 C77.3982995,31.8571161 78.5316512,32.7500977 79.665003,33.6222431 C80.749208,34.5643388 81.8304345,35.4960163 82.8059212,36.5408048 C83.3197272,37.0334331 83.7828972,37.5766636 84.2386207,38.1213824 C84.7003015,38.6631246 85.1679394,39.1944486 85.5774948,39.776375 C86.4591561,40.8866489 87.2082703,42.0877092 87.9454702,43.2857929 C88.6141626,44.5285257 89.3051944,45.7504223 89.8145325,47.061617 C90.1168589,47.695634 90.3268492,48.3638819 90.5427966,49.0291532 C90.7751262,49.6899597 91.0089452,50.3477895 91.1489387,51.033897 C91.5242405,52.3718812 91.7282736,53.7426081 91.9263495,55.1133349 L91.9263495,55.1133349 Z" id="Fill-8" transform="translate(57.543971, 62.980885) rotate(4.000000) translate(-57.543971, -62.980885) "></path>
                <path d="M91.7087638,53.6792064 C81.2837152,55.1675091 70.8586665,61.1207201 58.9443251,59.6324174 C54.4764471,58.1441146 51.4978618,55.1675091 47.0299838,53.6792064 C42.5621058,52.1909036 38.0942278,52.1909036 33.6263498,49.2142981 C42.5621058,53.6792064 48.5192765,61.1207201 57.4550325,65.5856284 C69.3693738,64.0973256 81.2837152,58.1441146 91.7087638,53.6792064" id="Fill-10" transform="translate(62.667557, 57.399963) rotate(4.000000) translate(-62.667557, -57.399963) "></path>
                <path d="M91.796781,53.8841456 C89.1920081,55.4959775 86.550003,57.0066048 83.8752333,58.4740713 C82.5318913,59.2063163 81.1736564,59.8998654 79.8139322,60.6053209 L75.6558271,62.5862518 C74.2439776,63.2098507 72.8112781,63.7858239 71.3815571,64.37668 C69.9220503,64.9080041 68.4565863,65.4348633 66.9806973,65.9334447 C65.4735331,66.3650525 63.9544546,66.7579644 62.4353761,67.1612945 L57.7500614,67.9441417 C57.2660412,68.0259984 56.7894676,67.9322353 56.3918264,67.7119665 C55.2718784,67.0972975 54.1712911,66.4469092 53.0781503,65.7935443 L49.9863787,63.6295521 L47.0807687,61.3167296 L44.2928128,58.959258 L38.8673196,54.2978938 L36.0868102,52.1190186 L33.1514144,50.1663654 L34.2162586,48.3297998 L35.5581113,49.2480826 C36.0153242,49.5412782 36.5157265,49.7660119 36.996768,50.0339064 C37.4778096,50.2988243 38.0154442,50.4536078 38.5247823,50.6723883 C39.0356097,50.8881922 39.586648,51.0236278 40.1183255,51.2037124 C41.2025305,51.5073261 42.3150322,51.7603376 43.4364695,52.0297204 C44.5668427,52.2871968 45.7359374,52.5565796 46.8260996,52.86317 C47.4203274,53.0015821 47.9654085,53.2248275 48.5402755,53.4034239 C49.1225889,53.5716021 49.6438414,53.8484264 50.2008368,54.0672069 C51.2999348,54.5241158 52.354354,55.0479984 53.3938803,55.5569979 C54.4319173,56.0630209 55.4565506,56.5377894 56.4662911,56.9708856 L57.9838803,57.5379289 L59.4940231,57.985908 L59.1589322,57.9100046 C60.4903599,57.857914 61.8009374,57.8861917 63.1085364,57.8951216 C63.7653144,57.8638672 64.4265604,57.7760573 65.0833384,57.7195018 L67.0581405,57.5736482 C67.7193865,57.533464 68.3806324,57.3816571 69.0433676,57.2923589 L71.0330627,56.9813037 C71.6972872,56.8860523 72.3585331,56.6836431 73.0287148,56.5660672 L75.0377706,56.1582722 C75.706463,56.0258133 76.3826019,55.8397755 77.0557622,55.6835037 L79.0886467,55.2340362 C80.4513495,54.9319108 81.8289452,54.6178789 83.2095195,54.3559376 C84.6094546,54.0880431 86.0436434,53.8841456 87.4450678,53.6817365 C88.1450354,53.5924383 88.8494708,53.5894617 89.552417,53.5388594 C90.2538738,53.492722 90.9627771,53.4867688 91.6687018,53.4599794 C91.7938024,53.4555144 91.9010315,53.5537424 91.9054994,53.6802482 C91.9099673,53.7650814 91.8637992,53.8424732 91.796781,53.8841456 L91.796781,53.8841456 Z M91.7491237,53.8990287 C90.4236532,54.3916569 89.0773326,54.824753 87.7488835,55.2697555 L85.8142924,56.0139069 L83.8826798,56.7238273 C81.2898213,57.7373615 78.6671769,58.7166647 75.9626214,59.578392 L73.9073975,60.1871078 C73.2193443,60.3880287 72.5417161,60.5978794 71.8298342,60.7392681 L69.6971671,61.1649227 C68.9808174,61.2914284 68.2808498,61.4774663 67.5496071,61.554858 L65.3499218,61.7260128 C64.612722,61.7498257 63.8829686,61.849542 63.1457687,61.8108461 C61.6639225,61.6739222 60.1865442,61.5533697 58.7285266,61.3554255 L58.5870438,61.3360775 C58.5200257,61.3256594 58.4530075,61.3048232 58.3949251,61.279522 L56.6911743,60.487745 L55.1095455,59.5545791 C54.099805,58.8937727 53.1392113,58.2136183 52.2113819,57.5349523 C51.7497012,57.2030608 51.2790847,56.8681927 50.8129361,56.560114 C50.3438089,56.2624534 49.8836175,55.9171672 49.4010867,55.6537376 C48.9111094,55.4037028 48.4390036,55.0896709 47.9311548,54.8872617 C47.4247953,54.6803876 46.9318394,54.3961218 46.410587,54.2502681 C45.8669952,54.0850665 45.3144676,53.8677743 44.7768329,53.7427569 C44.2302625,53.6102979 43.7045422,53.4599794 43.138611,53.3394268 C42.0216415,53.1027867 40.8882898,52.8706115 39.7534488,52.5893222 C39.1830497,52.4419803 38.6066934,52.3437523 38.0407622,52.1562261 C37.4763203,51.9701883 36.8984747,51.8287995 36.3414793,51.6025775 C35.7859731,51.3778438 35.2081275,51.1903177 34.6630464,50.9283764 L33.0352495,50.0993917 C32.5154864,49.8344739 32.3084747,49.1974803 32.5735688,48.6765743 C32.8327057,48.1675748 33.4492729,47.9592124 33.9630789,48.1988291 L34.1030724,48.2628261 L37.4867453,49.844892 L40.7363819,51.6755044 C41.7818654,52.327381 42.797563,53.0239067 43.8311321,53.6995961 L46.7888673,55.8397755 L49.6780951,57.9769782 L52.5747693,59.996605 L55.5116545,61.8435888 C56.5243735,62.3674713 57.5311353,62.8973071 58.5185364,63.4598856 L57.1603015,63.226222 L61.4449965,62.4880239 C62.8702495,62.1605972 64.2940133,61.8227525 65.7296915,61.5236037 C67.1489874,61.117297 68.577219,60.7348032 70.0114079,60.3597509 C71.4351717,59.9251665 72.8470211,59.4489096 74.2856778,59.0351615 L82.8729394,56.1776202 C85.7502528,55.2072468 88.66182,54.2770576 91.6210445,53.4748624 L91.7491237,53.8990287 Z" id="Fill-12" transform="translate(62.181961, 58.036546) rotate(4.000000) translate(-62.181961, -58.036546) "></path>
            </g>
        </g>
    </g>
</svg>