<?xml version="1.0" standalone="no"?>
<!DOCTYPE svg PUBLIC "-//W3C//DTD SVG 1.1//EN" "http://www.w3.org/Graphics/SVG/1.1/DTD/svg11.dtd" >
<svg xmlns="http://www.w3.org/2000/svg">
<metadata>Generated by IcoMoon</metadata>
<defs>
<font id="bookclubz" horiz-adv-x="1024">
<font-face units-per-em="1024" ascent="960" descent="-64" />
<missing-glyph horiz-adv-x="1024" />
<glyph unicode="&#x20;" horiz-adv-x="512" d="" />
<glyph unicode="&#xe900;" glyph-name="add" d="M769.202 397.521v100.958h-206.723v206.723h-100.957v-206.723h-206.723v-100.958h206.723v-206.723h100.957v206.723h206.723zM512 960c141.021 0 261.608-50.078 361.766-150.235s150.234-220.744 150.234-361.765c0-141.021-50.078-261.608-150.234-361.765s-220.745-150.235-361.766-150.235c-141.021 0-261.608 50.078-361.765 150.235s-150.235 220.744-150.235 361.765c0 141.021 50.078 261.608 150.235 361.765s220.744 150.235 361.765 150.235z" />
<glyph unicode="&#xe901;" glyph-name="arrow-down" horiz-adv-x="1638" d="M1392.64 857.6l143.36-136.533-716.8-682.667-716.8 682.667 143.36 136.533 573.44-541.867z" />
<glyph unicode="&#xe902;" glyph-name="book" horiz-adv-x="862" d="M833.444 960h-677.534c-42.346 0-78.596-15.333-108.752-46s-45.875-68-47.158-112v-704c0-45.334 15.078-83.667 45.233-115s67.047-47 110.677-47h523.549c16.682 0 30.797 6.333 42.346 19s17.323 27.667 17.323 45v672c0 9.333-2.887 17-8.662 23s-12.511 9-20.211 9h-554.346c-26.947 0-49.403 9-67.368 27s-26.947 40.333-26.947 67c0 26.667 9.303 49.667 27.91 69s40.742 29 66.406 29h644.812v-736c0-9.333 3.208-17 9.624-23s13.794-9 22.135-9c8.341 0 15.399 3 21.173 9s8.662 13.667 8.662 23v768c0 9.333-2.887 17-8.662 23s-12.511 9-20.211 9zM155.91 640h521.624l1.925-640h-523.549c-25.664 0-47.799 9.667-66.406 29s-27.91 42.333-27.91 69v574c26.948-21.333 58.386-32 94.316-32z" />
<glyph unicode="&#xe903;" glyph-name="bookmark" horiz-adv-x="768" d="M640-64h-13l-242 243-244-243h-13c-35.333 0-65.5 12.5-90.5 37.5s-37.5 55.166-37.5 90.5v768c0 35.334 12.5 65.5 37.5 90.5s55.167 37.5 90.5 37.5h512c35.333 0 65.5-12.5 90.5-37.5s37.5-55.166 37.5-90.5v-768c0-35.334-12.5-65.5-37.5-90.5s-55.167-37.5-90.5-37.5zM128 896c-17.333 0-32.333-6.333-45-19s-19-27.667-19-45v-768c0-15.333 5-29 15-41s22.333-19.333 37-22l269 268 267-268c14.667 2.667 27 10 37 22s15 25.667 15 41v768c0 17.333-6.333 32.333-19 45s-27.667 19-45 19h-512z" />
<glyph unicode="&#xe904;" glyph-name="calendar" horiz-adv-x="977" d="M716.8 320h65.164c17.649 0 32.921 6.333 45.818 19s19.346 27.667 19.346 45v64c0 17.333-6.448 32.333-19.346 45s-28.17 19-45.818 19h-65.164c-17.649 0-32.921-6.333-45.818-19s-19.346-27.667-19.346-45v-64c0-17.333 6.448-32.333 19.346-45s28.17-19 45.818-19zM716.8 448h65.164v-64h-65.164v64zM847.127 896h-130.327v32c0 8.667-3.224 16.167-9.673 22.5s-14.085 9.5-22.909 9.5c-8.824 0-16.461-3.167-22.909-9.5s-9.673-13.833-9.673-22.5v-32h-325.818v32c0 8.667-3.224 16.167-9.673 22.5s-14.085 9.5-22.909 9.5c-8.824 0-16.461-3.167-22.909-9.5s-9.673-13.833-9.673-22.5v-32h-130.327c-35.976 0-66.691-12.5-92.145-37.5s-38.182-55.166-38.182-90.5v-704c0-35.333 12.727-65.5 38.182-90.5s56.17-37.5 92.145-37.5h716.8c35.976 0 66.691 12.5 92.145 37.5s38.182 55.167 38.182 90.5v704c0 35.333-12.727 65.5-38.182 90.5s-56.17 37.5-92.145 37.5zM912.291 64c0-17.333-6.448-32.333-19.346-45s-28.17-19-45.818-19h-716.8c-17.649 0-32.921 6.333-45.818 19s-19.345 27.667-19.345 45v576h847.127v-576zM912.291 704h-847.127v64c0 17.333 6.448 32.333 19.345 45s28.17 19 45.818 19h130.327v-32c0-8.667 3.224-16.167 9.673-22.5s14.085-9.5 22.909-9.5c8.824 0 16.461 3.167 22.909 9.5s9.673 13.833 9.673 22.5v32h325.818v-32c0-8.667 3.224-16.167 9.673-22.5s14.085-9.5 22.909-9.5c8.824 0 16.461 3.167 22.909 9.5s9.673 13.833 9.673 22.5v32h130.327c17.649 0 32.921-6.333 45.818-19s19.346-27.667 19.346-45v-64zM195.491 64h65.164c17.649 0 32.921 6.333 45.818 19s19.346 27.667 19.346 45v64c0 17.333-6.448 32.333-19.346 45s-28.17 19-45.818 19h-65.164c-17.649 0-32.921-6.333-45.818-19s-19.346-27.667-19.346-45v-64c0-17.333 6.448-32.333 19.346-45s28.17-19 45.818-19zM195.491 192h65.164v-64h-65.164v64zM456.145 64h65.164c17.649 0 32.921 6.333 45.818 19s19.346 27.667 19.346 45v64c0 17.333-6.448 32.333-19.346 45s-28.17 19-45.818 19h-65.164c-17.649 0-32.921-6.333-45.818-19s-19.346-27.667-19.346-45v-64c0-17.333 6.448-32.333 19.346-45s28.17-19 45.818-19zM456.145 192h65.164v-64h-65.164v64zM716.8 64h65.164c17.649 0 32.921 6.333 45.818 19s19.346 27.667 19.346 45v64c0 17.333-6.448 32.333-19.346 45s-28.17 19-45.818 19h-65.164c-17.649 0-32.921-6.333-45.818-19s-19.346-27.667-19.346-45v-64c0-17.333 6.448-32.333 19.346-45s28.17-19 45.818-19zM716.8 192h65.164v-64h-65.164v64zM456.145 320h65.164c17.649 0 32.921 6.333 45.818 19s19.346 27.667 19.346 45v64c0 17.333-6.448 32.333-19.346 45s-28.17 19-45.818 19h-65.164c-17.649 0-32.921-6.333-45.818-19s-19.346-27.667-19.346-45v-64c0-17.333 6.448-32.333 19.346-45s28.17-19 45.818-19zM456.145 448h65.164v-64h-65.164v64zM195.491 320h65.164c17.649 0 32.921 6.333 45.818 19s19.346 27.667 19.346 45v64c0 17.333-6.448 32.333-19.346 45s-28.17 19-45.818 19h-65.164c-17.649 0-32.921-6.333-45.818-19s-19.346-27.667-19.346-45v-64c0-17.333 6.448-32.333 19.346-45s28.17-19 45.818-19zM195.491 448h65.164v-64h-65.164v64z" />
<glyph unicode="&#xe905;" glyph-name="camera" horiz-adv-x="1182" d="M976.672 778.963c45.894 0 84.947-16.107 117.161-48.321s48.321-71.267 48.321-117.161v-440.843c0-45.894-16.107-84.947-48.321-117.161s-71.267-48.321-117.161-48.321h-771.806c-45.894 0-84.947 16.107-117.161 48.321s-48.321 71.267-48.321 117.161v440.843c0 45.894 16.107 84.947 48.321 117.161s71.267 48.321 117.161 48.321h87.374l55.602 55.602c15.886 15.886 36.185 28.904 60.897 39.054s48.541 15.224 71.488 15.224h221.083c22.947 0 46.997-5.075 72.15-15.224s45.673-23.167 61.559-39.054l54.278-55.602h87.374zM591.431 226.917c52.954 0 98.186 18.975 135.695 56.926s56.264 83.402 56.264 136.357c0 53.837-18.534 99.509-55.602 137.019s-82.52 56.264-136.357 56.264c-53.837 0-99.509-18.754-137.019-56.264s-56.264-83.182-56.264-137.019c0-52.954 18.754-98.406 56.264-136.357s83.182-56.926 137.019-56.926zM922.394 486.392c20.299 0 37.288 6.84 50.968 20.52s20.52 30.669 20.52 50.968c0 20.299-7.060 37.509-21.182 51.63s-30.89 21.182-50.306 21.182c-20.299 0-37.509-7.060-51.63-21.182s-21.182-31.331-21.182-51.63c0-19.417 7.060-36.185 21.182-50.306s31.331-21.182 51.63-21.182z" />
<glyph unicode="&#xe906;" glyph-name="download" horiz-adv-x="967" d="M838.163 960h-709.214c-35.595 0-65.985-12.5-91.171-37.5s-37.778-55.166-37.778-90.5v-768c0-35.334 12.592-65.5 37.778-90.5s55.575-37.5 91.171-37.5h709.214c35.595 0 65.985 12.5 91.171 37.5s37.778 55.166 37.778 90.5v768c0 35.334-12.592 65.5-37.778 90.5s-55.575 37.5-91.171 37.5zM902.637 64c0-17.333-6.381-32.333-19.141-45s-27.872-19-45.334-19h-709.214c-17.462 0-32.573 6.333-45.334 19s-19.141 27.667-19.141 45v64h838.163v-64zM902.637 192h-838.163v640c0 17.333 6.381 32.333 19.141 45s27.872 19 45.334 19h709.214c17.462 0 32.573-6.333 45.334-19s19.141-27.667 19.141-45v-640zM621.57 535l-105.777-127v392c0 8.667-3.19 16.167-9.57 22.5s-13.936 9.5-22.667 9.5c-8.731 0-16.286-3.167-22.667-9.5s-9.57-13.833-9.57-22.5v-393l-106.785 128c-6.044 6-13.6 9-22.667 9s-16.622-3-22.667-9c-6.044-6-9.066-13.5-9.066-22.5s3.022-16.833 9.066-23.5l159.171-191c3.358-3.333 7.22-5.667 11.585-7s8.563-2 12.592-2c4.701 0 9.235 0.667 13.6 2s8.227 3.667 11.585 7l159.171 191c6.044 6.667 9.066 14.5 9.066 23.5s-3.022 16.5-9.066 22.5c-6.044 6-13.6 9-22.667 9s-16.622-3-22.667-9z" />
<glyph unicode="&#xe907;" glyph-name="facebook" horiz-adv-x="585" d="M366.453 624.742v104.11c0 39.098 25.762 48.214 43.908 48.214h111.369v171.883l-153.377 0.602c-170.263 0-209.010-128.196-209.010-210.234v-114.575h-98.467v-177.116h98.467v-501.177h207.111v501.177h139.753l18.063 177.116h-157.815z" />
<glyph unicode="&#xe908;" glyph-name="instagram" d="M797.394 950.857h-590.776c-102.62 0-186.106-83.21-186.106-185.513v-588.974c0-102.303 83.486-185.513 186.106-185.513h590.796c102.62 0 186.087 83.21 186.087 185.513v588.994c-0.019 102.303-83.486 185.493-186.106 185.493v0zM872.062 840.305v-162.721l-162.68-0.523-0.563 162.701 163.243 0.542zM364.558 569.394c30.846 42.544 80.884 70.448 137.448 70.448s106.602-27.904 137.409-70.448c20.065-27.769 32.089-61.734 32.089-98.527 0-93.163-76.105-168.956-169.517-168.956-93.471 0-169.498 75.793-169.498 168.956 0.019 36.793 12.004 70.758 32.070 98.527v0zM889.66 176.389c0-50.755-41.394-91.982-92.266-91.982h-590.776c-50.892 0-92.286 41.227-92.286 91.982v393.005h143.741c-12.412-30.441-19.386-63.69-19.386-98.527 0-144.712 118.101-262.526 263.318-262.526 145.198 0 263.299 117.814 263.299 262.526 0 34.837-7.012 68.086-19.424 98.527h143.78v-393.005z" />
<glyph unicode="&#xe909;" glyph-name="location" horiz-adv-x="780" d="M390.095 896c21.672 0 43.174-2.167 64.508-6.5s42.159-10.5 62.476-18.5c18.963-8 37.079-17.833 54.349-29.5s33.354-24.833 48.254-39.5c14.9-14.667 28.275-30.5 40.127-47.5s21.841-34.833 29.968-53.5c8.127-20 14.391-40.5 18.794-61.5s6.603-42.167 6.603-63.5c0-6-2.201-18.833-6.603-38.5s-15.746-49.833-34.032-90.5c-12.868-28-28.275-58.333-46.222-91s-37.756-66.333-59.429-101c-19.64-32-39.958-63.167-60.952-93.5s-40.973-57.833-59.937-82.5c-13.545-16.667-25.058-30.5-34.54-41.5s-17.27-19.5-23.365-25.5c-6.095 6-14.053 14.333-23.873 25s-21.164 24.667-34.032 42c-19.64 24.667-39.788 52-60.444 82s-41.143 61-61.46 93c-20.995 34-40.466 67.333-58.413 100s-33.354 63.333-46.222 92c-18.286 40.667-29.63 71-34.032 91s-6.603 33-6.603 39c0 21.333 2.201 42.5 6.603 63.5s10.667 41.5 18.794 61.5c8.127 18.667 18.116 36.5 29.968 53.5s25.227 32.833 40.127 47.5c14.9 14.667 30.984 27.833 48.254 39.5s35.386 21.5 54.349 29.5c20.317 8 41.143 14.167 62.476 18.5s42.836 6.5 64.508 6.5zM390.095 960c-54.18 0-104.804-10-151.873-30s-88.381-47.5-123.936-82.5c-35.556-35-63.492-75.666-83.81-122s-30.476-96.166-30.476-149.5c0-40 17.27-95.833 51.81-167.5s74.159-142.5 118.857-212.5c44.699-70 88.381-130.833 131.048-182.5s72.127-77.5 88.381-77.5v0 0 0 0c16.254 0 45.714 25.833 88.381 77.5s86.349 112.666 131.048 183c44.699 70.334 84.317 141.333 118.857 213s51.81 127.166 51.81 166.5c0 53.334-10.159 103.166-30.476 149.5s-48.254 87-83.809 122c-35.556 35-76.867 62.5-123.937 82.5s-97.693 30-151.873 30v0zM390.095 736c-44.699 0-82.963-15.667-114.794-47s-47.746-69-47.746-113c0-44 15.915-81.667 47.746-113s70.095-47 114.794-47c44.699 0 82.963 15.667 114.794 47s47.746 69 47.746 113c0 44-15.915 81.667-47.746 113s-70.095 47-114.794 47zM390.095 480c-27.090 0-50.116 9.333-69.079 28s-28.444 41.333-28.444 68c0 26.667 9.481 49.333 28.444 68s41.989 28 69.079 28c27.090 0 50.116-9.333 69.079-28s28.444-41.333 28.444-68c0-26.667-9.481-49.333-28.444-68s-41.989-28-69.079-28z" />
<glyph unicode="&#xe90a;" glyph-name="pencil" horiz-adv-x="951" d="M936 727.143l-96.571-96.571-198.095 198.095 96.571 96.571c9.905 9.905 22.286 14.857 37.143 14.857s27.238-4.952 37.143-14.857l123.809-123.81c9.905-9.905 14.857-22.286 14.857-37.143s-4.952-27.238-14.857-37.143zM0 187.333l584.381 584.381 198.095-198.095-584.381-584.381h-198.095v198.095z" />
<glyph unicode="&#xe90b;" glyph-name="people" horiz-adv-x="1570" d="M1111.010 178.119c49.067-18.692 88.203-48.482 117.409-89.371s43.81-87.035 43.81-138.438h-974.324c0 84.115 31.543 148.368 94.629 192.762 23.365 16.356 80.609 35.048 171.733 56.076 56.076 7.009 86.451 22.197 91.124 45.562 2.337 9.346 3.505 36.216 3.505 80.61 0 7.009-2.337 12.851-7.010 17.524-9.346 9.346-18.692 25.702-28.038 49.067-4.673 18.692-9.346 46.73-14.019 84.114-9.346-2.337-16.94 1.168-22.781 10.514s-10.514 21.613-14.019 36.8c-3.505 15.187-5.257 23.949-5.257 26.286-9.346 51.404-5.841 75.937 10.514 73.6-7.009 9.346-12.851 31.543-17.524 66.591-7.010 51.403-3.505 96.965 10.514 136.686 16.356 44.394 45.562 78.273 87.619 101.638s87.619 33.879 136.686 31.543c46.73-2.337 89.371-16.355 127.924-42.057s64.838-60.749 78.857-105.143c11.683-32.711 12.851-78.273 3.505-136.686-4.673-28.038-9.346-45.562-14.019-52.571 7.009 2.337 12.267 0 15.772-7.009s4.673-15.771 3.505-26.286c-1.168-10.514-2.336-19.86-3.505-28.038s-2.921-14.603-5.257-19.276l-7.010-24.533c-2.337-16.356-6.425-28.038-12.267-35.048s-13.435-9.346-22.781-7.010c-4.673-51.403-12.851-87.619-24.533-108.648 0-2.337-4.089-8.178-12.267-17.524s-12.267-15.187-12.267-17.524v-38.552c0-23.365 2.337-40.889 7.010-52.571s21.028-21.029 49.067-28.038c16.356-7.010 40.305-12.851 71.848-17.524s55.492-10.514 71.848-17.524zM392.533 223.681v0zM389.029 223.681c-32.711-18.692-60.749-40.889-84.114-66.591-11.683-25.702-19.86-38.552-24.533-38.552h-280.381c0 70.096 35.047 116.825 105.143 140.19 2.336 0 12.851 2.337 31.543 7.010s35.048 9.346 49.067 14.019c14.019 4.673 22.197 10.514 24.533 17.524s3.505 25.702 3.505 56.076c-46.73-4.673-84.114 3.505-112.152 24.533l14.019 42.057c2.337 4.673 4.673 11.098 7.010 19.276s3.505 14.603 3.505 19.276c2.337 21.029 3.505 53.739 3.505 98.133 0 86.451 9.346 143.695 28.038 171.733 25.702 42.057 70.095 63.086 133.181 63.086 95.797 0 150.705-43.225 164.724-129.676 4.673-21.029 7.010-51.987 7.010-92.876v-75.352c0-25.702 5.841-53.74 17.524-84.114 9.346-18.692 12.851-29.206 10.514-31.543l-21.029-10.514c-11.683-4.673-31.543-9.346-59.581-14.019-18.692 0-29.206-1.168-31.543-3.505v-38.552c0-14.019 5.841-22.197 17.524-24.533 4.673-2.337 13.435-4.673 26.286-7.010s23.949-5.257 33.295-8.762c9.346-3.505 16.356-7.594 21.029-12.267 7.009-11.683 4.673-17.524-7.010-17.524-32.711-4.673-57.244-10.514-73.6-17.524h-3.505l-17.524-7.010h3.505c4.673 2.337 8.178 4.673 10.514 7.010zM1461.486 258.729c72.432-23.365 108.648-70.095 108.648-140.19h-280.381c-4.673 16.356-23.365 38.552-56.076 66.59-39.721 30.375-72.432 47.898-98.133 52.571h-17.524c-9.346 0-16.94 1.168-22.781 3.505s-7.594 7.010-5.257 14.019c4.673 7.010 19.86 14.019 45.562 21.029 35.048 9.346 53.74 17.524 56.076 24.533v49.067c-14.019 0-35.047 2.337-63.086 7.009-14.019 4.673-26.87 9.346-38.552 14.019-9.346 4.673-9.346 17.524 0 38.552 7.009 16.356 12.851 75.936 17.524 178.743s36.216 165.892 94.629 189.257c58.413 23.365 114.489 19.86 168.229-10.514 46.73-28.038 70.095-79.441 70.095-154.21 0-9.346-0.584-26.87-1.752-52.571s-1.752-45.562-1.752-59.581c0-14.019 2.337-31.543 7.010-52.571s11.682-38.552 21.029-52.571c7.010-11.683 7.010-18.692 0-21.029-2.337-2.337-5.841-3.505-10.514-3.505s-8.178-1.168-10.514-3.505l-42.057-10.514c-9.346-2.337-24.533-3.505-45.562-3.505 0-37.384 1.168-57.244 3.505-59.581 7.009-7.009 16.355-12.851 28.038-17.524s25.117-8.178 40.305-10.514c15.187-2.337 26.286-4.673 33.295-7.010z" />
<glyph unicode="&#xe90c;" glyph-name="search" d="M708.923 526.769c0 75.898-26.974 140.82-80.923 194.769s-118.872 80.923-194.769 80.923c-75.898 0-140.82-26.974-194.769-80.923s-80.923-118.871-80.923-194.769c0-75.898 26.974-140.82 80.923-194.769s118.871-80.923 194.769-80.923c75.898 0 140.82 26.974 194.769 80.923s80.923 118.871 80.923 194.769zM1024 14.769c0-21.333-7.795-39.795-23.384-55.385s-34.051-23.385-55.385-23.385c-22.154 0-40.615 7.795-55.385 23.385l-211.077 210.462c-73.436-50.872-155.282-76.308-245.538-76.308-58.667 0-114.769 11.385-168.308 34.154s-99.692 53.538-138.462 92.308c-38.769 38.769-69.538 84.923-92.308 138.462s-34.154 109.641-34.154 168.308c0 58.667 11.385 114.769 34.154 168.308s53.538 99.692 92.308 138.462c38.769 38.769 84.923 69.538 138.462 92.308s109.641 34.154 168.308 34.154c58.667 0 114.769-11.384 168.308-34.154s99.692-53.538 138.462-92.308c38.769-38.769 69.538-84.923 92.308-138.462s34.154-109.641 34.154-168.308c0-90.257-25.436-172.102-76.308-245.538l211.077-211.077c15.18-15.18 22.769-33.641 22.769-55.385z" />
<glyph unicode="&#xe90d;" glyph-name="setting" d="M899.804 397.929l115.359-83.452c9.818-9.818 11.454-21.272 4.909-34.362l-105.542-174.266c-6.545-13.091-16.363-17.181-29.454-12.272l-132.541 51.544c-40.908-27.817-70.361-44.998-88.361-51.544l-19.636-134.995c-3.273-13.090-12.272-19.636-26.999-19.636h-208.629c-14.727 0-23.726 6.545-26.999 19.636l-19.636 134.995c-24.545 9.818-53.998 26.999-88.361 51.544l-132.541-51.544c-13.090-6.545-22.908-2.455-29.454 12.272l-105.542 174.266c-8.182 14.727-6.545 26.181 4.909 34.362l110.451 83.452c0 4.909-0.409 13.090-1.227 24.545s-1.227 20.454-1.227 26.999c0 6.545 0.409 15.545 1.227 26.999s1.227 19.636 1.227 24.545l-112.905 83.452c-9.818 9.818-11.454 21.272-4.909 34.362l105.542 174.266c6.545 13.091 16.363 17.181 29.454 12.272l132.541-51.544c40.908 27.817 70.361 44.998 88.361 51.544l19.636 134.995c3.273 13.091 12.272 19.636 26.999 19.636h208.629c14.727 0 23.726-6.545 26.999-19.636l17.181-134.995c24.545-9.818 53.998-26.999 88.36-51.544l130.086 51.544c13.091 6.545 23.726 2.454 31.908-12.272l105.542-174.266c8.182-14.727 6.545-26.181-4.909-34.362l-110.451-83.452c0-4.909 0.409-13.090 1.227-24.545s1.227-20.454 1.227-26.999c0-24.545-0.818-41.726-2.454-51.544zM509.546 270.297c50.726 0 94.087 17.181 130.086 51.544s53.998 76.906 53.998 127.632c0 50.726-17.999 93.269-53.998 127.632s-79.361 51.544-130.086 51.544c-50.726 0-93.678-17.181-128.859-51.544s-52.771-76.906-52.771-127.632c0-50.726 17.59-93.269 52.771-127.632s78.133-51.544 128.859-51.544z" />
<glyph unicode="&#xe90e;" glyph-name="star-2" horiz-adv-x="1097" d="M35.787 568.685c8.587 27.193 45.798 40.789 111.634 40.789h247.956l75.675 228.098v1.073c13.596 40.789 29.518 68.429 47.766 82.92s36.406 14.491 54.475 0c18.069-14.491 33.902-42.131 47.498-82.92l0.537-1.073 75.138-228.098h247.955c42.936 0 74.065-6.261 93.386-18.784s24.778-29.429 16.369-50.718c-8.408-21.289-30.144-44.457-65.209-69.503l-5.367-4.294-194.286-139.005 74.601-227.561 1.61-2.147c20.037-62.258 18.427-102.062-4.83-119.416s-61.541-6.888-114.854 31.397l-3.22 2.147-2.683 1.61-194.285 139.542-196.969-141.152-2.147-2.147c-53.313-38.285-91.776-48.75-115.391-31.397s-25.046 57.158-4.294 119.416l0.537 1.073v1.61l74.601 227.024-194.285 139.005-2.147 2.147-2.684 2.147c-53.312 38.285-75.675 71.023-67.088 98.216z" />
<glyph unicode="&#xe90f;" glyph-name="star" horiz-adv-x="1084" d="M1075.802 562.357c0-9.483-5.603-19.828-16.809-31.036l-234.685-228.887 55.6-323.288c0.431-3.017 0.647-7.328 0.647-12.931 0-9.052-2.263-16.703-6.788-22.953s-11.098-9.376-19.719-9.376c-8.189 0-16.809 2.587-25.861 7.759l-290.286 152.592-290.286-152.592c-9.482-5.172-18.102-7.759-25.861-7.759-9.051 0-15.84 3.125-20.365 9.376s-6.788 13.901-6.788 22.953c0 2.587 0.431 6.897 1.293 12.931l55.6 323.288-235.332 228.887c-10.775 11.638-16.163 21.983-16.163 31.036 0 15.948 12.068 25.863 36.205 29.742l324.551 47.2 145.466 294.192c8.189 17.673 18.749 26.51 31.679 26.51s23.49-8.837 31.679-26.51l145.466-294.192 324.551-47.2c24.137-3.88 36.205-13.794 36.205-29.742z" />
<glyph unicode="&#xe910;" glyph-name="time" d="M512 960c-70.564 0-137.025-13.333-199.385-40s-116.718-63.179-163.077-109.539c-46.359-46.359-82.872-100.718-109.539-163.077s-40-128.82-40-199.385c0-70.564 13.333-137.025 40-199.385s63.179-116.718 109.539-163.077c46.359-46.359 100.718-82.872 163.077-109.539s128.82-40 199.385-40c70.564 0 137.025 13.333 199.385 40s116.718 63.179 163.077 109.539c46.359 46.359 82.872 100.718 109.539 163.077s40 128.82 40 199.385c0 70.564-13.333 137.025-40 199.385s-63.179 116.718-109.539 163.077c-46.359 46.359-100.718 82.872-163.077 109.539s-128.82 40-199.385 40zM508.308 33.231c-57.436 0-111.179 10.872-161.231 32.615s-93.949 51.282-131.692 88.615c-37.744 37.333-67.282 81.23-88.616 131.692s-32 104-32 160.616c0 57.436 10.667 111.179 32 161.231s50.872 93.743 88.616 131.077c37.744 37.334 81.641 66.872 131.692 88.615s103.795 32.616 161.231 32.616c56.616 0 110.154-10.872 160.615-32.616s94.359-51.282 131.692-88.615c37.334-37.333 66.872-81.025 88.615-131.077s32.615-103.795 32.615-161.231c0-56.616-10.872-110.154-32.615-160.616s-51.282-94.359-88.615-131.692c-37.333-37.334-81.23-66.872-131.692-88.615s-104-32.615-160.615-32.615zM627.692 423.385h-118.154v198.154c0 10.667-3.692 19.897-11.077 27.692s-16.41 11.692-27.077 11.692c-10.667 0-19.897-3.897-27.692-11.692s-11.692-17.026-11.692-27.692v-237.538c0-10.667 3.897-19.692 11.692-27.077s17.026-11.077 27.692-11.077h156.308c10.667 0 19.692 3.692 27.077 11.077s11.077 16.41 11.077 27.077c0 10.667-3.692 19.897-11.077 27.692s-16.41 11.692-27.077 11.692z" />
<glyph unicode="&#xe911;" glyph-name="twitter" horiz-adv-x="1170" d="M1174.273 809.542c-42.588-19.050-88.421-31.899-136.512-37.65 49.102 29.58 86.752 76.435 104.506 132.33-45.927-27.427-96.769-47.328-150.927-58.072-43.34 46.477-105.118 75.536-173.48 75.536-131.244 0-237.655-107.081-237.655-239.174 0-18.718 2.093-36.964 6.161-54.499-197.537 9.986-372.686 105.188-489.915 249.894-20.459-35.307-32.17-76.388-32.17-120.262 0-82.967 41.953-156.184 105.729-199.064-38.943 1.254-75.605 12.021-107.657 29.935-0.024-0.994-0.024-2.011-0.024-3.029 0-115.86 81.931-212.505 190.67-234.513-19.942-5.443-40.942-8.377-62.624-8.377-15.333 0-30.218 1.491-44.728 4.307 30.265-95.012 118.028-164.182 222.017-166.099-81.343-64.154-183.803-102.395-295.176-102.395-19.166 0-38.096 1.136-56.698 3.36 105.212-67.893 230.13-107.459 364.338-107.459 437.191 0 676.234 364.429 676.234 680.489 0 10.365-0.212 20.706-0.658 30.976 46.421 33.651 86.728 75.797 118.569 123.764v0z" />
<glyph unicode="&#xe912;" glyph-name="logo" horiz-adv-x="10524" d="M486.384 41.436c-74.455-45.798-143.151-51.554-229.062-51.554h-257.685v933.413h234.775c120.253 0 234.775-34.363 286.308-154.623 11.453-28.65 17.166-62.986 17.166-97.353 0-85.896-40.076-137.426-103.093-188.956 97.353-40.076 154.623-126.003 154.623-229.062 5.743-80.183-28.65-166.052-103.093-211.865zM406.207 780.125c-45.798 51.554-126.003 57.273-188.956 57.273h-126.003v-314.958h114.516c51.554 0 108.803 0 160.336 28.65 45.798 22.901 74.455 80.183 74.455 131.713 5.743 34.363-5.743 62.986-34.363 97.353zM389.035 413.637c-57.273 22.901-120.253 22.901-183.246 22.901h-114.516v-360.757h131.713c57.273 0 120.253 0 177.533 22.901 62.986 28.65 97.353 91.606 97.353 160.336s-45.798 126.003-108.803 154.623zM1580.12-27.294c-263.404 0-492.491 211.865-492.491 475.294 0 274.882 223.352 486.766 492.491 486.766s492.491-211.865 492.491-481.010c0-269.16-229.062-481.010-492.491-481.010zM1580.12 854.564c-223.352 0-400.854-183.246-400.854-400.854s183.246-395.141 400.854-395.141c217.606 0 400.854 177.533 400.854 395.141s-183.246 400.854-400.854 400.854zM3074.72-27.294c-263.404 0-492.491 211.865-492.491 475.294 0 274.882 223.352 486.766 492.491 486.766s492.491-211.865 492.491-481.010c5.743-269.16-223.352-481.010-492.491-481.010zM3074.72 854.564c-223.352 0-400.854-183.246-400.854-400.854s183.246-395.141 400.854-395.141c217.606 0 400.854 177.533 400.854 395.141s-177.533 400.854-400.854 400.854zM4655.203-10.109l-309.215 406.564-120.253-148.907v-257.685h-91.606v933.413h91.606v-538.311l429.474 538.311h120.253l-366.512-452.384 366.512-475.294h-120.253zM5714.625-27.294c-269.16 0-486.766 211.865-486.766 481.010 0 274.882 217.606 481.010 486.766 481.010 143.151 0 274.882-62.986 366.512-166.052 22.901-28.65 45.798-57.273 57.273-85.896h-103.093c-74.455 108.803-194.705 171.807-326.412 171.807-211.865 0-389.41-188.956-389.41-400.854s183.246-395.141 395.141-395.141c137.426 0 246.259 68.699 326.412 177.533h103.093c-85.896-160.336-251.972-263.404-429.474-263.404zM6699.567-10.109v933.413h91.606v-847.523h383.658v-85.896h-475.294zM8274.325 144.495c-51.554-114.516-160.336-171.807-280.595-171.807-126.003 0-229.062 62.986-280.595 171.807-28.65 57.273-34.363 131.713-34.363 194.705v578.363h91.606v-578.363c0-51.554 5.743-126.003 34.363-166.052 40.076-74.455 108.803-114.516 194.705-114.516s148.907 40.076 194.705 114.516c22.901 45.798 34.363 120.253 34.363 166.052v578.363h91.606v-578.363c-5.743-62.986-17.166-137.426-45.798-194.705zM9390.99 41.436c-74.455-45.798-143.151-51.554-229.062-51.554h-257.685v933.413h234.775c120.253 0 234.775-34.363 286.308-154.623 11.453-28.65 17.166-62.986 17.166-97.353 0-85.896-40.076-137.426-103.093-188.956 97.353-40.076 154.623-126.003 154.623-229.062 0-80.183-34.363-166.052-103.093-211.865zM9310.81 780.125c-45.798 51.554-126.003 57.273-188.956 57.273h-126.003v-314.958h114.516c51.554 0 108.803 0 160.336 28.65 45.798 22.901 74.455 80.183 74.455 131.713 5.743 34.363-11.453 62.986-34.363 97.353zM9293.637 413.637c-57.273 22.901-120.253 22.901-183.246 22.901h-114.516v-360.757h131.713c57.273 0 120.253 0 177.533 22.901 62.986 28.65 97.353 91.606 97.353 160.336s-45.798 126.003-108.803 154.623zM9952.165-10.109v85.896l458.109 761.626h-446.671v85.896h549.734v-85.896l-458.109-761.626h469.581v-85.896h-572.644z" />
<glyph unicode="&#xe913;" glyph-name="amazon" horiz-adv-x="964" d="M845.401 140.58c5.552 2.221 10.363 2.776 14.434 1.666s6.107-4.349 6.107-9.715c0-5.367-2.776-11.566-8.327-18.598-4.811-5.922-12.954-13.972-24.427-24.15s-29.146-22.762-53.018-37.751c-23.872-14.989-49.965-28.683-78.278-41.082s-63.103-23.132-104.371-32.199c-41.267-9.068-83.737-13.601-127.41-13.601-44.043 0-88.085 5.737-132.129 17.21s-82.719 25.63-116.029 42.47c-33.31 16.84-65.232 36.085-95.766 57.737s-55.053 41.082-73.559 58.292c-18.505 17.21-34.050 33.402-46.634 48.577-2.961 3.331-4.811 6.384-5.552 9.16s-0.555 4.997 0.555 6.662c1.11 1.665 2.591 2.961 4.441 3.886s3.979 1.295 6.384 1.11c2.406-0.185 4.534-1.018 6.384-2.498 71.061-43.303 126.577-74.022 166.549-92.157 143.973-65.139 291.83-81.794 443.575-49.965 70.321 14.804 142.676 39.786 217.068 74.947zM960.32 204.424c4.071-5.922 4.534-18.783 1.388-38.584s-8.42-38.769-15.822-56.904c-12.584-30.719-28.313-53.666-47.189-68.84-6.292-5.182-11.103-6.847-14.434-4.996s-3.331 6.292 0 13.324c7.772 16.655 16.007 39.139 24.705 67.452s9.9 46.541 3.609 54.683c-1.851 2.591-4.719 4.719-8.605 6.384s-8.883 2.776-14.989 3.331c-6.107 0.555-11.566 1.018-16.377 1.388s-11.288 0.37-19.431 0c-8.142-0.37-13.972-0.74-17.488-1.11s-9.253-0.925-17.21-1.666c-7.957-0.74-12.121-1.11-12.491-1.11-2.221-0.37-4.626-0.648-7.217-0.833s-4.626-0.37-6.107-0.555c-1.48-0.185-3.053-0.37-4.719-0.555s-2.961-0.278-3.886-0.278h-5.552c-0.555 0-1.11 0.093-1.666 0.278s-0.925 0.463-1.11 0.833c-0.185 0.37-0.463 0.925-0.833 1.666-2.221 5.922 6.477 13.324 26.093 22.206s38.676 14.434 57.182 16.655c17.025 2.591 37.011 2.776 59.958 0.555s37.011-6.662 42.192-13.324zM741.586 450.361c0-11.473 2.498-23.317 7.495-35.53s10.918-22.947 17.765-32.199c6.847-9.253 13.787-17.765 20.819-25.537s13.139-13.694 18.32-17.765l7.217-6.107-126.022-124.356c-14.804 13.694-29.424 27.666-43.858 41.915s-25.167 25.075-32.199 32.477l-10.548 11.103c-4.071 4.071-8.697 10.178-13.879 18.32-14.064-21.836-32.107-40.804-54.128-56.904s-45.616-27.851-70.783-35.253c-25.167-7.402-51.075-11.658-77.723-12.769s-52.093 2.776-76.335 11.658c-24.242 8.883-45.986 21.004-65.232 36.363s-34.605 36.27-46.079 62.733c-11.473 26.463-17.21 56.534-17.21 90.214 0 31.089 5.181 59.587 15.545 85.495s23.687 47.466 39.972 64.677c16.285 17.21 35.993 32.569 59.125 46.078s45.801 24.057 68.007 31.644c22.207 7.587 46.263 13.972 72.171 19.153s48.021 8.605 66.342 10.271c18.32 1.666 36.733 2.868 55.239 3.609v70.506c0 24.057-3.886 42.007-11.658 53.851-12.584 19.616-34.975 29.424-67.175 29.424-2.221 0-5.274-0.185-9.16-0.555s-11.381-2.591-22.484-6.662c-11.103-4.071-21.466-9.53-31.089-16.377s-19.986-17.858-31.089-33.032c-11.103-15.175-19.986-32.94-26.648-53.296l-163.218 14.989c0 22.207 4.071 44.228 12.214 66.064s20.541 42.747 37.196 62.733c16.655 19.986 36.641 37.566 59.958 52.74s51.352 27.295 84.107 36.363c32.755 9.068 68.007 13.601 105.758 13.601 37.011 0 70.505-4.626 100.484-13.879s53.943-20.633 71.894-34.143c17.95-13.509 32.94-28.868 44.968-46.078s20.356-33.125 24.982-47.744c4.626-14.619 6.94-28.221 6.94-40.804v-326.991zM368.517 438.703c0-31.83 12.954-56.441 38.861-73.837 24.427-16.285 50.15-20.356 77.168-12.214 31.089 9.253 52.185 32.014 63.288 68.285 5.182 16.655 7.772 35.345 7.772 56.071v89.936c-21.836-0.74-42.377-2.961-61.623-6.662s-38.954-9.9-59.125-18.598c-20.171-8.698-36.271-21.836-48.299-39.417s-18.043-38.769-18.043-63.566z" />
<glyph unicode="&#xe914;" glyph-name="bookmark-2" horiz-adv-x="819" d="M682.667-64h-13.867l-258.133 243-260.267-243h-13.867c-37.689 0-69.867 12.5-96.533 37.5s-40 55.166-40 90.5v768c0 35.334 13.333 65.5 40 90.5s58.844 37.5 96.533 37.5h546.133c37.689 0 69.867-12.5 96.533-37.5s40-55.166 40-90.5v-768c0-35.334-13.333-65.5-40-90.5s-58.844-37.5-96.533-37.5z" />
<glyph unicode="&#xe915;" glyph-name="back" d="M311.568 448.027l462.455 462.455c11.374 11.374 11.374 29.614 0 40.988s-29.614 11.374-40.988 0l-483.056-483.056c-11.374-11.374-11.374-29.614 0-40.988l483.056-482.842c5.58-5.58 13.090-8.584 20.387-8.584s14.807 2.79 20.387 8.584c11.374 11.374 11.374 29.614 0 40.988l-462.24 462.455z" />
<glyph unicode="&#xe916;" glyph-name="checked" d="M11.815 408.615c-7.877 7.877-11.815 19.692-11.815 27.569s3.938 19.692 11.815 27.569l55.138 55.138c15.754 15.754 39.385 15.754 55.138 0l3.938-3.938 216.615-232.369c7.877-7.877 19.692-7.877 27.569 0l527.754 547.446h3.938c15.754 15.754 39.385 15.754 55.138 0l55.138-55.138c15.754-15.754 15.754-39.385 0-55.138v0l-630.154-653.785c-7.877-7.877-15.754-11.815-27.569-11.815s-19.692 3.938-27.569 11.815l-307.2 330.831-7.877 11.815z" />
<glyph unicode="&#xe917;" glyph-name="smiling" d="M874.222 810.174c-199.743 199.762-524.72 199.762-724.425 0.048-199.743-199.714-199.723-524.701 0.019-724.454 199.685-199.704 524.663-199.704 724.386 0.039 199.723 199.714 199.714 524.682 0.019 724.367zM818.329 141.661c-168.905-168.905-443.744-168.924-612.658-0.019-168.943 168.934-168.924 443.802 0 612.707 168.905 168.895 443.734 168.914 612.678-0.019 168.905-168.905 168.885-443.773-0.019-612.668zM320.932 586.631c0 33.059 26.812 59.871 59.871 59.871 33.049 0 59.861-26.802 59.861-59.871 0-33.078-26.812-59.88-59.861-59.88-33.059 0-59.871 26.802-59.871 59.88zM592.402 586.631c0 33.059 26.831 59.871 59.89 59.871 33.049 0 59.861-26.802 59.861-59.871 0-33.078-26.802-59.88-59.861-59.88s-59.89 26.802-59.89 59.88zM733.944 341.423c-37.104-85.804-123.999-141.243-221.36-141.243-99.456 0-186.863 55.719-222.683 141.958-6.141 14.763 0.859 31.717 15.641 37.857 3.63 1.497 7.396 2.211 11.103 2.211 11.354 0 22.129-6.71 26.754-17.862 26.812-64.553 93.219-106.244 169.185-106.244 74.247 0 140.268 41.719 168.19 106.311 6.353 14.685 23.404 21.453 38.079 15.091s21.444-23.404 15.091-38.079z" />
</font>
</defs>
</svg>
