<?xml version="1.0" encoding="UTF-8"?>
<svg width="18px" height="18px" viewBox="0 0 18 18" version="1.1" xmlns="http://www.w3.org/2000/svg" xmlns:xlink="http://www.w3.org/1999/xlink">
    <!-- Generator: Sketch 42 (36781) - http://www.bohemiancoding.com/sketch -->
    <title>Page 1</title>
    <desc>Created with Sketch.</desc>
    <defs></defs>
    <g id="Page-1" stroke="none" stroke-width="1" fill="none" fill-rule="evenodd">
        <g id="05.My_Profile" transform="translate(-1164.000000, -102.000000)" fill="#000000">
            <path d="M1177.52113,111.887324 L1177.52113,110.112676 L1173.88732,110.112676 L1173.88732,106.478873 L1172.11268,106.478873 L1172.11268,110.112676 L1168.47887,110.112676 L1168.47887,111.887324 L1172.11268,111.887324 L1172.11268,115.521127 L1173.88732,115.521127 L1173.88732,111.887324 L1177.52113,111.887324 Z M1173,102 C1175.47888,102 1177.59858,102.880274 1179.35916,104.640844 C1181.11973,106.401416 1182,108.521115 1182,111 C1182,113.478885 1181.11973,115.598584 1179.35916,117.359155 C1177.59858,119.119727 1175.47888,120 1173,120 C1170.52112,120 1168.40142,119.119727 1166.64085,117.359155 C1164.88027,115.598584 1164,113.478885 1164,111 C1164,108.521115 1164.88027,106.401416 1166.64085,104.640844 C1168.40142,102.880274 1170.52112,102 1173,102 Z" id="Page-1"></path>
        </g>
    </g>
</svg>