<?xml version="1.0" encoding="UTF-8"?>
<svg width="15px" height="20px" viewBox="0 0 15 20" version="1.1" xmlns="http://www.w3.org/2000/svg" xmlns:xlink="http://www.w3.org/1999/xlink">
    <!-- Generator: Sketch 42 (36781) - http://www.bohemiancoding.com/sketch -->
    <title>Page 1</title>
    <desc>Created with Sketch.</desc>
    <defs></defs>
    <g id="Page-1" stroke="none" stroke-width="1" fill="none" fill-rule="evenodd">
        <g id="01.-Landing_Page_Updated" transform="translate(-816.000000, -36.000000)" fill="#FFFFFF">
            <path d="M828.5,56 L828.246095,56 L823.51953,51.253905 L818.753905,56 L818.5,56 C817.809893,56 817.220706,55.7558618 816.732422,55.267578 C816.244138,54.7792945 816,54.1901075 816,53.5 L816,38.5 C816,37.8098925 816.244138,37.220705 816.732422,36.7324225 C817.220706,36.2441375 817.809893,36 818.5,36 L828.5,36 C829.190107,36 829.779295,36.2441375 830.267578,36.7324225 C830.755863,37.220705 831,37.8098925 831,38.5 L831,53.5 C831,54.1901075 830.755863,54.7792945 830.267578,55.267578 C829.779295,55.7558618 829.190107,56 828.5,56 Z M818.5,37.25 C818.161457,37.25 817.868491,37.3736975 817.621094,37.621095 C817.373697,37.86849 817.25,38.1614575 817.25,38.5 L817.25,53.5 C817.25,53.7994808 817.347655,54.066405 817.542969,54.3007812 C817.738282,54.5351575 817.979165,54.6783853 818.265625,54.7304688 L823.51953,49.496095 L828.734375,54.7304688 C829.020835,54.6783853 829.261717,54.5351575 829.45703,54.3007812 C829.652345,54.066405 829.75,53.7994808 829.75,53.5 L829.75,38.5 C829.75,38.1614575 829.626302,37.86849 829.378905,37.621095 C829.13151,37.3736975 828.838543,37.25 828.5,37.25 L818.5,37.25 Z" id="Page-1"></path>
        </g>
    </g>
</svg>