<?xml version="1.0" encoding="UTF-8"?>
<svg width="12px" height="15px" viewBox="0 0 12 15" version="1.1" xmlns="http://www.w3.org/2000/svg" xmlns:xlink="http://www.w3.org/1999/xlink">
    <!-- Generator: Sketch 42 (36781) - http://www.bohemiancoding.com/sketch -->
    <title>Page 1</title>
    <desc>Created with Sketch.</desc>
    <defs></defs>
    <g id="Page-1" stroke="none" stroke-width="1" fill="none" fill-rule="evenodd">
        <g id="22.Book_Details" transform="translate(-679.000000, -380.000000)" fill="#0A0A0A">
            <g id="Group-5" transform="translate(645.000000, 361.000000)">
                <path d="M44,34 L43.796876,34 L40.015624,30.4404287 L36.203124,34 L36,34 C35.447914,34 34.9765644,33.8168964 34.5859376,33.4506835 C34.1953105,33.0844709 34,32.6425806 34,32.125 L34,20.875 C34,20.3574194 34.1953105,19.9155288 34.5859376,19.5493169 C34.9765644,19.1831031 35.447914,19 36,19 L44,19 C44.552086,19 45.023436,19.1831031 45.414062,19.5493169 C45.80469,19.9155288 46,20.3574194 46,20.875 L46,32.125 C46,32.6425806 45.80469,33.0844709 45.414062,33.4506835 C45.023436,33.8168964 44.552086,34 44,34 Z" id="Page-1"></path>
            </g>
        </g>
    </g>
</svg>