<?xml version="1.0" encoding="UTF-8"?>
<svg width="16px" height="19px" viewBox="0 0 16 19" version="1.1" xmlns="http://www.w3.org/2000/svg" xmlns:xlink="http://www.w3.org/1999/xlink">
    <!-- Generator: Sketch 42 (36781) - http://www.bohemiancoding.com/sketch -->
    <title>Page 1</title>
    <desc>Created with Sketch.</desc>
    <defs></defs>
    <g id="Page-1" stroke="none" stroke-width="1" fill="none" fill-rule="evenodd">
        <g id="13.My_Club_Create_A_New_Meeting" transform="translate(-630.000000, -529.000000)" fill="#727272">
            <path d="M645.464286,529 L640.285714,529 L635.142857,529 L632.892857,529 C632.107139,529 631.434527,529.284501 630.875,529.853516 C630.315473,530.42253 630.02381,531.11523 630,531.931641 L630,534.417969 L630,536.125 L630,542.619141 L630,544.103516 L630,544.994141 C630,545.835291 630.279759,546.546547 630.839286,547.12793 C631.398812,547.709313 632.083329,548 632.892857,548 L633.392857,548 L638,548 L639.571429,548 L640.321429,548 L642.607143,548 C642.916667,548 643.178571,547.882488 643.392857,547.647461 C643.607143,547.412434 643.714286,547.134116 643.714286,546.8125 L643.714286,534.34375 C643.714286,534.170572 643.660715,534.028321 643.553573,533.916991 C643.446427,533.805663 643.321429,533.75 643.178571,533.75 L632.892857,533.75 C632.392855,533.75 631.976192,533.583009 631.642857,533.249022 C631.309522,532.915038 631.142857,532.500653 631.142857,532.005859 C631.142857,531.511066 631.315475,531.084312 631.660714,530.725585 C632.005954,530.36686 632.416665,530.1875 632.892857,530.1875 L635.142857,530.1875 L640.464286,530.1875 L644.857143,530.1875 L644.857143,543.84375 C644.857143,544.016928 644.916665,544.159179 645.035714,544.270509 C645.154763,544.381837 645.291666,544.4375 645.446427,544.4375 C645.601191,544.4375 645.732142,544.381837 645.839287,544.270509 C645.94643,544.159179 646,544.016928 646,543.84375 L646,529.59375 C646,529.420572 645.94643,529.278321 645.839287,529.166991 C645.732142,529.055663 645.607143,529 645.464286,529 Z M632.892857,534.9375 L642.571429,534.9375 L642.607143,546.8125 L640.321429,546.8125 L639.571429,546.8125 L638,546.8125 L633.392857,546.8125 L632.892857,546.8125 C632.416665,546.8125 632.005954,546.63314 631.660714,546.274414 C631.315475,545.915688 631.142857,545.488934 631.142857,544.994141 L631.142857,544.103516 L631.142857,542.619141 L631.142857,536.125 L631.142857,534.417969 L631.142857,534.34375 C631.64286,534.739584 632.226187,534.9375 632.892857,534.9375 Z" id="Page-1"></path>
        </g>
    </g>
</svg>