<?xml version="1.0" encoding="UTF-8"?>
<svg width="21px" height="22px" viewBox="0 0 21 22" version="1.1" xmlns="http://www.w3.org/2000/svg" xmlns:xlink="http://www.w3.org/1999/xlink">
    <!-- Generator: Sketch 42 (36781) - http://www.bohemiancoding.com/sketch -->
    <title>Page 1</title>
    <desc>Created with Sketch.</desc>
    <defs></defs>
    <g id="Page-1" stroke="none" stroke-width="1" fill="none" fill-rule="evenodd">
        <g id="13.My_Club_Create_A_New_Meeting" transform="translate(-627.000000, -193.000000)" fill="#727272">
            <path d="M642.4,206.75 L643.8,206.75 C644.179168,206.75 644.507291,206.613933 644.784374,206.341795 C645.061459,206.069661 645.2,205.747397 645.2,205.375 L645.2,204 C645.2,203.627603 645.061459,203.305339 644.784374,203.033205 C644.507291,202.761067 644.179168,202.625 643.8,202.625 L642.4,202.625 C642.020832,202.625 641.692709,202.761067 641.415626,203.033205 C641.138541,203.305339 641,203.627603 641,204 L641,205.375 C641,205.747397 641.138541,206.069661 641.415626,206.341795 C641.692709,206.613933 642.020832,206.75 642.4,206.75 Z M642.4,204 L643.8,204 L643.8,205.375 L642.4,205.375 L642.4,204 Z M645.2,194.375 L642.4,194.375 L642.4,193.6875 C642.4,193.5013 642.330731,193.34017 642.192187,193.204102 C642.053646,193.068032 641.889585,193 641.7,193 C641.510415,193 641.346354,193.068032 641.207813,193.204102 C641.069269,193.34017 641,193.5013 641,193.6875 L641,194.375 L634,194.375 L634,193.6875 C634,193.5013 633.930731,193.34017 633.792187,193.204102 C633.653646,193.068032 633.489585,193 633.3,193 C633.110415,193 632.946354,193.068032 632.807813,193.204102 C632.669269,193.34017 632.6,193.5013 632.6,193.6875 L632.6,194.375 L629.8,194.375 C629.02708,194.375 628.36719,194.643551 627.820313,195.180665 C627.273435,195.717775 627,196.365882 627,197.125 L627,212.25 C627,213.009118 627.273435,213.657224 627.820313,214.194336 C628.36719,214.731448 629.02708,215 629.8,215 L645.2,215 C645.97292,215 646.63281,214.731448 647.179687,214.194336 C647.726566,213.657224 648,213.009118 648,212.25 L648,197.125 C648,196.365882 647.726566,195.717775 647.179687,195.180665 C646.63281,194.643551 645.97292,194.375 645.2,194.375 Z M646.6,212.25 C646.6,212.622398 646.461459,212.94466 646.184374,213.216797 C645.907291,213.488934 645.579168,213.625 645.2,213.625 L629.8,213.625 C629.420832,213.625 629.09271,213.488934 628.815625,213.216797 C628.53854,212.94466 628.4,212.622398 628.4,212.25 L628.4,199.875 L646.6,199.875 L646.6,212.25 Z M646.6,198.5 L628.4,198.5 L628.4,197.125 C628.4,196.752603 628.53854,196.430339 628.815625,196.158205 C629.09271,195.886067 629.420832,195.75 629.8,195.75 L632.6,195.75 L632.6,196.4375 C632.6,196.6237 632.669269,196.78483 632.807813,196.920898 C632.946354,197.056968 633.110415,197.125 633.3,197.125 C633.489585,197.125 633.653646,197.056968 633.792187,196.920898 C633.930731,196.78483 634,196.6237 634,196.4375 L634,195.75 L641,195.75 L641,196.4375 C641,196.6237 641.069269,196.78483 641.207813,196.920898 C641.346354,197.056968 641.510415,197.125 641.7,197.125 C641.889585,197.125 642.053646,197.056968 642.192187,196.920898 C642.330731,196.78483 642.4,196.6237 642.4,196.4375 L642.4,195.75 L645.2,195.75 C645.579168,195.75 645.907291,195.886067 646.184374,196.158205 C646.461459,196.430339 646.6,196.752603 646.6,197.125 L646.6,198.5 Z M631.2,212.25 L632.6,212.25 C632.979168,212.25 633.307291,212.113933 633.584374,211.841795 C633.861459,211.569661 634,211.247397 634,210.875 L634,209.5 C634,209.127603 633.861459,208.805339 633.584374,208.533205 C633.307291,208.261067 632.979168,208.125 632.6,208.125 L631.2,208.125 C630.820832,208.125 630.492709,208.261067 630.215626,208.533205 C629.938541,208.805339 629.8,209.127603 629.8,209.5 L629.8,210.875 C629.8,211.247397 629.938541,211.569661 630.215626,211.841795 C630.492709,212.113933 630.820832,212.25 631.2,212.25 Z M631.2,209.5 L632.6,209.5 L632.6,210.875 L631.2,210.875 L631.2,209.5 Z M636.8,212.25 L638.2,212.25 C638.579168,212.25 638.907291,212.113933 639.184374,211.841795 C639.461459,211.569661 639.6,211.247397 639.6,210.875 L639.6,209.5 C639.6,209.127603 639.461459,208.805339 639.184374,208.533205 C638.907291,208.261067 638.579168,208.125 638.2,208.125 L636.8,208.125 C636.420832,208.125 636.092709,208.261067 635.815626,208.533205 C635.538541,208.805339 635.4,209.127603 635.4,209.5 L635.4,210.875 C635.4,211.247397 635.538541,211.569661 635.815626,211.841795 C636.092709,212.113933 636.420832,212.25 636.8,212.25 Z M636.8,209.5 L638.2,209.5 L638.2,210.875 L636.8,210.875 L636.8,209.5 Z M642.4,212.25 L643.8,212.25 C644.179168,212.25 644.507291,212.113933 644.784374,211.841795 C645.061459,211.569661 645.2,211.247397 645.2,210.875 L645.2,209.5 C645.2,209.127603 645.061459,208.805339 644.784374,208.533205 C644.507291,208.261067 644.179168,208.125 643.8,208.125 L642.4,208.125 C642.020832,208.125 641.692709,208.261067 641.415626,208.533205 C641.138541,208.805339 641,209.127603 641,209.5 L641,210.875 C641,211.247397 641.138541,211.569661 641.415626,211.841795 C641.692709,212.113933 642.020832,212.25 642.4,212.25 Z M642.4,209.5 L643.8,209.5 L643.8,210.875 L642.4,210.875 L642.4,209.5 Z M636.8,206.75 L638.2,206.75 C638.579168,206.75 638.907291,206.613933 639.184374,206.341795 C639.461459,206.069661 639.6,205.747397 639.6,205.375 L639.6,204 C639.6,203.627603 639.461459,203.305339 639.184374,203.033205 C638.907291,202.761067 638.579168,202.625 638.2,202.625 L636.8,202.625 C636.420832,202.625 636.092709,202.761067 635.815626,203.033205 C635.538541,203.305339 635.4,203.627603 635.4,204 L635.4,205.375 C635.4,205.747397 635.538541,206.069661 635.815626,206.341795 C636.092709,206.613933 636.420832,206.75 636.8,206.75 Z M636.8,204 L638.2,204 L638.2,205.375 L636.8,205.375 L636.8,204 Z M631.2,206.75 L632.6,206.75 C632.979168,206.75 633.307291,206.613933 633.584374,206.341795 C633.861459,206.069661 634,205.747397 634,205.375 L634,204 C634,203.627603 633.861459,203.305339 633.584374,203.033205 C633.307291,202.761067 632.979168,202.625 632.6,202.625 L631.2,202.625 C630.820832,202.625 630.492709,202.761067 630.215626,203.033205 C629.938541,203.305339 629.8,203.627603 629.8,204 L629.8,205.375 C629.8,205.747397 629.938541,206.069661 630.215626,206.341795 C630.492709,206.613933 630.820832,206.75 631.2,206.75 Z M631.2,204 L632.6,204 L632.6,205.375 L631.2,205.375 L631.2,204 Z" id="Page-1"></path>
        </g>
    </g>
</svg>