<?xml version="1.0" encoding="UTF-8"?>
<svg width="15px" height="13px" viewBox="0 0 15 13" version="1.1" xmlns="http://www.w3.org/2000/svg" xmlns:xlink="http://www.w3.org/1999/xlink">
    <!-- Generator: Sketch 42 (36781) - http://www.bohemiancoding.com/sketch -->
    <title>Page 1</title>
    <desc>Created with Sketch.</desc>
    <defs></defs>
    <g id="Page-1" stroke="none" stroke-width="1" fill="none" fill-rule="evenodd">
        <g id="05.My_Profile" transform="translate(-194.000000, -195.000000)" fill="#2C2827">
            <path d="M206.39916,197.298319 C206.981796,197.298319 207.477588,197.502798 207.886555,197.911765 C208.295521,198.320731 208.5,198.816523 208.5,199.39916 L208.5,204.995798 C208.5,205.578434 208.295521,206.074228 207.886555,206.483193 C207.477588,206.892159 206.981796,207.096639 206.39916,207.096639 L196.60084,207.096639 C196.018204,207.096639 195.522411,206.892159 195.113445,206.483193 C194.70448,206.074228 194.5,205.578434 194.5,204.995798 L194.5,199.39916 C194.5,198.816523 194.70448,198.320731 195.113445,197.911765 C195.522411,197.502798 196.018204,197.298319 196.60084,197.298319 L197.710084,197.298319 L198.415966,196.592437 C198.617647,196.390756 198.875349,196.225492 199.189076,196.096639 C199.502803,195.967786 199.805321,195.903361 200.096639,195.903361 L202.903361,195.903361 C203.194679,195.903361 203.499998,195.967786 203.819328,196.096639 C204.138658,196.225492 204.39916,196.390756 204.60084,196.592437 L205.289916,197.298319 L206.39916,197.298319 Z M201.508403,204.306723 C202.180676,204.306723 202.754899,204.065828 203.231092,203.584034 C203.707286,203.102239 203.945378,202.525214 203.945378,201.852941 C203.945378,201.169464 203.710086,200.589639 203.239496,200.113445 C202.768905,199.637252 202.19188,199.39916 201.508403,199.39916 C200.824926,199.39916 200.245101,199.637252 199.768908,200.113445 C199.292714,200.589639 199.054622,201.169464 199.054622,201.852941 C199.054622,202.525214 199.292714,203.102239 199.768908,203.584034 C200.245101,204.065828 200.824926,204.306723 201.508403,204.306723 Z M205.710084,201.012605 C205.967788,201.012605 206.183473,200.925771 206.357143,200.752101 C206.530813,200.578431 206.617647,200.362746 206.617647,200.105042 C206.617647,199.847338 206.528013,199.628853 206.348739,199.44958 C206.169466,199.270307 205.956584,199.180672 205.710084,199.180672 C205.45238,199.180672 205.233895,199.270307 205.054622,199.44958 C204.875349,199.628853 204.785714,199.847338 204.785714,200.105042 C204.785714,200.351542 204.875349,200.564424 205.054622,200.743697 C205.233895,200.922971 205.45238,201.012605 205.710084,201.012605 Z" id="Page-1"></path>
        </g>
    </g>
</svg>