<?xml version="1.0" encoding="UTF-8"?>
<svg width="17px" height="18px" viewBox="0 0 17 18" version="1.1" xmlns="http://www.w3.org/2000/svg" xmlns:xlink="http://www.w3.org/1999/xlink">
    <!-- Generator: Sketch 42 (36781) - http://www.bohemiancoding.com/sketch -->
    <title>Page 1</title>
    <desc>Created with Sketch.</desc>
    <defs></defs>
    <g id="Page-1" stroke="none" stroke-width="1" fill="none" fill-rule="evenodd">
        <g id="06.My_Profile_Book_I've_Read" transform="translate(-1013.000000, -174.000000)" fill="#000000">
            <path d="M1027.73333,174 L1015.26667,174 C1014.64097,174 1014.10677,174.219724 1013.66406,174.65918 C1013.22135,175.098635 1013,175.628903 1013,176.25 L1013,189.75 C1013,190.371097 1013.22135,190.901365 1013.66406,191.34082 C1014.10677,191.780276 1014.64097,192 1015.26667,192 L1027.73333,192 C1028.35903,192 1028.89323,191.780276 1029.33594,191.34082 C1029.77865,190.901365 1030,190.371097 1030,189.75 L1030,176.25 C1030,175.628903 1029.77865,175.098635 1029.33594,174.65918 C1028.89323,174.219724 1028.35903,174 1027.73333,174 Z M1028.86667,189.75 C1028.86667,190.054689 1028.75451,190.318358 1028.53021,190.541016 C1028.3059,190.763673 1028.04028,190.875 1027.73333,190.875 L1015.26667,190.875 C1014.95972,190.875 1014.6941,190.763673 1014.46979,190.541016 C1014.24549,190.318358 1014.13333,190.054689 1014.13333,189.75 L1014.13333,188.625 L1028.86667,188.625 L1028.86667,189.75 Z M1028.86667,187.5 L1014.13333,187.5 L1014.13333,176.25 C1014.13333,175.945312 1014.24549,175.681641 1014.46979,175.458985 C1014.6941,175.236328 1014.95972,175.125 1015.26667,175.125 L1027.73333,175.125 C1028.04028,175.125 1028.3059,175.236328 1028.53021,175.458985 C1028.75451,175.681641 1028.86667,175.945312 1028.86667,176.25 L1028.86667,187.5 Z M1023.92604,181.470702 L1022.06667,183.703125 L1022.06667,176.8125 C1022.06667,176.660155 1022.01059,176.528321 1021.89844,176.416993 C1021.78628,176.305663 1021.65347,176.25 1021.5,176.25 C1021.34653,176.25 1021.21372,176.305663 1021.10156,176.416993 C1020.98941,176.528321 1020.93333,176.660155 1020.93333,176.8125 L1020.93333,183.720702 L1019.05625,181.470702 C1018.95,181.365233 1018.81719,181.3125 1018.65781,181.3125 C1018.49844,181.3125 1018.36563,181.365233 1018.25937,181.470702 C1018.15312,181.576173 1018.1,181.708007 1018.1,181.866211 C1018.1,182.024416 1018.15312,182.162109 1018.25937,182.279298 L1021.05729,185.636719 C1021.11632,185.695313 1021.1842,185.736329 1021.26094,185.759764 C1021.33767,185.783203 1021.41146,185.794923 1021.48229,185.794923 C1021.56493,185.794923 1021.64462,185.783203 1021.72135,185.759764 C1021.79809,185.736329 1021.86597,185.695313 1021.925,185.636719 L1024.72292,182.279298 C1024.82917,182.162109 1024.88229,182.024416 1024.88229,181.866211 C1024.88229,181.708007 1024.82917,181.576173 1024.72292,181.470702 C1024.61667,181.365233 1024.48386,181.3125 1024.32448,181.3125 C1024.1651,181.3125 1024.03229,181.365233 1023.92604,181.470702 Z" id="Page-1"></path>
        </g>
    </g>
</svg>