<?xml version="1.0" encoding="UTF-8"?>
<svg width="16px" height="17px" viewBox="0 0 16 17" version="1.1" xmlns="http://www.w3.org/2000/svg" xmlns:xlink="http://www.w3.org/1999/xlink">
    <!-- Generator: Sketch 42 (36781) - http://www.bohemiancoding.com/sketch -->
    <title>Group 8</title>
    <desc>Created with Sketch.</desc>
    <defs></defs>
    <g id="Page-1" stroke="none" stroke-width="1" fill="none" fill-rule="evenodd">
        <g id="17.Top_Books" transform="translate(-499.000000, -628.000000)" fill="#C9C9C9">
            <g id="Group-8" transform="translate(499.000000, 628.000000)">
                <path d="M14.0349805,13.6036468 C14.1271484,13.5667787 14.2070243,13.5575628 14.2746123,13.5759968 C14.3422002,13.5944287 14.3759942,13.6481927 14.3759942,13.7372866 C14.3759942,13.8263806 14.3299122,13.9292984 14.2377463,14.0460403 C14.1578684,14.1443523 14.0226946,14.2779901 13.8322167,14.4469619 C13.6417409,14.6159328 13.3483492,14.8248395 12.9520356,15.0736879 C12.5557219,15.3225363 12.1225464,15.5498758 11.6525008,15.7557134 C11.1824532,15.9615511 10.604888,16.1397363 9.91978651,16.2902741 C9.23468507,16.4408121 8.529626,16.5160799 7.80458455,16.5160799 C7.07340117,16.5160799 6.34222812,16.4208431 5.61104268,16.2303664 C4.87985931,16.0398899 4.23777812,15.8048698 3.6847826,15.5252995 C3.13178502,15.2457289 2.6018377,14.9262247 2.09492411,14.566777 C1.58801114,14.2073301 1.18095046,13.8847525 0.873730114,13.5990388 C0.56650997,13.313323 0.308448698,13.0445093 0.0995389301,12.7925896 C0.0503836905,12.7372896 0.0196621096,12.6865976 0.00737330176,12.6405157 C-0.00491550814,12.5944317 -0.00184335211,12.5575657 0.016589871,12.5299158 C0.0350230755,12.5022678 0.0596003444,12.4807618 0.0903223588,12.4653998 C0.121044394,12.4500399 0.156374188,12.4438959 0.196312774,12.4469679 C0.236251545,12.4500399 0.271581298,12.4638638 0.302303272,12.4884418 C1.4820291,13.2073372 2.40367571,13.7173166 3.06727115,14.0183924 C5.4574452,15.0998069 7.9121001,15.3763009 10.431306,14.8478821 C11.5987431,14.6021059 12.7999555,14.1873643 14.0349805,13.6036468 Z M15.9428107,12.5437418 C16.0103986,12.6420517 16.0180786,12.8555674 15.9658506,13.1842932 C15.9136247,13.5130189 15.8260668,13.8279145 15.7031789,14.1289902 C15.494269,14.6389758 15.2331354,15.0199233 14.9197716,15.2718439 C14.8153157,15.3578657 14.7354398,15.385515 14.6801398,15.354793 C14.6248419,15.3240711 14.6248419,15.2503392 14.6801398,15.1335955 C14.8091738,14.8570973 14.9458836,14.4838302 15.0902775,14.0137823 C15.2346713,13.5437368 15.2546393,13.2411291 15.1501854,13.1059512 C15.1194634,13.0629413 15.0718455,13.0276113 15.0073296,12.9999613 C14.9428116,12.9723114 14.8598637,12.9538794 14.7584818,12.9446614 C14.6570978,12.9354454 14.56647,12.9277654 14.486592,12.9216214 C14.4067161,12.9154754 14.2991903,12.9154754 14.1640123,12.9216214 C14.0288365,12.9277654 13.9320626,12.9339094 13.8736906,12.9400534 C13.8153187,12.9461974 13.7200828,12.9554154 13.587979,12.9677034 C13.455873,12.9799913 13.3867491,12.9861374 13.3806051,12.9861374 C13.3437392,12.9922814 13.3038012,12.9968893 13.2607892,12.9999613 C13.2177793,13.0030333 13.1839853,13.0061053 13.1594073,13.0091773 C13.1348293,13.0122493 13.1087174,13.0153213 13.0810674,13.0183953 C13.0534174,13.0214673 13.0319114,13.0230033 13.0165515,13.0230033 L12.9658595,13.0230033 L12.9243856,13.0230033 C12.9151696,13.0230033 12.9059516,13.0214673 12.8967356,13.0183953 C12.8875196,13.0153213 12.8813756,13.0107133 12.8783036,13.0045693 C12.8752296,12.9984253 12.8706216,12.9892094 12.8644776,12.9769193 C12.8276117,12.8786094 12.9720035,12.7557236 13.2976572,12.6082577 C13.6233089,12.4607918 13.9397426,12.368628 14.2469623,12.33176 C14.529604,12.28875 14.8613976,12.285678 15.2423513,12.322544 C15.623305,12.3594099 15.8567887,12.4331419 15.9428107,12.5437418 Z M12.3114842,8.46080374 C12.3114842,8.65128162 12.3529581,8.84789936 12.4359081,9.05066521 C12.518858,9.25342899 12.6171658,9.43161479 12.7308378,9.58522465 C12.8445097,9.73883452 12.9597155,9.88015436 13.0764594,10.0091862 C13.1932034,10.1382202 13.2945832,10.236528 13.3806051,10.3041159 L13.500421,10.4054999 L11.4082611,12.4700099 C11.1624853,12.242666 10.9197835,12.0107183 10.6801517,11.7741585 C10.4405199,11.5375987 10.2623362,11.3578769 10.1455923,11.234989 L9.97047643,11.0506593 C9.9028885,10.9830693 9.8260846,10.8816894 9.74006266,10.7465115 C9.50657484,11.1090312 9.20704128,11.4239268 8.84144753,11.6912086 C8.47585584,11.9584904 8.08415636,12.1535721 7.6663367,12.2764621 C7.24851704,12.39935 6.81841561,12.4700099 6.37601796,12.4884418 C5.9336203,12.5068758 5.51119885,12.4423599 5.10874121,12.294894 C4.7062815,12.1474281 4.345304,11.9462024 4.02579424,11.6912086 C3.70628448,11.4362168 3.45129685,11.0890633 3.26081896,10.6497376 C3.07034314,10.210412 2.9751073,9.7111866 2.9751073,9.1520471 C2.9751073,8.63591548 3.06112717,8.16280411 3.23317104,7.73269649 C3.40521286,7.3025868 3.62640858,6.94468128 3.89676236,6.65896548 C4.16711614,6.37325175 4.49430175,6.11826206 4.87832744,5.89399228 C5.26235107,5.66972043 5.6386906,5.49460869 6.00735634,5.36864674 C6.37602002,5.24268686 6.77539948,5.13669698 7.20550917,5.05067711 C7.63561679,4.96465517 8.00274034,4.90781921 8.30688808,4.88016923 C8.61103582,4.85251924 8.91671543,4.8325513 9.22393516,4.82026128 L9.22393516,3.64975844 C9.22393516,3.25037278 9.15942129,2.95237315 9.03038735,2.75575129 C8.82147752,2.43009961 8.44974805,2.26727377 7.91518447,2.26727377 C7.87831645,2.26727377 7.82762654,2.27034576 7.7631106,2.27649181 C7.69859467,2.28263579 7.57417284,2.31950175 7.38983894,2.38708967 C7.2055071,2.4546776 7.03346735,2.54530753 6.87371144,2.65897738 C6.7139576,2.7726493 6.54191785,2.95544308 6.35758395,3.20736285 C6.17325211,3.45928468 6.02578829,3.75421232 5.91519042,4.09215402 L3.20552106,3.84330625 C3.20552106,3.47464257 3.27310693,3.10905501 3.40828485,2.74653532 C3.54346277,2.38401562 3.74929648,2.03686207 4.02579424,1.70506435 C4.30229199,1.37326663 4.63408559,1.08141098 5.02118328,0.82949121 C5.40828096,0.577569379 5.87371235,0.376343655 6.4174919,0.22580578 C6.96127144,0.0752679052 7.54651873,0 8.17324822,0 C8.78768769,0 9.343749,0.0768039006 9.84144455,0.230413766 C10.3391422,0.384023632 10.7369856,0.572961393 11.0349894,0.797233242 C11.3329931,1.02150303 11.5818389,1.27649272 11.7815327,1.56220645 C11.9812245,1.84792225 12.1194724,2.11212791 12.1962763,2.35483171 C12.2730822,2.5975355 12.3114842,2.82333922 12.3114842,3.03224905 L12.3114842,8.46080374 Z M6.11795421,8.65435155 C6.11795421,9.18277114 6.33300595,9.59136863 6.76311358,9.88015436 C7.16864528,10.1505081 7.59567471,10.2180961 8.04421635,10.0829202 C8.56034591,9.92930827 8.91057145,9.55143482 9.09490329,8.94928125 C9.18092523,8.6727835 9.22393516,8.3624959 9.22393516,8.01841022 L9.22393516,6.52532562 C8.86141547,6.53761565 8.5204059,6.57448161 8.20089821,6.63592555 C7.88138845,6.6973695 7.55420284,6.80028532 7.21933312,6.94467922 C6.88446341,7.08907311 6.61718575,7.30719685 6.4174919,7.59905662 C6.2178001,7.89091434 6.11795421,8.24267794 6.11795421,8.65435155 Z" id="Page-1"></path>
            </g>
        </g>
    </g>
</svg>