<?xml version="1.0" encoding="UTF-8"?>
<svg width="16px" height="16px" viewBox="0 0 16 16" version="1.1" xmlns="http://www.w3.org/2000/svg" xmlns:xlink="http://www.w3.org/1999/xlink">
    <!-- Generator: Sketch 42 (36781) - http://www.bohemiancoding.com/sketch -->
    <title>Instagram</title>
    <desc>Created with Sketch.</desc>
    <defs></defs>
    <g id="Page-1" stroke="none" stroke-width="1" fill="none" fill-rule="evenodd">
        <g id="05.My_Profile" transform="translate(-1403.000000, -1615.000000)" fill="#FFFFFF">
            <g id="Group-2" transform="translate(0.000000, 1592.000000)">
                <g id="Instagram" transform="translate(1403.000000, 23.000000)">
                    <path d="M12.4592814,0.142857143 L3.22840175,0.142857143 C1.62497119,0.142857143 0.320495605,1.44300843 0.320495605,3.04149557 L0.320495605,6.1035228 L0.320495605,12.2442187 C0.320495605,13.8427059 1.62497119,15.1428571 3.22840175,15.1428571 L12.4595849,15.1428571 C14.0630154,15.1428571 15.3671875,13.8427059 15.3671875,12.2442187 L15.3671875,6.10322023 L15.3671875,3.041193 C15.366884,1.44270586 14.0627119,0.142857143 12.4592814,0.142857143 L12.4592814,0.142857143 Z M13.6259645,1.8702399 L13.6259645,2.2003458 L13.6259645,4.41275124 L11.0840885,4.42092068 L11.0752868,1.87871191 L13.2933202,1.87145018 L13.6259645,1.8702399 Z M5.6962219,6.10322023 C6.17819194,5.43846985 6.96002747,5.0024638 7.84384155,5.0024638 C8.72765563,5.0024638 9.50949116,5.43846985 9.99085419,6.10322023 C10.3043775,6.53710828 10.4922487,7.06781932 10.4922487,7.64270586 C10.4922487,9.09837908 9.30310601,10.2826453 7.84353805,10.2826453 C6.38305956,10.2826453 5.19513088,9.09837908 5.19513088,7.64270586 C5.19543439,7.06781932 5.38269857,6.53710828 5.6962219,6.10322023 L5.6962219,6.10322023 Z M13.9009424,12.2439161 C13.9009424,13.036957 13.2541677,13.6811325 12.4592814,13.6811325 L3.22840175,13.6811325 C2.43321189,13.6811325 1.78643723,13.036957 1.78643723,12.2439161 L1.78643723,6.10322023 L4.03239334,6.10322023 C3.83845199,6.57886319 3.72949277,7.09837908 3.72949277,7.64270586 C3.72949277,9.90382537 5.57481887,11.7446726 7.84384155,11.7446726 C10.1125607,11.7446726 11.9578868,9.90382537 11.9578868,7.64270586 C11.9578868,7.09837908 11.8483206,6.57886319 11.6543792,6.10322023 L13.9009424,6.10322023 L13.9009424,12.2439161 L13.9009424,12.2439161 Z" id="Icon"></path>
                </g>
            </g>
        </g>
    </g>
</svg>