<?xml version="1.0" encoding="UTF-8"?>
<svg width="16px" height="21px" viewBox="0 0 16 21" version="1.1" xmlns="http://www.w3.org/2000/svg" xmlns:xlink="http://www.w3.org/1999/xlink">
    <!-- Generator: Sketch 42 (36781) - http://www.bohemiancoding.com/sketch -->
    <title>Page 1</title>
    <desc>Created with Sketch.</desc>
    <defs></defs>
    <g id="Page-1" stroke="none" stroke-width="1" fill="none" fill-rule="evenodd">
        <g id="13.My_Club_Create_A_New_Meeting" transform="translate(-629.000000, -271.000000)" fill="#727272">
            <path d="M637,272.3125 C637.444445,272.3125 637.885413,272.356933 638.322917,272.4458 C638.760419,272.53467 639.187499,272.661132 639.604165,272.825194 C639.993059,272.989259 640.364581,273.190917 640.718749,273.430175 C641.072917,273.669436 641.402776,273.939451 641.708333,274.240234 C642.013891,274.541017 642.288192,274.865722 642.531251,275.214356 C642.774307,275.56299 642.979165,275.928708 643.145835,276.311525 C643.312501,276.721681 643.440971,277.142088 643.531251,277.572753 C643.621528,278.003421 643.666667,278.437499 643.666667,278.875 C643.666667,278.998047 643.621528,279.261229 643.531251,279.66455 C643.440971,280.067874 643.208336,280.68652 642.833333,281.520507 C642.569443,282.094731 642.253475,282.716792 641.885416,283.386719 C641.51736,284.056645 641.111115,284.747067 640.666667,285.458007 C640.263888,286.114262 639.847224,286.753415 639.416667,287.375488 C638.986109,287.997563 638.576392,288.56152 638.187499,289.067382 C637.90972,289.409181 637.673613,289.69287 637.479168,289.918457 C637.28472,290.144044 637.125,290.318359 637,290.441406 C636.875,290.318359 636.711805,290.147462 636.510416,289.928711 C636.309027,289.70996 636.076389,289.422853 635.812501,289.067382 C635.40972,288.56152 634.996531,288.000981 634.572917,287.385743 C634.149304,286.770504 633.729168,286.134768 633.312501,285.478516 C632.881941,284.781247 632.48264,284.097661 632.114584,283.427734 C631.746525,282.757808 631.430557,282.128908 631.166667,281.541016 C630.791665,280.707027 630.559028,280.084962 630.46875,279.674806 C630.378472,279.264647 630.333333,278.998047 630.333333,278.875 C630.333333,278.437499 630.378472,278.003421 630.46875,277.572753 C630.559028,277.142088 630.687499,276.721681 630.854167,276.311525 C631.020834,275.928708 631.225693,275.56299 631.46875,275.214356 C631.711808,274.865722 631.986109,274.541017 632.291667,274.240234 C632.597224,273.939451 632.927083,273.669436 633.281251,273.430175 C633.635419,273.190917 634.006941,272.989259 634.395835,272.825194 C634.812501,272.661132 635.239581,272.53467 635.677083,272.4458 C636.114587,272.356933 636.555555,272.3125 637,272.3125 Z M637,271 C635.888883,271 634.850699,271.205076 633.885416,271.615234 C632.920133,272.025393 632.07292,272.589351 631.34375,273.307128 C630.61458,274.024906 630.041669,274.858881 629.625,275.809081 C629.208331,276.759281 629,277.781244 629,278.875 C629,279.695318 629.354163,280.840324 630.0625,282.310059 C630.770837,283.779791 631.583329,285.232414 632.5,286.667969 C633.416672,288.103523 634.312496,289.351068 635.187499,290.410644 C636.062504,291.47022 636.666664,292 637,292 L637,292 L637,292 L637,292 L637,292 C637.333336,292 637.937496,291.47022 638.812501,290.410644 C639.687504,289.351068 640.583328,288.100106 641.5,286.657715 C642.416672,285.215325 643.229163,283.759285 643.937499,282.28955 C644.645837,280.819818 645,279.681644 645,278.875 C645,277.781244 644.791669,276.759281 644.375,275.809081 C643.958331,274.858881 643.385421,274.024906 642.656251,273.307128 C641.92708,272.589351 641.079867,272.025393 640.114584,271.615234 C639.149301,271.205076 638.111117,271 637,271 L637,271 Z M637,275.59375 C636.083328,275.59375 635.298613,275.915037 634.645835,276.557618 C633.993053,277.200198 633.666667,277.972651 633.666667,278.875 C633.666667,279.777349 633.993053,280.549802 634.645835,281.192382 C635.298613,281.834963 636.083328,282.15625 637,282.15625 C637.916672,282.15625 638.701387,281.834963 639.354165,281.192382 C640.006947,280.549802 640.333333,279.777349 640.333333,278.875 C640.333333,277.972651 640.006947,277.200198 639.354165,276.557618 C638.701387,275.915037 637.916672,275.59375 637,275.59375 Z M637,280.84375 C636.444443,280.84375 635.972224,280.652346 635.583333,280.269531 C635.194443,279.886717 635,279.421877 635,278.875 C635,278.328123 635.194443,277.863283 635.583333,277.480469 C635.972224,277.097654 636.444443,276.90625 637,276.90625 C637.555557,276.90625 638.027776,277.097654 638.416667,277.480469 C638.805557,277.863283 639,278.328123 639,278.875 C639,279.421877 638.805557,279.886717 638.416667,280.269531 C638.027776,280.652346 637.555557,280.84375 637,280.84375 Z" id="Page-1"></path>
        </g>
    </g>
</svg>