<?xml version="1.0" encoding="UTF-8"?>
<svg width="23px" height="15px" viewBox="0 0 23 15" version="1.1" xmlns="http://www.w3.org/2000/svg" xmlns:xlink="http://www.w3.org/1999/xlink">
    <!-- Generator: Sketch 42 (36781) - http://www.bohemiancoding.com/sketch -->
    <title>Page 1 Copy</title>
    <desc>Created with Sketch.</desc>
    <defs></defs>
    <g id="Page-1" stroke="none" stroke-width="1" fill="none" fill-rule="evenodd">
        <g id="05.My_Profile" transform="translate(-508.000000, -107.000000)" fill="#0A0A0A">
            <path d="M524.274554,118.453328 C524.993307,118.727139 525.566592,119.163519 525.994418,119.76248 C526.422248,120.361441 526.636161,121.037402 526.636161,121.790382 L525.198661,121.790382 L512.363839,121.790382 C512.363839,120.558233 512.82589,119.617022 513.75,118.966721 C514.092263,118.727137 514.930797,118.453328 516.265625,118.145292 C517.087057,118.042614 517.531995,117.820145 517.600446,117.477882 C517.634674,117.340976 517.651786,116.94738 517.651786,116.297078 C517.651786,116.1944 517.617558,116.108833 517.549107,116.040382 C517.412201,115.903476 517.275299,115.663895 517.138393,115.321632 C517.069942,115.04782 517.001487,114.637109 516.933036,114.089489 C516.79613,114.123716 516.684895,114.072377 516.599332,113.935471 C516.513765,113.798565 516.445314,113.618879 516.393975,113.396407 C516.342632,113.173938 516.316964,113.045591 516.316964,113.011364 C516.180058,112.258383 516.231398,111.899012 516.470982,111.933239 C516.368304,111.796333 516.282737,111.471189 516.214286,110.957792 C516.111607,110.204812 516.162946,109.537408 516.368304,108.95556 C516.607888,108.305258 517.035711,107.808984 517.651786,107.466721 C518.26786,107.124458 518.935265,106.97044 519.654018,107.004667 C520.338544,107.038895 520.963168,107.244249 521.527903,107.620739 C522.092636,107.997229 522.477679,108.510615 522.683036,109.160917 C522.854169,109.640086 522.871281,110.30749 522.734375,111.16315 C522.665924,111.573867 522.597469,111.83056 522.529018,111.933239 C522.631696,111.899012 522.708704,111.933239 522.760046,112.035917 C522.811386,112.138596 522.828498,112.266943 522.811382,112.420964 C522.79427,112.574982 522.777158,112.711884 522.760046,112.831678 C522.742931,112.951469 522.717263,113.045591 522.683036,113.114042 L522.580357,113.473417 C522.54613,113.713002 522.486235,113.884132 522.400668,113.98681 C522.315105,114.089489 522.20387,114.123716 522.066964,114.089489 C521.998513,114.842469 521.878722,115.372971 521.707589,115.681007 C521.707589,115.715234 521.647694,115.800797 521.527903,115.937703 C521.40811,116.074609 521.348214,116.160172 521.348214,116.1944 L521.348214,116.759132 C521.348214,117.101395 521.382442,117.358088 521.450893,117.529221 C521.519344,117.700354 521.758925,117.837257 522.169643,117.939935 C522.409227,118.042614 522.760043,118.12818 523.222097,118.196632 C523.684153,118.265083 524.034969,118.35065 524.274554,118.453328 Z M513.75,117.785917 L513.801339,117.785917 L513.698661,117.785917 L513.75,117.785917 Z M513.698661,117.785917 C513.219492,118.059729 512.808781,118.384874 512.466518,118.761364 C512.295385,119.137854 512.175594,119.326096 512.107143,119.326096 L510.823661,119.326096 L508,119.326096 C508,118.299304 508.513388,117.614788 509.540179,117.272525 C509.574405,117.272525 509.728421,117.238297 510.002232,117.169846 C510.276043,117.101395 510.515624,117.03294 510.720982,116.964489 C510.92634,116.896038 511.046131,116.810471 511.080357,116.707792 C511.114583,116.605114 511.131696,116.331305 511.131696,115.886364 C510.447169,115.954815 509.899556,115.835025 509.488839,115.526989 L509.694196,114.910917 C509.728423,114.842466 509.762649,114.748344 509.796875,114.62855 C509.831101,114.508759 509.848214,114.414637 509.848214,114.346185 C509.882441,114.03815 509.899554,113.558987 509.899554,112.908685 C509.899554,111.642309 510.036457,110.803778 510.310268,110.39306 C510.686758,109.776986 511.33705,109.468953 512.261161,109.468953 C513.66444,109.468953 514.46875,110.10213 514.674107,111.368507 C514.742558,111.676542 514.776786,112.130037 514.776786,112.728999 L514.776786,113.832792 C514.776786,114.209283 514.862349,114.619994 515.033482,115.064935 C515.170388,115.338747 515.221727,115.492762 515.1875,115.526989 L514.879464,115.681007 C514.708331,115.749458 514.417414,115.817913 514.006696,115.886364 C513.732885,115.886364 513.57887,115.903476 513.544643,115.937703 L513.544643,116.502435 C513.544643,116.707792 513.630206,116.827583 513.801339,116.86181 C513.869791,116.896038 513.99814,116.930262 514.186382,116.964489 C514.374627,116.998716 514.537201,117.041496 514.674107,117.092835 C514.811013,117.144178 514.913692,117.204073 514.982143,117.272525 C515.084821,117.443658 515.050597,117.529221 514.879464,117.529221 C514.400295,117.597672 514.040924,117.683239 513.801339,117.785917 L513.75,117.785917 L513.493304,117.888596 L513.544643,117.888596 C513.613094,117.854369 513.664433,117.820145 513.698661,117.785917 Z M529.408482,117.272525 C530.469498,117.614788 531,118.299304 531,119.326096 L526.892857,119.326096 C526.824406,119.086512 526.550597,118.761366 526.071429,118.35065 C525.489581,117.905708 525.010419,117.649012 524.633929,117.58056 L524.377232,117.58056 C524.240326,117.58056 524.129092,117.563448 524.043525,117.529221 C523.957962,117.494994 523.932291,117.426542 523.966518,117.323864 C524.034969,117.221185 524.257438,117.118507 524.633929,117.015828 C525.147325,116.878922 525.42113,116.759132 525.455357,116.656453 L525.455357,115.937703 C525.25,115.937703 524.941968,115.903476 524.53125,115.835025 C524.325893,115.766573 524.137651,115.698119 523.966518,115.629667 C523.829612,115.561216 523.829612,115.372971 523.966518,115.064935 C524.069196,114.825351 524.154763,113.952593 524.223214,112.446632 C524.291666,110.940671 524.753716,110.016573 525.609375,109.67431 C526.465034,109.332047 527.286453,109.383387 528.073661,109.828328 C528.758187,110.239046 529.100446,110.992013 529.100446,112.087257 C529.100446,112.224163 529.09189,112.480856 529.074775,112.857346 C529.057663,113.233836 529.049107,113.524757 529.049107,113.730114 C529.049107,113.935471 529.083334,114.192167 529.151786,114.500203 C529.220237,114.808239 529.322916,115.064935 529.459821,115.270292 C529.5625,115.441426 529.5625,115.544101 529.459821,115.578328 C529.425594,115.612555 529.374255,115.629667 529.305804,115.629667 C529.237352,115.629667 529.186013,115.646779 529.151786,115.681007 L528.535714,115.835025 C528.398808,115.869252 528.176339,115.886364 527.868304,115.886364 C527.868304,116.433984 527.885416,116.724904 527.919643,116.759132 C528.022321,116.86181 528.159224,116.947377 528.330357,117.015828 C528.50149,117.084279 528.698288,117.135619 528.920761,117.169846 C529.14323,117.204073 529.305804,117.238297 529.408482,117.272525 Z" id="Page-1-Copy"></path>
        </g>
    </g>
</svg>