<?xml version="1.0" encoding="UTF-8"?>
<svg width="17px" height="17px" viewBox="0 0 17 17" version="1.1" xmlns="http://www.w3.org/2000/svg" xmlns:xlink="http://www.w3.org/1999/xlink">
    <!-- Generator: Sketch 42 (36781) - http://www.bohemiancoding.com/sketch -->
    <title>Page 1</title>
    <desc>Created with Sketch.</desc>
    <defs></defs>
    <g id="Page-1" stroke="none" stroke-width="1" fill="none" fill-rule="evenodd">
        <g id="06.My_Profile_Book_I've_Read" transform="translate(-530.000000, -175.000000)" fill="#000000">
            <path d="M541.769231,182.192308 C541.769231,180.932285 541.32142,179.85447 540.425783,178.958833 C539.530145,178.063195 538.45233,177.615384 537.192308,177.615384 C535.932285,177.615384 534.854473,178.063195 533.958835,178.958833 C533.063197,179.85447 532.615384,180.932285 532.615384,182.192308 C532.615384,183.45233 533.063197,184.530143 533.958835,185.425781 C534.854473,186.321418 535.932285,186.769231 537.192308,186.769231 C538.45233,186.769231 539.530145,186.321418 540.425783,185.425781 C541.32142,184.530143 541.769231,183.45233 541.769231,182.192308 Z M547,190.692308 C547,191.046476 546.870594,191.352963 546.611781,191.611779 C546.352965,191.870594 546.046478,192 545.692309,192 C545.324519,192 545.018032,191.870594 544.772837,191.611779 L541.26863,188.117787 C540.049473,188.962344 538.690712,189.384616 537.192308,189.384616 C536.218345,189.384616 535.286964,189.195614 534.398137,188.817608 C533.50931,188.439602 532.743092,187.92879 532.099459,187.285156 C531.455826,186.641524 530.945014,185.875305 530.567007,184.986478 C530.189001,184.097651 530,183.16627 530,182.192308 C530,181.218343 530.189001,180.286962 530.567007,179.398137 C530.945014,178.50931 531.455826,177.743092 532.099459,177.099458 C532.743092,176.455825 533.50931,175.945013 534.398137,175.567005 C535.286964,175.188999 536.218345,175 537.192308,175 C538.166272,175 539.097651,175.188999 539.986478,175.567005 C540.875305,175.945013 541.641524,176.455825 542.285158,177.099458 C542.92879,177.743092 543.439602,178.50931 543.817608,179.398137 C544.195616,180.286962 544.384616,181.218343 544.384616,182.192308 C544.384616,183.690712 543.962344,185.049473 543.11779,186.26863 L546.621996,189.772836 C546.874,190.024841 547,190.331328 547,190.692308 Z" id="Page-1"></path>
        </g>
    </g>
</svg>