<?xml version="1.0" encoding="UTF-8"?>
<svg width="16px" height="16px" viewBox="0 0 16 16" version="1.1" xmlns="http://www.w3.org/2000/svg" xmlns:xlink="http://www.w3.org/1999/xlink">
    <!-- Generator: Sketch 42 (36781) - http://www.bohemiancoding.com/sketch -->
    <title>Page 1</title>
    <desc>Created with Sketch.</desc>
    <defs></defs>
    <g id="Page-1" stroke="none" stroke-width="1" fill="none" fill-rule="evenodd">
        <g id="07.My_Profile_Settings_and_Edit_Profile" transform="translate(-505.000000, -111.000000)" fill="#000000">
            <path d="M519.059444,119.782358 L520.861936,121.086289 C521.01534,121.239693 521.040908,121.418662 520.938638,121.623202 L519.289549,124.346116 C519.187279,124.550656 519.033878,124.614573 518.829338,124.537871 L516.758389,123.732502 C516.119204,124.167147 515.658998,124.435601 515.377756,124.537871 L515.070949,126.647171 C515.019815,126.85171 514.879195,126.953978 514.649089,126.953978 L511.389262,126.953978 C511.159156,126.953978 511.018536,126.85171 510.967402,126.647171 L510.660595,124.537871 C510.277083,124.384467 509.816877,124.116013 509.279962,123.732502 L507.209013,124.537871 C507.004474,124.640141 506.851072,124.576223 506.748802,124.346116 L505.099713,121.623202 C504.971876,121.393096 504.997443,121.214127 505.176415,121.086289 L506.902206,119.782358 C506.902206,119.705656 506.895814,119.577821 506.88303,119.398849 C506.870246,119.219877 506.863855,119.079259 506.863855,118.976989 C506.863855,118.874719 506.870246,118.734101 506.88303,118.555129 C506.895814,118.376157 506.902206,118.248322 506.902206,118.17162 L505.138064,116.867689 C504.984659,116.714285 504.959092,116.535316 505.061362,116.330776 L506.710451,113.607862 C506.812721,113.403322 506.966123,113.339405 507.170662,113.416107 L509.241611,114.221476 C509.880796,113.786831 510.341002,113.518377 510.622244,113.416107 L510.929051,111.306807 C510.980185,111.102267 511.120806,111 511.350911,111 L514.610738,111 C514.840844,111 514.981464,111.102267 515.032598,111.306807 L515.301055,113.416107 C515.684566,113.569511 516.144772,113.837965 516.681687,114.221476 L518.714285,113.416107 C518.918825,113.313837 519.085009,113.377756 519.212847,113.607862 L520.861936,116.330776 C520.989774,116.560882 520.964206,116.739851 520.785235,116.867689 L519.059444,118.17162 C519.059444,118.248322 519.065835,118.376157 519.07862,118.555129 C519.091403,118.734101 519.097795,118.874719 519.097795,118.976989 C519.097795,119.360501 519.085012,119.628955 519.059444,119.782358 Z M512.961649,121.776605 C513.754238,121.776605 514.431764,121.508152 514.994247,120.971236 C515.556731,120.434321 515.837967,119.769578 515.837967,118.976989 C515.837967,118.1844 515.556731,117.519657 514.994247,116.982742 C514.431764,116.445827 513.754238,116.177373 512.961649,116.177373 C512.16906,116.177373 511.497926,116.445827 510.948228,116.982742 C510.398527,117.519657 510.123682,118.1844 510.123682,118.976989 C510.123682,119.769578 510.398527,120.434321 510.948228,120.971236 C511.497926,121.508152 512.16906,121.776605 512.961649,121.776605 Z" id="Page-1"></path>
        </g>
    </g>
</svg>