<?xml version="1.0" encoding="UTF-8"?>
<svg width="15px" height="14px" viewBox="0 0 15 14" version="1.1" xmlns="http://www.w3.org/2000/svg" xmlns:xlink="http://www.w3.org/1999/xlink">
    <!-- Generator: Sketch 42 (36781) - http://www.bohemiancoding.com/sketch -->
    <title>Page 1 Copy 7</title>
    <desc>Created with Sketch.</desc>
    <defs></defs>
    <g id="Page-1" stroke="none" stroke-width="1" fill="none" fill-rule="evenodd">
        <g id="12.My_Club_Meeting" transform="translate(-1079.000000, -434.000000)" fill="#5A5A5A">
            <g id="Group" transform="translate(1079.000000, 428.000000)">
                <path d="M0.489276075,11.3500031 C0.606679821,10.9782239 1.11542171,10.7923381 2.0155172,10.7923381 L5.4055345,10.7923381 L6.44014941,7.673817 L6.44014941,7.65914067 C6.62603901,7.10147376 6.84372138,6.72358585 7.09320404,6.52546566 C7.3426867,6.32734735 7.59094274,6.32734735 7.83797966,6.52546566 C8.08501658,6.72358585 8.30147795,7.10147376 8.48736567,7.65914067 L8.49470478,7.673817 L9.52198246,10.7923381 L12.9119979,10.7923381 C13.4990175,10.7923381 13.9245992,10.8779428 14.1887582,11.0491561 C14.4529153,11.2203712 14.5275161,11.4515052 14.4125568,11.7425692 C14.2975994,12.0336333 14.0004266,12.3503739 13.5210273,12.6928004 L13.4476512,12.751502 L10.7914037,14.6519661 L11.8113442,17.7631504 L11.8333558,17.7925011 C12.1072997,18.6436784 12.0852861,19.1878857 11.767317,19.425139 C11.4493498,19.6623924 10.9259327,19.5193087 10.1970507,18.9958836 L10.1530235,18.9665328 L10.1163355,18.9445198 L7.46008987,17.0367174 L4.76715433,18.9665328 L4.73780354,18.9958836 C4.00892149,19.5193087 3.48305863,19.6623924 3.16019805,19.425139 C2.83733747,19.1878857 2.81777153,18.6436784 3.10149647,17.7925011 L3.1088337,17.7778259 L3.1088337,17.7558128 L4.12877415,14.6519661 L1.47252757,12.751502 L1.44317678,12.722153 L1.4064882,12.6928004 C0.677606717,12.1693757 0.371872329,11.7217804 0.489276075,11.3500031 Z" id="Page-1-Copy-7"></path>
            </g>
        </g>
    </g>
</svg>