<?xml version="1.0" encoding="UTF-8"?>
<svg width="18px" height="17px" viewBox="0 0 18 17" version="1.1" xmlns="http://www.w3.org/2000/svg" xmlns:xlink="http://www.w3.org/1999/xlink">
    <!-- Generator: Sketch 42 (36781) - http://www.bohemiancoding.com/sketch -->
    <title>Page 1</title>
    <desc>Created with Sketch.</desc>
    <defs></defs>
    <g id="Page-1" stroke="none" stroke-width="1" fill="none" fill-rule="evenodd">
        <g id="05.My_Profile" transform="translate(-504.000000, -1121.000000)" fill="#0A0A0A">
            <path d="M521.860001,1127.6015 C521.860001,1127.75894 521.766981,1127.93068 521.580939,1128.11674 L517.684796,1131.91663 L518.60785,1137.28371 C518.615005,1137.3338 518.618583,1137.40536 518.618583,1137.49839 C518.618583,1137.64867 518.581017,1137.77569 518.505884,1137.87945 C518.430752,1137.98322 518.321634,1138.0351 518.178522,1138.0351 C518.04257,1138.0351 517.89946,1137.99216 517.749196,1137.90629 L512.930002,1135.37303 L508.110805,1137.90629 C507.953385,1137.99216 507.810278,1138.0351 507.681479,1138.0351 C507.531214,1138.0351 507.418516,1137.98322 507.343384,1137.87945 C507.268252,1137.77569 507.230685,1137.64867 507.230685,1137.49839 C507.230685,1137.45545 507.23784,1137.38389 507.252153,1137.28371 L508.175204,1131.91663 L504.268329,1128.11674 C504.089442,1127.92353 504,1127.75178 504,1127.6015 C504,1127.33673 504.200351,1127.17214 504.601058,1127.10773 L509.98911,1126.32414 L512.404076,1121.4401 C512.54003,1121.1467 512.715337,1121 512.930002,1121 C513.144666,1121 513.319973,1121.1467 513.455927,1121.4401 L515.870891,1126.32414 L521.258943,1127.10773 C521.659651,1127.17214 521.860001,1127.33673 521.860001,1127.6015 Z" id="Page-1"></path>
        </g>
    </g>
</svg>