<?xml version="1.0" encoding="UTF-8"?>
<svg width="19px" height="19px" viewBox="0 0 19 19" version="1.1" xmlns="http://www.w3.org/2000/svg" xmlns:xlink="http://www.w3.org/1999/xlink">
    <!-- Generator: Sketch 42 (36781) - http://www.bohemiancoding.com/sketch -->
    <title>Page 1</title>
    <desc>Created with Sketch.</desc>
    <defs></defs>
    <g id="Page-1" stroke="none" stroke-width="1" fill="none" fill-rule="evenodd">
        <g id="13.My_Club_Create_A_New_Meeting" transform="translate(-933.000000, -195.000000)" fill="#727272">
            <path d="M942.5,195 C941.190698,195 939.957537,195.247395 938.800481,195.742187 C937.643425,196.236982 936.63482,196.914458 935.77464,197.77464 C934.914459,198.63482 934.236982,199.643425 933.742187,200.800481 C933.247393,201.957537 933,203.190698 933,204.5 C933,205.809302 933.247393,207.042463 933.742187,208.199519 C934.236982,209.356575 934.914459,210.36518 935.77464,211.22536 C936.63482,212.085541 937.643425,212.763018 938.800481,213.257813 C939.957537,213.752607 941.190698,214 942.5,214 C943.809302,214 945.042463,213.752607 946.199519,213.257813 C947.356575,212.763018 948.36518,212.085541 949.22536,211.22536 C950.085542,210.36518 950.763018,209.356575 951.257813,208.199519 C951.752605,207.042463 952,205.809302 952,204.5 C952,203.190698 951.752605,201.957537 951.257813,200.800481 C950.763018,199.643425 950.085542,198.63482 949.22536,197.77464 C948.36518,196.914458 947.356575,196.236982 946.199519,195.742187 C945.042463,195.247395 943.809302,195 942.5,195 Z M942.431489,212.195913 C941.365779,212.195913 940.368595,211.994193 939.439904,211.590745 C938.511213,211.187298 937.696718,210.639227 936.996396,209.946514 C936.29607,209.253803 935.747999,208.439308 935.352163,207.503006 C934.956328,206.566703 934.758413,205.573322 934.758413,204.522835 C934.758413,203.457125 934.956328,202.459941 935.352163,201.53125 C935.747999,200.602559 936.29607,199.79187 936.996396,199.099159 C937.696718,198.406446 938.511213,197.858375 939.439904,197.454929 C940.368595,197.05148 941.365779,196.849758 942.431489,196.849758 C943.481976,196.849758 944.475357,197.05148 945.411659,197.454929 C946.347962,197.858375 947.162457,198.406446 947.855168,199.099159 C948.547881,199.79187 949.095952,200.602559 949.499398,201.53125 C949.902847,202.459941 950.104566,203.457125 950.104566,204.522835 C950.104566,205.573322 949.902847,206.566703 949.499398,207.503006 C949.095952,208.439308 948.547881,209.253803 947.855168,209.946514 C947.162457,210.639227 946.347962,211.187298 945.411659,211.590745 C944.475357,211.994193 943.481976,212.195913 942.431489,212.195913 Z M944.646635,204.956731 L942.454327,204.956731 L942.454327,201.28005 C942.454327,201.082131 942.385819,200.910859 942.248797,200.766225 C942.111777,200.621594 941.944311,200.54928 941.746396,200.54928 C941.548477,200.54928 941.377205,200.621594 941.232571,200.766225 C941.08794,200.910859 941.015626,201.082131 941.015626,201.28005 L941.015626,205.6875 C941.015626,205.885419 941.08794,206.052885 941.232571,206.189904 C941.377205,206.326923 941.548477,206.395434 941.746396,206.395434 L944.646635,206.395434 C944.844553,206.395434 945.012019,206.326923 945.149038,206.189904 C945.286058,206.052885 945.354566,205.885419 945.354566,205.6875 C945.354566,205.489581 945.286058,205.31831 945.149038,205.173679 C945.012019,205.029045 944.844553,204.956731 944.646635,204.956731 Z" id="Page-1"></path>
        </g>
    </g>
</svg>