<?xml version="1.0" encoding="UTF-8"?>
<svg width="16px" height="14px" viewBox="0 0 16 14" version="1.1" xmlns="http://www.w3.org/2000/svg" xmlns:xlink="http://www.w3.org/1999/xlink">
    <!-- Generator: Sketch 42 (36781) - http://www.bohemiancoding.com/sketch -->
    <title>Twitter</title>
    <desc>Created with Sketch.</desc>
    <defs></defs>
    <g id="Page-1" stroke="none" stroke-width="1" fill="none" fill-rule="evenodd">
        <g id="05.My_Profile" transform="translate(-1342.000000, -1615.000000)" fill="#FFFFFF">
            <g id="Group-2" transform="translate(0.000000, 1592.000000)">
                <g id="Twitter" transform="translate(1342.000000, 23.000000)">
                    <path d="M16.054514,2.05703961 C15.4722566,2.3174849 14.8456306,2.49316414 14.1881395,2.57178303 C14.8594556,2.16736488 15.3741956,1.52676653 15.6169368,0.762577999 C14.9890247,1.13755451 14.2939168,1.40964704 13.5534757,1.55653171 C12.9609299,0.921109914 12.1163191,0.523809524 11.1816851,0.523809524 C9.38732916,0.523809524 7.93248944,1.98780322 7.93248944,3.79377291 C7.93248944,4.04968872 7.96110397,4.29913383 8.01672546,4.53887291 C5.31602852,4.40234134 2.92141056,3.10076197 1.31867553,1.12234838 C1.03896049,1.60506189 0.878847739,2.16671781 0.878847739,2.76655081 C0.878847739,3.90086284 1.45242433,4.90187864 2.32436363,5.48812319 C1.79194052,5.47097586 1.29070402,5.32376765 0.852483793,5.07885202 C0.852162281,5.09244047 0.852162281,5.10635246 0.852162281,5.12026444 C0.852162281,6.70428945 1.97230849,8.02560443 3.45897786,8.32649153 C3.18633607,8.40090447 2.89922626,8.44102275 2.60279262,8.44102275 C2.3931671,8.44102275 2.18965029,8.42064007 1.99127767,8.38213947 C2.40506302,9.68113056 3.6049441,10.626822 5.02666813,10.6530283 C3.91455971,11.5301303 2.51373393,12.0529621 0.991055267,12.0529621 C0.729023361,12.0529621 0.470206571,12.0374325 0.215890942,12.0070202 C1.65433358,12.9352408 3.36220288,13.4761905 5.19706925,13.4761905 C11.1742903,13.4761905 14.4424551,8.49375888 14.4424551,4.17263183 C14.4424551,4.03092371 14.4395615,3.88953913 14.4334528,3.74912515 C15.0681166,3.28905906 15.6191874,2.71284408 16.054514,2.05703961 L16.054514,2.05703961 Z" id="Icon"></path>
                </g>
            </g>
        </g>
    </g>
</svg>